<?xml version="1.0" standalone="no"?>
<!DOCTYPE svg PUBLIC "-//W3C//DTD SVG 1.1//EN" "http://www.w3.org/Graphics/SVG/1.1/DTD/svg11.dtd" >
<svg xmlns="http://www.w3.org/2000/svg" xmlns:xlink="http://www.w3.org/1999/xlink" version="1.1">
<metadata>
Created by FontForge 20150318 at Mon Jul 20 06:29:20 2015
 By uniteet7
Copyright (c) 2003 CAI978. All rights reserved.http://www.CAI978.com
</metadata>
<defs>
<font id="005CAI978" horiz-adv-x="1024" >
  <font-face 
    font-family="005CAI978"
    font-weight="700"
    font-stretch="normal"
    units-per-em="2048"
    panose-1="2 4 8 3 5 5 6 2 4 3"
    ascent="1556"
    descent="-492"
    x-height="958"
    cap-height="1450"
    bbox="-342 -483 2347 1972"
    underline-thickness="186"
    underline-position="-102"
    unicode-range="U+0020-F002"
  />
<missing-glyph horiz-adv-x="1229" 
d="M102 -362v1806h1024v-1806h-1024zM217 -248h795v1577h-795v-1577z" />
    <glyph glyph-name=".notdef" horiz-adv-x="1229" 
d="M102 -362v1806h1024v-1806h-1024zM217 -248h795v1577h-795v-1577z" />
    <glyph glyph-name=".null" horiz-adv-x="0" 
 />
    <glyph glyph-name="nonmarkingreturn" horiz-adv-x="512" 
 />
    <glyph glyph-name="space" unicode=" " horiz-adv-x="512" 
 />
    <glyph glyph-name="exclam" unicode="!" horiz-adv-x="688" 
d="M270 442l-57 897q0 7 -1 18.5t-1 16.5q0 70 31 96.5t110 26.5q78 0 110 -27t32 -94q0 -15 -0.5 -22.5t-1.5 -13.5l-76 -898h-146zM180 143q0 70 47.5 118t116.5 48q68 0 116 -48.5t48 -117.5q0 -68 -48 -115.5t-116 -47.5q-69 0 -116.5 47t-47.5 116z" />
    <glyph glyph-name="quotedbl" unicode="&#x22;" horiz-adv-x="707" 
d="M543 852h-41l-80 461q-2 12 -3 21t-1 16q0 53 28 83.5t76 30.5q49 0 77 -29.5t28 -80.5q0 -6 -1 -15t-3 -26zM203 852h-41l-80 461q-1 7 -1.5 14.5t-0.5 22.5q0 52 28 83t74 31q48 0 75.5 -29t27.5 -81q0 -16 -0.5 -24.5t-1.5 -16.5z" />
    <glyph glyph-name="numbersign" unicode="#" horiz-adv-x="1575" 
d="M705 852l-91 -252h265l88 252h-262zM711 1464h215l-148 -415h254l150 415h213l-148 -415h283l-74 -199h-278l-88 -248h292l-71 -196h-291l-148 -416h-215l148 416h-254l-150 -416h-215l148 416h-289l74 196h287l88 248h-304l74 199h299z" />
    <glyph glyph-name="dollar" unicode="$" 
d="M449 928v389q-81 -26 -122.5 -72.5t-41.5 -111.5q0 -63 40.5 -114t123.5 -91zM557 -281h-108v256q-170 15 -270.5 78t-100.5 152q0 39 27.5 66.5t68.5 27.5q66 0 109 -82q13 -23 20 -35q27 -43 60.5 -62.5t84.5 -21.5l1 510q-182 76 -269.5 179t-87.5 241q0 154 97 264.5
t260 139.5v174h108v-168q146 -5 247 -76t101 -160q0 -44 -26.5 -73t-65.5 -29q-34 0 -55 19t-43 75q-26 62 -60 87.5t-98 35.5v-440q201 -85 295 -196t94 -261q0 -177 -104 -296.5t-285 -148.5v-256zM557 109q93 18 143 73t50 140q0 77 -48.5 136.5t-144.5 98.5v-448z" />
    <glyph glyph-name="percent" unicode="%" horiz-adv-x="1616" 
d="M1262 692q-54 0 -78.5 -73.5t-24.5 -235.5q0 -163 24.5 -237t78.5 -74q53 0 77.5 74t24.5 237q0 160 -25 234.5t-77 74.5zM1577 371q0 -181 -82 -277t-235 -96q-155 0 -234.5 97.5t-79.5 285.5q0 190 79 285.5t237 95.5q157 0 236 -98t79 -293zM670 1022q0 -181 -81 -277
t-235 -96t-234.5 98t-80.5 285q0 189 80 285t237 96t235.5 -97.5t78.5 -293.5zM354 1343q-53 0 -77.5 -74t-24.5 -237t24.5 -237t77.5 -74q54 0 78.5 74t24.5 237q0 160 -25 235.5t-78 75.5zM272 -25l914 1463h151l-913 -1463h-152z" />
    <glyph glyph-name="ampersand" unicode="&#x26;" horiz-adv-x="1825" 
d="M979 254l-334 487q-87 -71 -128.5 -141.5t-41.5 -146.5q0 -117 80 -205t184 -88q49 0 107.5 23t132.5 71zM809 1036q52 47 76 86.5t24 75.5q0 58 -46.5 105t-104.5 47q-40 0 -67 -26.5t-27 -63.5q0 -38 33.5 -90t111.5 -134zM1655 0q-86 -17 -145.5 -25t-102.5 -8
q-108 0 -190.5 42t-151.5 132q-108 -85 -223.5 -128.5t-233.5 -43.5q-189 0 -308.5 102t-119.5 263q0 122 92.5 246t292.5 268q-69 100 -103 176.5t-34 134.5q0 67 38 128t112 112q59 41 116.5 61.5t116.5 20.5q118 0 200.5 -77t82.5 -183q0 -60 -40 -114t-180 -161
q123 -157 201 -271t131 -214q76 94 115 170t39 127q0 32 -28.5 49.5t-80.5 17.5h-14v99h418v-99q-87 -32 -164 -159q-7 -11 -10 -16t-12 -21q-81 -144 -189 -285q49 -118 134 -174.5t214 -56.5h27v-113z" />
    <glyph glyph-name="quotesingle" unicode="'" horiz-adv-x="365" 
d="M203 852h-41l-80 461q-2 12 -3 21t-1 16q0 53 28 83.5t76 30.5t75.5 -29t27.5 -81q0 -16 -0.5 -24.5t-1.5 -16.5z" />
    <glyph glyph-name="parenleft" unicode="(" horiz-adv-x="692" 
d="M567 -381q-253 190 -371 421t-118 535q0 267 118 487t365 415l80 -93q-176 -139 -264 -349.5t-88 -491.5q0 -262 87 -466.5t265 -359.5z" />
    <glyph glyph-name="parenright" unicode=")" horiz-adv-x="692" 
d="M125 -381l-74 98q178 155 265 359.5t87 466.5q0 282 -87 490.5t-265 350.5l80 93q247 -195 365 -415t118 -487q0 -304 -118 -535t-371 -421z" />
    <glyph glyph-name="asterisk" unicode="*" 
d="M512 752l-246 -144q-7 -4 -14 -6t-14 -2q-20 0 -34 13.5t-14 33.5q0 9 1 13.5t4 9.5l110 264l-214 155q-10 8 -14.5 18t-4.5 21q0 19 14 31t35 12h254l90 271q7 18 19 27.5t28 9.5q15 0 28 -10t19 -27l90 -271h258q20 0 32.5 -12t12.5 -31q0 -11 -4.5 -21t-14.5 -18
l-214 -155l110 -264q3 -5 4 -9.5t1 -13.5q0 -20 -14 -33.5t-34 -13.5q-7 0 -14 2t-14 6z" />
    <glyph glyph-name="plus" unicode="+" horiz-adv-x="1706" 
d="M752 1221h202v-510h498v-199h-498v-512h-202v512h-498v199h498v510z" />
    <glyph glyph-name="comma" unicode="," horiz-adv-x="512" 
d="M45 -348v94q118 25 186 85.5t68 137.5q0 24 -11 34t-46 15q-104 14 -143.5 49t-39.5 107q0 74 48 120t124 46q99 0 167.5 -81t68.5 -202q0 -162 -113 -270.5t-309 -134.5z" />
    <glyph glyph-name="hyphen" unicode="-" horiz-adv-x="692" 
d="M96 356v250h500v-250h-500z" />
    <glyph glyph-name="period" unicode="." horiz-adv-x="512" 
d="M92 145q0 70 47.5 117t116.5 47q68 0 116 -47.5t48 -116.5q0 -68 -48 -115.5t-116 -47.5q-69 0 -116.5 47t-47.5 116z" />
    <glyph glyph-name="slash" unicode="/" horiz-adv-x="573" 
d="M102 -190h-131l498 1687h133z" />
    <glyph glyph-name="zero" unicode="0" 
d="M508 1298q-87 0 -123.5 -131.5t-36.5 -464.5q0 -335 38 -461t130 -126q87 0 123.5 129.5t36.5 466.5q0 339 -37.5 463t-130.5 124zM514 -25q-214 0 -329 195.5t-115 558.5q0 325 120 516t322 191q203 0 322.5 -194t119.5 -529q0 -348 -117 -543t-323 -195z" />
    <glyph glyph-name="one" unicode="1" 
d="M676 287q0 -114 35 -143t163 -29h25v-115h-731v115h20q125 0 160 29t35 143v866q0 43 -22.5 59.5t-88.5 16.5q-38 0 -59.5 -0.5t-42.5 -1.5v94q71 8 184.5 33t321.5 80v-1147z" />
    <glyph glyph-name="two" unicode="2" 
d="M47 0v96q275 268 428.5 505.5t153.5 389.5q0 104 -63.5 171t-162.5 67q-57 0 -122 -28t-146 -87l-65 74q133 128 246.5 189t220.5 61q162 0 259 -96t97 -257q0 -237 -521 -788l-42 -45h319q86 0 131 27t78 94l84 -21l-119 -352h-776z" />
    <glyph glyph-name="three" unicode="3" 
d="M233 643v119q167 13 263 89.5t96 192.5q0 82 -58 135.5t-147 53.5q-60 0 -123.5 -30t-134.5 -91l-59 78q96 124 202.5 184t231.5 60q155 0 258.5 -86t103.5 -213q0 -93 -49.5 -172t-150.5 -146q130 -59 193 -143.5t63 -200.5q0 -215 -173 -358.5t-442 -143.5
q-131 0 -197.5 34.5t-66.5 103.5q0 33 25 58.5t59 25.5q40 0 129 -34t141 -34q106 0 177 69t71 171q0 129 -107.5 203.5t-295.5 74.5h-9z" />
    <glyph glyph-name="four" unicode="4" 
d="M551 -18v364h-500v246l584 821h184v-850h162v-217h-162v-364h-268zM174 563h377v551z" />
    <glyph glyph-name="five" unicode="5" 
d="M129 735l160 641h401q51 0 72 13t37 47l90 -35l-127 -221h-412l-49 -193q321 -51 473 -176.5t152 -337.5q0 -234 -166 -371t-453 -137q-109 0 -159 12.5t-50 38.5q0 14 13.5 41.5t38.5 63.5q24 37 41 55.5t26 18.5q8 -1 36 -16q108 -58 208 -58q126 0 212.5 77t86.5 189
q0 132 -139 210.5t-492 137.5z" />
    <glyph glyph-name="six" unicode="6" 
d="M858 1427l49 -67q-215 -103 -333.5 -230.5t-159.5 -300.5q61 25 107 36.5t81 11.5q161 0 260 -115t99 -303q0 -207 -131.5 -345.5t-329.5 -138.5q-199 0 -322 159.5t-123 416.5q0 172 67.5 330.5t194.5 287.5q112 115 244.5 178t296.5 80zM500 111q78 0 122 85t44 238
q0 139 -43.5 215t-122.5 76q-80 0 -118 -77t-38 -236q0 -147 40 -224t116 -77z" />
    <glyph glyph-name="seven" unicode="7" 
d="M246 -25l467 1170h-346q-79 0 -117.5 -31t-81.5 -127l-94 19l121 407h755v-41l-501 -1397h-203z" />
    <glyph glyph-name="eight" unicode="8" 
d="M598 870q84 60 127 126t43 134q0 82 -63.5 139.5t-155.5 57.5q-89 0 -144 -41.5t-55 -107.5q0 -71 60.5 -146.5t187.5 -161.5zM430 627q-75 -66 -110 -130t-35 -137q0 -111 64.5 -179t168.5 -68q89 0 149 55.5t60 136.5q0 108 -273 305zM332 705q-121 97 -179.5 189.5
t-58.5 186.5q0 149 125 253t311 104q172 0 286 -89.5t114 -222.5q0 -89 -59 -172.5t-173 -154.5q139 -109 201 -208.5t62 -209.5q0 -172 -129.5 -285.5t-327.5 -113.5q-187 0 -314 104.5t-127 253.5q0 87 57 166.5t212 198.5z" />
    <glyph glyph-name="nine" unicode="9" 
d="M516 678q78 0 121 83.5t43 237.5q0 141 -43 217t-121 76t-118 -76.5t-40 -228.5t40.5 -230.5t117.5 -78.5zM166 -25l-49 68q212 101 332.5 230t160.5 300q-57 -22 -104 -33.5t-84 -11.5q-161 0 -260 114.5t-99 301.5q0 207 131.5 345t329.5 138q199 0 322 -158t123 -415
q0 -173 -67.5 -332.5t-194.5 -288.5q-113 -115 -246 -178.5t-295 -79.5z" />
    <glyph glyph-name="colon" unicode=":" horiz-adv-x="688" 
d="M180 813q0 69 47.5 116.5t116.5 47.5q68 0 116 -47.5t48 -116.5t-48 -117.5t-116 -48.5q-69 0 -116.5 48.5t-47.5 117.5zM180 145q0 70 47.5 117t116.5 47q68 0 116 -47.5t48 -116.5q0 -68 -48 -115.5t-116 -47.5q-69 0 -116.5 47t-47.5 116z" />
    <glyph glyph-name="semicolon" unicode=";" horiz-adv-x="688" 
d="M180 813q0 69 47.5 116.5t116.5 47.5q68 0 116 -47.5t48 -116.5t-48 -117.5t-116 -48.5q-69 0 -116.5 48.5t-47.5 117.5zM133 -348v94q117 25 184.5 85t67.5 138q0 24 -11 34t-46 15q-103 14 -142 49t-39 107q0 74 48 120t124 46q99 0 167.5 -81t68.5 -202
q0 -162 -113 -270.5t-309 -134.5z" />
    <glyph glyph-name="less" unicode="&#x3c;" horiz-adv-x="1706" 
d="M1442 1194v-219l-893 -365l893 -364v-219l-1178 485v199z" />
    <glyph glyph-name="equal" unicode="=" horiz-adv-x="1706" 
d="M254 496h1198v-199h-1198v199zM254 926h1198v-199h-1198v199z" />
    <glyph glyph-name="greater" unicode="&#x3e;" horiz-adv-x="1706" 
d="M264 1194l1178 -483v-199l-1178 -485v219l895 364l-895 365v219z" />
    <glyph glyph-name="question" unicode="?" horiz-adv-x="915" 
d="M285 426l-17 307q249 88 316 142.5t67 136.5q0 83 -50.5 141t-136.5 72q-14 2 -83.5 5.5t-112.5 22.5q-34 15 -53.5 45t-19.5 68q0 56 38 85.5t111 29.5q60 0 128 -34t134 -97q102 -99 155.5 -211.5t53.5 -227.5q0 -53 -15 -100.5t-44 -87.5q-50 -68 -178 -124
q-39 -17 -55 -25q-44 -23 -61 -53.5t-22 -94.5h-155zM205 145q0 70 46.5 117t115.5 47q68 0 115.5 -47.5t47.5 -116.5q0 -68 -47.5 -115.5t-115.5 -47.5q-69 0 -115.5 47t-46.5 116z" />
    <glyph glyph-name="at" unicode="@" horiz-adv-x="2019" 
d="M1176 319q-62 -100 -134.5 -148t-160.5 -48q-142 0 -222.5 91t-80.5 251q0 114 50 221.5t144 196.5q69 64 148 97.5t161 33.5q96 0 150.5 -45t71.5 -138l49 164h190l-174 -618l-2 -7q-14 -58 -14 -87q0 -47 20.5 -74t54.5 -27q33 0 85 25t98 63q103 88 158 217t55 285
q0 275 -188.5 446t-489.5 171q-138 0 -262 -38t-228 -112q-173 -121 -266.5 -308.5t-93.5 -416.5q0 -335 210.5 -532t565.5 -197q166 0 319.5 50.5t307.5 156.5l39 -51q-151 -113 -318 -169.5t-348 -56.5q-187 0 -347.5 46t-277.5 133q-151 112 -232 277.5t-81 363.5
q0 155 52 298.5t153 264.5q145 174 346.5 267t435.5 93q349 0 558.5 -189t209.5 -503q0 -161 -59 -299.5t-170 -239.5q-59 -53 -126.5 -80.5t-137.5 -27.5q-98 0 -155 52t-64 148zM1118 948q-62 0 -112.5 -44.5t-100.5 -143.5q-57 -114 -87 -215t-30 -183q0 -79 34.5 -125.5
t92.5 -46.5q64 0 124.5 62t115.5 182q40 92 63 185.5t23 162.5q0 80 -32 123t-91 43z" />
    <glyph glyph-name="A" unicode="A" horiz-adv-x="1479" 
d="M47 0v119q54 13 86.5 50t65.5 132l350 1022q5 18 6.5 26.5t1.5 14.5q0 21 -11 42t-34 44h367l409 -1171q27 -76 62 -115t82 -45v-119h-635v119q66 3 97.5 25t31.5 65q0 13 -4 32.5t-13 49.5l-59 217h-447l-53 -199q-8 -30 -11 -48.5t-3 -33.5q0 -52 31.5 -80t91.5 -28h6
v-119h-418zM449 635h348l-172 522z" />
    <glyph glyph-name="B" unicode="B" horiz-adv-x="1413" 
d="M578 827h5q40 -4 56 -4q129 0 197.5 69.5t68.5 199.5q0 125 -67 186t-205 61q-31 0 -43 -8.5t-12 -30.5v-473zM578 711v-353q0 -124 33 -170.5t116 -46.5q105 0 164 70.5t59 194.5q0 151 -85.5 228t-254.5 77h-32zM66 0v119q96 10 128.5 41.5t32.5 126.5v876
q0 95 -32.5 126.5t-128.5 41.5v119h673q246 0 372 -84t126 -248q0 -124 -85 -213t-245 -131q203 -51 303.5 -145.5t100.5 -235.5q0 -167 -134.5 -280t-340.5 -113h-770z" />
    <glyph glyph-name="C" unicode="C" horiz-adv-x="1479" 
d="M1374 92q-162 -62 -299.5 -92.5t-255.5 -30.5q-334 0 -541.5 204t-207.5 532q0 170 65.5 320.5t190.5 264.5q101 94 230 142.5t278 48.5q119 0 238.5 -34t242.5 -104l33 -313h-127q-50 158 -150 242t-237 84q-182 0 -285 -151t-103 -419q0 -305 121 -493.5t314 -188.5
q138 0 239.5 88t159.5 257h131z" />
    <glyph glyph-name="D" unicode="D" horiz-adv-x="1708" 
d="M578 362q0 -145 43 -190t165 -45q210 0 328.5 149t118.5 414q0 305 -146 473t-409 168q-55 0 -77.5 -22.5t-22.5 -75.5v-871zM66 0v119q96 10 128.5 41.5t32.5 126.5v876q0 95 -32.5 126.5t-128.5 41.5v119h663q411 0 649 -193t238 -526q0 -170 -70 -317.5t-200 -251.5
q-106 -85 -246 -123.5t-344 -38.5h-690z" />
    <glyph glyph-name="E" unicode="E" horiz-adv-x="1360" 
d="M66 0v119q96 10 128.5 41.5t32.5 126.5v876q0 95 -32.5 126.5t-128.5 41.5v119h1138v-299h-110q-43 97 -121 141.5t-205 44.5q-118 0 -151 -15.5t-33 -86.5v-401h153q100 0 152 40t65 130h119v-482h-118q-10 91 -66 140t-152 49h-153v-398q0 -96 40.5 -135t145.5 -39
q139 0 250 64t184 186h115l-86 -389h-1167z" />
    <glyph glyph-name="F" unicode="F" horiz-adv-x="1327" 
d="M66 0v119q96 10 128.5 41.5t32.5 126.5v876q0 95 -32.5 126.5t-128.5 41.5v119h1239v-322h-101q-54 110 -158.5 158.5t-285.5 48.5q-113 0 -144.5 -15.5t-31.5 -84.5v-401h153q100 0 152 40t65 130h119v-482h-118q-10 91 -66 140t-152 49h-153v-398q0 -128 37 -161
t157 -37v-115h-712z" />
    <glyph glyph-name="G" unicode="G" horiz-adv-x="1690" 
d="M1440 86q-286 -71 -405.5 -92t-207.5 -21q-341 0 -551 205.5t-210 538.5q0 166 59 305.5t174 247.5q111 103 254.5 157t306.5 54q143 0 286 -35t294 -107v-311h-103q-80 163 -193 248.5t-247 85.5q-203 0 -328 -160t-125 -424q0 -290 130 -470.5t333 -180.5q43 0 92 11.5
t101 33.5v279q0 102 -31 131t-131 34v109h692v-109q-109 -7 -149.5 -41.5t-40.5 -121.5v-367z" />
    <glyph glyph-name="H" unicode="H" horiz-adv-x="1716" 
d="M66 0v119q96 10 128.5 41.5t32.5 126.5v876q0 95 -32.5 126.5t-128.5 41.5v119h673v-119q-97 -10 -129 -41.5t-32 -126.5v-340h561v340q0 95 -32.5 126.5t-129.5 41.5v119h674v-119q-97 -10 -129.5 -41.5t-32.5 -126.5v-876q0 -95 32.5 -126.5t129.5 -41.5v-119h-674v119
q97 10 129.5 41.5t32.5 126.5v391h-561v-391q0 -95 32 -126.5t129 -41.5v-119h-673z" />
    <glyph glyph-name="I" unicode="I" horiz-adv-x="801" 
d="M63 0v119q97 10 129.5 41.5t32.5 126.5v876q0 95 -32.5 126.5t-129.5 41.5v119h674v-119q-97 -10 -129.5 -41.5t-32.5 -126.5v-876q0 -95 32.5 -126.5t129.5 -41.5v-119h-674z" />
    <glyph glyph-name="J" unicode="J" horiz-adv-x="915" 
d="M160 1331v119h674v-119q-97 -10 -129.5 -41.5t-32.5 -126.5v-977q0 -130 -10 -200.5t-33 -124.5q-50 -118 -161.5 -180t-272.5 -62q-125 0 -197 49t-72 133q0 58 36.5 95.5t90.5 37.5q37 0 63.5 -16t65.5 -69q5 -7 12 -17q39 -55 72 -55q31 0 43.5 21.5t12.5 84.5v1280
q0 95 -32.5 126.5t-129.5 41.5z" />
    <glyph glyph-name="K" unicode="K" horiz-adv-x="1634" 
d="M66 0v119q96 10 128.5 41.5t32.5 126.5v876q0 96 -32 127.5t-129 42.5v117h673v-117q-97 -11 -129 -42.5t-32 -127.5v-395l401 369q33 29 47 53.5t14 50.5q0 40 -33 64t-96 28v117h613v-117q-97 -13 -177 -56t-180 -140l-282 -275q-8 -7 -12.5 -14.5t-4.5 -11.5
q0 -5 4.5 -11.5t22.5 -23.5l549 -551q81 -81 120.5 -107t73.5 -26q10 0 14.5 0.5t8.5 0.5v-118h-420l-663 668v-381q0 -95 32 -126.5t129 -41.5v-119h-673z" />
    <glyph glyph-name="L" unicode="L" horiz-adv-x="1475" 
d="M743 1450v-117q-95 -11 -127 -42t-32 -128v-801q0 -160 46.5 -203.5t190.5 -43.5q180 0 287 65.5t211 237.5h113l-89 -418h-1277v119q96 10 128.5 41.5t32.5 126.5v876q0 96 -32 127.5t-129 42.5v117h677z" />
    <glyph glyph-name="M" unicode="M" horiz-adv-x="2048" 
d="M57 0l1 119q68 2 105 39.5t54 122.5l178 845q2 9 5 25q8 38 8 49q0 54 -46 88t-130 43l-1 119h508q2 -77 13.5 -140.5t33.5 -121.5l252 -662l281 678q18 44 27.5 106t11.5 140h489v-119h-12q-65 0 -103 -39t-38 -106q0 -14 1.5 -31t4.5 -39l121 -799q17 -112 54 -151
t122 -47v-119h-656v119h13q65 0 96 30t31 93q0 18 -2.5 41t-5.5 47l-99 649l-323 -772q-27 -66 -45 -115.5t-29 -91.5h-109q-7 38 -27.5 100t-54.5 150l-278 729l-139 -653q-7 -31 -11 -55.5t-4 -39.5q0 -55 34 -80.5t120 -31.5v-119h-451z" />
    <glyph glyph-name="N" unicode="N" horiz-adv-x="1651" 
d="M63 0v119q105 10 143 56t38 200v842q-50 61 -91 87.5t-85 26.5h-5v119h402q29 0 41 -7t33 -32l747 -883v598q0 94 -42.5 142t-139.5 63v119h495v-119q-99 -16 -137.5 -60t-38.5 -145v-915q0 -55 2.5 -114t7.5 -126h-147l-909 1067v-663q0 -144 44.5 -193.5t172.5 -62.5
v-119h-531z" />
    <glyph glyph-name="O" unicode="O" horiz-adv-x="1597" 
d="M451 764q0 -319 91.5 -491.5t260.5 -172.5q173 0 258.5 146t85.5 442q0 320 -90.5 491t-259.5 171q-171 0 -258.5 -148.5t-87.5 -437.5zM784 -29q-158 0 -291 58t-241 174q-91 99 -137.5 228.5t-46.5 283.5q0 151 47.5 283t140.5 237q105 119 247.5 181.5t309.5 62.5
q147 0 274 -50.5t228 -148.5q106 -103 160.5 -238.5t54.5 -298.5q0 -146 -43.5 -276.5t-124.5 -226.5q-111 -134 -256 -201.5t-322 -67.5z" />
    <glyph glyph-name="P" unicode="P" horiz-adv-x="1290" 
d="M66 0v121q95 6 128 38t33 128v880q0 92 -32 123t-129 41v117h587q279 0 427.5 -110t148.5 -316q0 -173 -134 -282t-350 -109q-69 0 -87.5 9t-18.5 50v33q0 31 40 34q37 4 65 11q80 21 118.5 84.5t38.5 173.5q0 144 -63 216.5t-189 72.5q-45 0 -60 -9.5t-16 -35.5v-983
q0 -91 36 -126t130 -40v-121h-673z" />
    <glyph glyph-name="Q" unicode="Q" horiz-adv-x="1597" 
d="M1511 -119v-254q-154 5 -287 38.5t-249 96.5q-33 19 -87.5 54.5t-201.5 138.5q-5 4 -37 17t-80 30q-249 94 -375 272.5t-126 438.5q0 152 47.5 284.5t140.5 237.5q105 119 247.5 181.5t309.5 62.5q147 0 274 -50.5t228 -148.5q107 -104 161 -239.5t54 -299.5
q0 -234 -106.5 -410t-317.5 -292q90 -60 191.5 -99.5t213.5 -58.5zM451 764q0 -319 91.5 -491.5t260.5 -172.5q173 0 258.5 146t85.5 442q0 320 -90.5 491t-259.5 171q-171 0 -258.5 -148.5t-87.5 -437.5z" />
    <glyph glyph-name="R" unicode="R" horiz-adv-x="1475" 
d="M573 780h6q40 -4 58 -4q129 0 195.5 70.5t66.5 208.5q0 133 -66 196.5t-206 63.5q-28 0 -41 -10.5t-13 -32.5v-492zM573 297q0 -106 33 -137.5t129 -40.5v-119h-669v119q97 10 129 41t32 137v866q0 95 -32.5 126.5t-128.5 41.5v119h602q176 0 270 -22t166 -72
q78 -56 118 -129.5t40 -163.5q0 -130 -78.5 -220.5t-218.5 -123.5l274 -422q52 -80 99 -121t104 -57v-119h-373q-25 0 -39.5 6t-21.5 18l-371 623h-64v-350z" />
    <glyph glyph-name="S" unicode="S" horiz-adv-x="1251" 
d="M127 63v361h113q32 -150 129 -232.5t241 -82.5q105 0 173.5 57.5t68.5 144.5q0 122 -277 275q-74 42 -114 65q-195 114 -264.5 207.5t-69.5 222.5q0 190 139 299t381 109q115 0 220 -32.5t208 -100.5v-287h-106q-32 136 -125 216.5t-217 80.5q-98 0 -159.5 -50
t-61.5 -128q0 -120 282 -267l7 -4q14 -7 43 -22q159 -81 235 -143q80 -65 123 -146.5t43 -169.5q0 -209 -139.5 -334t-376.5 -125q-101 0 -224.5 21.5t-271.5 64.5z" />
    <glyph glyph-name="T" unicode="T" horiz-adv-x="1587" 
d="M977 371v-68q0 -56 4 -83t14 -42q21 -35 69.5 -52t123.5 -17h12v-109h-803v109h13q75 0 123 17t69 52q10 15 14.5 42t4.5 83v68v948h-142q-122 0 -190.5 -58.5t-114.5 -203.5h-113l43 393h1403l33 -393h-110q-34 143 -106.5 202.5t-213.5 59.5h-133v-948z" />
    <glyph glyph-name="U" unicode="U" horiz-adv-x="1651" 
d="M61 1450h682v-119h-8q-96 0 -129 -38t-33 -185v-625q0 -180 81.5 -262t258.5 -82q206 0 299 106.5t93 344.5v543q0 118 -39 158t-144 40h-18v119h512v-119h-8q-96 0 -131 -39.5t-35 -158.5v-543q0 -307 -156 -467t-457 -160q-128 0 -240.5 33t-199.5 96
q-89 65 -127.5 157t-38.5 257v612q0 140 -32.5 174t-128.5 39z" />
    <glyph glyph-name="V" unicode="V" horiz-adv-x="1479" 
d="M690 -29l-506 1213q-35 83 -67 113t-82 34v119h627v-102q-54 0 -82.5 -22t-28.5 -62q0 -14 6.5 -38t17.5 -52l283 -676l32 79q236 576 236 640q0 52 -41 86t-120 47v100h479v-102q-109 -9 -231 -325q-23 -59 -35 -91q-71 -178 -188 -462q-168 -409 -189 -499h-111z" />
    <glyph glyph-name="W" unicode="W" horiz-adv-x="2048" 
d="M639 1450v-119h-12q-41 0 -63.5 -18.5t-22.5 -50.5q0 -17 8 -52.5t22 -74.5l226 -637q59 163 109 307.5t91 273.5l-36 131q-17 63 -46 92t-75 29h-11v119h578v-119h-21q-48 0 -73 -19.5t-25 -58.5q0 -15 3.5 -33.5t15.5 -58.5l182 -667q154 439 195.5 570.5t41.5 162.5
q0 54 -29.5 79t-94.5 25h-9v119h412v-119q-50 -6 -82.5 -27t-48.5 -59q-10 -22 -52 -153t-69 -213q-57 -174 -153 -449q-132 -376 -140 -459h-151l-260 877q-26 -73 -72 -205q-201 -578 -211 -672h-150l-415 1186q-28 81 -60.5 119.5t-83.5 54.5v119h582z" />
    <glyph glyph-name="X" unicode="X" horiz-adv-x="1597" 
d="M72 0v119q68 17 130.5 60t123.5 116l305 373l-348 493q-74 105 -115.5 135t-95.5 35v119h686v-118q-16 2 -23 2.5t-14 0.5q-37 0 -59.5 -14t-22.5 -37q0 -16 18 -50t50 -75l163 -221l193 225q28 34 39.5 57.5t11.5 47.5q0 33 -26.5 48t-83.5 15h-23v119h516v-118
q-4 0 -9 0.5t-15 0.5q-45 0 -85.5 -24.5t-93.5 -85.5l-340 -396l408 -551q58 -78 99 -112.5t85 -44.5v-119h-702v118q5 0 12 -0.5t18 -0.5q47 0 72 18t25 51q0 32 -82 145q-16 22 -25 34l-139 186l-184 -225q-35 -42 -48.5 -69t-13.5 -50q0 -40 37.5 -61.5t113.5 -26.5
l1 -119h-559z" />
    <glyph glyph-name="Y" unicode="Y" horiz-adv-x="1485" 
d="M397 0l1 119q108 1 142.5 34t34.5 166v244l-337 600q-58 100 -97 131t-94 37v119h682v-118q-6 0 -13 0.5t-20 0.5q-53 0 -81.5 -21.5t-28.5 -60.5q0 -32 33 -94q5 -9 8 -14l219 -422l44 69q257 403 257 484q0 25 -33 40.5t-90 17.5v118h412l-1 -119q-46 -1 -84.5 -36.5
t-109.5 -161.5q-4 -8 -16 -30q-135 -250 -305 -505v-283q0 -133 33 -162.5t137 -33.5v-119h-693z" />
    <glyph glyph-name="Z" unicode="Z" horiz-adv-x="1356" 
d="M51 0v133l789 1208h-213q-151 0 -242 -51t-145 -166h-105v326h1129v-109l-795 -1208h264q180 0 282 56.5t179 193.5h111l-82 -383h-1172z" />
    <glyph glyph-name="bracketleft" unicode="[" horiz-adv-x="692" 
d="M616 -389h-526v1839h526v-125q-10 0 -29 1t-28 1q-128 0 -179.5 -42t-51.5 -144v-1211q0 -115 49.5 -155.5t187.5 -40.5h51v-123z" />
    <glyph glyph-name="backslash" unicode="\" horiz-adv-x="573" 
d="M469 -47l-498 1687h131l500 -1687h-133z" />
    <glyph glyph-name="bracketright" unicode="]" horiz-adv-x="692" 
d="M76 -389v123h51q138 0 188 40.5t50 155.5v1211q0 102 -52 144t-180 42q-9 0 -28 -1t-29 -1v125h526v-1839h-526z" />
    <glyph glyph-name="asciicircum" unicode="^" horiz-adv-x="2048" 
d="M905 1462h236l491 -565h-112l-498 373l-498 -373h-112z" />
    <glyph glyph-name="underscore" unicode="_" 
d="M0 -279h1024v-204h-1024v204z" />
    <glyph glyph-name="glyph67" unicode="`" 
d="M707 1087h-91l-313 166q-58 31 -76 53t-18 54q0 40 25 65t65 25q31 0 63 -19t72 -61z" />
    <glyph glyph-name="a" unicode="a" horiz-adv-x="1028" 
d="M614 86q-76 -54 -143.5 -79t-134.5 -25q-123 0 -199 66t-76 171q0 117 127 201t404 149v160q0 79 -30.5 113.5t-100.5 34.5q-53 0 -87 -20.5t-34 -51.5q0 -23 16.5 -55t16.5 -41q0 -20 -66.5 -55.5t-120.5 -35.5q-28 0 -48.5 39.5t-20.5 96.5q0 99 99.5 161t262.5 62
q229 0 308 -66t79 -249v-408q0 -55 9.5 -73.5t33.5 -18.5q14 0 30 5.5t36 16.5q0 -94 -56 -151.5t-149 -57.5q-53 0 -92 27.5t-64 83.5zM592 211v248q-129 -38 -197.5 -89.5t-68.5 -111.5q0 -46 33.5 -76t84.5 -30q34 0 70 14t78 45z" />
    <glyph glyph-name="b" unicode="b" horiz-adv-x="1126" 
d="M135 102v1139l-123 64v65l328 109h66v-621q68 60 139 89.5t145 29.5q163 0 269 -125.5t106 -321.5q0 -233 -132.5 -386.5t-330.5 -153.5q-84 0 -197.5 27t-269.5 85zM420 334q0 -128 37 -178t127 -50q105 0 159 85t54 249q0 154 -67.5 245t-178.5 91q-68 0 -99.5 -31.5
t-31.5 -99.5v-311z" />
    <glyph glyph-name="c" unicode="c" 
d="M958 188q-107 -106 -212 -157t-214 -51q-191 0 -316.5 133.5t-125.5 341.5q0 232 135 376t355 144q159 0 258.5 -68.5t99.5 -175.5q0 -57 -39 -98t-94 -41q-41 0 -73.5 24t-47.5 66q-4 11 -11 30q-51 142 -149 142q-79 0 -126.5 -68.5t-47.5 -183.5q0 -182 87.5 -297
t224.5 -115q58 0 115 20t114 60z" />
    <glyph glyph-name="d" unicode="d" horiz-adv-x="1141" 
d="M719 100q-68 -60 -139.5 -90t-145.5 -30q-163 0 -268 125.5t-105 324.5q0 236 132.5 391.5t328.5 155.5q54 0 100.5 -18t90.5 -56v338l-119 64v63l328 111h65v-1239q0 -74 22.5 -93.5t91.5 -21.5l1 -88l-383 -55v118zM713 623q0 127 -37 177t-127 50q-105 0 -159 -84.5
t-54 -249.5q0 -153 67 -244.5t179 -91.5q67 0 99 32t32 99v312z" />
    <glyph glyph-name="e" unicode="e" horiz-adv-x="1028" 
d="M948 545h-596v-6q0 -145 76 -236.5t193 -91.5q51 0 114.5 20.5t155.5 67.5l70 -76q-120 -132 -217.5 -186.5t-211.5 -54.5q-195 0 -320.5 141t-125.5 364q0 215 129 351.5t334 136.5q176 0 284.5 -116.5t114.5 -313.5zM353 649h325q0 6 1 16t1 15q0 85 -45.5 132.5
t-126.5 47.5q-67 0 -110.5 -58t-44.5 -153z" />
    <glyph glyph-name="f" unicode="f" horiz-adv-x="668" 
d="M461 295q0 -111 31 -146t120 -45v-104h-573v104q89 10 120 45t31 146v553h-133v110h133v25q0 237 103.5 368.5t288.5 131.5q109 0 185.5 -48.5t76.5 -113.5q0 -44 -30.5 -72t-78.5 -28q-33 0 -55.5 17t-44.5 58q-21 41 -41.5 56.5t-50.5 15.5q-45 0 -63.5 -28t-18.5 -103
v-279h188v-110h-188v-553z" />
    <glyph glyph-name="g" unicode="g" 
d="M487 858q-64 0 -99.5 -50.5t-35.5 -141.5t36 -142t99 -51q65 0 101.5 51t36.5 142q0 92 -36 142t-102 50zM283 -37q-21 -19 -31 -40.5t-10 -47.5q0 -70 57.5 -104.5t171.5 -34.5q159 0 237 34.5t78 104.5q0 56 -63 76t-313 20q-28 0 -60 -2t-67 -6zM182 10q-46 47 -70 91
t-24 83q0 65 41 117t123 90q-79 54 -118.5 123t-39.5 152q0 140 100.5 223.5t272.5 83.5q51 0 131 -10t217 -33h195v-166h-162q11 -32 16.5 -59.5t5.5 -51.5q0 -135 -104.5 -220t-276.5 -85q-34 0 -69 3t-70 9q-11 -14 -16.5 -28.5t-5.5 -30.5q0 -40 35 -56t139 -16
q289 0 397.5 -60.5t108.5 -207.5q0 -163 -139 -260.5t-375 -97.5q-224 0 -339.5 56t-115.5 165q0 54 35.5 100t107.5 86z" />
    <glyph glyph-name="h" unicode="h" horiz-adv-x="1204" 
d="M59 0v102q69 6 95 32.5t26 88.5v1018l-114 64v63l329 111h66v-609q95 57 168 82t139 25q144 0 209 -76.5t65 -247.5v-430q0 -62 24 -88.5t85 -32.5v-102h-487v102q56 6 78 32.5t22 88.5v436q0 80 -28 111t-99 31q-34 0 -76 -9t-100 -28v-541q0 -63 21.5 -89t76.5 -32
v-102h-500z" />
    <glyph glyph-name="i" unicode="i" horiz-adv-x="637" 
d="M172 1327q0 62 45 106t109 44t107.5 -43t43.5 -107q0 -65 -44 -110.5t-107 -45.5q-64 0 -109 46t-45 110zM465 223q0 -62 26.5 -88.5t94.5 -32.5v-102h-518v102q68 6 94 32.5t26 88.5v516l-116 62v65l327 111h66v-754z" />
    <glyph glyph-name="j" unicode="j" horiz-adv-x="598" 
d="M150 1325q0 63 44 107.5t107 44.5q64 0 108 -44t44 -108q0 -65 -44 -109.5t-108 -44.5q-63 0 -107 45t-44 109zM180 739l-123 62v65l328 111h66v-877q0 -162 -69 -269.5t-243 -219.5l-86 35q71 117 99 202.5t28 174.5v716z" />
    <glyph glyph-name="k" unicode="k" horiz-adv-x="1128" 
d="M45 0v104q66 2 98.5 31t32.5 88v1018l-125 64v63l330 111h65v-938l201 196q18 18 28.5 38.5t10.5 37.5q0 24 -20 39.5t-56 20.5v85h418v-86q-51 -10 -108.5 -45t-124.5 -98l-152 -143l465 -469v-117h-227l-435 440v-217q0 -65 22.5 -91t76.5 -28v-104h-500z" />
    <glyph glyph-name="l" unicode="l" horiz-adv-x="623" 
d="M451 223q0 -63 27 -88.5t97 -30.5v-104h-528v104q70 5 97.5 31t27.5 88v1018l-115 64v63l328 111h66v-1256z" />
    <glyph glyph-name="m" unicode="m" horiz-adv-x="1786" 
d="M59 0v102q69 7 95 32.5t26 86.5v518l-121 62v65l328 111h66v-117q87 61 167 89t164 28q79 0 130 -29.5t85 -95.5q124 70 202.5 97.5t148.5 27.5q139 0 204.5 -78t65.5 -246v-432q0 -61 23.5 -87t85.5 -32v-102h-488v102q57 6 78.5 31.5t21.5 87.5v438q0 80 -28 111
t-99 31q-48 0 -95 -12.5t-89 -36.5v-531q0 -61 23.5 -87t85.5 -32v-102h-475v102q56 6 78 31.5t22 87.5v438q0 80 -28 111t-99 31q-38 0 -81.5 -10t-94.5 -31v-539q0 -63 21.5 -88.5t76.5 -30.5v-102h-500z" />
    <glyph glyph-name="n" unicode="n" horiz-adv-x="1204" 
d="M59 0v102q69 6 95 32.5t26 88.5v516l-121 62v65l328 111h66v-115q88 58 165.5 86.5t149.5 28.5q144 0 209 -76.5t65 -247.5v-430q0 -62 24 -88.5t85 -32.5v-102h-487v102q56 6 78 32.5t22 88.5v436q0 80 -28 111t-99 31q-42 0 -86.5 -10.5t-89.5 -30.5v-537
q0 -63 21.5 -89t76.5 -32v-102h-500z" />
    <glyph glyph-name="o" unicode="o" horiz-adv-x="1098" 
d="M356 532q0 -209 50.5 -323.5t142.5 -114.5q100 0 145 81t45 261q0 204 -54 317t-150 113q-91 0 -135 -81.5t-44 -252.5zM541 -20q-218 0 -352 142.5t-134 373.5q0 206 141.5 343.5t354.5 137.5t351 -141.5t138 -360.5q0 -216 -140 -355.5t-359 -139.5z" />
    <glyph glyph-name="p" unicode="p" horiz-adv-x="1141" 
d="M434 334q0 -128 37 -178t127 -50q105 0 159 85t54 249q0 153 -68 244.5t-180 91.5q-67 0 -98 -31.5t-31 -99.5v-311zM33 -389v102q68 6 94.5 32.5t26.5 88.5v905l-127 62v65l327 111h66v-119q69 60 139.5 89.5t145.5 29.5q162 0 268 -125.5t106 -321.5
q0 -233 -133 -386.5t-332 -153.5q-44 0 -89 11.5t-91 35.5v-203q0 -62 32 -88.5t116 -32.5v-102h-549z" />
    <glyph glyph-name="q" unicode="q" horiz-adv-x="1141" 
d="M721 109q-69 -60 -140 -89.5t-145 -29.5q-163 0 -269 124.5t-106 319.5q0 243 138.5 393t363.5 150q83 0 167.5 -29.5t88.5 -29.5q28 0 56.5 14.5t58.5 44.5h67v-1145q0 -62 32 -88.5t116 -32.5v-100h-549v100q68 6 94.5 32.5t26.5 88.5v277zM721 635q0 129 -37 178
t-127 49q-105 0 -159 -83.5t-54 -248.5q0 -153 67.5 -245t178.5 -92q67 0 99 31.5t32 99.5v311z" />
    <glyph glyph-name="r" unicode="r" horiz-adv-x="797" 
d="M455 240q0 -82 27 -109t102 -29v-102h-525v102q69 6 95 32.5t26 88.5v516l-119 62v65l328 111h66v-150q71 76 117.5 105t91.5 29q64 0 104.5 -42.5t40.5 -109.5q0 -64 -42.5 -121t-80.5 -57q-14 0 -67 53t-89 53q-33 0 -54 -27.5t-21 -72.5v-397z" />
    <glyph glyph-name="s" unicode="s" horiz-adv-x="915" 
d="M94 86v221h99q30 -91 96 -144.5t145 -53.5q70 0 119 33.5t49 78.5q0 71 -149 123q-56 20 -88 33q-166 65 -226.5 132.5t-60.5 172.5q0 129 108 215t277 86q74 0 147.5 -17.5t151.5 -54.5v-204h-90q-31 83 -81 124t-120 41q-62 0 -101.5 -31.5t-39.5 -80.5q0 -63 157 -123
q34 -13 53 -20q186 -72 242 -137t56 -173q0 -144 -104 -233.5t-273 -89.5q-98 0 -189 25.5t-178 76.5z" />
    <glyph glyph-name="t" unicode="t" horiz-adv-x="696" 
d="M643 37q-71 -30 -133 -45t-119 -15q-134 0 -186.5 74t-52.5 275v522h-115v98l321 301h64v-289h217v-110h-217v-547q0 -90 28 -117.5t107 -27.5q22 0 43.5 1.5t42.5 3.5v-124z" />
    <glyph glyph-name="u" unicode="u" horiz-adv-x="1139" 
d="M975 262q0 -79 18 -103t68 -24q13 0 21 0.5t15 1.5l1 -102l-404 -53v110q-66 -55 -133.5 -82.5t-136.5 -27.5q-141 0 -209 81.5t-68 251.5v402q0 77 -22 101.5t-92 37.5v102l387 19v-637q0 -99 32.5 -135.5t114.5 -36.5q60 0 93.5 21t33.5 59v475q0 67 -20.5 94.5
t-73.5 39.5v101l375 19v-715z" />
    <glyph glyph-name="v" unicode="v" horiz-adv-x="1034" 
d="M653 186q-3 -7 -12 -27q-44 -97 -76 -177h-106l-318 778q-22 54 -43 74t-55 20v104h459v-103q-4 0 -8 0.5t-13 0.5q-25 0 -39 -12.5t-14 -34.5q0 -12 5.5 -35t15.5 -45l139 -354l155 362q8 19 12.5 38.5t4.5 37.5t-16 29.5t-42 11.5h-14v104h322v-103q-40 -8 -65 -29.5
t-52 -84.5z" />
    <glyph glyph-name="w" unicode="w" horiz-adv-x="1485" 
d="M627 182q-26 -68 -42 -113t-30 -87h-113l-327 811q-17 41 -32.5 53t-43.5 12h-6v100h450v-100q-34 -5 -48.5 -17.5t-14.5 -35.5q0 -11 6 -34t18 -58l123 -336l123 338q13 35 17 51.5t4 28.5q0 32 -21 46t-73 17l-1 100h361l-1 -100q-43 -2 -62 -14.5t-19 -38.5
q0 -11 6.5 -36.5t18.5 -56.5l122 -341l134 344q12 35 16 51.5t4 28.5q0 31 -18.5 45t-62.5 18l-1 100h336v-99q-38 -3 -62.5 -27.5t-54.5 -100.5l-219 -549q-18 -44 -36 -95t-36 -105h-124l-179 487z" />
    <glyph glyph-name="x" unicode="x" horiz-adv-x="1034" 
d="M43 0v104q52 6 99.5 34t82.5 73l172 221l-250 345q-4 5 -12 18q-38 56 -96 59v104h463v-104h-10q-24 0 -38 -11t-14 -30q0 -9 8.5 -23.5t40.5 -58.5l70 -94l88 104q18 21 29.5 44.5t11.5 33.5q0 17 -15.5 27t-41.5 10q-3 0 -9.5 -1t-9.5 -1v104h365v-104h-4
q-40 0 -76 -25t-88 -92l-166 -213l192 -259l6 -8q98 -133 154 -153v-104h-465v104h13q27 0 43 11.5t16 31.5q0 15 -10.5 35.5t-30.5 44.5l-80 95l-69 -86q-22 -27 -34.5 -51t-12.5 -35q0 -21 18.5 -33.5t48.5 -12.5v-104h-389z" />
    <glyph glyph-name="y" unicode="y" horiz-adv-x="1034" 
d="M39 958h477v-96h-14q-27 0 -39 -11.5t-12 -37.5q0 -11 6.5 -36.5t17.5 -55.5l129 -334l119 348q8 25 11 38t3 22q0 32 -22 48t-70 20v95h354v-96q-42 -9 -75 -49.5t-70 -136.5l-313 -805q-52 -133 -131 -200.5t-183 -67.5q-81 0 -132.5 44t-51.5 113q0 57 36 95.5
t89 38.5q26 0 50 -10.5t44 -30.5q9 -9 23 -28q28 -38 49 -38q25 0 47.5 23.5t40.5 68.5l49 121l-340 813q-11 25 -31.5 37t-52.5 12h-8v96z" />
    <glyph glyph-name="z" unicode="z" horiz-adv-x="909" 
d="M43 0v109l494 753h-27q-143 0 -220 -39t-118 -131h-86v285h29q14 -10 34.5 -14.5t59.5 -4.5h45h600v-96l-483 -753h159q79 0 147 50t116 144h96l-74 -303h-772z" />
    <glyph glyph-name="braceleft" unicode="{" 
d="M852 1516v-61q-121 -3 -165 -55t-44 -210v-133q0 -225 -53.5 -307t-196.5 -115q143 -32 196.5 -113t53.5 -307v-135q0 -158 44 -210t165 -55v-59q-235 0 -320.5 72.5t-85.5 273.5v193q0 165 -56 226.5t-212 76.5v76q156 15 212 76.5t56 226.5v192q0 201 85.5 274
t320.5 73z" />
    <glyph glyph-name="bar" unicode="|" 
d="M410 1565h206v-2048h-206v2048z" />
    <glyph glyph-name="braceright" unicode="}" 
d="M172 1516q236 0 322 -73t86 -274v-192q0 -165 56 -226.5t212 -76.5v-76q-156 -15 -212 -76.5t-56 -226.5v-193q0 -198 -85 -272t-311 -74h-12v59q119 2 164 55t45 210v135q0 226 53.5 307t196.5 113q-143 33 -196.5 115t-53.5 307v133q0 156 -45 209.5t-164 55.5v61z" />
    <glyph glyph-name="asciitilde" unicode="~" horiz-adv-x="1706" 
d="M1530 803v-221q-104 -71 -196.5 -104.5t-182.5 -33.5q-46 0 -92 8t-92 23q-24 8 -71 25q-219 75 -333 75q-85 0 -177.5 -37.5t-207.5 -119.5v221q107 72 204 107.5t183 35.5q117 0 291 -58l4 -1q18 -6 55 -19q155 -55 240 -55t175 37t200 117z" />
    <glyph glyph-name="euro" 
d="M952 1305l23 -304h-103q-28 144 -91 221.5t-150 77.5q-105 0 -172.5 -110t-85.5 -311h422l-45 -103h-381q0 -64 1 -92t3 -49h327l-45 -103h-270q36 -218 99 -317.5t163 -99.5q87 0 145 81t87 242h96l-35 -344q-94 -60 -178 -89.5t-164 -29.5q-197 0 -326.5 145.5
t-169.5 411.5h-127l45 103h74v31q-1 10 -1.5 23t-0.5 30q0 25 4 52v5h-145l45 103h115q50 259 187 408t323 149q83 0 163 -31.5t168 -99.5z" />
    <glyph glyph-name="euro" unicode="&#x20ac;" 
d="M952 1305l23 -304h-103q-28 144 -91 221.5t-150 77.5q-105 0 -172.5 -110t-85.5 -311h422l-45 -103h-381q0 -64 1 -92t3 -49h327l-45 -103h-270q36 -218 99 -317.5t163 -99.5q87 0 145 81t87 242h96l-35 -344q-94 -60 -178 -89.5t-164 -29.5q-197 0 -326.5 145.5
t-169.5 411.5h-127l45 103h74v31q-1 10 -1.5 23t-0.5 30q0 25 4 52v5h-145l45 103h115q50 259 187 408t323 149q83 0 163 -31.5t168 -99.5z" />
    <glyph glyph-name="nonbreakingspace" unicode="&#xa0;" 
 />
    <glyph glyph-name="exclamdown" unicode="&#xa1;" horiz-adv-x="688" 
d="M416 1034l57 -897q0 -6 1 -18t1 -17q0 -69 -31 -95.5t-110 -26.5q-76 0 -107.5 26.5t-31.5 91.5q0 15 0.5 23.5t1.5 16.5l73 896h146zM506 1333q0 -70 -46.5 -118t-115.5 -48q-68 0 -117 49t-49 117t48.5 116t117.5 48t115.5 -47t46.5 -117z" />
    <glyph glyph-name="cent" unicode="&#xa2;" 
d="M942 188q-109 -107 -213.5 -160t-208.5 -53q-35 0 -76.5 9t-89.5 26l-110 -231l-88 43l112 229q-96 75 -145 180.5t-49 237.5q0 214 128.5 355t321.5 141q37 0 79.5 -6t92.5 -17l113 232l84 -41l-105 -222q69 -31 103.5 -73.5t34.5 -94.5q0 -62 -37 -105.5t-88 -43.5
q-35 0 -66 21.5t-59 64.5l-211 -444q43 -26 85 -39t83 -13q58 0 118 21.5t123 64.5zM621 786q-20 36 -48.5 53t-66.5 17q-82 0 -132 -75t-50 -199q0 -71 16.5 -138.5t50.5 -134.5z" />
    <glyph glyph-name="sterling" unicode="&#xa3;" 
d="M469 141q-33 -78 -94 -122t-137 -44q-99 0 -157 61t-58 161q0 85 57.5 143.5t140.5 58.5q29 0 63.5 -5t75.5 -15q-1 66 -24 133t-70 137h-237v142h170q-29 64 -43.5 132t-14.5 136q0 173 121 277t324 104q146 0 253 -73t107 -165q0 -50 -32.5 -83.5t-82.5 -33.5
q-43 0 -73 26.5t-58 92.5q-26 64 -54 87.5t-73 23.5q-67 0 -108 -58.5t-41 -156.5q0 -50 16 -124.5t49 -184.5h256v-142h-229q15 -53 23 -97t8 -77q0 -42 -4 -80t-13 -76q100 -49 153 -66t93 -17q43 0 79 33.5t69 103.5l77 -29q-14 -173 -82 -267.5t-178 -94.5
q-68 0 -136 39.5t-136 119.5zM360 231q-26 24 -55.5 36t-62.5 12q-52 0 -83.5 -27t-31.5 -70q0 -45 27 -71.5t73 -26.5q57 0 93 40t40 107z" />
    <glyph glyph-name="currency" unicode="&#xa4;" 
d="M952 1305l23 -304h-103q-28 144 -91 221.5t-150 77.5q-105 0 -172.5 -110t-85.5 -311h422l-45 -103h-381q0 -64 1 -92t3 -49h327l-45 -103h-270q36 -218 99 -317.5t163 -99.5q87 0 145 81t87 242h96l-35 -344q-94 -60 -178 -89.5t-164 -29.5q-197 0 -326.5 145.5
t-169.5 411.5h-127l45 103h74v31q-1 10 -1.5 23t-0.5 30q0 25 4 52v5h-145l45 103h115q50 259 187 408t323 149q83 0 163 -31.5t168 -99.5z" />
    <glyph glyph-name="yen" unicode="&#xa5;" horiz-adv-x="1434" 
d="M834 582v-275q0 -130 32.5 -160t130.5 -32v-115h-591v115q103 1 137.5 34t34.5 162v242l-17 29h-504v102h443l-80 139h-363v103h299l-116 206l-5 9q-83 145 -178 155v117h576v-116q-6 0 -13 0.5t-20 0.5q-51 0 -78.5 -20.5t-27.5 -58.5q0 -19 7.5 -41t30.5 -64l238 -432
q165 257 232 381t67 170q0 31 -27 45.5t-90 18.5v116h385v-116q-74 -4 -166 -158q-14 -24 -22 -37l-107 -176h301v-103h-358l-90 -139h448v-102h-509z" />
    <glyph glyph-name="brokenbar" unicode="&#xa6;" 
d="M410 408h206v-758h-206v758zM410 1432h206v-758h-206v758z" />
    <glyph glyph-name="section" unicode="&#xa7;" 
d="M524 1362q-31 0 -51 -24.5t-20 -63.5q0 -90 193 -392l32 -51q120 -190 182 -366t62 -326q0 -236 -121.5 -382t-315.5 -146q-142 0 -228.5 55t-86.5 141q0 49 35 82t86 33q33 0 63 -13t37 -28q7 -13 19 -38q55 -113 102 -113q36 0 58 27.5t22 74.5q0 50 -33.5 130.5
t-148.5 285.5q-164 289 -226.5 456.5t-62.5 299.5q0 218 121 348.5t323 130.5q125 0 207 -56t82 -137q0 -52 -34 -82t-93 -30q-34 0 -59 14t-41 43q-10 16 -24 49q-34 78 -79 78zM729 -27q12 44 17.5 78.5t5.5 65.5q0 74 -27.5 174.5t-81.5 222.5q-45 103 -167.5 315.5
t-172.5 335.5q-9 -36 -13.5 -68.5t-4.5 -62.5q0 -148 144 -440l3 -6q49 -99 134 -264q139 -269 163 -351z" />
    <glyph glyph-name="dieresis" unicode="&#xa8;" 
d="M573 1251q0 48 36 83.5t85 35.5t84 -35t35 -84q0 -53 -33 -87t-86 -34q-51 0 -86 35t-35 86zM209 1251q0 48 36 83.5t85 35.5t84 -35t35 -84q0 -53 -33.5 -87t-85.5 -34t-86.5 35t-34.5 86z" />
    <glyph glyph-name="copyright" unicode="&#xa9;" horiz-adv-x="1683" 
d="M1126 1102h45v-326h-47q-31 131 -100 202t-164 71q-118 0 -175.5 -90.5t-57.5 -274.5q0 -185 62.5 -281t182.5 -96q80 0 148.5 44t124.5 130l45 -28q-63 -107 -150.5 -161t-197.5 -54q-185 0 -308.5 122.5t-123.5 303.5q0 191 121 316.5t305 125.5q79 0 153 -33t80 -33
q24 0 37.5 15t19.5 47zM844 1309q-127 0 -241.5 -48t-203.5 -139q-89 -90 -135.5 -204t-46.5 -240q0 -128 46.5 -242t135.5 -203q90 -89 202 -135.5t241 -46.5q127 0 240 47t200 135q89 91 136.5 206t47.5 239q0 127 -47.5 244t-134.5 202q-87 88 -203 136.5t-237 48.5z
M844 1413q141 0 275.5 -56t238.5 -159q102 -102 159.5 -239.5t57.5 -280.5t-56.5 -277.5t-160.5 -240.5q-102 -104 -235 -158.5t-281 -54.5t-279 54t-237 159q-105 104 -160 237t-55 281t54.5 281.5t158.5 236.5q103 104 239 160.5t281 56.5z" />
    <glyph glyph-name="ordfeminine" unicode="&#xaa;" horiz-adv-x="772" 
d="M461 840q-58 -37 -108.5 -54.5t-100.5 -17.5q-92 0 -148.5 46t-56.5 120q0 82 95 141t302 105v110q0 56 -23 80.5t-75 24.5q-39 0 -64.5 -15t-25.5 -37q0 -15 12.5 -37.5t12.5 -29.5q0 -14 -50.5 -39t-91.5 -25q-21 0 -36 28.5t-15 68.5q0 69 75 112t197 43
q171 0 230 -46t59 -175v-285q0 -37 7.5 -51t25.5 -14q10 0 22 4t27 12q0 -65 -42 -105t-111 -40q-41 0 -70 19t-47 57zM444 928v174q-98 -27 -149 -63t-51 -78q0 -32 25.5 -53t64.5 -21q24 0 51 9.5t59 31.5z" />
    <glyph glyph-name="guillemotleft" unicode="&#xab;" horiz-adv-x="977" 
d="M713 82q-50 93 -112 191t-138 202q70 98 133 198.5t117 200.5h190q-45 -105 -103 -205t-128 -194q65 -87 123 -185.5t108 -207.5h-190zM324 82q-50 93 -112 191t-138 202q70 98 133 198.5t117 200.5h188q-45 -105 -103 -205t-128 -194q65 -87 123 -185.5t108 -207.5h-188
z" />
    <glyph glyph-name="logicalnot" unicode="&#xac;" horiz-adv-x="1706" 
d="M254 864h1198v-502h-199v306h-999v196z" />
    <glyph glyph-name="sfthyphen" unicode="&#xad;" horiz-adv-x="692" 
d="M96 356v250h500v-250h-500z" />
    <glyph glyph-name="registered" unicode="&#xae;" horiz-adv-x="1683" 
d="M760 723q7 -1 16 -1.5t27 -0.5q96 0 144 45t48 135q0 60 -43 103t-106 43q-44 0 -65 -16.5t-21 -49.5v-258zM465 1098h403q146 0 234 -55.5t88 -143.5q0 -86 -64.5 -134.5t-214.5 -74.5q95 -22 149 -69.5t70 -124.5q6 -25 10 -74q5 -84 46 -84q28 0 42.5 29.5t14.5 87.5
v12h51v-23q0 -88 -44 -134t-128 -46q-47 0 -82.5 14t-56.5 41q-28 40 -33 134q-2 45 -6 67q-14 79 -54 116.5t-112 37.5h-18v-246q0 -46 20 -65t78 -27v-51h-393v50q61 4 83.5 24t22.5 69v522q0 49 -22.5 69.5t-83.5 25.5v53zM844 1309q-126 0 -241.5 -48.5t-203.5 -138.5
q-89 -90 -135.5 -204t-46.5 -240q0 -128 46.5 -242t135.5 -203q90 -89 202 -135.5t241 -46.5q127 0 240 47t200 135q89 91 136.5 206t47.5 239q0 125 -48.5 243t-135.5 203q-88 88 -202.5 136.5t-235.5 48.5zM844 1413q145 0 284 -59.5t242 -165.5q98 -101 150.5 -236.5
t52.5 -285.5q0 -139 -61 -277t-171 -244q-99 -96 -227.5 -147t-271.5 -51q-110 0 -211.5 30.5t-190.5 90.5q-157 104 -243 263.5t-86 346.5q0 146 55 280t158 238q102 104 237.5 160.5t282.5 56.5z" />
    <glyph glyph-name="macron" unicode="&#xaf;" 
d="M236 1178v147h552v-147h-552z" />
    <glyph glyph-name="degree" unicode="&#xb0;" horiz-adv-x="674" 
d="M338 1335q-73 0 -124.5 -51t-51.5 -123q0 -74 51 -125t125 -51q72 0 123 52t51 124t-51 123t-123 51zM338 1464q126 0 214.5 -89.5t88.5 -215.5q0 -125 -89 -214t-216 -89q-126 0 -213.5 88t-87.5 215t88.5 216t214.5 89z" />
    <glyph glyph-name="plusminus" unicode="&#xb1;" horiz-adv-x="1706" 
d="M254 197h1198v-199h-1198v199zM752 1223h202v-326h498v-199h-498v-325h-202v325h-498v199h498v326z" />
    <glyph glyph-name="twosuperior" unicode="&#xb2;" horiz-adv-x="676" 
d="M31 565v58q182 162 283.5 304t101.5 232q0 63 -42.5 103.5t-107.5 40.5q-38 0 -81 -17.5t-95 -52.5l-45 45q88 77 163 113t146 36q107 0 171.5 -57.5t64.5 -152.5q0 -142 -336 -465l-37 -35h211q58 0 87.5 16t51.5 55l56 -12l-80 -211h-512z" />
    <glyph glyph-name="threesuperior" unicode="&#xb3;" horiz-adv-x="676" 
d="M154 950v72q110 9 173.5 54.5t63.5 115.5q0 49 -38 81t-97 32q-40 0 -82 -18t-88 -54l-41 47q63 74 133.5 109.5t153.5 35.5q102 0 170.5 -51.5t68.5 -128.5q0 -55 -32 -101.5t-99 -88.5q85 -34 126.5 -85t41.5 -120q0 -129 -114 -215t-291 -86q-88 0 -131 20t-43 62
q0 20 16 34.5t39 14.5q26 0 85 -19.5t93 -19.5q71 0 117.5 41t46.5 102q0 78 -70.5 122t-195.5 44h-6z" />
    <glyph glyph-name="grave" unicode="&#xb4;" 
d="M317 1087l273 283q40 42 72 61t63 19q40 0 65 -25t25 -65q0 -32 -18 -54t-76 -53l-313 -166h-91z" />
    <glyph glyph-name="mu" unicode="&#xb5;" horiz-adv-x="1202" 
d="M178 209q-12 -95 -29 -252q-40 -381 -155 -381q-54 0 -84.5 30.5t-30.5 84.5q0 47 68 274t106 408l109 512h256l-99 -459q-11 -53 -16.5 -89t-5.5 -58q0 -59 30.5 -92t84.5 -33q71 0 116 53t68 166l109 512h256l-115 -533q-9 -41 -13 -66.5t-4 -43.5q0 -47 17.5 -67.5
t56.5 -20.5q40 0 66 18t45 59q8 19 21 50q27 69 55 69q15 0 23.5 -10t8.5 -29q0 -34 -16.5 -88.5t-42.5 -101.5q-41 -74 -99 -110t-137 -36q-85 0 -129.5 48t-54.5 151q-40 -106 -98.5 -152.5t-149.5 -46.5q-93 0 -149.5 61t-67.5 173z" />
    <glyph glyph-name="paragraph" unicode="&#xb6;" 
d="M983 1479v-111h-113v-1368h-151v1368h-158v-1368h-153v784q-167 6 -267 101t-100 245q0 158 107 253.5t284 95.5h551z" />
    <glyph glyph-name="glyph195" unicode="&#xb7;" horiz-adv-x="512" 
d="M92 713q0 68 47.5 114.5t116.5 46.5t116.5 -46.5t47.5 -114.5q0 -69 -48 -117.5t-116 -48.5q-69 0 -116.5 48t-47.5 118z" />
    <glyph glyph-name="cedilla" unicode="&#xb8;" 
d="M227 -377l41 90q73 -39 130.5 -56t117.5 -17q41 0 64.5 22t23.5 59q0 43 -25.5 64.5t-74.5 21.5q-15 0 -30 -1.5t-32 -3.5v198h70v-114q16 2 32.5 3.5t33.5 1.5q85 0 134.5 -45.5t49.5 -124.5q0 -85 -60 -131.5t-170 -46.5q-56 0 -127.5 18.5t-177.5 61.5z" />
    <glyph glyph-name="onesuperior" unicode="&#xb9;" horiz-adv-x="676" 
d="M444 737q0 -67 23.5 -84.5t110.5 -17.5h14v-70h-481v70h12q84 0 106.5 16.5t22.5 85.5v520q0 26 -15 36t-59 10q-24 0 -38.5 -0.5t-28.5 -1.5v57q47 5 120 19.5t213 47.5v-688z" />
    <glyph glyph-name="ordmasculine" unicode="&#xba;" horiz-adv-x="823" 
d="M268 1153q0 -147 37.5 -227t106.5 -80q75 0 109 57t34 182q0 143 -40.5 222t-113.5 79q-67 0 -100 -57t-33 -176zM406 766q-163 0 -264 99.5t-101 260.5q0 145 106.5 241.5t266.5 96.5q159 0 262.5 -99t103.5 -253q0 -151 -105 -248.5t-269 -97.5z" />
    <glyph glyph-name="guillemotright" unicode="&#xbb;" horiz-adv-x="977" 
d="M653 82h-190q50 109 108 207.5t123 185.5q-70 94 -128 194t-103 205h190q54 -100 117 -200.5t133 -198.5q-76 -104 -138 -202t-112 -191zM262 82h-188q50 109 108 207.5t123 185.5q-70 94 -128 194t-103 205h188q54 -100 116.5 -200.5t133.5 -198.5q-76 -104 -138 -202
t-112 -191z" />
    <glyph glyph-name="onequarter" unicode="&#xbc;" horiz-adv-x="1632" 
d="M1333 -10v205h-313v137l366 459h117v-476h103v-120h-103v-205h-170zM1098 315h235v310zM303 -25l879 1463h145l-876 -1463h-148zM426 780q0 -63 22 -79.5t103 -16.5h16v-63h-461v63h13q78 0 100.5 16t22.5 80v486q0 24 -14 33.5t-56 9.5q-24 0 -37 -0.5t-26 -1.5v53
q45 5 120 20t197 43v-643z" />
    <glyph glyph-name="onehalf" unicode="&#xbd;" horiz-adv-x="1632" 
d="M1016 0v53q172 149 269 282.5t97 219.5q0 58 -39.5 95.5t-101.5 37.5q-37 0 -78.5 -15.5t-89.5 -47.5l-43 41q84 71 156 105t139 34q102 0 163.5 -53.5t61.5 -143.5q0 -131 -321 -433l-35 -34h203q53 0 81.5 15.5t49.5 52.5l53 -12l-76 -197h-489zM303 -25l879 1463h145
l-876 -1463h-148zM426 780q0 -63 22 -79.5t103 -16.5h16v-63h-461v63h13q78 0 100.5 16t22.5 80v486q0 24 -14 33.5t-56 9.5q-24 0 -37 -0.5t-26 -1.5v53q45 5 120 20t197 43v-643z" />
    <glyph glyph-name="threequarters" unicode="&#xbe;" horiz-adv-x="1632" 
d="M1333 -10v205h-313v137l366 459h117v-476h103v-120h-103v-205h-170zM1098 315h235v310zM303 -25l879 1463h145l-876 -1463h-148zM147 981l1 66q103 7 164 50.5t61 108.5q0 45 -36.5 75t-92.5 30q-38 0 -78.5 -17t-83.5 -51l-39 43q60 70 127.5 103.5t146.5 33.5
q98 0 163 -48t65 -120q0 -51 -31.5 -95.5t-93.5 -82.5q82 -32 122 -79.5t40 -112.5q0 -120 -109.5 -200.5t-277.5 -80.5q-84 0 -126 19.5t-42 58.5q0 19 16 33t37 14q25 0 81 -19.5t89 -19.5q67 0 111.5 39t44.5 96q0 73 -68 114.5t-186 41.5h-5z" />
    <glyph glyph-name="questiondown" unicode="&#xbf;" horiz-adv-x="915" 
d="M614 1036l19 -309q-249 -88 -316 -142.5t-67 -135.5q0 -84 49.5 -141t134.5 -70q15 -3 84.5 -7.5t112.5 -23.5q35 -16 55.5 -45t20.5 -66q0 -56 -39 -86t-111 -30q-59 0 -128.5 34.5t-135.5 98.5q-102 99 -155.5 211t-53.5 227q0 53 15 100.5t44 87.5q50 67 176 121
q39 17 58 27q43 22 60 53t22 96h155zM696 1315q0 -69 -47 -115.5t-117 -46.5q-68 0 -115.5 47t-47.5 115q0 69 48 117.5t115 48.5q69 0 116.5 -48.5t47.5 -117.5z" />
    <glyph glyph-name="Agrave" unicode="&#xc0;" horiz-adv-x="1479" 
d="M47 0v119q54 13 86.5 50t65.5 132l350 1022q5 18 6.5 26.5t1.5 14.5q0 21 -11 42t-34 44h367l409 -1171q27 -76 62 -115t82 -45v-119h-635v119q66 3 97.5 25t31.5 65q0 13 -4 32.5t-13 49.5l-59 217h-447l-53 -199q-8 -30 -11 -48.5t-3 -33.5q0 -52 31.5 -80t91.5 -28h6
v-119h-418zM449 635h348l-172 522zM922 1589h-91l-313 166q-58 31 -76 53t-18 54q0 40 25 65t65 25q31 0 63 -19t72 -61z" />
    <glyph glyph-name="Aacute" unicode="&#xc1;" horiz-adv-x="1479" 
d="M47 0v119q54 13 86.5 50t65.5 132l350 1022q5 18 6.5 26.5t1.5 14.5q0 21 -11 42t-34 44h367l409 -1171q27 -76 62 -115t82 -45v-119h-635v119q66 3 97.5 25t31.5 65q0 13 -4 32.5t-13 49.5l-59 217h-447l-53 -199q-8 -30 -11 -48.5t-3 -33.5q0 -52 31.5 -80t91.5 -28h6
v-119h-418zM449 635h348l-172 522zM532 1589l273 283q40 42 72 61t63 19q40 0 65 -25t25 -65q0 -32 -18 -54t-76 -53l-313 -166h-91z" />
    <glyph glyph-name="Acircumflex" unicode="&#xc2;" horiz-adv-x="1479" 
d="M47 0v119q54 13 86.5 50t65.5 132l350 1022q5 18 6.5 26.5t1.5 14.5q0 21 -11 42t-34 44h367l409 -1171q27 -76 62 -115t82 -45v-119h-635v119q66 3 97.5 25t31.5 65q0 13 -4 32.5t-13 49.5l-59 217h-447l-53 -199q-8 -30 -11 -48.5t-3 -33.5q0 -52 31.5 -80t91.5 -28h6
v-119h-418zM449 635h348l-172 522zM428 1589l225 349h148l225 -349h-84l-215 181l-215 -181h-84z" />
    <glyph glyph-name="Atilde" unicode="&#xc3;" horiz-adv-x="1479" 
d="M47 0v119q54 13 86.5 50t65.5 132l350 1022q5 18 6.5 26.5t1.5 14.5q0 21 -11 42t-34 44h367l409 -1171q27 -76 62 -115t82 -45v-119h-635v119q66 3 97.5 25t31.5 65q0 13 -4 32.5t-13 49.5l-59 217h-447l-53 -199q-8 -30 -11 -48.5t-3 -33.5q0 -52 31.5 -80t91.5 -28h6
v-119h-418zM449 635h348l-172 522zM1016 1911q-14 -116 -68 -181t-137 -65q-16 0 -29.5 2t-27.5 6l-105 27q-14 4 -29 6t-28 2q-31 0 -52.5 -20.5t-37.5 -65.5h-66q17 124 69.5 185t141.5 61q17 0 32.5 -2t31.5 -6l108 -29q12 -3 21.5 -4.5t17.5 -1.5q32 0 54 20.5t38 65.5
h66z" />
    <glyph glyph-name="Adieresis" unicode="&#xc4;" horiz-adv-x="1479" 
d="M47 0v119q54 13 86.5 50t65.5 132l350 1022q5 18 6.5 26.5t1.5 14.5q0 21 -11 42t-34 44h367l409 -1171q27 -76 62 -115t82 -45v-119h-635v119q66 3 97.5 25t31.5 65q0 13 -4 32.5t-13 49.5l-59 217h-447l-53 -199q-8 -30 -11 -48.5t-3 -33.5q0 -52 31.5 -80t91.5 -28h6
v-119h-418zM449 635h348l-172 522zM788 1753q0 48 36 83.5t85 35.5t84 -35t35 -84q0 -53 -33 -87t-86 -34q-51 0 -86 35t-35 86zM424 1753q0 48 36 83.5t85 35.5t84 -35t35 -84q0 -53 -33.5 -87t-85.5 -34t-86.5 35t-34.5 86z" />
    <glyph glyph-name="Aring" unicode="&#xc5;" horiz-adv-x="1479" 
d="M586 1731q0 -54 37 -90.5t90 -36.5t90 36.5t37 90.5q0 53 -37 90t-90 37t-90 -37t-37 -90zM471 1731q0 101 69.5 171t170.5 70t172 -70t71 -171t-71 -171.5t-172 -70.5t-170.5 70t-69.5 172zM47 0v119q54 13 86.5 50t65.5 132l346 996q5 18 6.5 26t1.5 14q0 22 -11 42.5
t-34 43.5h375l405 -1144q27 -76 62 -115t82 -45v-119h-635v119q66 3 97.5 25t31.5 65q0 13 -4 32.5t-13 49.5l-59 217h-447l-53 -199q-8 -30 -11 -48.5t-3 -33.5q0 -52 31.5 -80t91.5 -28h6v-119h-418zM449 635h348l-172 522z" />
    <glyph glyph-name="AE" unicode="&#xc6;" horiz-adv-x="2048" 
d="M29 0v119q50 10 79.5 41.5t57.5 107.5l315 860q15 44 21 69t6 44q0 47 -33.5 73.5t-93.5 26.5h-12l14 109h1221l100 -297l-94 -8q-87 108 -176.5 152t-237.5 44h-168q-26 0 -37.5 -8.5t-11.5 -27.5q0 -11 7 -38q1 -4 1 -5l150 -504h178q83 0 115 28.5t32 100.5
q0 18 -3 55q-1 7 -1 10h107l157 -446h-114q-40 79 -104.5 113t-172.5 34h-157l104 -342q39 -127 76 -154.5t129 -27.5q147 0 239 54.5t176 191.5h113l-86 -375h-1139v119h25q61 0 92 22.5t31 67.5q0 11 -3 27.5t-9 37.5l-74 234h-457l-72 -212q-9 -26 -13.5 -48.5
t-4.5 -40.5q0 -42 32.5 -62.5t106.5 -25.5v-119h-411zM442 631h371l-168 557z" />
    <glyph glyph-name="Ccedilla" unicode="&#xc7;" horiz-adv-x="1479" 
d="M1374 92q-162 -62 -299.5 -92.5t-255.5 -30.5q-334 0 -541.5 204t-207.5 532q0 170 65.5 320.5t190.5 264.5q101 94 230 142.5t278 48.5q119 0 238.5 -34t242.5 -104l33 -313h-127q-50 158 -150 242t-237 84q-182 0 -285 -151t-103 -419q0 -305 121 -493.5t314 -188.5
q138 0 239.5 88t159.5 257h131zM536 -377l41 90q73 -39 130.5 -56t117.5 -17q41 0 64.5 22t23.5 59q0 43 -25.5 64.5t-74.5 21.5q-15 0 -30 -1.5t-32 -3.5v198h70v-114q16 2 32.5 3.5t33.5 1.5q85 0 134.5 -45.5t49.5 -124.5q0 -85 -60 -131.5t-170 -46.5q-56 0 -127.5 18.5
t-177.5 61.5z" />
    <glyph glyph-name="Egrave" unicode="&#xc8;" horiz-adv-x="1360" 
d="M66 0v119q96 10 128.5 41.5t32.5 126.5v876q0 95 -32.5 126.5t-128.5 41.5v119h1138v-299h-110q-43 97 -121 141.5t-205 44.5q-118 0 -151 -15.5t-33 -86.5v-401h153q100 0 152 40t65 130h119v-482h-118q-10 91 -66 140t-152 49h-153v-398q0 -96 40.5 -135t145.5 -39
q139 0 250 64t184 186h115l-86 -389h-1167zM875 1589h-91l-313 166q-58 31 -76 53t-18 54q0 40 25 65t65 25q31 0 63 -19t72 -61z" />
    <glyph glyph-name="Eacute" unicode="&#xc9;" horiz-adv-x="1360" 
d="M66 0v119q96 10 128.5 41.5t32.5 126.5v876q0 95 -32.5 126.5t-128.5 41.5v119h1138v-299h-110q-43 97 -121 141.5t-205 44.5q-118 0 -151 -15.5t-33 -86.5v-401h153q100 0 152 40t65 130h119v-482h-118q-10 91 -66 140t-152 49h-153v-398q0 -96 40.5 -135t145.5 -39
q139 0 250 64t184 186h115l-86 -389h-1167zM485 1589l273 283q40 42 72 61t63 19q40 0 65 -25t25 -65q0 -32 -18 -54t-76 -53l-313 -166h-91z" />
    <glyph glyph-name="Ecircumflex" unicode="&#xca;" horiz-adv-x="1360" 
d="M66 0v119q96 10 128.5 41.5t32.5 126.5v876q0 95 -32.5 126.5t-128.5 41.5v119h1138v-299h-110q-43 97 -121 141.5t-205 44.5q-118 0 -151 -15.5t-33 -86.5v-401h153q100 0 152 40t65 130h119v-482h-118q-10 91 -66 140t-152 49h-153v-398q0 -96 40.5 -135t145.5 -39
q139 0 250 64t184 186h115l-86 -389h-1167zM381 1589l225 349h148l225 -349h-84l-215 181l-215 -181h-84z" />
    <glyph glyph-name="Edieresis" unicode="&#xcb;" horiz-adv-x="1360" 
d="M66 0v119q96 10 128.5 41.5t32.5 126.5v876q0 95 -32.5 126.5t-128.5 41.5v119h1138v-299h-110q-43 97 -121 141.5t-205 44.5q-118 0 -151 -15.5t-33 -86.5v-401h153q100 0 152 40t65 130h119v-482h-118q-10 91 -66 140t-152 49h-153v-398q0 -96 40.5 -135t145.5 -39
q139 0 250 64t184 186h115l-86 -389h-1167zM741 1753q0 48 36 83.5t85 35.5t84 -35t35 -84q0 -53 -33 -87t-86 -34q-51 0 -86 35t-35 86zM377 1753q0 48 36 83.5t85 35.5t84 -35t35 -84q0 -53 -33.5 -87t-85.5 -34t-86.5 35t-34.5 86z" />
    <glyph glyph-name="Igrave" unicode="&#xcc;" horiz-adv-x="801" 
d="M63 0v119q97 10 129.5 41.5t32.5 126.5v876q0 95 -32.5 126.5t-129.5 41.5v119h674v-119q-97 -10 -129.5 -41.5t-32.5 -126.5v-876q0 -95 32.5 -126.5t129.5 -41.5v-119h-674zM596 1589h-91l-313 166q-58 31 -76 53t-18 54q0 40 25 65t65 25q31 0 63 -19t72 -61z" />
    <glyph glyph-name="Iacute" unicode="&#xcd;" horiz-adv-x="801" 
d="M63 0v119q97 10 129.5 41.5t32.5 126.5v876q0 95 -32.5 126.5t-129.5 41.5v119h674v-119q-97 -10 -129.5 -41.5t-32.5 -126.5v-876q0 -95 32.5 -126.5t129.5 -41.5v-119h-674zM206 1589l273 283q40 42 72 61t63 19q40 0 65 -25t25 -65q0 -32 -18 -54t-76 -53l-313 -166
h-91z" />
    <glyph glyph-name="Icircumflex" unicode="&#xce;" horiz-adv-x="801" 
d="M63 0v119q97 10 129.5 41.5t32.5 126.5v876q0 95 -32.5 126.5t-129.5 41.5v119h674v-119q-97 -10 -129.5 -41.5t-32.5 -126.5v-876q0 -95 32.5 -126.5t129.5 -41.5v-119h-674zM102 1589l225 349h148l225 -349h-84l-215 181l-215 -181h-84z" />
    <glyph glyph-name="Idieresis" unicode="&#xcf;" horiz-adv-x="801" 
d="M63 0v119q97 10 129.5 41.5t32.5 126.5v876q0 95 -32.5 126.5t-129.5 41.5v119h674v-119q-97 -10 -129.5 -41.5t-32.5 -126.5v-876q0 -95 32.5 -126.5t129.5 -41.5v-119h-674zM462 1753q0 48 36 83.5t85 35.5t84 -35t35 -84q0 -53 -33 -87t-86 -34q-51 0 -86 35t-35 86z
M98 1753q0 48 36 83.5t85 35.5t84 -35t35 -84q0 -53 -33.5 -87t-85.5 -34t-86.5 35t-34.5 86z" />
    <glyph glyph-name="Eth" unicode="&#xd0;" horiz-adv-x="1716" 
d="M588 362q0 -146 43 -190.5t164 -44.5q209 0 327.5 149t118.5 414q0 305 -146 473t-409 168q-54 0 -76 -22t-22 -76v-420h340v-127h-340v-324zM76 0v119q97 10 129.5 41.5t32.5 126.5v399h-238v127h238v350q0 95 -32.5 126.5t-129.5 41.5v119h663q412 0 649.5 -193
t237.5 -526q0 -169 -71 -317t-201 -252q-106 -85 -246 -123.5t-344 -38.5h-688z" />
    <glyph glyph-name="Ntilde" unicode="&#xd1;" horiz-adv-x="1651" 
d="M63 0v119q105 10 143 56t38 200v842q-50 61 -91 87.5t-85 26.5h-5v119h402q29 0 41 -7t33 -32l747 -883v598q0 94 -42.5 142t-139.5 63v119h495v-119q-99 -16 -137.5 -60t-38.5 -145v-915q0 -55 2.5 -114t7.5 -126h-147l-909 1067v-663q0 -144 44.5 -193.5t172.5 -62.5
v-119h-531zM1114 1911q-14 -116 -68 -181t-137 -65q-16 0 -29.5 2t-27.5 6l-105 27q-14 4 -29 6t-28 2q-31 0 -52.5 -20.5t-37.5 -65.5h-66q17 124 69.5 185t141.5 61q17 0 32.5 -2t31.5 -6l108 -29q12 -3 21.5 -4.5t17.5 -1.5q32 0 54 20.5t38 65.5h66z" />
    <glyph glyph-name="Ograve" unicode="&#xd2;" horiz-adv-x="1597" 
d="M451 764q0 -319 91.5 -491.5t260.5 -172.5q173 0 258.5 146t85.5 442q0 320 -90.5 491t-259.5 171q-171 0 -258.5 -148.5t-87.5 -437.5zM784 -29q-158 0 -291 58t-241 174q-91 99 -137.5 228.5t-46.5 283.5q0 151 47.5 283t140.5 237q105 119 247.5 181.5t309.5 62.5
q147 0 274 -50.5t228 -148.5q106 -103 160.5 -238.5t54.5 -298.5q0 -146 -43.5 -276.5t-124.5 -226.5q-111 -134 -256 -201.5t-322 -67.5zM994 1589h-91l-313 166q-58 31 -76 53t-18 54q0 40 25 65t65 25q31 0 63 -19t72 -61z" />
    <glyph glyph-name="Oacute" unicode="&#xd3;" horiz-adv-x="1597" 
d="M451 764q0 -319 91.5 -491.5t260.5 -172.5q173 0 258.5 146t85.5 442q0 320 -90.5 491t-259.5 171q-171 0 -258.5 -148.5t-87.5 -437.5zM784 -29q-158 0 -291 58t-241 174q-91 99 -137.5 228.5t-46.5 283.5q0 151 47.5 283t140.5 237q105 119 247.5 181.5t309.5 62.5
q147 0 274 -50.5t228 -148.5q106 -103 160.5 -238.5t54.5 -298.5q0 -146 -43.5 -276.5t-124.5 -226.5q-111 -134 -256 -201.5t-322 -67.5zM604 1589l273 283q40 42 72 61t63 19q40 0 65 -25t25 -65q0 -32 -18 -54t-76 -53l-313 -166h-91z" />
    <glyph glyph-name="Ocircumflex" unicode="&#xd4;" horiz-adv-x="1597" 
d="M451 764q0 -319 91.5 -491.5t260.5 -172.5q173 0 258.5 146t85.5 442q0 320 -90.5 491t-259.5 171q-171 0 -258.5 -148.5t-87.5 -437.5zM784 -29q-158 0 -291 58t-241 174q-91 99 -137.5 228.5t-46.5 283.5q0 151 47.5 283t140.5 237q105 119 247.5 181.5t309.5 62.5
q147 0 274 -50.5t228 -148.5q106 -103 160.5 -238.5t54.5 -298.5q0 -146 -43.5 -276.5t-124.5 -226.5q-111 -134 -256 -201.5t-322 -67.5zM500 1589l225 349h148l225 -349h-84l-215 181l-215 -181h-84z" />
    <glyph glyph-name="Otilde" unicode="&#xd5;" horiz-adv-x="1597" 
d="M451 764q0 -319 91.5 -491.5t260.5 -172.5q173 0 258.5 146t85.5 442q0 320 -90.5 491t-259.5 171q-171 0 -258.5 -148.5t-87.5 -437.5zM784 -29q-158 0 -291 58t-241 174q-91 99 -137.5 228.5t-46.5 283.5q0 151 47.5 283t140.5 237q105 119 247.5 181.5t309.5 62.5
q147 0 274 -50.5t228 -148.5q106 -103 160.5 -238.5t54.5 -298.5q0 -146 -43.5 -276.5t-124.5 -226.5q-111 -134 -256 -201.5t-322 -67.5zM1088 1911q-14 -116 -68 -181t-137 -65q-16 0 -29.5 2t-27.5 6l-105 27q-14 4 -29 6t-28 2q-31 0 -52.5 -20.5t-37.5 -65.5h-66
q17 124 69.5 185t141.5 61q17 0 32.5 -2t31.5 -6l108 -29q12 -3 21.5 -4.5t17.5 -1.5q32 0 54 20.5t38 65.5h66z" />
    <glyph glyph-name="Odieresis" unicode="&#xd6;" horiz-adv-x="1597" 
d="M451 764q0 -319 91.5 -491.5t260.5 -172.5q173 0 258.5 146t85.5 442q0 320 -90.5 491t-259.5 171q-171 0 -258.5 -148.5t-87.5 -437.5zM784 -29q-158 0 -291 58t-241 174q-91 99 -137.5 228.5t-46.5 283.5q0 151 47.5 283t140.5 237q105 119 247.5 181.5t309.5 62.5
q147 0 274 -50.5t228 -148.5q106 -103 160.5 -238.5t54.5 -298.5q0 -146 -43.5 -276.5t-124.5 -226.5q-111 -134 -256 -201.5t-322 -67.5zM860 1753q0 48 36 83.5t85 35.5t84 -35t35 -84q0 -53 -33 -87t-86 -34q-51 0 -86 35t-35 86zM496 1753q0 48 36 83.5t85 35.5t84 -35
t35 -84q0 -53 -33.5 -87t-85.5 -34t-86.5 35t-34.5 86z" />
    <glyph glyph-name="multiply" unicode="&#xd7;" horiz-adv-x="1706" 
d="M416 1202l450 -450l451 450l141 -139l-450 -453l450 -450l-141 -140l-451 451l-450 -451l-140 140l451 450l-451 453z" />
    <glyph glyph-name="Oslash" unicode="&#xd8;" horiz-adv-x="1597" 
d="M516 332l512 897q-47 61 -103 91t-124 30q-175 0 -262.5 -148t-87.5 -442q0 -118 16 -224.5t49 -203.5zM231 -145l138 239q-151 114 -226 268.5t-75 350.5q0 152 47.5 284.5t140.5 237.5q108 121 252 183.5t317 62.5q83 0 157.5 -16.5t141.5 -49.5l99 176l102 -57
l-102 -176q153 -111 230 -264t77 -349q0 -146 -43.5 -276.5t-124.5 -228.5q-111 -135 -256.5 -201t-329.5 -66q-81 0 -156 16t-147 48l-139 -242zM1081 1122l-512 -897q47 -63 104.5 -94t129.5 -31q172 0 257 145.5t85 442.5q0 134 -15.5 241t-48.5 193z" />
    <glyph glyph-name="Ugrave" unicode="&#xd9;" horiz-adv-x="1651" 
d="M61 1450h682v-119h-8q-96 0 -129 -38t-33 -185v-625q0 -180 81.5 -262t258.5 -82q206 0 299 106.5t93 344.5v543q0 118 -39 158t-144 40h-18v119h512v-119h-8q-96 0 -131 -39.5t-35 -158.5v-543q0 -307 -156 -467t-457 -160q-128 0 -240.5 33t-199.5 96
q-89 65 -127.5 157t-38.5 257v612q0 140 -32.5 174t-128.5 39zM1110 1589h-91l-313 166q-58 31 -76 53t-18 54q0 40 25 65t65 25q31 0 63 -19t72 -61z" />
    <glyph glyph-name="Uacute" unicode="&#xda;" horiz-adv-x="1651" 
d="M61 1450h682v-119h-8q-96 0 -129 -38t-33 -185v-625q0 -180 81.5 -262t258.5 -82q206 0 299 106.5t93 344.5v543q0 118 -39 158t-144 40h-18v119h512v-119h-8q-96 0 -131 -39.5t-35 -158.5v-543q0 -307 -156 -467t-457 -160q-128 0 -240.5 33t-199.5 96
q-89 65 -127.5 157t-38.5 257v612q0 140 -32.5 174t-128.5 39zM720 1589l273 283q40 42 72 61t63 19q40 0 65 -25t25 -65q0 -32 -18 -54t-76 -53l-313 -166h-91z" />
    <glyph glyph-name="Ucircumflex" unicode="&#xdb;" horiz-adv-x="1651" 
d="M61 1450h682v-119h-8q-96 0 -129 -38t-33 -185v-625q0 -180 81.5 -262t258.5 -82q206 0 299 106.5t93 344.5v543q0 118 -39 158t-144 40h-18v119h512v-119h-8q-96 0 -131 -39.5t-35 -158.5v-543q0 -307 -156 -467t-457 -160q-128 0 -240.5 33t-199.5 96
q-89 65 -127.5 157t-38.5 257v612q0 140 -32.5 174t-128.5 39zM616 1589l225 349h148l225 -349h-84l-215 181l-215 -181h-84z" />
    <glyph glyph-name="Udieresis" unicode="&#xdc;" horiz-adv-x="1651" 
d="M61 1450h682v-119h-8q-96 0 -129 -38t-33 -185v-625q0 -180 81.5 -262t258.5 -82q206 0 299 106.5t93 344.5v543q0 118 -39 158t-144 40h-18v119h512v-119h-8q-96 0 -131 -39.5t-35 -158.5v-543q0 -307 -156 -467t-457 -160q-128 0 -240.5 33t-199.5 96
q-89 65 -127.5 157t-38.5 257v612q0 140 -32.5 174t-128.5 39zM976 1753q0 48 36 83.5t85 35.5t84 -35t35 -84q0 -53 -33 -87t-86 -34q-51 0 -86 35t-35 86zM612 1753q0 48 36 83.5t85 35.5t84 -35t35 -84q0 -53 -33.5 -87t-85.5 -34t-86.5 35t-34.5 86z" />
    <glyph glyph-name="Yacute" unicode="&#xdd;" horiz-adv-x="1485" 
d="M397 0l1 119q108 1 142.5 34t34.5 166v244l-337 600q-58 100 -97 131t-94 37v119h682v-118q-6 0 -13 0.5t-20 0.5q-53 0 -81.5 -21.5t-28.5 -60.5q0 -32 33 -94q5 -9 8 -14l219 -422l44 69q257 403 257 484q0 25 -33 40.5t-90 17.5v118h412l-1 -119q-46 -1 -84.5 -36.5
t-109.5 -161.5q-4 -8 -16 -30q-135 -250 -305 -505v-283q0 -133 33 -162.5t137 -33.5v-119h-693zM548 1589l273 283q40 42 72 61t63 19q40 0 65 -25t25 -65q0 -32 -18 -54t-76 -53l-313 -166h-91z" />
    <glyph glyph-name="Thorn" unicode="&#xde;" horiz-adv-x="1298" 
d="M735 1450v-119q-94 -9 -128 -39.5t-34 -105.5v-25h80q278 0 427 -110.5t149 -317.5q0 -172 -133.5 -280.5t-350.5 -108.5q-69 0 -87.5 9.5t-18.5 49.5v31q0 28 35 34q11 2 16 3q116 19 163.5 80t47.5 188q0 143 -63.5 216t-188.5 73q-46 0 -60.5 -9.5t-15.5 -35.5v-696
q0 -91 36 -126t130 -40v-121h-673v121q93 4 127 36.5t34 129.5v880q0 92 -32 123t-129 41v119h669z" />
    <glyph glyph-name="germandbls" unicode="&#xdf;" horiz-adv-x="1255" 
d="M621 891q105 41 157.5 116t52.5 183q0 84 -48 135t-128 51q-102 0 -152 -79t-50 -238q0 -10 1 -29.5t1 -30.5v-999h-404v106q77 3 103 34t26 169v568h-94v16q0 58 76 82l24 8q12 231 159 372.5t372 141.5q168 0 268 -76t100 -202q0 -105 -72.5 -191t-217.5 -151
q195 -34 294 -140.5t99 -281.5q0 -101 -33 -184.5t-100 -155.5q-59 -62 -126.5 -94.5t-135.5 -32.5q-101 0 -153 55t-52 162v12h102q3 -53 24 -78.5t62 -25.5q63 0 96 70.5t33 203.5q0 172 -75 280t-209 130v94z" />
    <glyph glyph-name="agrave" unicode="&#xe0;" horiz-adv-x="1028" 
d="M614 86q-76 -54 -143.5 -79t-134.5 -25q-123 0 -199 66t-76 171q0 117 127 201t404 149v160q0 79 -30.5 113.5t-100.5 34.5q-53 0 -87 -20.5t-34 -51.5q0 -23 16.5 -55t16.5 -41q0 -20 -66.5 -55.5t-120.5 -35.5q-28 0 -48.5 39.5t-20.5 96.5q0 99 99.5 161t262.5 62
q229 0 308 -66t79 -249v-408q0 -55 9.5 -73.5t33.5 -18.5q14 0 30 5.5t36 16.5q0 -94 -56 -151.5t-149 -57.5q-53 0 -92 27.5t-64 83.5zM592 211v248q-129 -38 -197.5 -89.5t-68.5 -111.5q0 -46 33.5 -76t84.5 -30q34 0 70 14t78 45zM697 1087h-91l-313 166q-58 31 -76 53
t-18 54q0 40 25 65t65 25q31 0 63 -19t72 -61z" />
    <glyph glyph-name="aacute" unicode="&#xe1;" horiz-adv-x="1028" 
d="M614 86q-76 -54 -143.5 -79t-134.5 -25q-123 0 -199 66t-76 171q0 117 127 201t404 149v160q0 79 -30.5 113.5t-100.5 34.5q-53 0 -87 -20.5t-34 -51.5q0 -23 16.5 -55t16.5 -41q0 -20 -66.5 -55.5t-120.5 -35.5q-28 0 -48.5 39.5t-20.5 96.5q0 99 99.5 161t262.5 62
q229 0 308 -66t79 -249v-408q0 -55 9.5 -73.5t33.5 -18.5q14 0 30 5.5t36 16.5q0 -94 -56 -151.5t-149 -57.5q-53 0 -92 27.5t-64 83.5zM592 211v248q-129 -38 -197.5 -89.5t-68.5 -111.5q0 -46 33.5 -76t84.5 -30q34 0 70 14t78 45zM307 1087l273 283q40 42 72 61t63 19
q40 0 65 -25t25 -65q0 -32 -18 -54t-76 -53l-313 -166h-91z" />
    <glyph glyph-name="acircumflex" unicode="&#xe2;" horiz-adv-x="1028" 
d="M614 86q-76 -54 -143.5 -79t-134.5 -25q-123 0 -199 66t-76 171q0 117 127 201t404 149v160q0 79 -30.5 113.5t-100.5 34.5q-53 0 -87 -20.5t-34 -51.5q0 -23 16.5 -55t16.5 -41q0 -20 -66.5 -55.5t-120.5 -35.5q-28 0 -48.5 39.5t-20.5 96.5q0 99 99.5 161t262.5 62
q229 0 308 -66t79 -249v-408q0 -55 9.5 -73.5t33.5 -18.5q14 0 30 5.5t36 16.5q0 -94 -56 -151.5t-149 -57.5q-53 0 -92 27.5t-64 83.5zM592 211v248q-129 -38 -197.5 -89.5t-68.5 -111.5q0 -46 33.5 -76t84.5 -30q34 0 70 14t78 45zM203 1087l225 349h148l225 -349h-84
l-215 181l-215 -181h-84z" />
    <glyph glyph-name="atilde" unicode="&#xe3;" horiz-adv-x="1028" 
d="M614 86q-76 -54 -143.5 -79t-134.5 -25q-123 0 -199 66t-76 171q0 117 127 201t404 149v160q0 79 -30.5 113.5t-100.5 34.5q-53 0 -87 -20.5t-34 -51.5q0 -23 16.5 -55t16.5 -41q0 -20 -66.5 -55.5t-120.5 -35.5q-28 0 -48.5 39.5t-20.5 96.5q0 99 99.5 161t262.5 62
q229 0 308 -66t79 -249v-408q0 -55 9.5 -73.5t33.5 -18.5q14 0 30 5.5t36 16.5q0 -94 -56 -151.5t-149 -57.5q-53 0 -92 27.5t-64 83.5zM592 211v248q-129 -38 -197.5 -89.5t-68.5 -111.5q0 -46 33.5 -76t84.5 -30q34 0 70 14t78 45zM791 1409q-14 -116 -68 -181t-137 -65
q-16 0 -29.5 2t-27.5 6l-105 27q-14 4 -29 6t-28 2q-31 0 -52.5 -20.5t-37.5 -65.5h-66q17 124 69.5 185t141.5 61q17 0 32.5 -2t31.5 -6l108 -29q12 -3 21.5 -4.5t17.5 -1.5q32 0 54 20.5t38 65.5h66z" />
    <glyph glyph-name="adieresis" unicode="&#xe4;" horiz-adv-x="1028" 
d="M614 86q-76 -54 -143.5 -79t-134.5 -25q-123 0 -199 66t-76 171q0 117 127 201t404 149v160q0 79 -30.5 113.5t-100.5 34.5q-53 0 -87 -20.5t-34 -51.5q0 -23 16.5 -55t16.5 -41q0 -20 -66.5 -55.5t-120.5 -35.5q-28 0 -48.5 39.5t-20.5 96.5q0 99 99.5 161t262.5 62
q229 0 308 -66t79 -249v-408q0 -55 9.5 -73.5t33.5 -18.5q14 0 30 5.5t36 16.5q0 -94 -56 -151.5t-149 -57.5q-53 0 -92 27.5t-64 83.5zM592 211v248q-129 -38 -197.5 -89.5t-68.5 -111.5q0 -46 33.5 -76t84.5 -30q34 0 70 14t78 45zM563 1251q0 48 36 83.5t85 35.5t84 -35
t35 -84q0 -53 -33 -87t-86 -34q-51 0 -86 35t-35 86zM199 1251q0 48 36 83.5t85 35.5t84 -35t35 -84q0 -53 -33.5 -87t-85.5 -34t-86.5 35t-34.5 86z" />
    <glyph glyph-name="aring" unicode="&#xe5;" horiz-adv-x="1028" 
d="M365 1321q0 -57 39 -95t96 -38t95 38t38 95t-39 96t-94 39q-57 0 -96 -39t-39 -96zM246 1321q0 106 73 180t179 74t180 -74t74 -180t-74 -179t-180 -73t-179 73t-73 179zM614 86q-76 -54 -143.5 -79t-134.5 -25q-123 0 -199 66t-76 171q0 117 127 201t404 149v160
q0 79 -30.5 113.5t-100.5 34.5q-53 0 -87 -20.5t-34 -51.5q0 -23 16.5 -55t16.5 -41q0 -20 -66.5 -55.5t-120.5 -35.5q-28 0 -48.5 39.5t-20.5 96.5q0 99 99.5 161t262.5 62q229 0 308 -66t79 -249v-408q0 -55 9.5 -73.5t33.5 -18.5q14 0 30 5.5t36 16.5q0 -94 -56 -151.5
t-149 -57.5q-53 0 -92 27.5t-64 83.5zM592 211v248q-129 -38 -197.5 -89.5t-68.5 -111.5q0 -46 33.5 -76t84.5 -30q34 0 70 14t78 45z" />
    <glyph glyph-name="ae" unicode="&#xe6;" horiz-adv-x="1520" 
d="M596 459q-128 -37 -196 -88.5t-68 -110.5q0 -53 28.5 -81.5t79.5 -28.5q38 0 76.5 15t79.5 46v248zM858 582l328 65v25q0 84 -43.5 135t-114.5 51q-81 0 -125.5 -64.5t-44.5 -183.5v-28zM784 874q62 50 129 73.5t146 23.5q163 0 267.5 -99t125.5 -274l-582 -125
q14 -118 90 -191t185 -73q44 0 101.5 19t156.5 69l65 -76q-119 -132 -216.5 -186.5t-211.5 -54.5q-107 0 -193.5 42t-148.5 125q-103 -87 -189 -126t-171 -39q-122 0 -197 66t-75 171q0 117 126.5 201t403.5 149v160q0 78 -31 113t-102 35q-53 0 -86 -20.5t-33 -51.5
q0 -23 16.5 -55t16.5 -41q0 -20 -66.5 -55.5t-120.5 -35.5q-28 0 -49.5 40t-21.5 96q0 99 99.5 161t262.5 62q119 0 191 -24.5t112 -78.5z" />
    <glyph glyph-name="ccedilla" unicode="&#xe7;" 
d="M958 188q-107 -106 -212 -157t-214 -51q-191 0 -316.5 133.5t-125.5 341.5q0 232 135 376t355 144q159 0 258.5 -68.5t99.5 -175.5q0 -57 -39 -98t-94 -41q-41 0 -73.5 24t-47.5 66q-4 11 -11 30q-51 142 -149 142q-79 0 -126.5 -68.5t-47.5 -183.5q0 -182 87.5 -297
t224.5 -115q58 0 115 20t114 60zM235 -377l41 90q73 -39 130.5 -56t117.5 -17q41 0 64.5 22t23.5 59q0 43 -25.5 64.5t-74.5 21.5q-15 0 -30 -1.5t-32 -3.5v198h70v-114q16 2 32.5 3.5t33.5 1.5q85 0 134.5 -45.5t49.5 -124.5q0 -85 -60 -131.5t-170 -46.5
q-56 0 -127.5 18.5t-177.5 61.5z" />
    <glyph glyph-name="egrave" unicode="&#xe8;" horiz-adv-x="1028" 
d="M948 545h-596v-6q0 -145 76 -236.5t193 -91.5q51 0 114.5 20.5t155.5 67.5l70 -76q-120 -132 -217.5 -186.5t-211.5 -54.5q-195 0 -320.5 141t-125.5 364q0 215 129 351.5t334 136.5q176 0 284.5 -116.5t114.5 -313.5zM353 649h325q0 6 1 16t1 15q0 85 -45.5 132.5
t-126.5 47.5q-67 0 -110.5 -58t-44.5 -153zM723 1087h-91l-313 166q-58 31 -76 53t-18 54q0 40 25 65t65 25q31 0 63 -19t72 -61z" />
    <glyph glyph-name="eacute" unicode="&#xe9;" horiz-adv-x="1028" 
d="M948 545h-596v-6q0 -145 76 -236.5t193 -91.5q51 0 114.5 20.5t155.5 67.5l70 -76q-120 -132 -217.5 -186.5t-211.5 -54.5q-195 0 -320.5 141t-125.5 364q0 215 129 351.5t334 136.5q176 0 284.5 -116.5t114.5 -313.5zM353 649h325q0 6 1 16t1 15q0 85 -45.5 132.5
t-126.5 47.5q-67 0 -110.5 -58t-44.5 -153zM333 1087l273 283q40 42 72 61t63 19q40 0 65 -25t25 -65q0 -32 -18 -54t-76 -53l-313 -166h-91z" />
    <glyph glyph-name="ecircumflex" unicode="&#xea;" horiz-adv-x="1028" 
d="M948 545h-596v-6q0 -145 76 -236.5t193 -91.5q51 0 114.5 20.5t155.5 67.5l70 -76q-120 -132 -217.5 -186.5t-211.5 -54.5q-195 0 -320.5 141t-125.5 364q0 215 129 351.5t334 136.5q176 0 284.5 -116.5t114.5 -313.5zM353 649h325q0 6 1 16t1 15q0 85 -45.5 132.5
t-126.5 47.5q-67 0 -110.5 -58t-44.5 -153zM229 1087l225 349h148l225 -349h-84l-215 181l-215 -181h-84z" />
    <glyph glyph-name="edieresis" unicode="&#xeb;" horiz-adv-x="1028" 
d="M948 545h-596v-6q0 -145 76 -236.5t193 -91.5q51 0 114.5 20.5t155.5 67.5l70 -76q-120 -132 -217.5 -186.5t-211.5 -54.5q-195 0 -320.5 141t-125.5 364q0 215 129 351.5t334 136.5q176 0 284.5 -116.5t114.5 -313.5zM353 649h325q0 6 1 16t1 15q0 85 -45.5 132.5
t-126.5 47.5q-67 0 -110.5 -58t-44.5 -153zM589 1251q0 48 36 83.5t85 35.5t84 -35t35 -84q0 -53 -33 -87t-86 -34q-51 0 -86 35t-35 86zM225 1251q0 48 36 83.5t85 35.5t84 -35t35 -84q0 -53 -33.5 -87t-85.5 -34t-86.5 35t-34.5 86z" />
    <glyph glyph-name="igrave" unicode="&#xec;" horiz-adv-x="637" 
d="M465 223q0 -62 26.5 -88.5t94.5 -32.5v-102h-518v102q68 6 94 32.5t26 88.5v516l-116 62v65l327 111h66v-754zM502 1087h-91l-313 166q-58 31 -76 53t-18 54q0 40 25 65t65 25q31 0 63 -19t72 -61z" />
    <glyph glyph-name="iacute" unicode="&#xed;" horiz-adv-x="637" 
d="M465 223q0 -62 26.5 -88.5t94.5 -32.5v-102h-518v102q68 6 94 32.5t26 88.5v516l-116 62v65l327 111h66v-754zM112 1087l273 283q40 42 72 61t63 19q40 0 65 -25t25 -65q0 -32 -18 -54t-76 -53l-313 -166h-91z" />
    <glyph glyph-name="icircumflex" unicode="&#xee;" horiz-adv-x="637" 
d="M465 223q0 -62 26.5 -88.5t94.5 -32.5v-102h-518v102q68 6 94 32.5t26 88.5v516l-116 62v65l327 111h66v-754zM8 1087l225 349h148l225 -349h-84l-215 181l-215 -181h-84z" />
    <glyph glyph-name="idieresis" unicode="&#xef;" horiz-adv-x="637" 
d="M465 223q0 -62 26.5 -88.5t94.5 -32.5v-102h-518v102q68 6 94 32.5t26 88.5v516l-116 62v65l327 111h66v-754zM368 1251q0 48 36 83.5t85 35.5t84 -35t35 -84q0 -53 -33 -87t-86 -34q-51 0 -86 35t-35 86zM4 1251q0 48 36 83.5t85 35.5t84 -35t35 -84q0 -53 -33.5 -87
t-85.5 -34t-86.5 35t-34.5 86z" />
    <glyph glyph-name="eth" unicode="&#xf0;" horiz-adv-x="1006" 
d="M328 516q0 -204 44.5 -314t127.5 -110q90 0 131 78t41 250q0 195 -48.5 303t-136.5 108q-81 0 -120 -76.5t-39 -238.5zM579 922q-26 78 -54 135t-58 96l-289 -162l-49 92l277 154q-45 56 -85 105.5t-73 89.5l47 47q66 -41 126.5 -83t117.5 -85l286 164l52 -91l-248 -141
q148 -152 231.5 -355t83.5 -407q0 -224 -124 -361.5t-326 -137.5q-194 0 -315.5 136.5t-121.5 356.5q0 104 35.5 191.5t104.5 152.5q60 57 133.5 89t144.5 32q26 0 52 -4.5t52 -13.5z" />
    <glyph glyph-name="ntilde" unicode="&#xf1;" horiz-adv-x="1204" 
d="M59 0v102q69 6 95 32.5t26 88.5v516l-121 62v65l328 111h66v-115q88 58 165.5 86.5t149.5 28.5q144 0 209 -76.5t65 -247.5v-430q0 -62 24 -88.5t85 -32.5v-102h-487v102q56 6 78 32.5t22 88.5v436q0 80 -28 111t-99 31q-42 0 -86.5 -10.5t-89.5 -30.5v-537
q0 -63 21.5 -89t76.5 -32v-102h-500zM891 1409q-14 -116 -68 -181t-137 -65q-16 0 -29.5 2t-27.5 6l-105 27q-14 4 -29 6t-28 2q-31 0 -52.5 -20.5t-37.5 -65.5h-66q17 124 69.5 185t141.5 61q17 0 32.5 -2t31.5 -6l108 -29q12 -3 21.5 -4.5t17.5 -1.5q32 0 54 20.5t38 65.5
h66z" />
    <glyph glyph-name="ograve" unicode="&#xf2;" horiz-adv-x="1098" 
d="M356 532q0 -209 50.5 -323.5t142.5 -114.5q100 0 145 81t45 261q0 204 -54 317t-150 113q-91 0 -135 -81.5t-44 -252.5zM541 -20q-218 0 -352 142.5t-134 373.5q0 206 141.5 343.5t354.5 137.5t351 -141.5t138 -360.5q0 -216 -140 -355.5t-359 -139.5zM744 1087h-91
l-313 166q-58 31 -76 53t-18 54q0 40 25 65t65 25q31 0 63 -19t72 -61z" />
    <glyph glyph-name="oacute" unicode="&#xf3;" horiz-adv-x="1098" 
d="M356 532q0 -209 50.5 -323.5t142.5 -114.5q100 0 145 81t45 261q0 204 -54 317t-150 113q-91 0 -135 -81.5t-44 -252.5zM541 -20q-218 0 -352 142.5t-134 373.5q0 206 141.5 343.5t354.5 137.5t351 -141.5t138 -360.5q0 -216 -140 -355.5t-359 -139.5zM354 1087l273 283
q40 42 72 61t63 19q40 0 65 -25t25 -65q0 -32 -18 -54t-76 -53l-313 -166h-91z" />
    <glyph glyph-name="ocircumflex" unicode="&#xf4;" horiz-adv-x="1098" 
d="M356 532q0 -209 50.5 -323.5t142.5 -114.5q100 0 145 81t45 261q0 204 -54 317t-150 113q-91 0 -135 -81.5t-44 -252.5zM541 -20q-218 0 -352 142.5t-134 373.5q0 206 141.5 343.5t354.5 137.5t351 -141.5t138 -360.5q0 -216 -140 -355.5t-359 -139.5zM250 1087l225 349
h148l225 -349h-84l-215 181l-215 -181h-84z" />
    <glyph glyph-name="otilde" unicode="&#xf5;" horiz-adv-x="1098" 
d="M356 532q0 -209 50.5 -323.5t142.5 -114.5q100 0 145 81t45 261q0 204 -54 317t-150 113q-91 0 -135 -81.5t-44 -252.5zM541 -20q-218 0 -352 142.5t-134 373.5q0 206 141.5 343.5t354.5 137.5t351 -141.5t138 -360.5q0 -216 -140 -355.5t-359 -139.5zM838 1409
q-14 -116 -68 -181t-137 -65q-16 0 -29.5 2t-27.5 6l-105 27q-14 4 -29 6t-28 2q-31 0 -52.5 -20.5t-37.5 -65.5h-66q17 124 69.5 185t141.5 61q17 0 32.5 -2t31.5 -6l108 -29q12 -3 21.5 -4.5t17.5 -1.5q32 0 54 20.5t38 65.5h66z" />
    <glyph glyph-name="odieresis" unicode="&#xf6;" horiz-adv-x="1098" 
d="M356 532q0 -209 50.5 -323.5t142.5 -114.5q100 0 145 81t45 261q0 204 -54 317t-150 113q-91 0 -135 -81.5t-44 -252.5zM541 -20q-218 0 -352 142.5t-134 373.5q0 206 141.5 343.5t354.5 137.5t351 -141.5t138 -360.5q0 -216 -140 -355.5t-359 -139.5zM610 1251
q0 48 36 83.5t85 35.5t84 -35t35 -84q0 -53 -33 -87t-86 -34q-51 0 -86 35t-35 86zM246 1251q0 48 36 83.5t85 35.5t84 -35t35 -84q0 -53 -33.5 -87t-85.5 -34t-86.5 35t-34.5 86z" />
    <glyph glyph-name="divide" unicode="&#xf7;" horiz-adv-x="1706" 
d="M854 369q62 0 107 -45t45 -107q0 -61 -45 -105t-107 -44q-63 0 -107.5 43t-44.5 106t44.5 107.5t107.5 44.5zM254 711h1198v-199h-1198v199zM854 1155q62 0 107 -44.5t45 -106.5q0 -63 -44.5 -107.5t-107.5 -44.5t-107.5 44.5t-44.5 107.5t44.5 107t107.5 44z" />
    <glyph glyph-name="oslash" unicode="&#xf8;" horiz-adv-x="1098" 
d="M760 934l123 231l90 -49l-125 -235q96 -72 144 -170.5t48 -223.5q0 -225 -135 -365t-352 -140q-44 0 -87.5 6t-88.5 18l-137 -256l-93 49l134 246q-112 73 -169 187t-57 264q0 207 140.5 343t355.5 136q45 0 97 -10.5t112 -30.5zM721 667l-283 -520q21 -27 47 -40t64 -13
q99 0 144.5 81.5t45.5 260.5q0 57 -4.5 114.5t-13.5 116.5zM391 229l291 535q-28 51 -64 75.5t-81 24.5q-94 0 -137.5 -79.5t-43.5 -252.5q0 -80 9 -156t26 -147z" />
    <glyph glyph-name="ugrave" unicode="&#xf9;" horiz-adv-x="1139" 
d="M975 262q0 -79 18 -103t68 -24q13 0 21 0.5t15 1.5l1 -102l-404 -53v110q-66 -55 -133.5 -82.5t-136.5 -27.5q-141 0 -209 81.5t-68 251.5v402q0 77 -22 101.5t-92 37.5v102l387 19v-637q0 -99 32.5 -135.5t114.5 -36.5q60 0 93.5 21t33.5 59v475q0 67 -20.5 94.5
t-73.5 39.5v101l375 19v-715zM738 1087h-91l-313 166q-58 31 -76 53t-18 54q0 40 25 65t65 25q31 0 63 -19t72 -61z" />
    <glyph glyph-name="uacute" unicode="&#xfa;" horiz-adv-x="1139" 
d="M975 262q0 -79 18 -103t68 -24q13 0 21 0.5t15 1.5l1 -102l-404 -53v110q-66 -55 -133.5 -82.5t-136.5 -27.5q-141 0 -209 81.5t-68 251.5v402q0 77 -22 101.5t-92 37.5v102l387 19v-637q0 -99 32.5 -135.5t114.5 -36.5q60 0 93.5 21t33.5 59v475q0 67 -20.5 94.5
t-73.5 39.5v101l375 19v-715zM348 1087l273 283q40 42 72 61t63 19q40 0 65 -25t25 -65q0 -32 -18 -54t-76 -53l-313 -166h-91z" />
    <glyph glyph-name="ucircumflex" unicode="&#xfb;" horiz-adv-x="1139" 
d="M975 262q0 -79 18 -103t68 -24q13 0 21 0.5t15 1.5l1 -102l-404 -53v110q-66 -55 -133.5 -82.5t-136.5 -27.5q-141 0 -209 81.5t-68 251.5v402q0 77 -22 101.5t-92 37.5v102l387 19v-637q0 -99 32.5 -135.5t114.5 -36.5q60 0 93.5 21t33.5 59v475q0 67 -20.5 94.5
t-73.5 39.5v101l375 19v-715zM244 1087l225 349h148l225 -349h-84l-215 181l-215 -181h-84z" />
    <glyph glyph-name="udieresis" unicode="&#xfc;" horiz-adv-x="1139" 
d="M975 262q0 -79 18 -103t68 -24q13 0 21 0.5t15 1.5l1 -102l-404 -53v110q-66 -55 -133.5 -82.5t-136.5 -27.5q-141 0 -209 81.5t-68 251.5v402q0 77 -22 101.5t-92 37.5v102l387 19v-637q0 -99 32.5 -135.5t114.5 -36.5q60 0 93.5 21t33.5 59v475q0 67 -20.5 94.5
t-73.5 39.5v101l375 19v-715zM604 1251q0 48 36 83.5t85 35.5t84 -35t35 -84q0 -53 -33 -87t-86 -34q-51 0 -86 35t-35 86zM240 1251q0 48 36 83.5t85 35.5t84 -35t35 -84q0 -53 -33.5 -87t-85.5 -34t-86.5 35t-34.5 86z" />
    <glyph glyph-name="yacute" unicode="&#xfd;" horiz-adv-x="1034" 
d="M39 958h477v-96h-14q-27 0 -39 -11.5t-12 -37.5q0 -11 6.5 -36.5t17.5 -55.5l129 -334l119 348q8 25 11 38t3 22q0 32 -22 48t-70 20v95h354v-96q-42 -9 -75 -49.5t-70 -136.5l-313 -805q-52 -133 -131 -200.5t-183 -67.5q-81 0 -132.5 44t-51.5 113q0 57 36 95.5
t89 38.5q26 0 50 -10.5t44 -30.5q9 -9 23 -28q28 -38 49 -38q25 0 47.5 23.5t40.5 68.5l49 121l-340 813q-11 25 -31.5 37t-52.5 12h-8v96zM323 1087l273 283q40 42 72 61t63 19q40 0 65 -25t25 -65q0 -32 -18 -54t-76 -53l-313 -166h-91z" />
    <glyph glyph-name="thorn" unicode="&#xfe;" horiz-adv-x="1147" 
d="M154 1241l-115 64v63l328 111h67v-615q61 55 128.5 84t133.5 29q171 0 277 -123.5t106 -323.5q0 -233 -133 -386.5t-332 -153.5q-44 0 -89 11.5t-91 35.5v-203q0 -62 32 -88.5t116 -32.5v-102h-549v102q68 6 94.5 32.5t26.5 88.5v1407zM434 334q0 -128 37 -178t127 -50
q105 0 159 85t54 249q0 153 -68 244.5t-180 91.5q-67 0 -98 -31.5t-31 -99.5v-311z" />
    <glyph glyph-name="ydieresis" unicode="&#xff;" horiz-adv-x="1034" 
d="M39 958h477v-96h-14q-27 0 -39 -11.5t-12 -37.5q0 -11 6.5 -36.5t17.5 -55.5l129 -334l119 348q8 25 11 38t3 22q0 32 -22 48t-70 20v95h354v-96q-42 -9 -75 -49.5t-70 -136.5l-313 -805q-52 -133 -131 -200.5t-183 -67.5q-81 0 -132.5 44t-51.5 113q0 57 36 95.5
t89 38.5q26 0 50 -10.5t44 -30.5q9 -9 23 -28q28 -38 49 -38q25 0 47.5 23.5t40.5 68.5l49 121l-340 813q-11 25 -31.5 37t-52.5 12h-8v96zM579 1251q0 48 36 83.5t85 35.5t84 -35t35 -84q0 -53 -33 -87t-86 -34q-51 0 -86 35t-35 86zM215 1251q0 48 36 83.5t85 35.5t84 -35
t35 -84q0 -53 -33.5 -87t-85.5 -34t-86.5 35t-34.5 86z" />
    <glyph glyph-name="Cacute" unicode="&#x106;" horiz-adv-x="1479" 
d="M1374 92q-162 -62 -299.5 -92.5t-255.5 -30.5q-334 0 -541.5 204t-207.5 532q0 170 65.5 320.5t190.5 264.5q101 94 230 142.5t278 48.5q119 0 238.5 -34t242.5 -104l33 -313h-127q-50 158 -150 242t-237 84q-182 0 -285 -151t-103 -419q0 -305 121 -493.5t314 -188.5
q138 0 239.5 88t159.5 257h131zM616 1589l273 283q40 42 72 61t63 19q40 0 65 -25t25 -65q0 -32 -18 -54t-76 -53l-313 -166h-91z" />
    <glyph glyph-name="cacute" unicode="&#x107;" 
d="M958 188q-107 -106 -212 -157t-214 -51q-191 0 -316.5 133.5t-125.5 341.5q0 232 135 376t355 144q159 0 258.5 -68.5t99.5 -175.5q0 -57 -39 -98t-94 -41q-41 0 -73.5 24t-47.5 66q-4 11 -11 30q-51 142 -149 142q-79 0 -126.5 -68.5t-47.5 -183.5q0 -182 87.5 -297
t224.5 -115q58 0 115 20t114 60zM335 1087l273 283q40 42 72 61t63 19q40 0 65 -25t25 -65q0 -32 -18 -54t-76 -53l-313 -166h-91z" />
    <glyph glyph-name="Ccaron" unicode="&#x10c;" horiz-adv-x="1479" 
d="M1374 92q-162 -62 -299.5 -92.5t-255.5 -30.5q-334 0 -541.5 204t-207.5 532q0 170 65.5 320.5t190.5 264.5q101 94 230 142.5t278 48.5q119 0 238.5 -34t242.5 -104l33 -313h-127q-50 158 -150 242t-237 84q-182 0 -285 -151t-103 -419q0 -305 121 -493.5t314 -188.5
q138 0 239.5 88t159.5 257h131zM512 1938h84l215 -179l215 179h84l-225 -349h-148z" />
    <glyph glyph-name="ccaron" unicode="&#x10d;" 
d="M958 188q-107 -106 -212 -157t-214 -51q-191 0 -316.5 133.5t-125.5 341.5q0 232 135 376t355 144q159 0 258.5 -68.5t99.5 -175.5q0 -57 -39 -98t-94 -41q-41 0 -73.5 24t-47.5 66q-4 11 -11 30q-51 142 -149 142q-79 0 -126.5 -68.5t-47.5 -183.5q0 -182 87.5 -297
t224.5 -115q58 0 115 20t114 60zM231 1436h84l215 -179l215 179h84l-225 -349h-148z" />
    <glyph glyph-name="dcroat" unicode="&#x111;" horiz-adv-x="1155" 
d="M719 100q-68 -60 -139.5 -90t-145.5 -30q-161 0 -267 126t-106 324q0 235 133 391t328 156q53 0 97.5 -17.5t93.5 -56.5v170h-269v109h269v59l-119 64v63l328 111h65v-297h168v-109h-168v-833q0 -75 24 -94.5t90 -20.5l1 -88l-383 -55v118zM713 623q0 129 -37 178
t-127 49q-105 0 -159 -84.5t-54 -249.5q0 -153 67 -244.5t179 -91.5q67 0 99 32t32 99v312z" />
    <glyph glyph-name="Gbreve" unicode="&#x11e;" horiz-adv-x="1690" 
d="M1440 86q-286 -71 -405.5 -92t-207.5 -21q-341 0 -551 205.5t-210 538.5q0 166 59 305.5t174 247.5q111 103 254.5 157t306.5 54q143 0 286 -35t294 -107v-311h-103q-80 163 -193 248.5t-247 85.5q-203 0 -328 -160t-125 -424q0 -290 130 -470.5t333 -180.5q43 0 92 11.5
t101 33.5v279q0 102 -31 131t-131 34v109h692v-109q-109 -7 -149.5 -41.5t-40.5 -121.5v-367zM537 1907h76q17 -65 71.5 -94t161.5 -29q108 0 162.5 29t68.5 94h76q-20 -140 -98.5 -213.5t-208.5 -73.5t-209 73.5t-100 213.5z" />
    <glyph glyph-name="gbreve" unicode="&#x11f;" 
d="M487 858q-64 0 -99.5 -50.5t-35.5 -141.5t36 -142t99 -51q65 0 101.5 51t36.5 142q0 92 -36 142t-102 50zM283 -37q-21 -19 -31 -40.5t-10 -47.5q0 -70 57.5 -104.5t171.5 -34.5q159 0 237 34.5t78 104.5q0 56 -63 76t-313 20q-28 0 -60 -2t-67 -6zM182 10q-46 47 -70 91
t-24 83q0 65 41 117t123 90q-79 54 -118.5 123t-39.5 152q0 140 100.5 223.5t272.5 83.5q51 0 131 -10t217 -33h195v-166h-162q11 -32 16.5 -59.5t5.5 -51.5q0 -135 -104.5 -220t-276.5 -85q-34 0 -69 3t-70 9q-11 -14 -16.5 -28.5t-5.5 -30.5q0 -40 35 -56t139 -16
q289 0 397.5 -60.5t108.5 -207.5q0 -163 -139 -260.5t-375 -97.5q-224 0 -339.5 56t-115.5 165q0 54 35.5 100t107.5 86zM203 1405h76q17 -65 71.5 -94t161.5 -29q108 0 162.5 29t68.5 94h76q-20 -140 -98.5 -213.5t-208.5 -73.5t-209 73.5t-100 213.5z" />
    <glyph glyph-name="Idotaccent" unicode="&#x130;" horiz-adv-x="801" 
d="M63 0v119q97 10 129.5 41.5t32.5 126.5v876q0 95 -32.5 126.5t-129.5 41.5v119h674v-119q-97 -10 -129.5 -41.5t-32.5 -126.5v-876q0 -95 32.5 -126.5t129.5 -41.5v-119h-674zM274 1753q0 51 38 89t89 38q52 0 89.5 -37t37.5 -90q0 -55 -36 -91t-91 -36q-54 0 -90.5 37
t-36.5 90z" />
    <glyph glyph-name="dotlessi" unicode="&#x131;" horiz-adv-x="637" 
d="M465 223q0 -62 26.5 -88.5t94.5 -32.5v-102h-518v102q68 6 94 32.5t26 88.5v516l-116 62v65l327 111h66v-754z" />
    <glyph glyph-name="Lslash" unicode="&#x141;" horiz-adv-x="1475" 
d="M758 1450l-1 -117q-95 -11 -127 -42t-32 -128v-377l375 254v-153l-375 -254v-271q0 -160 46.5 -203.5t191.5 -43.5q179 0 286 65.5t211 237.5h113l-90 -418h-1276v119q97 10 129.5 41.5t32.5 126.5v180l-242 -162v154l242 164v540q0 96 -32.5 127.5t-129.5 43.5v116h678z
" />
    <glyph glyph-name="lslash" unicode="&#x142;" horiz-adv-x="659" 
d="M66 0v102q68 6 94 32.5t26 88.5v359l-223 -148v131l223 150v526l-114 64v63l327 111h66v-645l219 147v-131l-219 -148v-479q0 -62 22 -88.5t78 -32.5v-102h-499z" />
    <glyph glyph-name="OE" unicode="&#x152;" horiz-adv-x="2175" 
d="M1079 0q-129 0 -217 1t-106 3q-160 22 -239 50.5t-146 78.5q-135 102 -205 249t-70 329q0 184 72 338t207 258q49 39 107 67t124 45q63 17 131.5 25t151.5 8q26 0 75 -1t72 -1h1030l21 -326l-96 -6q-41 125 -123.5 174t-280.5 49h-401q131 -81 200.5 -215.5t74.5 -314.5
h169q97 0 149 46t58 138h94v-465h-95q-11 97 -56.5 138t-143.5 41h-176q-6 -192 -61.5 -325.5t-167.5 -227.5h399q120 0 173.5 10.5t92.5 36.5q47 28 86 78.5t78 134.5l97 -15l-95 -401h-983zM465 764q0 -308 87.5 -473.5t250.5 -165.5q166 0 248 140.5t82 426.5
q0 304 -87.5 467.5t-248.5 163.5q-165 0 -248.5 -141t-83.5 -418z" />
    <glyph glyph-name="oe" unicode="&#x153;" horiz-adv-x="1677" 
d="M1002 647h331v6q0 96 -44 150.5t-122 54.5q-75 0 -118.5 -55.5t-46.5 -155.5zM885 98q-76 -60 -160.5 -89t-181.5 -29q-218 0 -352 141.5t-134 372.5q0 207 141 345t353 138q92 0 174.5 -32t155.5 -95q69 63 146 93t171 30q178 0 286 -116t115 -314h-599
q4 -149 84 -240.5t204 -91.5q46 0 105 19.5t153 66.5l66 -76q-117 -130 -215.5 -184.5t-212.5 -54.5q-84 0 -157.5 28.5t-141.5 87.5zM358 530q0 -207 51 -321.5t142 -114.5q100 0 145 81t45 261q0 203 -53 315.5t-147 112.5q-95 0 -139 -80t-44 -254z" />
    <glyph glyph-name="Scedilla" unicode="&#x15e;" horiz-adv-x="1251" 
d="M127 63v361h113q32 -150 129 -232.5t241 -82.5q105 0 173.5 57.5t68.5 144.5q0 122 -277 275q-74 42 -114 65q-195 114 -264.5 207.5t-69.5 222.5q0 190 139 299t381 109q115 0 220 -32.5t208 -100.5v-287h-106q-32 136 -125 216.5t-217 80.5q-98 0 -159.5 -50
t-61.5 -128q0 -120 282 -267l7 -4q14 -7 43 -22q159 -81 235 -143q80 -65 123 -146.5t43 -169.5q0 -209 -139.5 -334t-376.5 -125q-101 0 -224.5 21.5t-271.5 64.5zM342 -377l41 90q73 -39 130.5 -56t117.5 -17q41 0 64.5 22t23.5 59q0 43 -25.5 64.5t-74.5 21.5
q-15 0 -30 -1.5t-32 -3.5v198h70v-114q16 2 32.5 3.5t33.5 1.5q85 0 134.5 -45.5t49.5 -124.5q0 -85 -60 -131.5t-170 -46.5q-56 0 -127.5 18.5t-177.5 61.5z" />
    <glyph glyph-name="scedilla" unicode="&#x15f;" horiz-adv-x="915" 
d="M94 86v221h99q30 -91 96 -144.5t145 -53.5q70 0 119 33.5t49 78.5q0 71 -149 123q-56 20 -88 33q-166 65 -226.5 132.5t-60.5 172.5q0 129 108 215t277 86q74 0 147.5 -17.5t151.5 -54.5v-204h-90q-31 83 -81 124t-120 41q-62 0 -101.5 -31.5t-39.5 -80.5q0 -63 157 -123
q34 -13 53 -20q186 -72 242 -137t56 -173q0 -144 -104 -233.5t-273 -89.5q-98 0 -189 25.5t-178 76.5zM174 -377l41 90q73 -39 130.5 -56t117.5 -17q41 0 64.5 22t23.5 59q0 43 -25.5 64.5t-74.5 21.5q-15 0 -30 -1.5t-32 -3.5v198h70v-114q16 2 32.5 3.5t33.5 1.5
q85 0 134.5 -45.5t49.5 -124.5q0 -85 -60 -131.5t-170 -46.5q-56 0 -127.5 18.5t-177.5 61.5z" />
    <glyph glyph-name="Scaron" unicode="&#x160;" horiz-adv-x="1251" 
d="M127 63v361h113q32 -150 129 -232.5t241 -82.5q105 0 173.5 57.5t68.5 144.5q0 122 -277 275q-74 42 -114 65q-195 114 -264.5 207.5t-69.5 222.5q0 190 139 299t381 109q115 0 220 -32.5t208 -100.5v-287h-106q-32 136 -125 216.5t-217 80.5q-98 0 -159.5 -50
t-61.5 -128q0 -120 282 -267l7 -4q14 -7 43 -22q159 -81 235 -143q80 -65 123 -146.5t43 -169.5q0 -209 -139.5 -334t-376.5 -125q-101 0 -224.5 21.5t-271.5 64.5zM328 1938h84l215 -179l215 179h84l-225 -349h-148z" />
    <glyph glyph-name="scaron" unicode="&#x161;" horiz-adv-x="915" 
d="M94 86v221h99q30 -91 96 -144.5t145 -53.5q70 0 119 33.5t49 78.5q0 71 -149 123q-56 20 -88 33q-166 65 -226.5 132.5t-60.5 172.5q0 129 108 215t277 86q74 0 147.5 -17.5t151.5 -54.5v-204h-90q-31 83 -81 124t-120 41q-62 0 -101.5 -31.5t-39.5 -80.5q0 -63 157 -123
q34 -13 53 -20q186 -72 242 -137t56 -173q0 -144 -104 -233.5t-273 -89.5q-98 0 -189 25.5t-178 76.5zM160 1436h84l215 -179l215 179h84l-225 -349h-148z" />
    <glyph glyph-name="Ydieresis" unicode="&#x178;" horiz-adv-x="1485" 
d="M397 0l1 119q108 1 142.5 34t34.5 166v244l-337 600q-58 100 -97 131t-94 37v119h682v-118q-6 0 -13 0.5t-20 0.5q-53 0 -81.5 -21.5t-28.5 -60.5q0 -32 33 -94q5 -9 8 -14l219 -422l44 69q257 403 257 484q0 25 -33 40.5t-90 17.5v118h412l-1 -119q-46 -1 -84.5 -36.5
t-109.5 -161.5q-4 -8 -16 -30q-135 -250 -305 -505v-283q0 -133 33 -162.5t137 -33.5v-119h-693zM804 1753q0 48 36 83.5t85 35.5t84 -35t35 -84q0 -53 -33 -87t-86 -34q-51 0 -86 35t-35 86zM440 1753q0 48 36 83.5t85 35.5t84 -35t35 -84q0 -53 -33.5 -87t-85.5 -34
t-86.5 35t-34.5 86z" />
    <glyph glyph-name="Zcaron" unicode="&#x17d;" horiz-adv-x="1356" 
d="M51 0v133l789 1208h-213q-151 0 -242 -51t-145 -166h-105v326h1129v-109l-795 -1208h264q180 0 282 56.5t179 193.5h111l-82 -383h-1172zM379 1938h84l215 -179l215 179h84l-225 -349h-148z" />
    <glyph glyph-name="zcaron" unicode="&#x17e;" horiz-adv-x="909" 
d="M43 0v109l494 753h-27q-143 0 -220 -39t-118 -131h-86v285h29q14 -10 34.5 -14.5t59.5 -4.5h45h600v-96l-483 -753h159q79 0 147 50t116 144h96l-74 -303h-772zM156 1436h84l215 -179l215 179h84l-225 -349h-148z" />
    <glyph glyph-name="florin" unicode="&#x192;" 
d="M401 786h-202v123h219q26 287 124 431.5t267 144.5q90 0 144.5 -36.5t54.5 -94.5q0 -46 -28 -75.5t-71 -29.5q-26 0 -44 11.5t-44 52.5q-1 2 -5 8q-29 47 -60 47q-69 0 -83 -379q-2 -51 -3 -79l207 -1v-123h-211q-21 -672 -122.5 -924.5t-332.5 -252.5q-83 0 -133.5 36.5
t-50.5 94.5q0 46 27.5 75t72.5 29q20 0 38.5 -8.5t27.5 -22.5q8 -11 20 -32q31 -51 63 -51q71 0 89 439q15 366 36 617z" />
    <glyph glyph-name="circumflex" unicode="&#x2c6;" 
d="M213 1087l225 349h148l225 -349h-84l-215 181l-215 -181h-84z" />
    <glyph glyph-name="caron" unicode="&#x2c7;" 
d="M213 1436h84l215 -179l215 179h84l-225 -349h-148z" />
    <glyph glyph-name="breve" unicode="&#x2d8;" 
d="M203 1405h76q17 -65 71.5 -94t161.5 -29q108 0 162.5 29t68.5 94h76q-20 -140 -98.5 -213.5t-208.5 -73.5t-209 73.5t-100 213.5z" />
    <glyph glyph-name="dotaccent" unicode="&#x2d9;" 
d="M385 1251q0 51 38 89t89 38q52 0 89.5 -37t37.5 -90q0 -55 -36 -91t-91 -36q-54 0 -90.5 37t-36.5 90z" />
    <glyph glyph-name="ring" unicode="&#x2da;" 
d="M377 1321q0 -57 39 -96t96 -39t97 39t40 96q0 56 -40.5 96.5t-96.5 40.5q-57 0 -96 -40t-39 -97zM260 1321q0 106 73 180t179 74t180 -74t74 -180t-74 -179t-180 -73t-179 73t-73 179z" />
    <glyph glyph-name="ogonek" unicode="&#x2db;" 
d="M676 29q-91 -73 -132.5 -136.5t-41.5 -128.5q0 -52 25 -82t69 -30q35 0 62.5 17t52.5 55l32 -19q-41 -84 -100 -124t-139 -40q-65 0 -107.5 43t-42.5 109q0 84 67 167t202 169h53z" />
    <glyph glyph-name="tilde" unicode="&#x2dc;" 
d="M801 1409q-14 -116 -68 -181t-137 -65q-16 0 -29.5 2t-27.5 6l-105 27q-14 4 -29 6t-28 2q-31 0 -52.5 -20.5t-37.5 -65.5h-66q17 124 69.5 185t141.5 61q17 0 32.5 -2t31.5 -6l108 -29q12 -3 21.5 -4.5t17.5 -1.5q32 0 54 20.5t38 65.5h66z" />
    <glyph glyph-name="hungarumlaut" unicode="&#x2dd;" 
d="M565 1087l197 283q39 54 59 68t45 14q34 0 57 -22.5t23 -55.5q0 -25 -17 -51.5t-48 -50.5l-242 -185h-74zM313 1087l144 273q30 54 52 73t50 19q33 0 55.5 -21t22.5 -53q0 -25 -13 -49.5t-38 -48.5l-199 -193h-74z" />
    <glyph glyph-name="Omega" unicode="&#x3a9;" horiz-adv-x="1569" 
d="M1133 258v-14h290l43 145h78l-117 -389h-530q98 217 147.5 431.5t49.5 422.5q0 279 -76.5 417t-231.5 138t-232 -138.5t-77 -416.5q0 -208 50 -422t149 -432h-533l-116 389h75l45 -145h289v14q-164 88 -253 239t-89 343q0 285 196.5 471t495.5 186q300 0 495.5 -186
t195.5 -471q0 -191 -89 -341t-255 -241z" />
    <glyph glyph-name="pi" unicode="&#x3c0;" horiz-adv-x="1477" 
d="M1444 885l-60 -275h-348q-4 -64 -6 -117t-2 -81q0 -47 4 -123.5t4 -106.5q0 -116 -38.5 -170.5t-120.5 -54.5q-52 0 -81.5 32.5t-29.5 88.5q0 73 73 245t101 287h-375q-4 -68 -6 -121t-2 -77q0 -48 3 -124t3 -106q0 -116 -38.5 -170.5t-121.5 -54.5q-50 0 -79 32t-29 89
q0 74 72 246t100 286h-156q-118 0 -167 -32t-66 -117h-64q45 238 138 331t284 93h1008z" />
    <glyph glyph-name="endash" unicode="&#x2013;" 
d="M0 395v187h1024v-187h-1024z" />
    <glyph glyph-name="emdash" unicode="&#x2014;" horiz-adv-x="2048" 
d="M0 582h2048v-187h-2048v187z" />
    <glyph glyph-name="quoteleft" unicode="&#x2018;" horiz-adv-x="512" 
d="M375 1497l43 -51q-97 -62 -137.5 -109t-40.5 -96q0 -46 66 -92l9 -6q10 -7 31 -21q90 -59 90 -131q0 -59 -42.5 -99t-106.5 -40q-91 0 -151 74t-60 188q0 121 73 214.5t226 168.5z" />
    <glyph glyph-name="quoteright" unicode="&#x2019;" horiz-adv-x="512" 
d="M137 834l-43 53q98 62 138 108.5t40 94.5q0 47 -71 97l-4 3q-11 7 -32 21q-89 59 -89 130q0 60 42 100t105 40q91 0 152 -75t61 -189q0 -121 -73 -215t-226 -168z" />
    <glyph glyph-name="quotesinglbase" unicode="&#x201a;" horiz-adv-x="512" 
d="M137 -348l-43 53q98 63 138 109t40 94t-71 97l-4 3q-10 7 -31 21q-90 59 -90 131q0 59 42 99t105 40q91 0 152 -75t61 -189q0 -121 -73 -214.5t-226 -168.5z" />
    <glyph glyph-name="quotedblleft" unicode="&#x201c;" 
d="M889 1479l43 -54q-98 -62 -138 -108t-40 -94t71 -98l5 -3q11 -8 31 -21q87 -57 87 -128q0 -60 -42 -99.5t-105 -39.5q-91 0 -152 74t-61 188q0 120 73.5 213.5t227.5 169.5zM373 1479l43 -54q-98 -62 -138 -108t-40 -94t71 -98l5 -3q11 -8 32 -22q88 -56 88 -127
q0 -60 -42 -99.5t-105 -39.5q-91 0 -152 74t-61 188q0 121 73 214.5t226 168.5z" />
    <glyph glyph-name="quotedblright" unicode="&#x201d;" 
d="M606 887q100 63 140 109t40 94q0 47 -71 97l-4 3q-10 7 -32 21q-89 59 -89 130q0 60 42 100t105 40q91 0 152 -75t61 -189q0 -121 -73 -215t-226 -168zM135 834l-43 53q98 62 138 108.5t40 94.5q0 47 -71 97l-5 3q-10 7 -31 21q-89 59 -89 130q0 59 42.5 99.5t106.5 40.5
q91 0 151 -75t60 -189q0 -121 -73 -215t-226 -168z" />
    <glyph glyph-name="quotedblbase" unicode="&#x201e;" 
d="M651 -348l-45 53q100 64 140 110t40 93q0 48 -72 98l-3 2q-10 7 -31 21q-90 59 -90 131q0 59 42 99t105 40q91 0 152 -75t61 -189q0 -121 -73 -214.5t-226 -168.5zM135 -348l-43 53q98 63 138 109t40 94t-71 97l-4 3q-10 7 -31 21q-90 59 -90 131q0 59 42.5 99t106.5 40
q91 0 151 -74.5t60 -189.5q0 -121 -73 -214.5t-226 -168.5z" />
    <glyph glyph-name="dagger" unicode="&#x2020;" 
d="M932 1032q2 0 5 1t5 1q16 0 29.5 -9.5t15.5 -22.5v-252q0 -21 -10.5 -33t-28.5 -12h-9t-8 2l-347 96l98 -1096v-14q0 -35 -14.5 -52.5t-42.5 -17.5h-226q-29 0 -44 18t-15 52v10v4l100 1096l-348 -96q-2 -1 -5 -2l-15 -3q-17 0 -25 12t-8 36v251q0 13 13.5 23t29.5 10
q2 0 5 -1t5 -1l348 -98l-84 487q0 2 -1 7.5t-1 7.5q0 21 12.5 32t36.5 11h248q15 0 25 -12.5t10 -30.5q0 -2 -1 -7.5t-1 -7.5l-98 -487z" />
    <glyph glyph-name="daggerdbl" unicode="&#x2021;" 
d="M88 1102l344 -76l-76 406v8q0 17 10.5 28t28.5 11h254q14 0 23.5 -7t9.5 -16l-1.5 -8.5t-2.5 -15.5l-86 -406l348 76q5 1 9.5 1.5t13.5 0.5q12 0 17 -8t5 -27v-211q0 -17 -8 -26t-23 -9q-5 0 -7.5 0.5t-5.5 1.5l-349 84q1 -44 13 -117t48 -247q-28 -113 -43 -200.5
t-18 -151.5l349 86q2 1 4.5 1.5t8.5 0.5q15 0 23 -10t8 -27v-211q0 -20 -5 -28.5t-17 -8.5q-3 0 -11 1t-12 1l-348 78l86 -406q1 -7 2.5 -14.5l1.5 -7.5q0 -9 -10 -17t-23 -8h-254q-18 0 -28.5 11t-10.5 28v8l76 406l-344 -78q-4 0 -12 -1t-10 -1q-15 0 -21 8.5t-6 28.5v211
q0 16 9.5 26.5t25.5 10.5q6 0 8.5 -0.5t6.5 -2.5l343 -85q-2 14 -7 48q-25 178 -52 304q16 87 30.5 175t28.5 189l-344 -84q-4 -1 -7 -1.5t-9 -0.5q-15 0 -24 9.5t-9 25.5v211q0 20 6 28.5t21 8.5q2 0 7 -1z" />
    <glyph glyph-name="bullet" unicode="&#x2022;" horiz-adv-x="1208" 
d="M307 762q0 123 87 209t210 86q122 0 208.5 -86.5t86.5 -208.5t-87.5 -209.5t-209.5 -87.5q-123 0 -209 87t-86 210z" />
    <glyph glyph-name="ellipsis" unicode="&#x2026;" horiz-adv-x="2048" 
d="M178 145q0 70 47.5 117t116.5 47q68 0 116 -47.5t48 -116.5q0 -68 -48 -115.5t-116 -47.5q-69 0 -116.5 47t-47.5 116zM860 145q0 70 47.5 117t116.5 47q68 0 116 -47.5t48 -116.5q0 -68 -48 -115.5t-116 -47.5q-69 0 -116.5 47t-47.5 116zM1544 145q0 70 47.5 117
t116.5 47q68 0 116 -47.5t48 -116.5q0 -68 -48 -115.5t-116 -47.5q-69 0 -116.5 47t-47.5 116z" />
    <glyph glyph-name="perthousand" unicode="&#x2030;" horiz-adv-x="2388" 
d="M2028 692q-54 0 -78.5 -73.5t-24.5 -235.5q0 -163 24.5 -237t78.5 -74q53 0 77.5 74t24.5 237q0 160 -25 234.5t-77 74.5zM2347 371q0 -182 -81 -277.5t-234 -95.5q-155 0 -235.5 97.5t-80.5 285.5q0 189 80 285t238 96q157 0 235 -97.5t78 -293.5zM272 -25l914 1463h151
l-913 -1463h-152zM354 1343q-53 0 -77.5 -74t-24.5 -237t24.5 -237t77.5 -74q54 0 78.5 74t24.5 237q0 160 -25 235.5t-78 75.5zM670 1022q0 -181 -81 -277t-235 -96t-234.5 98t-80.5 285q0 189 80 285t237 96t235.5 -97.5t78.5 -293.5zM1577 371q0 -181 -82 -277t-235 -96
q-155 0 -234.5 97.5t-79.5 285.5q0 190 79 285.5t237 95.5q157 0 236 -98t79 -293zM1262 692q-54 0 -78.5 -73.5t-24.5 -235.5q0 -163 24.5 -237t78.5 -74q53 0 77.5 74t24.5 237q0 160 -25 234.5t-77 74.5z" />
    <glyph glyph-name="guilsinglleft" unicode="&#x2039;" horiz-adv-x="598" 
d="M332 82q-50 93 -112 191t-138 202q70 98 133 198.5t117 200.5h190q-45 -105 -103 -205t-128 -194q65 -87 123 -185.5t108 -207.5h-190z" />
    <glyph glyph-name="guilsinglright" unicode="&#x203a;" horiz-adv-x="598" 
d="M270 82h-188q50 109 108 207.5t123 185.5q-70 94 -128 194t-103 205h188q54 -100 117 -200.5t133 -198.5q-76 -104 -138 -202t-112 -191z" />
    <glyph glyph-name="franc" unicode="&#x20a3;" horiz-adv-x="2124" 
d="M66 0v119q96 10 128.5 41.5t32.5 126.5v876q0 95 -32.5 126.5t-128.5 41.5v119h1239v-322h-101q-54 110 -158.5 158.5t-285.5 48.5q-113 0 -144.5 -15.5t-31.5 -84.5v-401h153q100 0 152 40t65 130h119v-482h-118q-10 91 -66 140t-152 49h-153v-398q0 -128 37 -161
t157 -37v-115h-712zM1782 240q0 -82 27 -109t102 -29v-102h-525v102q69 6 95 32.5t26 88.5v516l-119 62v65l328 111h66v-150q71 76 117.5 105t91.5 29q64 0 104.5 -42.5t40.5 -109.5q0 -64 -42.5 -121t-80.5 -57q-14 0 -67 53t-89 53q-33 0 -54 -27.5t-21 -72.5v-397z" />
    <glyph glyph-name="trademark" unicode="&#x2122;" horiz-adv-x="1683" 
d="M758 1454h211l131 -369l129 369h198v-27l-27 -4q-19 -3 -27.5 -15t-8.5 -36v-379q0 -24 9 -36t28 -15l26 -4v-33h-253v33l30 4q18 3 27.5 16t9.5 35v365l-156 -455h-36l-166 463v-373q0 -22 9 -35t28 -16l34 -4v-33h-196v33l34 4q19 3 28 16t9 35v373q0 23 -9 35.5
t-27 15.5l-35 4v33zM238 1454h450l12 -192h-32q-8 79 -39.5 115t-91.5 36h-7v-420q1 -23 9.5 -35.5t25.5 -15.5l31 -4v-33h-266v33l30 4q17 3 26 16t9 35v420h-10q-59 0 -89 -36t-38 -115h-33z" />
    <glyph glyph-name="partialdiff" unicode="&#x2202;" horiz-adv-x="1094" 
d="M762 662q19 99 29 188.5t10 155.5q0 100 -26 157.5t-70 57.5t-146 -73t-160 -73q-42 0 -71 30t-29 73q0 64 86.5 118t210.5 54q192 0 309 -161.5t117 -432.5q0 -339 -156.5 -560t-396.5 -221q-171 0 -282 114.5t-111 291.5q0 198 116 329.5t287 131.5q102 0 170 -43.5
t113 -136.5zM700 518q0 116 -38.5 178t-110.5 62q-101 0 -167.5 -134t-66.5 -341q0 -117 38.5 -177.5t111.5 -60.5q101 0 167 133.5t66 339.5z" />
    <glyph glyph-name="Delta" unicode="&#x2206;" horiz-adv-x="1350" 
d="M547 1116l-381 -827h764zM647 1497h68l692 -1497h-1460z" />
    <glyph glyph-name="product" unicode="&#x220f;" horiz-adv-x="1724" 
d="M47 1473h1624v-84h-190v-1698h190v-84h-698v84h178v1698h-582v-1698h176v-84h-698v84h191v1698h-191v84z" />
    <glyph glyph-name="summation" unicode="&#x2211;" horiz-adv-x="1542" 
d="M25 1473h1235l139 -429h-88l-92 250q-19 52 -60.5 73.5t-167.5 21.5h-557l666 -783v-41l-735 -680h886q48 0 65 13t27 51l72 229h88l-174 -571h-1309v71l822 756l-817 973v66z" />
    <glyph glyph-name="minus" unicode="&#x2212;" horiz-adv-x="1706" 
d="M254 713h1198v-203h-1198v203z" />
    <glyph glyph-name="fraction" unicode="&#x2215;" horiz-adv-x="342" 
d="M-342 -25l879 1463h145l-877 -1463h-147z" />
    <glyph glyph-name="periodcentered" unicode="&#x2219;" horiz-adv-x="512" 
d="M92 713q0 68 47.5 114.5t116.5 46.5t116.5 -46.5t47.5 -114.5q0 -69 -48 -117.5t-116 -48.5q-69 0 -116.5 48t-47.5 118z" />
    <glyph glyph-name="radical" unicode="&#x221a;" horiz-adv-x="1346" 
d="M1141 1694h207v-129h-103l-592 -1606h-100l-311 858l-140 -51l-30 113l331 116l236 -661z" />
    <glyph glyph-name="infinity" unicode="&#x221e;" horiz-adv-x="1706" 
d="M942 561q45 -75 106.5 -113t139.5 -38q94 0 152.5 55.5t58.5 144.5q0 86 -54 142.5t-135 56.5q-74 0 -136 -57t-132 -191zM766 659q-46 76 -107 113t-139 37q-93 0 -152 -56.5t-59 -144.5q0 -85 54 -141.5t135 -56.5q75 0 138 58t130 191zM858 457q-69 -133 -147 -195.5
t-174 -62.5q-139 0 -235.5 117.5t-96.5 293.5q0 184 85.5 297t223.5 113q93 0 169.5 -58.5t164.5 -199.5q68 132 148 196t175 64q139 0 235.5 -118t96.5 -294q0 -183 -86 -296t-223 -113q-93 0 -168.5 56.5t-167.5 199.5z" />
    <glyph glyph-name="integral" unicode="&#x222b;" horiz-adv-x="1186" 
d="M342 -252q102 0 121 639q3 136 6 211q16 508 123 732t328 224q98 0 157.5 -49t59.5 -129q0 -60 -38 -96.5t-100 -36.5q-46 0 -77 24t-41 68q-5 20 -7 54q-3 46 -30 47q-99 0 -119 -633q-4 -116 -6 -178q-11 -296 -31 -444.5t-59 -250.5q-56 -148 -148.5 -225.5
t-214.5 -77.5q-96 0 -156.5 49t-60.5 127q0 62 39 99t105 37q50 0 85 -31.5t35 -71.5q0 -58 6 -73t23 -15z" />
    <glyph glyph-name="approxequal" unicode="&#x2248;" horiz-adv-x="1706" 
d="M1530 596v-219q-106 -72 -198 -105.5t-181 -33.5q-95 0 -286.5 66.5t-301.5 66.5q-84 0 -174.5 -37t-210.5 -121v219q111 73 206.5 108t180.5 35q124 0 315.5 -65.5t274.5 -65.5q86 0 174 35.5t201 116.5zM1530 1008v-220q-106 -71 -196.5 -104t-180.5 -33
q-94 0 -286 65.5t-304 65.5q-82 0 -170 -35t-215 -122v219q107 71 204 107t183 36q125 0 316.5 -65.5t273.5 -65.5q84 0 171 35t204 117z" />
    <glyph glyph-name="notequal" unicode="&#x2260;" horiz-adv-x="1706" 
d="M1198 1233l148 -119l-154 -192h260v-191h-389l-191 -239h580v-193h-707l-245 -309l-148 119l154 190h-252v193h377l190 239h-567v191h696z" />
    <glyph glyph-name="lessequal" unicode="&#x2264;" horiz-adv-x="1706" 
d="M258 195h1192v-197h-1192v197zM1448 1241v-209l-834 -264l834 -262v-209l-1190 385v174z" />
    <glyph glyph-name="greaterequal" unicode="&#x2265;" horiz-adv-x="1706" 
d="M258 195h1192v-197h-1192v197zM260 1241l1188 -385v-174l-1188 -385v209l832 262l-832 264v209z" />
    <glyph glyph-name="lozenge" unicode="&#x25ca;" horiz-adv-x="1012" 
d="M506 1409l-385 -817l385 -825l385 825zM506 1653l500 -1061l-500 -1069l-500 1069z" />
    <glyph glyph-name="apple" unicode="&#xf000;" horiz-adv-x="1618" 
d="M836 1216q-1 6 -1.5 14t-0.5 23q0 124 95 229.5t236 131.5q1 -10 1.5 -23t0.5 -39q0 -131 -103.5 -234.5t-203.5 -103.5h-8q-3 0 -7.5 1t-8.5 1zM1505 403q-114 -247 -205 -342.5t-204 -95.5q-50 0 -131.5 33t-122.5 33q-45 0 -131 -33t-127 -33q-64 0 -128.5 44
t-129.5 132q-102 140 -157.5 295.5t-55.5 300.5q0 219 125 356.5t323 137.5q68 0 155 -34t124 -34q34 0 121.5 35t152.5 35q110 0 198 -40t161 -124q-102 -65 -151.5 -145.5t-49.5 -182.5q0 -113 60 -200t173 -138z" />
    <glyph glyph-name="fi" unicode="&#xf001;" horiz-adv-x="1200" 
d="M461 295q0 -113 26.5 -147t102.5 -44v-104h-551v104q89 10 120 45t31 146v553h-133v110h133v21q0 248 107 376t313 128q155 0 240.5 -46t85.5 -128q0 -40 -35.5 -68.5t-87.5 -28.5q-32 0 -58.5 14t-59.5 51q-6 7 -17 20q-63 75 -121 75q-48 0 -72 -36.5t-24 -108.5v-269
h282l218 19h65v-754q0 -62 26.5 -88.5t94.5 -32.5v-102h-500v104q54 9 76 35t22 84v572q0 23 -15.5 38t-39.5 15h-229v-553z" />
    <glyph glyph-name="fl" unicode="&#xf002;" horiz-adv-x="1225" 
d="M774 1204q0 74 -55 129.5t-133 55.5q-61 0 -93 -36.5t-32 -103.5v-291h313v246zM831 1446l156 45h66v-1268q0 -62 26 -88.5t95 -32.5v-102h-504v102q60 6 82 31.5t22 89.5v625h-313v-553q0 -111 31.5 -146t119.5 -45v-104h-573v104q89 10 120 45t31 146v553h-133v110h133
v25q0 242 110 375t310 133q46 0 99.5 -11t121.5 -34z" />
    </font>
</defs>
</svg>
