<?xml version="1.0" standalone="no"?>
<!DOCTYPE svg PUBLIC "-//W3C//DTD SVG 1.1//EN" "http://www.w3.org/Graphics/SVG/1.1/DTD/svg11.dtd" >
<svg xmlns="http://www.w3.org/2000/svg" xmlns:xlink="http://www.w3.org/1999/xlink" version="1.1">
<metadata>
Created by FontForge 20150318 at Wed Oct 21 07:52:33 2015
 By uniteet7
Copyright (c) 2003 CAI978. All rights reserved.http://www.CAI978.com
</metadata>
<defs>
<font id="020CAI978" horiz-adv-x="1024" >
  <font-face 
    font-family="020CAI978"
    font-weight="400"
    font-stretch="normal"
    units-per-em="2048"
    panose-1="2 3 7 3 7 7 6 2 4 3"
    ascent="1556"
    descent="-492"
    x-height="909"
    cap-height="1489"
    bbox="-342 -483 2488 1977"
    underline-thickness="152"
    underline-position="-119"
    unicode-range="U+0020-F002"
  />
<missing-glyph horiz-adv-x="1229" 
d="M102 -362v1806h1024v-1806h-1024zM217 -248h795v1577h-795v-1577z" />
    <glyph glyph-name=".notdef" horiz-adv-x="1229" 
d="M102 -362v1806h1024v-1806h-1024zM217 -248h795v1577h-795v-1577z" />
    <glyph glyph-name=".null" horiz-adv-x="0" 
 />
    <glyph glyph-name="nonmarkingreturn" horiz-adv-x="555" 
 />
    <glyph glyph-name="space" unicode=" " horiz-adv-x="555" 
 />
    <glyph glyph-name="exclam" unicode="!" horiz-adv-x="682" 
d="M184 127q0 66 45 112t111 46t112 -46t46 -112t-46 -111t-112 -45t-111 45t-45 111zM311 403q-13 237 -73 526t-60 355q0 107 42.5 165t119.5 58t120.5 -59t43.5 -164q0 -71 -60 -360.5t-73 -520.5h-60z" />
    <glyph glyph-name="quotedbl" unicode="&#x22;" horiz-adv-x="694" 
d="M496 856l-74 458q-1 8 -1.5 16.5t-0.5 23.5q0 51 25.5 79.5t70.5 28.5t70.5 -28t25.5 -78q0 -13 -3 -36q-1 -4 -1 -5l-73 -459h-39zM160 856l-74 459q-1 7 -1.5 15.5t-0.5 23.5q0 52 24.5 80t69.5 28q47 0 71.5 -27.5t24.5 -80.5q0 -16 -0.5 -24.5t-1.5 -15.5l-73 -458
h-39z" />
    <glyph glyph-name="numbersign" unicode="#" horiz-adv-x="1575" 
d="M977 858h-275l-94 -264h275zM920 1460l-156 -436h268l156 436h182l-156 -436h291l-59 -166h-291l-92 -262h307l-59 -168h-307l-154 -434h-184l155 434h-268l-154 -434h-184l156 434h-301l59 168h301l92 262h-319l61 166h318l155 436h183z" />
    <glyph glyph-name="dollar" unicode="$" horiz-adv-x="1110" 
d="M508 995v437q-104 -11 -159.5 -60.5t-55.5 -132.5q0 -75 50.5 -133t164.5 -111zM592 70q125 18 188.5 78.5t63.5 162.5q0 92 -61.5 162t-190.5 127v-530zM592 -4v-197h-84v195h-6q-196 0 -310 79.5t-114 213.5q0 59 33 94t88 35q66 0 98.5 -40.5t46.5 -142.5
q14 -99 49 -132.5t115 -34.5v581q-215 109 -319.5 231t-104.5 263q0 153 114 250.5t310 109.5v141h84v-140q191 -8 298 -73t107 -174q0 -54 -34 -86t-91 -32q-50 0 -88.5 32.5t-48.5 84.5q-4 24 -6 70t-10 58q-15 26 -42.5 39t-66.5 13h-18v-486q243 -113 343.5 -232
t100.5 -286q0 -192 -113 -302.5t-331 -131.5z" />
    <glyph glyph-name="percent" unicode="%" horiz-adv-x="1810" 
d="M657 1395q-51 -14 -96 -50.5t-84 -97.5q-67 -103 -107 -204.5t-40 -157.5q0 -68 33 -104t96 -36q74 0 148 61t128 167q30 57 45 115t15 120q0 20 -1.5 40t-5.5 40q-38 22 -71 48.5t-60 58.5zM1485 705q-48 0 -95.5 -33.5t-89.5 -96.5q-72 -110 -113.5 -212t-41.5 -164
q0 -68 33 -104t96 -36q62 0 122.5 42t114.5 122q49 72 75 150.5t26 154.5q0 82 -34.5 129.5t-92.5 47.5zM942 256q0 77 32 161t91 158q78 101 169 156t177 55q122 0 191 -70.5t69 -197.5q0 -103 -41.5 -204.5t-118.5 -184.5q-65 -70 -138.5 -104.5t-155.5 -34.5
q-120 0 -197.5 76t-77.5 190zM1288 1507h105l-858 -1554h-115l760 1380q-54 -33 -107.5 -49t-114.5 -16q-20 0 -46.5 2.5t-63.5 6.5q3 -21 4.5 -42t1.5 -41q0 -80 -25 -156t-75 -151q-68 -101 -157.5 -154t-193.5 -53q-119 0 -196.5 75t-77.5 189q0 77 32 160t91 160
q76 100 167.5 155.5t178.5 55.5q77 0 134.5 -31t98.5 -94q41 -12 71.5 -17.5t55.5 -5.5q88 0 171.5 45.5t158.5 134.5z" />
    <glyph glyph-name="ampersand" unicode="&#x26;" horiz-adv-x="1698" 
d="M750 940q73 49 108 117t35 162q0 111 -44 175t-120 64q-77 0 -129.5 -55t-52.5 -137q0 -71 48 -148.5t155 -177.5zM541 768q-94 -48 -138.5 -123.5t-44.5 -187.5q0 -168 83 -265.5t225 -97.5q78 0 151.5 33t149.5 102q-78 138 -183 271t-243 268zM1001 170
q-113 -102 -235 -151.5t-262 -49.5q-196 0 -308 95.5t-112 261.5q0 158 105 281.5t305 199.5q-88 86 -129 167.5t-41 168.5q0 158 107.5 261t273.5 103q139 0 223 -78.5t84 -207.5q0 -101 -54.5 -182t-162.5 -142q91 -74 180 -184.5t184 -268.5q70 94 110 180t40 138
q0 36 -33 60t-92 30v47h387v-47q-75 -17 -123 -56t-86 -118q-8 -17 -26 -55q-68 -152 -140 -238q66 -123 127 -177t133 -54q39 0 73 14t66 43l37 -27q-55 -108 -131.5 -161.5t-175.5 -53.5q-95 0 -176 50.5t-148 150.5z" />
    <glyph glyph-name="quotesingle" unicode="'" horiz-adv-x="358" 
d="M160 856l-74 459q-1 7 -1.5 15.5t-0.5 23.5q0 52 24.5 80t69.5 28q47 0 71.5 -27.5t24.5 -80.5q0 -16 -0.5 -24.5t-1.5 -15.5l-73 -458h-39z" />
    <glyph glyph-name="parenleft" unicode="(" horiz-adv-x="768" 
d="M659 -299v-55q-264 148 -404 387t-140 542q0 304 140 544t404 388v-55q-172 -129 -250.5 -336.5t-78.5 -540.5q0 -332 78.5 -538.5t250.5 -335.5z" />
    <glyph glyph-name="parenright" unicode=")" horiz-adv-x="768" 
d="M109 -299q172 129 250.5 335.5t78.5 538.5q0 333 -78.5 540.5t-250.5 336.5v55q264 -148 404 -388t140 -544q0 -303 -140 -542t-404 -387v55z" />
    <glyph glyph-name="asterisk" unicode="*" 
d="M526 1065v-14q0 -77 38 -167t38 -114q0 -43 -24 -68.5t-66 -25.5q-43 0 -67.5 23.5t-24.5 64.5q0 28 38 115.5t38 162.5v25q-44 -25 -76.5 -54t-61.5 -69v-1q-78 -105 -133 -105q-36 0 -62 27t-26 65q0 47 35.5 71.5t113.5 30.5q70 5 116 20t77 42q-68 48 -200 60
q-19 2 -29 3q-53 5 -83 31.5t-30 68.5q0 37 25.5 64t60.5 27q57 0 118 -86l15 -21q29 -40 64 -70.5t78 -52.5v10q0 76 -39 170t-39 123q0 39 25 62.5t67 23.5q44 0 67 -22.5t23 -65.5q0 -26 -37 -116.5t-37 -165.5v-21q44 25 77 54.5t61 69.5q3 4 8 11q70 97 129 97
q32 0 58 -29.5t26 -65.5t-30 -64t-73 -32h-3q-174 -15 -236 -67q73 -49 199 -58q21 -1 31 -2q51 -5 81.5 -34t30.5 -72q0 -34 -28 -61t-62 -27q-54 0 -125 99q-4 6 -7 10q-31 43 -64.5 71.5t-74.5 48.5z" />
    <glyph glyph-name="plus" unicode="+" horiz-adv-x="1706" 
d="M938 1221v-527h514v-166h-514v-528h-170v528h-514v166h514v527h170z" />
    <glyph glyph-name="comma" unicode="," horiz-adv-x="555" 
d="M178 -334l-33 45q77 57 115.5 106t38.5 89q0 31 -58 68q-23 14 -34 22q-37 24 -56.5 61t-19.5 82q0 60 39 98.5t100 38.5q77 0 121.5 -54.5t44.5 -149.5q0 -118 -68.5 -226t-189.5 -180z" />
    <glyph glyph-name="hyphen" unicode="-" horiz-adv-x="682" 
d="M86 346v209h512v-209h-512z" />
    <glyph glyph-name="period" unicode="." horiz-adv-x="555" 
d="M125 123q0 64 43.5 107.5t107.5 43.5t108 -43.5t44 -107.5q0 -63 -44.5 -107.5t-107.5 -44.5q-64 0 -107.5 43.5t-43.5 108.5z" />
    <glyph glyph-name="slash" unicode="/" horiz-adv-x="569" 
d="M68 -190h-115l500 1697h116z" />
    <glyph glyph-name="zero" unicode="0" horiz-adv-x="1110" 
d="M764 739q0 449 -45 583t-164 134t-164 -136t-45 -581q0 -448 45 -581t164 -133t164 133t45 581zM555 -29q-209 0 -344 213.5t-135 554.5t135 554.5t344 213.5t344 -213.5t135 -554.5q0 -342 -135 -555t-344 -213z" />
    <glyph glyph-name="one" unicode="1" horiz-adv-x="1110" 
d="M709 238q0 -104 45 -140t194 -41v-57h-749v57q150 6 194.5 41.5t44.5 139.5v913q0 66 -3.5 92t-12.5 35q-16 16 -141 21q-20 1 -31 1v52q165 37 263 74t157 81h39v-1269z" />
    <glyph glyph-name="two" unicode="2" horiz-adv-x="1110" 
d="M991 354l45 -10l-114 -344h-852q6 141 70.5 268t189.5 244q21 20 63 58q348 322 348 520q0 100 -68 164.5t-173 64.5q-116 0 -219.5 -73.5t-190.5 -217.5l-41 16q87 236 218.5 349.5t316.5 113.5q205 0 320.5 -107t115.5 -298q0 -153 -92 -274t-303 -242q-27 -16 -80 -45
q-270 -148 -334 -299h561q103 0 149.5 25t69.5 87z" />
    <glyph glyph-name="three" unicode="3" horiz-adv-x="1110" 
d="M319 809v41q173 21 268 91.5t95 176.5q0 90 -67 147.5t-173 57.5q-62 0 -121 -36t-128 -120l-41 21q50 158 149 238.5t242 80.5q163 0 264.5 -79.5t101.5 -204.5q0 -101 -71 -183t-199 -129v-18q193 -79 283 -189.5t90 -267.5q0 -206 -148 -335.5t-387 -129.5
q-187 0 -307.5 71t-120.5 177q0 64 36 105t93 41q53 0 88.5 -30t63.5 -98q5 -12 14 -34q69 -172 186 -172q97 0 167.5 85t70.5 206q0 170 -110.5 290.5t-338.5 196.5z" />
    <glyph glyph-name="four" unicode="4" horiz-adv-x="1110" 
d="M584 647v342q0 52 3 103t9 102l-436 -547h424zM836 0h-252v504h-500v143l690 860h62v-860h200v-143h-200v-504z" />
    <glyph glyph-name="five" unicode="5" horiz-adv-x="1110" 
d="M150 739l81 750h625q39 0 77 4.5t76 13.5l-124 -256h-598l-31 -237q381 -37 576.5 -180.5t195.5 -387.5q0 -218 -150 -347.5t-405 -129.5q-185 0 -298.5 76t-113.5 195q0 67 40.5 106t109.5 39q57 0 95 -33.5t50 -92.5q5 -24 12 -65q14 -84 31 -106q24 -30 57 -45.5
t72 -15.5q135 0 226.5 88.5t91.5 218.5q0 183 -188.5 294t-507.5 111z" />
    <glyph glyph-name="six" unicode="6" horiz-adv-x="1110" 
d="M373 791q-21 -75 -31 -157.5t-10 -172.5q0 -205 60 -320.5t165 -115.5q107 0 165 101.5t58 289.5q0 213 -68.5 320.5t-205.5 107.5q-41 0 -73.5 -13t-59.5 -40zM991 1507l15 -55q-256 -96 -403 -235.5t-206 -339.5q60 19 105 28.5t80 9.5q206 0 330 -120t124 -320
q0 -227 -131 -365.5t-348 -138.5t-349 150t-132 399q0 371 228 617t687 370z" />
    <glyph glyph-name="seven" unicode="7" horiz-adv-x="1110" 
d="M565 0h-282q39 246 190 546t440 703h-505q-92 0 -139 -19t-76 -65h-48l166 324h742v-119q-204 -349 -326.5 -693.5t-161.5 -676.5z" />
    <glyph glyph-name="eight" unicode="8" horiz-adv-x="1110" 
d="M678 872q91 50 135.5 123t44.5 172q0 132 -74.5 209.5t-201.5 77.5q-119 0 -191 -58t-72 -153q0 -101 84 -188t275 -183zM406 717q-82 -74 -124 -168.5t-42 -202.5q0 -146 81 -232.5t218 -86.5q133 0 218 71.5t85 180.5q0 111 -85.5 202t-350.5 236zM336 766
q-117 78 -174.5 171.5t-57.5 205.5q0 156 129.5 260t327.5 104q195 0 324 -97.5t129 -242.5q0 -92 -61.5 -171.5t-202.5 -168.5q143 -74 214.5 -180t71.5 -244q0 -191 -136.5 -311.5t-356.5 -120.5q-212 0 -342.5 110t-130.5 286q0 105 65 202.5t201 196.5z" />
    <glyph glyph-name="nine" unicode="9" horiz-adv-x="1110" 
d="M735 690q22 79 32.5 161t10.5 169q0 203 -61 319.5t-166 116.5q-107 0 -165 -101.5t-58 -289.5q0 -213 68.5 -320.5t205.5 -107.5q41 0 73.5 13t59.5 40zM117 -29l-15 58q254 93 403.5 234t205.5 339q-56 -19 -101 -28t-82 -9q-206 0 -331 120.5t-125 320.5
q0 225 132 363t349 138q224 0 351.5 -151t127.5 -416q0 -356 -232.5 -602t-682.5 -367z" />
    <glyph glyph-name="colon" unicode=":" horiz-adv-x="682" 
d="M190 776q0 65 44 109.5t108 44.5q63 0 107.5 -45t44.5 -109q0 -63 -44.5 -107t-107.5 -44q-64 0 -108 43.5t-44 107.5zM190 123q0 64 44 107.5t108 43.5t108 -43.5t44 -107.5q0 -63 -44.5 -107.5t-107.5 -44.5q-64 0 -108 43.5t-44 108.5z" />
    <glyph glyph-name="semicolon" unicode=";" horiz-adv-x="682" 
d="M238 -334l-33 45q75 56 113 105t38 90q0 32 -58 69q-20 13 -32 21q-36 24 -56 61t-20 82q0 60 39.5 98.5t100.5 38.5q76 0 120 -54.5t44 -149.5q0 -118 -68 -226.5t-188 -179.5zM190 776q0 65 44 109.5t108 44.5q63 0 107.5 -45t44.5 -109q0 -63 -44.5 -107t-107.5 -44
q-64 0 -108 43.5t-44 107.5z" />
    <glyph glyph-name="less" unicode="&#x3c;" horiz-adv-x="1706" 
d="M1442 991l-934 -381l934 -381v-182l-1178 483v160l1178 486v-185z" />
    <glyph glyph-name="equal" unicode="=" horiz-adv-x="1706" 
d="M1452 487v-165h-1198v165h1198zM1452 901v-168h-1198v168h1198z" />
    <glyph glyph-name="greater" unicode="&#x3e;" horiz-adv-x="1706" 
d="M1442 690v-160l-1178 -483v182l934 381l-934 381v185z" />
    <glyph glyph-name="question" unicode="?" horiz-adv-x="1139" 
d="M401 401l-63 1q-9 145 -26 285t-42 274h35q84 -67 164.5 -98.5t167.5 -31.5q146 0 228.5 74t82.5 205q0 124 -76.5 202.5t-197.5 78.5q-80 0 -133 -28.5t-119 -115.5q-58 -77 -96.5 -101t-87.5 -24q-66 0 -110 40.5t-44 101.5q0 109 112 176t298 67q246 0 394 -128
t148 -341q0 -192 -115.5 -309t-306.5 -117q-29 0 -70 5t-104 15l-5 -27q-28 -157 -34 -204zM215 127q0 66 45 112t111 46q65 0 110 -46t45 -112t-44.5 -111t-110.5 -45t-111 45t-45 111z" />
    <glyph glyph-name="at" unicode="@" horiz-adv-x="2019" 
d="M1305 823l51 170h172l-172 -616l-2 -6q-15 -59 -15 -90q0 -49 22 -76t60 -27q34 0 84 22t92 56q110 88 169 222t59 296q0 279 -191 450t-504 171q-173 0 -328.5 -65t-273.5 -185q-122 -125 -183.5 -286t-61.5 -357q0 -172 59.5 -306.5t179.5 -234.5q106 -88 247 -135
t302 -47q166 0 321 51.5t304 157.5l37 -47q-148 -111 -315 -167.5t-347 -56.5q-188 0 -347 46.5t-275 134.5q-151 113 -230.5 277t-79.5 362q0 203 86 381t250 313q135 111 297.5 168t345.5 57q348 0 557 -188.5t209 -501.5q0 -159 -59 -297.5t-168 -237.5q-62 -54 -129 -82
t-133 -28q-98 0 -152.5 52.5t-60.5 152.5q-64 -105 -137.5 -154t-165.5 -49q-134 0 -212.5 92t-78.5 248q0 112 49 219t141 195q68 65 147.5 99t161.5 34q90 0 145.5 -47.5t72.5 -139.5zM1249 772q0 83 -37.5 132.5t-99.5 49.5q-64 0 -117 -45t-106 -147
q-57 -107 -87 -209.5t-30 -185.5t36.5 -133t94.5 -50q62 0 115.5 41.5t107.5 132.5q56 96 89.5 210t33.5 204z" />
    <glyph glyph-name="A" unicode="A" horiz-adv-x="1612" 
d="M383 510h590l-301 645zM-63 0v47q97 18 155 65.5t123 192.5l385 858q2 4 5 12q22 48 22 68q0 18 -10 34.5t-29 31.5q61 49 110 99t86 101h37l555 -1175l5 -10q129 -277 274 -277h20v-47h-714v47q97 9 136.5 24t39.5 44q0 21 -12.5 56.5t-39.5 92.5l-79 172h-656l-73 -161
q-18 -38 -26.5 -71t-8.5 -61q0 -44 43 -70t118 -26h9v-47h-475z" />
    <glyph glyph-name="B" unicode="B" horiz-adv-x="1575" 
d="M76 0v47q121 0 155.5 27t34.5 116v1108q0 89 -34.5 116.5t-155.5 27.5v47h692q278 0 435 -97t157 -266q0 -114 -90 -196t-266 -129v-27q213 -32 321.5 -134t108.5 -269q0 -177 -150.5 -274t-425.5 -97h-782zM557 823h145q182 0 261 73.5t79 242.5q0 164 -77 233.5
t-260 69.5q-94 0 -121 -22.5t-27 -90.5v-506zM557 768v-467q0 -168 40.5 -211t156.5 -43q195 0 278.5 82.5t83.5 273.5q0 180 -101.5 272.5t-299.5 92.5h-158z" />
    <glyph glyph-name="C" unicode="C" horiz-adv-x="1698" 
d="M1591 -20h-30q-36 51 -63 74.5t-50 23.5t-90 -24.5t-101 -35.5q-78 -23 -158.5 -35t-162.5 -12q-186 0 -346 58.5t-279 169.5q-118 108 -176.5 246.5t-58.5 306.5q0 166 59.5 299t183.5 245q116 105 268 158t337 53q86 0 168 -11.5t161 -35.5q34 -10 101 -34.5t90 -24.5
t50 23.5t62 74.5h31v-516h-47q-113 233 -271 353t-354 120q-251 0 -384.5 -182.5t-133.5 -528.5q0 -331 141 -525.5t375 -194.5q177 0 340.5 125t296.5 362h41v-532z" />
    <glyph glyph-name="D" unicode="D" horiz-adv-x="1802" 
d="M557 1331v-1042q0 -147 41.5 -192.5t163.5 -45.5h88q236 0 383 184t147 484q0 347 -162 535t-462 188h-117q-46 0 -64 -24t-18 -87zM76 0v47q121 0 155.5 27t34.5 116v1108q0 89 -34.5 116.5t-155.5 27.5v47h669q242 0 389.5 -37t266.5 -121q151 -107 228 -255t77 -333
q0 -169 -65 -314.5t-189 -252.5q-105 -92 -231.5 -134t-302.5 -42h-842z" />
    <glyph glyph-name="E" unicode="E" horiz-adv-x="1583" 
d="M76 0v47q121 0 155.5 27t34.5 116v1108q0 89 -34.5 116.5t-155.5 27.5v47h1218l164 -397h-45q-78 90 -139.5 151.5t-106.5 93.5q-45 33 -83.5 53.5t-75.5 32.5q-30 10 -78 14.5t-115 4.5h-178q-49 0 -63.5 -9t-14.5 -44v-43v-551h139q187 0 287 70.5t129 221.5h43v-684
h-43q-12 172 -114.5 255t-301.5 83h-139v-546q0 -111 20.5 -129.5t118.5 -18.5h154q200 0 335.5 89t256.5 302l45 -4l-119 -434h-1294z" />
    <glyph glyph-name="F" unicode="F" horiz-adv-x="1518" 
d="M57 0v47h23q117 0 151.5 27.5t34.5 115.5v1108q0 89 -34.5 116.5t-155.5 27.5v47h1247l164 -397h-47q-82 94 -141.5 154t-102.5 91q-45 33 -83.5 53.5t-75.5 32.5q-31 10 -78.5 14.5t-114.5 4.5h-207q-49 0 -63.5 -9t-14.5 -44v-43v-551h158q187 0 287 70.5t129 221.5h43
v-684h-43q-13 172 -115 255t-301 83h-158v-551q0 -88 35 -115.5t151 -27.5h23v-47h-711z" />
    <glyph glyph-name="G" unicode="G" horiz-adv-x="1698" 
d="M1663 678v-49q-65 0 -87 -23t-22 -135v-313q0 -14 -62 -50.5t-146 -66.5q-98 -35 -202 -52.5t-212 -17.5q-146 0 -270.5 32.5t-229.5 96.5q-172 106 -264 271.5t-92 367.5q0 175 56.5 309t178.5 248q113 105 261 158t327 53q84 0 164 -11.5t156 -35.5q34 -11 98.5 -35
t85.5 -24q24 0 48.5 22t59.5 76h31v-516h-47q-110 233 -262.5 353t-341.5 120q-245 0 -373.5 -182t-128.5 -529q0 -344 141.5 -536.5t393.5 -192.5q98 0 176.5 35.5t124.5 100.5q23 33 34 93.5t11 164.5v77q0 88 -33.5 115t-149.5 27h-24v49h600z" />
    <glyph glyph-name="H" unicode="H" horiz-adv-x="1915" 
d="M76 0v47q121 0 155.5 27t34.5 116v1108q0 89 -34.5 116.5t-155.5 27.5v47h674v-47q-121 0 -156 -27.5t-35 -116.5v-477h797v477q0 89 -35 116.5t-156 27.5v47h674v-47q-120 0 -154 -27t-34 -117v-1108q0 -89 34 -116t154 -27v-47h-674v47q121 0 156 27t35 116v566h-797
v-566q0 -89 35 -116t156 -27v-47h-674z" />
    <glyph glyph-name="I" unicode="I" horiz-adv-x="901" 
d="M807 1489v-47h-23q-116 0 -151 -27.5t-35 -116.5v-1108q0 -88 35 -115.5t151 -27.5h23v-47h-713v47h23q117 0 151.5 27.5t34.5 115.5v1108q0 90 -34 117t-154 27v47h692z" />
    <glyph glyph-name="J" unicode="J" horiz-adv-x="1014" 
d="M930 1489v-47q-106 -2 -139 -29.5t-33 -114.5v-712q0 -307 -121 -461t-363 -154q-148 0 -229.5 60t-81.5 170q0 68 39.5 108.5t106.5 40.5q62 0 100.5 -43t44.5 -121v-3q13 -154 88 -154q66 0 94.5 54.5t28.5 184.5v1030q0 88 -34 116t-144 28h-21v47h664z" />
    <glyph glyph-name="K" unicode="K" horiz-adv-x="1554" 
d="M559 674l441 572q3 4 11 14q50 64 50 104q0 33 -33 54t-90 24v47h451l-1 -47q-180 -12 -338 -220q-17 -23 -26 -34l-205 -264l453 -662q85 -126 149.5 -165t161.5 -50v-47h-463l-483 686l-78 -98v-398q0 -88 35 -115.5t151 -27.5h23v-47h-711v47h23q117 0 151.5 27.5
t34.5 115.5v1108q0 89 -34.5 116.5t-155.5 27.5v47h692v-47h-23q-116 0 -151 -27.5t-35 -116.5v-624z" />
    <glyph glyph-name="L" unicode="L" horiz-adv-x="1554" 
d="M872 47q201 0 336.5 89t255.5 302l45 -4l-118 -434h-1315v47q121 0 155.5 27t34.5 116v1108q0 89 -34.5 116.5t-155.5 27.5v47h674v-47q-121 0 -156 -27.5t-35 -116.5v-1103q0 -111 20.5 -129.5t118.5 -18.5h174z" />
    <glyph glyph-name="M" unicode="M" horiz-adv-x="2009" 
d="M53 0v47q113 16 158 80.5t45 214.5v940q0 107 -35.5 133.5t-167.5 26.5v47h520l431 -1061l442 1061h487v-47q-120 0 -154 -27t-34 -117v-1108q0 -89 34 -116t154 -27v-47h-671v47q120 0 154 27t34 116v1127l-547 -1317h-43l-528 1280v-938q0 -162 49 -226.5t170 -68.5
v-47h-498z" />
    <glyph glyph-name="N" unicode="N" horiz-adv-x="1886" 
d="M332 1343v-1001q0 -162 49 -226.5t170 -68.5v-47h-498v47q113 16 158 80.5t45 214.5v940q0 105 -32.5 131.5t-147.5 26.5h-23v49h565l947 -1063v721q0 162 -49.5 226t-169.5 69v47h497v-47q-113 -16 -158 -80.5t-45 -214.5v-1176h-86z" />
    <glyph glyph-name="O" unicode="O" horiz-adv-x="1698" 
d="M848 25q224 0 335 178t111 536t-111.5 537.5t-334.5 179.5t-334 -179t-111 -538q0 -358 111 -536t334 -178zM848 -29q-167 0 -310.5 61.5t-254.5 180.5q-101 109 -154 243.5t-53 282.5q0 149 53.5 284t155.5 245q107 117 251.5 178t311.5 61t312.5 -61.5t252.5 -177.5
q102 -110 155.5 -245t53.5 -284q0 -148 -53 -282.5t-154 -243.5q-110 -118 -255 -180t-312 -62z" />
    <glyph glyph-name="P" unicode="P" horiz-adv-x="1479" 
d="M559 778h152q198 0 301.5 87t103.5 253q0 152 -104 238t-289 86q-107 0 -135.5 -27t-28.5 -125v-512zM559 190q0 -88 35 -115.5t151 -27.5h23v-47h-711v47h23q117 0 151.5 27.5t34.5 115.5v1108q0 89 -34.5 116.5t-155.5 27.5v47h690q304 0 474.5 -109.5t170.5 -304.5
q0 -96 -47 -170.5t-137 -120.5q-68 -33 -168 -48t-279 -15h-221v-531z" />
    <glyph glyph-name="Q" unicode="Q" horiz-adv-x="1698" 
d="M608 2q-257 99 -394.5 290t-137.5 447q0 149 53 285t154 244q109 117 253.5 178t311.5 61t311.5 -61t253.5 -178q102 -109 155.5 -245t53.5 -284q0 -271 -151.5 -467t-436.5 -290q30 -95 104 -139t205 -44q45 0 90 6.5t93 20.5l10 -41q-99 -37 -202.5 -55.5t-207.5 -18.5
q-223 0 -348.5 70.5t-169.5 220.5zM848 25q224 0 335 178t111 536t-111.5 537.5t-334.5 179.5t-334 -179t-111 -538q0 -358 111 -536t334 -178z" />
    <glyph glyph-name="R" unicode="R" horiz-adv-x="1677" 
d="M57 0v47h23q117 0 151.5 27.5t34.5 115.5v1108q0 89 -34.5 116.5t-155.5 27.5v47h680q299 0 472 -109.5t173 -296.5q0 -135 -88.5 -217.5t-268.5 -113.5q99 -62 185 -216q6 -10 8 -14l115 -207l9 -16q135 -250 275 -250q4 0 13 1t14 1v-51h-479l-215 430
q-102 200 -165 249.5t-163 49.5h-82v-539q0 -88 35 -115.5t151 -27.5h23v-47h-711zM559 1292v-499h133q200 0 303 84.5t103 246.5q0 147 -101.5 231.5t-279.5 84.5q-103 0 -130.5 -27t-27.5 -121z" />
    <glyph glyph-name="S" unicode="S" horiz-adv-x="1356" 
d="M145 508h41q98 -255 219.5 -368t296.5 -113q138 0 220 71t82 191q0 109 -82.5 183.5t-319.5 162.5q-254 94 -356.5 199.5t-102.5 265.5q0 187 124.5 297t336.5 110q157 0 319 -56q39 -13 48 -13q20 0 49.5 16t69.5 49h36v-502h-41q-79 223 -203 338t-284 115
q-108 0 -179 -59.5t-71 -149.5q0 -93 69.5 -156.5t289.5 -146.5q158 -59 230.5 -94t115.5 -70q95 -77 139.5 -163.5t44.5 -196.5q0 -209 -150.5 -328t-416.5 -119q-152 0 -317 58q-42 14 -52 14q-21 0 -50 -16t-69 -50h-37v531z" />
    <glyph glyph-name="T" unicode="T" horiz-adv-x="1593" 
d="M1315 1489h14q33 0 51 6.5t33 22.5h76l84 -433l-35 -14q-102 185 -223 278t-260 93q-68 0 -89.5 -20t-21.5 -115v-1114q0 -89 34.5 -117.5t149.5 -28.5h23v-47h-711v47h23q116 0 151 28.5t35 117.5v1114q0 93 -21.5 114t-90.5 21q-139 0 -259 -92.5t-223 -278.5l-37 14
l86 433h74q16 -16 34 -22.5t52 -6.5h15h1036z" />
    <glyph glyph-name="U" unicode="U" horiz-adv-x="1907" 
d="M256 1298q0 89 -35 116.5t-155 27.5v47h692v-47h-23q-115 0 -149.5 -27t-34.5 -117v-700q0 -283 116 -415t365 -132q115 0 214.5 26.5t166.5 74.5q95 66 132.5 152.5t37.5 268.5v574q0 163 -48.5 227t-168.5 68v47h496v-47q-113 -16 -158 -80.5t-45 -214.5v-576
q0 -318 -168.5 -459t-548.5 -141q-192 0 -326.5 44t-222.5 135q-74 78 -105.5 179t-31.5 298v671z" />
    <glyph glyph-name="V" unicode="V" horiz-adv-x="1612" 
d="M1337 1208q22 46 29.5 74.5t7.5 58.5q0 44 -44.5 71t-120.5 30l-1 47h473v-47q-171 -31 -276 -253v-1l-569 -1217h-54l-559 1188v1q-133 282 -272 282h-25v47h715v-47q-96 -9 -136 -24t-40 -42q0 -20 12 -56.5t37 -90.5l412 -891z" />
    <glyph glyph-name="W" unicode="W" horiz-adv-x="2019" 
d="M1415 -29h-53l-336 893l-321 -893h-54l-467 1236q-2 5 -6 16q-78 205 -225 219v47h631v-47q-79 -8 -115.5 -24.5t-36.5 -43.5q0 -31 36 -126q5 -13 7 -19l307 -826l203 562l-94 256q-51 135 -92 173.5t-115 47.5v47h610v-47q-75 -6 -112 -23t-37 -45q0 -18 8 -47t33 -98
l299 -813l280 792q13 35 20 71.5t7 68.5q0 42 -41 67t-114 27l-1 47h455v-47q-96 -13 -156 -71.5t-102 -182.5z" />
    <glyph glyph-name="X" unicode="X" horiz-adv-x="1810" 
d="M0 0v47q125 16 218.5 66.5t211.5 179.5l352 387l-446 614q-62 85 -123 116.5t-158 31.5h-28v47h782v-47q-74 -2 -113 -17.5t-39 -44.5q0 -18 13 -43t51 -77l262 -361l330 363q32 34 48.5 62t16.5 46q0 25 -28 44t-78 28v47h469v-47q-115 -18 -198.5 -63.5t-172.5 -143.5
l-352 -385l397 -545q63 -85 99.5 -128.5t56.5 -57.5q42 -32 96.5 -49.5t128.5 -22.5v-47h-786v47q74 3 113.5 21.5t39.5 50.5q0 31 -41 87q-5 7 -8 11l-297 414l-340 -371q-54 -61 -71 -87.5t-17 -45.5q0 -27 32.5 -48.5t88.5 -31.5v-47h-510z" />
    <glyph glyph-name="Y" unicode="Y" horiz-adv-x="1810" 
d="M1061 190q0 -88 34.5 -115.5t151.5 -27.5h23v-47h-713v47h23q116 0 151 27.5t35 115.5v498l-465 649q-45 64 -88 85.5t-117 21.5q-7 0 -22.5 -1t-24.5 -1v47h774v-47q-84 0 -127 -15t-43 -45q0 -19 10.5 -40.5t45.5 -67.5l329 -451l342 441q29 37 42.5 62.5t13.5 43.5
q0 29 -38 47.5t-110 24.5v47h479v-47q-174 -12 -327 -211l-6 -8l-373 -484v-549z" />
    <glyph glyph-name="Z" unicode="Z" horiz-adv-x="1479" 
d="M84 0v57l954 1385h-346q-147 0 -271.5 -75.5t-303.5 -283.5l-33 11l127 395h1184v-33l-973 -1407h299q246 0 403 96.5t275 319.5l43 -10l-133 -455h-1225z" />
    <glyph glyph-name="bracketleft" unicode="[" horiz-adv-x="768" 
d="M190 -332v1821h578v-72h-360v-1679h360v-70h-578z" />
    <glyph glyph-name="backslash" unicode="\" horiz-adv-x="569" 
d="M616 -190h-116l-500 1697h115z" />
    <glyph glyph-name="bracketright" unicode="]" horiz-adv-x="768" 
d="M578 1489v-1821h-578v70h360v1679h-360v72h578z" />
    <glyph glyph-name="asciicircum" unicode="^" horiz-adv-x="2048" 
d="M1130 1462l502 -565h-104l-506 397l-506 -397h-104l503 565h215z" />
    <glyph glyph-name="underscore" unicode="_" 
d="M1024 -311v-172h-1024v172h1024z" />
    <glyph glyph-name="glyph67" unicode="`" 
d="M688 1040h-67l-330 205q-31 20 -46.5 40.5t-15.5 41.5q0 32 20.5 52t53.5 20q20 0 40.5 -12t55.5 -48z" />
    <glyph glyph-name="a" unicode="a" horiz-adv-x="1110" 
d="M711 528q-179 -48 -270 -120.5t-91 -165.5q0 -68 45.5 -112t114.5 -44q42 0 91.5 22t109.5 68v352zM1087 152l35 -23q-39 -87 -91 -123.5t-138 -36.5q-83 0 -128 36t-55 109q-91 -77 -170 -111t-167 -34q-112 0 -177 53t-65 144q0 123 138 221t442 188v109q0 84 -48 131
t-133 47q-101 0 -152.5 -45t-51.5 -133q0 -6 1 -18.5t1 -18.5q0 -63 -29 -97t-84 -34q-48 0 -80.5 29.5t-32.5 75.5q0 54 32.5 104t92.5 88q89 55 205 86t234 31q87 0 146 -25t93 -76q19 -28 27 -70.5t8 -152.5v-426q0 -62 11 -80t40 -18q18 0 38.5 14t57.5 56z" />
    <glyph glyph-name="b" unicode="b" horiz-adv-x="1128" 
d="M162 1192q0 90 -25.5 120t-103.5 40v43q80 14 166 42t180 70v-692q64 58 134 86.5t149 28.5q175 0 285 -131.5t110 -345.5q0 -215 -128 -349.5t-333 -134.5q-82 0 -156.5 21.5t-142.5 64.5h-31l-61 -73h-43v1210zM383 172q36 -76 92.5 -116t126.5 -40q102 0 161.5 93.5
t59.5 257.5q0 183 -83 301t-205 118q-41 0 -78.5 -16t-73.5 -49v-549z" />
    <glyph glyph-name="c" unicode="c" horiz-adv-x="1014" 
d="M883 375h53q-18 -188 -133.5 -296t-298.5 -108q-201 0 -322 120.5t-121 322.5q0 225 135.5 370.5t346.5 145.5q153 0 267 -77.5t114 -174.5q0 -54 -36.5 -90.5t-88.5 -36.5q-38 0 -69 24.5t-56 73.5q-11 22 -29 64q-70 157 -145 157q-92 0 -143.5 -80t-51.5 -225
q0 -202 84.5 -320t226.5 -118q111 0 179.5 64t87.5 184z" />
    <glyph glyph-name="d" unicode="d" horiz-adv-x="1118" 
d="M739 729q-36 76 -91.5 116t-125.5 40q-102 0 -161.5 -94t-59.5 -256q0 -196 79.5 -314.5t207.5 -118.5q40 0 77.5 16.5t73.5 49.5v561zM739 1233q0 90 -24.5 119t-102.5 39v45q111 19 193 36.5t153 34.5v-1284q0 -90 25 -118.5t102 -38.5v-46q-60 -9 -177.5 -25
t-168.5 -23v114q-64 -58 -133 -86.5t-147 -28.5q-176 0 -287 132t-111 346q0 206 126 345.5t313 139.5q66 0 126 -18.5t113 -55.5v373z" />
    <glyph glyph-name="e" unicode="e" 
d="M305 612h307q60 0 84.5 11t24.5 36q0 95 -54 157.5t-137 62.5q-102 0 -159.5 -68.5t-65.5 -198.5zM940 332l31 -23q-81 -175 -192 -256.5t-269 -81.5q-196 0 -322.5 129t-126.5 326q0 212 136.5 358t334.5 146q181 0 296 -100.5t135 -276.5h-664q0 -6 -1 -18.5t-1 -18.5
q0 -159 89.5 -256.5t234.5 -97.5q95 0 171 40t148 130z" />
    <glyph glyph-name="f" unicode="f" horiz-adv-x="682" 
d="M412 164q0 -76 24.5 -96.5t104.5 -20.5h32v-47h-540v47q8 0 22.5 -1t20.5 -1q72 0 95.5 22.5t23.5 96.5v661h-162v84h162v21q0 272 114 424.5t316 152.5q101 0 164 -42t63 -107q0 -42 -29.5 -70t-72.5 -28q-29 0 -55 13.5t-46 39.5q-12 16 -29 51q-34 70 -79 70
q-63 0 -96 -84t-33 -244v-197h204v-84h-204v-661z" />
    <glyph glyph-name="g" unicode="g" horiz-adv-x="1014" 
d="M500 883q-71 0 -108.5 -63t-37.5 -181q0 -136 36 -202t110 -66q71 0 107 63.5t36 192.5q0 127 -36 191.5t-107 64.5zM322 -45q-64 -39 -94.5 -77.5t-30.5 -80.5q0 -70 77.5 -114.5t202.5 -44.5q140 0 217.5 43t77.5 120q0 85 -90 119.5t-330 34.5h-30zM330 332v20
q-103 44 -153 109t-50 155q0 139 100.5 226.5t259.5 87.5q25 0 54 -3t63 -9q29 124 87 190t138 66q53 0 83 -26t30 -71q0 -39 -26.5 -65.5t-65.5 -26.5q-23 0 -61.5 7t-53.5 7q-35 0 -52.5 -20t-25.5 -70q109 -40 166.5 -110.5t57.5 -165.5q0 -115 -68.5 -189t-214.5 -116
q-21 -7 -96 -17.5t-127 -23.5q-50 -12 -75.5 -30t-25.5 -42q0 -57 174 -65q98 -4 160 -11q190 -19 277.5 -80t87.5 -174q0 -134 -136 -215.5t-362 -81.5q-203 0 -318.5 54t-115.5 147q0 47 41 87.5t125 76.5v16q-80 18 -123 55.5t-43 88.5q0 62 66 113t223 106z" />
    <glyph glyph-name="h" unicode="h" horiz-adv-x="1241" 
d="M403 164q0 -77 23.5 -97t93.5 -20h12v-47h-477v47h13q70 0 93 21.5t23 95.5v1028q0 91 -25 120.5t-102 39.5v43q81 14 166.5 42t179.5 70v-735q102 82 189.5 120t175.5 38q151 0 229 -87t78 -255v-424q0 -77 23 -97t94 -20h12v-47h-485v47h12q71 0 94 20t23 97v452
q0 98 -53 152.5t-146 54.5q-67 0 -129.5 -36t-116.5 -107v-516z" />
    <glyph glyph-name="i" unicode="i" horiz-adv-x="569" 
d="M403 164q0 -77 23.5 -97t93.5 -20h12v-47h-475v47h11q70 0 93 20t23 97v450q0 91 -24.5 119.5t-102.5 38.5v45q81 15 166.5 43t179.5 70v-766zM170 1356q0 57 38 95t95 38q56 0 94.5 -38.5t38.5 -94.5t-38.5 -94.5t-94.5 -38.5q-57 0 -95 38t-38 95z" />
    <glyph glyph-name="j" unicode="j" horiz-adv-x="578" 
d="M184 1356q0 57 38.5 95t94.5 38t95 -38.5t39 -94.5t-39 -94.5t-95 -38.5t-94.5 38t-38.5 95zM418 184q0 -285 -104.5 -440.5t-295.5 -155.5q-94 0 -152.5 41.5t-58.5 106.5q0 43 27 71.5t68 28.5q27 0 51 -13t43 -38q11 -17 25 -52q29 -71 73 -71q56 0 80.5 74.5
t24.5 253.5v624q0 97 -29.5 125.5t-126.5 32.5v45q83 9 176.5 37t198.5 76v-746z" />
    <glyph glyph-name="k" unicode="k" horiz-adv-x="1223" 
d="M403 164q0 -77 23.5 -97t93.5 -20h12v-47h-477v47h13q70 0 93 21.5t23 95.5v1028q0 91 -25 120.5t-102 39.5v43q81 14 166.5 42t179.5 70v-1048l334 274q42 35 58 54.5t16 35.5t-16.5 25t-54.5 14l-1 47h385v-47q-96 -15 -178 -53t-184 -121l-98 -82l313 -395l3 -4
q115 -144 214 -160v-47h-502v47q59 0 73.5 8t14.5 31q0 27 -40 76q-11 13 -17 20l-229 285l-91 -74v-229z" />
    <glyph glyph-name="l" unicode="l" horiz-adv-x="569" 
d="M184 1192q0 91 -25 120.5t-104 39.5v43q82 14 168 42t180 70v-1343q0 -77 23.5 -97t93.5 -20h12v-47h-477v47h13q70 0 93 21.5t23 95.5v1028z" />
    <glyph glyph-name="m" unicode="m" horiz-adv-x="1839" 
d="M1042 164q0 -76 22.5 -96.5t88.5 -20.5h12v-47h-467v47h11q65 0 86.5 20t21.5 97v452q0 97 -49 152t-135 55q-63 0 -121 -36t-109 -107v-516q0 -77 23.5 -97t93.5 -20h12v-47h-477v47h13q70 0 93 21.5t23 95.5v450q0 91 -25 119.5t-104 38.5v45q82 15 168 42.5t180 70.5
v-160q95 83 178 121.5t169 38.5q98 0 166.5 -44.5t103.5 -131.5q99 91 187.5 133.5t176.5 42.5q142 0 215.5 -87t73.5 -255v-424q0 -76 22.5 -96.5t88.5 -20.5h10v-47h-467v47h10q65 0 87 20.5t22 96.5v452q0 97 -49 152t-133 55q-63 0 -121 -37.5t-101 -105.5v-516z" />
    <glyph glyph-name="n" unicode="n" horiz-adv-x="1241" 
d="M403 164q0 -77 23.5 -97t93.5 -20h12v-47h-477v47h13q70 0 93 21.5t23 95.5v450q0 91 -25 119.5t-104 38.5v45q82 15 168 42.5t180 70.5v-160q101 83 188.5 121.5t176.5 38.5q151 0 229 -87t78 -255v-424q0 -77 23 -97t94 -20h12v-47h-485v47h12q71 0 94 20t23 97v452
q0 98 -53 152.5t-146 54.5q-67 0 -129.5 -36t-116.5 -107v-516z" />
    <glyph glyph-name="o" unicode="o" horiz-adv-x="1128" 
d="M563 883q-123 0 -184.5 -108.5t-61.5 -323.5q0 -216 61.5 -324.5t184.5 -108.5t185.5 109t62.5 324q0 214 -62.5 323t-185.5 109zM563 -29q-100 0 -182.5 28.5t-151.5 86.5q-80 68 -124 163t-44 202q0 207 142 343t360 136q219 0 361.5 -136.5t142.5 -342.5
q0 -207 -142.5 -343.5t-361.5 -136.5z" />
    <glyph glyph-name="p" unicode="p" horiz-adv-x="1147" 
d="M403 172q37 -76 92.5 -116t125.5 -40q102 0 161.5 93.5t59.5 257.5q0 183 -83.5 301t-205.5 118q-40 0 -76.5 -15.5t-73.5 -49.5v-549zM403 -225q0 -77 23.5 -97t93.5 -20h12v-47h-477v47h13q70 0 93 20t23 97v839q0 91 -25 119.5t-104 38.5v45q82 15 168 42.5t180 70.5
v-115q65 58 134 86.5t147 28.5q176 0 286.5 -132t110.5 -345q0 -207 -125.5 -346.5t-312.5 -139.5q-66 0 -126 18.5t-114 55.5v-266z" />
    <glyph glyph-name="q" unicode="q" horiz-adv-x="1128" 
d="M750 717q-37 74 -93 112.5t-127 38.5q-101 0 -161 -92t-60 -252q0 -178 83.5 -293.5t205.5 -115.5q42 0 79 15.5t73 47.5v539zM967 -225q0 -77 23 -97t93 -20h13v-47h-475v47h12q70 0 93.5 20t23.5 97v311q-64 -58 -134 -86.5t-149 -28.5q-176 0 -285.5 132t-109.5 346
q0 215 127.5 349t332.5 134q80 0 158.5 -23.5t157.5 -70.5l119 82v-1145z" />
    <glyph glyph-name="r" unicode="r" horiz-adv-x="901" 
d="M403 672q87 135 167.5 196.5t168.5 61.5q73 0 117.5 -39t44.5 -103q0 -54 -33.5 -89t-85.5 -35q-42 0 -113.5 34.5t-101.5 34.5q-46 0 -88.5 -48.5t-75.5 -137.5v-383q0 -78 24 -97.5t105 -19.5h37v-47h-514v47h13q70 0 93 20t23 97v450q0 91 -25 119.5t-104 38.5v45
q82 15 168 42.5t180 70.5v-258z" />
    <glyph glyph-name="s" unicode="s" horiz-adv-x="901" 
d="M129 41l-20 321l43 3q52 -172 132 -257t189 -85q69 0 108.5 35.5t39.5 97.5q0 101 -192 196l-21 10q-202 103 -253 162.5t-51 143.5q0 113 95 187.5t243 74.5q94 0 171 -15.5t143 -48.5l20 -272l-39 -6q-55 147 -130.5 221t-170.5 74q-61 0 -101 -35.5t-40 -87.5
q0 -87 232 -190q41 -17 63 -27q126 -57 179.5 -122.5t53.5 -158.5q0 -133 -100.5 -213t-269.5 -80q-74 0 -154 18t-170 54z" />
    <glyph glyph-name="t" unicode="t" horiz-adv-x="682" 
d="M166 838h-111v71q87 64 162 145.5t139 182.5l29 -2v-326h293v-71h-293v-559q0 -108 25.5 -144.5t91.5 -36.5q42 0 87 18t89 52l27 -37q-74 -79 -153 -119.5t-163 -40.5q-117 0 -170 58.5t-53 189.5v619z" />
    <glyph glyph-name="u" unicode="u" horiz-adv-x="1241" 
d="M840 737q0 77 -23 97t-94 20h-12v55h346v-622q0 -90 25.5 -120t103.5 -40v-43q-80 -15 -166 -42.5t-180 -70.5v156q-100 -80 -188.5 -118t-178.5 -38q-151 0 -229 87t-78 255v424q0 77 -23 97t-94 20h-12v55h356v-626q0 -97 52.5 -151t146.5 -54q69 0 132 36t116 105v518
z" />
    <glyph glyph-name="v" unicode="v" horiz-adv-x="1081" 
d="M573 -29h-59l-336 721q-5 11 -14 31q-58 128 -164 139v47h514v-47q-86 -6 -106.5 -17t-20.5 -38q0 -21 7 -46.5t22 -55.5l219 -467l217 473q12 25 17 42.5t5 30.5q0 31 -19.5 46.5t-94.5 31.5v47h313v-47q-54 -12 -91 -50t-77 -126z" />
    <glyph glyph-name="w" unicode="w" horiz-adv-x="1669" 
d="M553 -29h-57l-312 746q-2 5 -5 13q-44 111 -148 132v47h493v-47q-75 -5 -102 -18.5t-27 -44.5q0 -19 6 -40.5t21 -56.5l186 -434l172 424q10 23 14.5 40.5t4.5 31.5q0 40 -30.5 61.5t-115.5 36.5v47h527l-1 -47q-76 -5 -103 -19t-27 -44q0 -20 5.5 -41t20.5 -56l189 -430
l172 424q8 22 12 40.5t4 35.5q0 42 -23.5 63t-78.5 27v47h301v-47q-52 -9 -93 -56t-77 -140l-275 -695h-57l-307 727z" />
    <glyph glyph-name="x" unicode="x" horiz-adv-x="1118" 
d="M877 193q58 -81 105.5 -111.5t107.5 -30.5h20v-51h-582l1 47q56 2 86 16t30 39q0 28 -27 65l-4 6l-129 175l-176 -197q-13 -14 -19.5 -27t-6.5 -26q0 -21 18.5 -33.5t56.5 -17.5v-47h-335v47q71 8 129 42t129 114l172 192l-209 285q-8 10 -22 30q-108 147 -199 152v47
h522l-1 -47q-54 -1 -79 -12.5t-25 -34.5q0 -17 7 -33.5t28 -46.5l127 -172l148 166q25 29 36 47.5t11 32.5q0 19 -24 33t-66 20v47h378v-47h-10q-72 0 -131.5 -33t-150.5 -135l-158 -176z" />
    <glyph glyph-name="y" unicode="y" horiz-adv-x="1118" 
d="M559 -150l-1 -1q-114 -263 -222 -263q-55 0 -89 34t-34 89q0 42 28.5 72.5t67.5 30.5q26 0 66 -17.5t53 -17.5q19 0 33.5 14.5t34.5 56.5l51 109l-346 735q-5 10 -13 28q-60 131 -165 142v47h516v-47q-87 -6 -108 -17t-21 -38q0 -21 7 -46.5t21 -55.5l226 -478l213 484
q12 29 17 45t5 28q0 31 -20 46t-97 32v47h314v-47q-53 -11 -92.5 -52t-75.5 -124z" />
    <glyph glyph-name="z" unicode="z" horiz-adv-x="1104" 
d="M1026 909l-692 -852h270q120 0 216.5 74.5t207.5 257.5l31 -8l-90 -381h-912v57l650 797h-211q-106 0 -202.5 -61t-215.5 -205l-31 8l103 313h876z" />
    <glyph glyph-name="braceleft" unicode="{" 
d="M850 1459q-128 -2 -175.5 -55t-47.5 -210v-137q0 -225 -56.5 -307.5t-208.5 -114.5q152 -32 208.5 -114.5t56.5 -307.5v-137q0 -157 47 -209t176 -54v-57h-10q-222 0 -305.5 74t-83.5 272v201q0 161 -58 223.5t-215 75.5v68q159 15 216 76t57 223v200q0 200 84.5 273.5
t314.5 73.5v-57z" />
    <glyph glyph-name="bar" unicode="|" 
d="M602 1565v-2048h-178v2048h178z" />
    <glyph glyph-name="braceright" unicode="}" 
d="M575 1169v-200q0 -162 57 -223t216 -76v-68q-157 -13 -215 -74.5t-58 -224.5v-201q0 -197 -84 -271.5t-307 -74.5h-10v57q129 2 176 54t47 209v137q0 227 56.5 308.5t208.5 113.5q-151 32 -208 113.5t-57 308.5v137q0 157 -47.5 210t-175.5 55v57h10q223 0 307 -74.5
t84 -272.5z" />
    <glyph glyph-name="asciitilde" unicode="~" horiz-adv-x="1706" 
d="M1530 600q-103 -71 -197.5 -106t-183.5 -35q-44 0 -92.5 8.5t-98.5 26.5q-25 8 -76 26q-212 74 -319 74q-82 0 -174 -38t-211 -122v187q106 72 202 107.5t185 35.5q62 0 125.5 -12t168.5 -48q13 -4 42 -15q164 -58 250 -58q85 0 177 37t202 116v-184z" />
    <glyph glyph-name="euro" horiz-adv-x="1110" 
d="M8 870l23 66h143q14 103 45.5 192t81.5 168q72 110 162 160.5t211 50.5q50 0 98.5 -11.5t98.5 -35.5q23 -11 60 -34t50 -23q20 0 33.5 22t32.5 74h30v-442h-47q-57 186 -145.5 292.5t-190.5 106.5q-121 0 -183 -123t-75 -397h535l-21 -66h-516q-1 -21 -1.5 -46t-0.5 -79
q0 -48 0.5 -71t1.5 -43h436l-20 -66h-414q16 -267 80.5 -403.5t175.5 -136.5q84 0 176.5 108.5t163.5 294.5h47v-448h-30q-9 20 -21 49q-16 35 -23 42t-22 7q-11 0 -51 -24t-62 -36q-45 -23 -92.5 -35t-95.5 -12q-131 0 -223 52.5t-166 171.5q-48 74 -78 166.5t-43 203.5
h-164l23 66h135q-3 46 -3.5 72t-0.5 49q0 22 0.5 46t3.5 72h-158z" />
    <glyph glyph-name="euro" unicode="&#x20ac;" horiz-adv-x="1110" 
d="M8 870l23 66h143q14 103 45.5 192t81.5 168q72 110 162 160.5t211 50.5q50 0 98.5 -11.5t98.5 -35.5q23 -11 60 -34t50 -23q20 0 33.5 22t32.5 74h30v-442h-47q-57 186 -145.5 292.5t-190.5 106.5q-121 0 -183 -123t-75 -397h535l-21 -66h-516q-1 -21 -1.5 -46t-0.5 -79
q0 -48 0.5 -71t1.5 -43h436l-20 -66h-414q16 -267 80.5 -403.5t175.5 -136.5q84 0 176.5 108.5t163.5 294.5h47v-448h-30q-9 20 -21 49q-16 35 -23 42t-22 7q-11 0 -51 -24t-62 -36q-45 -23 -92.5 -35t-95.5 -12q-131 0 -223 52.5t-166 171.5q-48 74 -78 166.5t-43 203.5
h-164l23 66h135q-3 46 -3.5 72t-0.5 49q0 22 0.5 46t3.5 72h-158z" />
    <glyph glyph-name="nonbreakingspace" unicode="&#xa0;" horiz-adv-x="1110" 
 />
    <glyph glyph-name="exclamdown" unicode="&#xa1;" horiz-adv-x="682" 
d="M371 1075q13 -236 73 -525t60 -355q0 -106 -43 -165t-121 -59q-77 0 -119.5 59t-42.5 165q0 71 60 360.5t73 519.5h60zM498 1352q0 -66 -46 -112t-112 -46t-111 45.5t-45 112.5q0 66 45 110.5t111 44.5t112 -45t46 -110z" />
    <glyph glyph-name="cent" unicode="&#xa2;" horiz-adv-x="1110" 
d="M657 807q-12 41 -41 64.5t-69 23.5q-93 0 -144 -84.5t-51 -239.5q0 -110 27.5 -190t85.5 -137zM387 18q-132 50 -204 160t-72 262q0 115 39.5 214t115.5 173q64 64 141.5 95.5t167.5 31.5q33 0 64.5 -3.5t62.5 -10.5l86 246h86l-94 -268q93 -39 143 -94.5t50 -118.5
q0 -54 -36.5 -92t-88.5 -38q-46 0 -81 32.5t-58 97.5l-177 -506q32 -24 66 -35.5t72 -11.5q107 0 177 65.5t87 181.5h51q-20 -191 -134 -296t-302 -105q-33 0 -50 1t-32 3l-109 -311h-84z" />
    <glyph glyph-name="sterling" unicode="&#xa3;" horiz-adv-x="1110" 
d="M442 150q-55 64 -107 94t-108 30q-57 0 -91 -36t-34 -97q0 -50 38.5 -83t97.5 -33q47 0 97 30t107 95zM430 688h-367v84h295q-81 116 -116 201.5t-35 163.5q0 157 126 264.5t316 107.5q173 0 278 -81t105 -214q0 -85 -45 -138.5t-115 -53.5q-68 0 -111.5 41.5
t-43.5 105.5q0 61 34.5 97.5t92.5 36.5q26 0 55.5 -11.5t32.5 -11.5q7 0 12.5 9t5.5 22q0 42 -80.5 92.5t-169.5 50.5q-113 0 -180 -61t-67 -164q0 -81 69 -235.5t92 -221.5h334v-84h-309q9 -44 13.5 -82t4.5 -69q0 -66 -20.5 -137t-65.5 -156q45 -30 96.5 -44t116.5 -14
q103 0 165 48.5t100 156.5h49q-23 -199 -112.5 -309.5t-227.5 -110.5q-65 0 -130 32t-149 106q-70 -75 -131 -106.5t-135 -31.5q-91 0 -148 49.5t-57 126.5q0 87 68 144t174 57q50 0 114.5 -20.5t145.5 -61.5q17 35 26 70.5t9 71.5q0 60 -24 121t-91 159z" />
    <glyph glyph-name="currency" unicode="&#xa4;" horiz-adv-x="1110" 
d="M8 870l23 66h143q14 103 45.5 192t81.5 168q72 110 162 160.5t211 50.5q50 0 98.5 -11.5t98.5 -35.5q23 -11 60 -34t50 -23q20 0 33.5 22t32.5 74h30v-442h-47q-57 186 -145.5 292.5t-190.5 106.5q-121 0 -183 -123t-75 -397h535l-21 -66h-516q-1 -21 -1.5 -46t-0.5 -79
q0 -48 0.5 -71t1.5 -43h436l-20 -66h-414q16 -267 80.5 -403.5t175.5 -136.5q84 0 176.5 108.5t163.5 294.5h47v-448h-30q-9 20 -21 49q-16 35 -23 42t-22 7q-11 0 -51 -24t-62 -36q-45 -23 -92.5 -35t-95.5 -12q-131 0 -223 52.5t-166 171.5q-48 74 -78 166.5t-43 203.5
h-164l23 66h135q-3 46 -3.5 72t-0.5 49q0 22 0.5 46t3.5 72h-158z" />
    <glyph glyph-name="yen" unicode="&#xa5;" horiz-adv-x="1407" 
d="M1413 1458v-45q-143 -22 -267 -210l-3 -5l-146 -217h283v-66h-324l-131 -190v-49h455v-66h-455v-424q0 -87 30 -113t130 -26h19v-47h-601v47h21q99 0 128.5 26t29.5 113v424h-459v66h459l-150 239h-309v66h268l-207 330q-39 61 -74 81.5t-90 20.5h-14v45h598v-45h-12
q-64 0 -98.5 -15t-34.5 -42q0 -33 46 -108l1 -1l285 -459l303 451q23 35 35 61t12 43q0 28 -34.5 47t-92.5 23v45h399z" />
    <glyph glyph-name="brokenbar" unicode="&#xa6;" 
d="M602 408v-758h-178v758h178zM602 1432v-758h-178v758h178z" />
    <glyph glyph-name="section" unicode="&#xa7;" 
d="M254 770q0 -53 27.5 -100t113.5 -127q80 -76 131.5 -106.5t96.5 -30.5q62 0 103.5 39t41.5 98q0 45 -28.5 92.5t-98.5 116.5q-82 80 -138.5 114.5t-103.5 34.5q-59 0 -102 -39t-43 -92zM619 352q98 -81 145 -153.5t47 -143.5q0 -110 -92.5 -181t-239.5 -71
q-129 0 -214 59.5t-85 145.5q0 57 32 92t83 35q44 0 73 -29t29 -71q0 -38 -31.5 -72.5t-31.5 -44.5q0 -29 39.5 -47t105.5 -18q81 0 130.5 41.5t49.5 107.5q0 49 -40.5 105t-145.5 147l-180 156q-90 77 -133 147t-43 137q0 113 78.5 183t207.5 73q-103 90 -145.5 157.5
t-42.5 137.5q0 115 87.5 188.5t225.5 73.5q122 0 199.5 -60.5t77.5 -152.5q0 -52 -31.5 -85t-81.5 -33q-42 0 -72 26t-30 64q0 33 32.5 70t32.5 50q0 27 -37.5 47.5t-91.5 20.5q-75 0 -118 -38t-43 -103q0 -55 36 -109t156 -157l176 -152q88 -74 131 -146t43 -145
q0 -111 -78 -179t-210 -73z" />
    <glyph glyph-name="dieresis" unicode="&#xa8;" 
d="M604 1196q0 40 29.5 69t68.5 29q41 0 71 -29t30 -69q0 -42 -29 -71t-72 -29q-41 0 -69.5 28.5t-28.5 71.5zM223 1196q0 40 29.5 69t69.5 29t70 -29t30 -69q0 -42 -29 -71t-71 -29t-70.5 28.5t-28.5 71.5z" />
    <glyph glyph-name="copyright" unicode="&#xa9;" horiz-adv-x="1683" 
d="M1165 1100l2 -320h-47q-32 134 -102 203.5t-172 69.5q-116 0 -176 -94t-60 -275q0 -184 65 -281.5t189 -97.5q82 0 151 43.5t126 130.5l43 -26q-63 -108 -150 -160.5t-200 -52.5q-177 0 -297.5 124t-120.5 306q0 184 119.5 309t295.5 125q80 0 154 -33t78 -33
q28 0 41.5 14t19.5 48h41zM1464 678q0 124 -48 241.5t-136 204.5q-86 86 -200 133.5t-236 47.5q-126 0 -241 -48t-202 -137q-88 -90 -135 -203.5t-47 -238.5q0 -126 47.5 -239.5t136.5 -202.5q91 -91 201.5 -137t237.5 -46q126 0 238.5 47t199.5 136q88 89 136 204.5
t48 237.5zM844 1401q140 0 272.5 -55.5t233.5 -155.5q101 -102 157 -235.5t56 -276.5q0 -142 -55.5 -274t-157.5 -236q-101 -102 -231 -155.5t-277 -53.5q-145 0 -274.5 53t-233.5 156q-104 104 -158.5 234.5t-54.5 275.5q0 143 54 274.5t157 235.5q102 102 235 157.5
t277 55.5z" />
    <glyph glyph-name="ordfeminine" unicode="&#xaa;" horiz-adv-x="834" 
d="M532 1223q-134 -36 -202 -86.5t-68 -114.5q0 -48 34.5 -79.5t86.5 -31.5q31 0 67.5 16t81.5 48v248zM815 958l27 -16q-30 -61 -69 -86t-103 -25q-62 0 -96 25t-42 76q-66 -54 -125 -77.5t-126 -23.5q-85 0 -134 37t-49 101q0 85 103.5 153.5t330.5 132.5v76
q0 59 -35.5 92t-99.5 33q-75 0 -114 -31.5t-39 -93.5q0 -4 1 -13t1 -13q0 -45 -22 -69t-62 -24q-36 0 -60 21t-24 53q0 39 23.5 73.5t68.5 61.5q67 39 154 60.5t176 21.5q65 0 109.5 -17t70.5 -52q13 -21 18.5 -51t6.5 -107v-297q0 -43 8 -56.5t30 -13.5q15 0 29.5 10
t42.5 39z" />
    <glyph glyph-name="guillemotleft" unicode="&#xab;" 
d="M487 451q93 76 182.5 154t174.5 157h24v-29q-56 -86 -184 -276l-4 -6l4 -7q128 -190 184 -276v-29h-24q-85 79 -174.5 157t-182.5 155zM147 451q93 76 182.5 154t174.5 157h22v-29q-56 -86 -184 -276l-4 -6l4 -7q128 -190 184 -276v-29h-22q-85 79 -174.5 157t-182.5 155
z" />
    <glyph glyph-name="logicalnot" unicode="&#xac;" horiz-adv-x="1706" 
d="M1452 862v-502h-166v336h-1032v166h1198z" />
    <glyph glyph-name="sfthyphen" unicode="&#xad;" horiz-adv-x="682" 
d="M86 346v209h512v-209h-512z" />
    <glyph glyph-name="registered" unicode="&#xae;" horiz-adv-x="1683" 
d="M748 981v-258q14 -1 27 -1.5t26 -0.5q100 0 154.5 44t54.5 126q0 70 -46.5 114t-121.5 44q-47 0 -70.5 -17.5t-23.5 -50.5zM866 1096q145 0 232.5 -55t87.5 -142q0 -84 -65.5 -133t-217.5 -76q96 -25 147.5 -73t69.5 -127q6 -24 10 -67q9 -91 54 -91q29 0 44 34t15 99h49
v-23q0 -85 -43 -129.5t-127 -44.5q-46 0 -80 14.5t-53 43.5q-24 39 -27 111.5t-8 93.5q-16 74 -60.5 109.5t-121.5 35.5h-24v-246q0 -49 22.5 -69.5t85.5 -26.5v-47h-389v46q64 4 88.5 24.5t24.5 72.5v520q0 52 -23.5 72t-89.5 25v49h399zM1464 678q0 122 -48.5 240
t-135.5 206q-86 86 -200 133.5t-236 47.5q-126 0 -241 -48t-202 -137q-89 -90 -135.5 -203t-46.5 -239t47.5 -239.5t136.5 -202.5q91 -91 201.5 -137t237.5 -46q126 0 238.5 47t199.5 136q89 90 136.5 204.5t47.5 237.5zM844 1401q144 0 279 -57t235 -160
q98 -102 151.5 -235.5t53.5 -278.5q0 -138 -59.5 -272.5t-166.5 -239.5q-101 -100 -228 -149.5t-282 -49.5q-135 0 -264 54.5t-229 154.5q-105 104 -159 234t-54 276q0 143 54.5 275t156.5 235q102 102 235 157.5t277 55.5z" />
    <glyph glyph-name="macron" unicode="&#xaf;" 
d="M254 1133v124h516v-124h-516z" />
    <glyph glyph-name="degree" unicode="&#xb0;" horiz-adv-x="674" 
d="M522 1165q0 77 -53.5 131t-130.5 54t-131.5 -54t-54.5 -131q0 -76 54.5 -131t131.5 -55t130.5 54.5t53.5 131.5zM338 1460q123 0 209 -87t86 -210q0 -121 -87 -208t-210 -87t-208 85.5t-85 209.5q0 125 86 211t209 86z" />
    <glyph glyph-name="plusminus" unicode="&#xb1;" horiz-adv-x="1706" 
d="M1452 182v-168h-1198v168h1198zM938 1206v-334h514v-165h-514v-334h-170v334h-514v165h514v334h170z" />
    <glyph glyph-name="twosuperior" unicode="&#xb2;" horiz-adv-x="733" 
d="M653 805l31 -6l-76 -207h-563q5 84 47.5 160t124.5 147q14 11 39 33q233 195 233 313q0 60 -44.5 98.5t-114.5 38.5q-77 0 -145 -43.5t-126 -130.5l-26 11q57 141 144 209.5t208 68.5q136 0 212.5 -64.5t76.5 -179.5q0 -91 -61 -163.5t-201 -145.5q-18 -9 -53 -27
q-178 -89 -220 -180h371q68 0 98.5 15t44.5 53z" />
    <glyph glyph-name="threesuperior" unicode="&#xb3;" horiz-adv-x="733" 
d="M211 1077v25q114 12 177 54.5t63 107.5q0 53 -44.5 87.5t-113.5 34.5q-41 0 -80 -21.5t-86 -72.5l-27 13q34 95 99.5 143.5t158.5 48.5q109 0 175.5 -48t66.5 -124q0 -59 -47 -108.5t-131 -77.5v-11q127 -48 186.5 -114t59.5 -160q0 -124 -97.5 -201.5t-255.5 -77.5
q-124 0 -203 42.5t-79 105.5q0 38 23.5 63t60.5 25q35 0 58.5 -18t41.5 -58q3 -6 8 -18q47 -107 125 -107q64 0 111 51.5t47 122.5q0 103 -74 176t-223 117z" />
    <glyph glyph-name="grave" unicode="&#xb4;" 
d="M336 1040l289 299q35 36 55.5 48t40.5 12q33 0 53.5 -20t20.5 -52q0 -21 -15.5 -41.5t-46.5 -40.5l-330 -205h-67z" />
    <glyph glyph-name="mu" unicode="&#xb5;" horiz-adv-x="1184" 
d="M68 373l108 512h207l-100 -467q-10 -46 -15.5 -82t-5.5 -57q0 -64 37 -101t102 -37q87 0 139 53.5t76 167.5l111 523h209l-113 -533l-3 -15q-15 -70 -15 -110q0 -42 22.5 -66t63.5 -24q40 0 71 21.5t58 68.5q9 17 23 49q25 60 51 60q11 0 16.5 -7.5t5.5 -23.5
q0 -28 -17 -85.5t-40 -100.5q-41 -72 -95.5 -108t-123.5 -36q-84 0 -129.5 55t-47.5 156q-42 -104 -109.5 -157.5t-156.5 -53.5q-99 0 -156.5 58t-68.5 168q-23 -124 -48 -315q-39 -306 -134 -306q-47 0 -73 26.5t-26 74.5q0 52 69 282.5t108 409.5z" />
    <glyph glyph-name="paragraph" unicode="&#xb6;" 
d="M969 1380h-117v-1380h-129v1380h-168v-1380h-131v784q-168 6 -268.5 101t-100.5 245q0 158 107 253.5t284 95.5h523v-99z" />
    <glyph glyph-name="glyph195" unicode="&#xb7;" horiz-adv-x="555" 
d="M125 739q0 65 43.5 108.5t107.5 43.5t108 -44t44 -108q0 -63 -44.5 -107t-107.5 -44q-64 0 -107.5 43.5t-43.5 107.5z" />
    <glyph glyph-name="cedilla" unicode="&#xb8;" 
d="M250 -371l35 78q60 -34 118.5 -53t104.5 -19q64 0 93.5 22.5t29.5 70.5q0 42 -30.5 66t-84.5 24q-13 0 -28.5 -1.5t-32.5 -4.5v188h63v-112q17 2 32 3.5t30 2.5q86 0 134 -43.5t48 -120.5q0 -82 -57.5 -129t-159.5 -47q-55 0 -124 17t-171 58z" />
    <glyph glyph-name="onesuperior" unicode="&#xb9;" horiz-adv-x="733" 
d="M467 735q0 -62 29 -83.5t128 -24.5l1 -35h-494v34q100 4 129 25.5t29 83.5v547q0 37 -3 53.5t-10 22.5q-9 11 -97 14h-15v31q112 23 176 45t100 49h27v-762z" />
    <glyph glyph-name="ordmasculine" unicode="&#xba;" horiz-adv-x="846" 
d="M422 1470q-92 0 -138 -76t-46 -227t46 -227t138 -76t139 76.5t47 226.5q0 151 -47 227t-139 76zM422 831q-73 0 -135 20t-115 60q-60 48 -92.5 114.5t-32.5 141.5q0 146 106 241t269 95q164 0 271.5 -95.5t107.5 -240.5q0 -144 -107.5 -240t-271.5 -96z" />
    <glyph glyph-name="guillemotright" unicode="&#xbb;" 
d="M537 451q-93 -77 -182.5 -155t-174.5 -157h-24v29q56 86 184 276l4 7l-4 6q-128 190 -184 276v29h24q85 -79 174.5 -157t182.5 -154zM877 451q-93 -77 -182.5 -155t-174.5 -157h-22v29q56 86 184 276l4 7l-4 6q-128 190 -184 276v29h22q85 -79 174.5 -157t182.5 -154z
" />
    <glyph glyph-name="onequarter" unicode="&#xbc;" horiz-adv-x="1741" 
d="M1409 362v191q0 30 1.5 58t4.5 56l-274 -305h268zM1567 0h-158v283h-315v79l434 482h39v-482h127v-79h-127v-283zM1266 1507h114l-907 -1554h-117zM446 784q0 -58 29.5 -78t122.5 -22v-33h-473v33q94 2 122.5 22t28.5 78v512q0 43 -2 54.5t-8 15.5q-10 8 -77 12
q-21 2 -31 2v29q105 21 166.5 41t97.5 45h24v-711z" />
    <glyph glyph-name="onehalf" unicode="&#xbd;" horiz-adv-x="1741" 
d="M1665 199l29 -6l-72 -193h-538q4 79 44 149.5t119 137.5q13 10 37 30q223 183 223 293q0 56 -43 92.5t-108 36.5q-73 0 -138 -41t-120 -123l-27 11q54 131 137 194.5t201 63.5q129 0 201.5 -60.5t72.5 -167.5q0 -84 -57.5 -151.5t-191.5 -136.5q-18 -9 -51 -25
q-170 -83 -209 -168h354q64 0 93 14.5t44 49.5zM1266 1507h114l-907 -1554h-117zM446 784q0 -58 29.5 -78t122.5 -22v-33h-473v33q94 2 122.5 22t28.5 78v512q0 43 -2 54.5t-8 15.5q-10 8 -77 12q-21 2 -31 2v29q105 21 166.5 41t97.5 45h24v-711z" />
    <glyph glyph-name="threequarters" unicode="&#xbe;" horiz-adv-x="1741" 
d="M1409 362v191q0 30 1.5 58t4.5 56l-274 -305h268zM1567 0h-158v283h-315v79l434 482h39v-482h127v-79h-127v-283zM1266 1507h114l-907 -1554h-117zM201 1104v22q109 12 169 52t60 100q0 50 -42.5 82.5t-108.5 32.5q-39 0 -75.5 -20t-82.5 -68l-25 12q31 88 93.5 133
t152.5 45q104 0 167.5 -44.5t63.5 -115.5q0 -55 -44 -100.5t-126 -73.5v-10q121 -43 177.5 -105t56.5 -151q0 -115 -93 -187.5t-243 -72.5q-118 0 -194 40t-76 99q0 35 23 58.5t59 23.5q32 0 55 -17.5t39 -54.5l10 -20q44 -96 117 -96q61 0 105 48t44 115q0 97 -69.5 164
t-212.5 109z" />
    <glyph glyph-name="questiondown" unicode="&#xbf;" horiz-adv-x="1139" 
d="M735 1077h64q11 -152 28 -290.5t41 -266.5h-34q-84 66 -165.5 97.5t-168.5 31.5q-146 0 -229 -74t-83 -204q0 -124 77.5 -202.5t199.5 -78.5q81 0 134 28t118 113q58 78 96.5 101.5t87.5 23.5q66 0 110 -40.5t44 -100.5q0 -109 -113 -176.5t-299 -67.5
q-246 0 -393.5 128.5t-147.5 340.5q0 192 116 309t306 117q36 0 79 -4.5t95 -13.5q15 79 24 135.5t13 93.5zM924 1352q0 -67 -45 -112.5t-111 -45.5t-112 46t-46 112q0 65 46 110t112 45t111 -44.5t45 -110.5z" />
    <glyph glyph-name="Agrave" unicode="&#xc0;" horiz-adv-x="1612" 
d="M383 510h590l-301 645zM-63 0v47q97 18 155 65.5t123 192.5l385 858q2 4 5 12q22 48 22 68q0 18 -10 34.5t-29 31.5q61 49 110 99t86 101h37l555 -1175l5 -10q129 -277 274 -277h20v-47h-714v47q97 9 136.5 24t39.5 44q0 21 -12.5 56.5t-39.5 92.5l-79 172h-656l-73 -161
q-18 -38 -26.5 -71t-8.5 -61q0 -44 43 -70t118 -26h9v-47h-475zM967 1618h-67l-330 205q-31 20 -46.5 40.5t-15.5 41.5q0 32 20.5 52t53.5 20q20 0 40.5 -12t55.5 -48z" />
    <glyph glyph-name="Aacute" unicode="&#xc1;" horiz-adv-x="1612" 
d="M383 510h590l-301 645zM-63 0v47q97 18 155 65.5t123 192.5l385 858q2 4 5 12q22 48 22 68q0 18 -10 34.5t-29 31.5q61 49 110 99t86 101h37l555 -1175l5 -10q129 -277 274 -277h20v-47h-714v47q97 9 136.5 24t39.5 44q0 21 -12.5 56.5t-39.5 92.5l-79 172h-656l-73 -161
q-18 -38 -26.5 -71t-8.5 -61q0 -44 43 -70t118 -26h9v-47h-475zM615 1618l289 299q35 36 55.5 48t40.5 12q33 0 53.5 -20t20.5 -52q0 -21 -15.5 -41.5t-46.5 -40.5l-330 -205h-67z" />
    <glyph glyph-name="Acircumflex" unicode="&#xc2;" horiz-adv-x="1612" 
d="M383 510h590l-301 645zM-63 0v47q97 18 155 65.5t123 192.5l385 858q2 4 5 12q22 48 22 68q0 18 -10 34.5t-29 31.5q61 49 110 99t86 101h37l555 -1175l5 -10q129 -277 274 -277h20v-47h-714v47q97 9 136.5 24t39.5 44q0 21 -12.5 56.5t-39.5 92.5l-79 172h-656l-73 -161
q-18 -38 -26.5 -71t-8.5 -61q0 -44 43 -70t118 -26h9v-47h-475zM500 1618l232 349h118l232 -349h-58l-233 211l-233 -211h-58z" />
    <glyph glyph-name="Atilde" unicode="&#xc3;" horiz-adv-x="1612" 
d="M383 510h590l-301 645zM-63 0v47q97 18 155 65.5t123 192.5l385 858q2 4 5 12q22 48 22 68q0 18 -10 34.5t-29 31.5q61 49 110 99t86 101h37l555 -1175l5 -10q129 -277 274 -277h20v-47h-714v47q97 9 136.5 24t39.5 44q0 21 -12.5 56.5t-39.5 92.5l-79 172h-656l-73 -161
q-18 -38 -26.5 -71t-8.5 -61q0 -44 43 -70t118 -26h9v-47h-475zM1078 1915q-20 -103 -68.5 -153.5t-126.5 -50.5q-15 0 -32.5 2t-41.5 8l-109 29q-12 3 -24 4.5t-24 1.5q-39 0 -60.5 -20t-36.5 -71h-51q19 106 68 158.5t129 52.5q17 0 32.5 -2t30.5 -6l110 -28
q24 -6 36.5 -8.5t19.5 -2.5q38 0 59.5 20t34.5 66h54z" />
    <glyph glyph-name="Adieresis" unicode="&#xc4;" horiz-adv-x="1612" 
d="M383 510h590l-301 645zM-63 0v47q97 18 155 65.5t123 192.5l385 858q2 4 5 12q22 48 22 68q0 18 -10 34.5t-29 31.5q61 49 110 99t86 101h37l555 -1175l5 -10q129 -277 274 -277h20v-47h-714v47q97 9 136.5 24t39.5 44q0 21 -12.5 56.5t-39.5 92.5l-79 172h-656l-73 -161
q-18 -38 -26.5 -71t-8.5 -61q0 -44 43 -70t118 -26h9v-47h-475zM883 1774q0 40 29.5 69t68.5 29q41 0 71 -29t30 -69q0 -42 -29 -71t-72 -29q-41 0 -69.5 28.5t-28.5 71.5zM502 1774q0 40 29.5 69t69.5 29t70 -29t30 -69q0 -42 -29 -71t-71 -29t-70.5 28.5t-28.5 71.5z" />
    <glyph glyph-name="Aring" unicode="&#xc5;" horiz-adv-x="1612" 
d="M645 1733q0 -64 43.5 -108t106.5 -44q62 0 105.5 44t43.5 108q0 61 -44 105t-105 44q-62 0 -106 -43.5t-44 -105.5zM555 1733q0 101 69 170t171 69q101 0 171 -69t70 -170q0 -102 -70 -172t-171 -70t-170.5 70t-69.5 172zM383 504h590l-301 635zM-63 0v47q97 18 155 64
t123 190l385 848q15 29 20 45t5 31q0 10 -2.5 19.5t-8.5 19.5q57 36 107.5 76t93.5 83h37l524 -1093l9 -19q127 -264 266 -264h24v-47h-714v47q95 8 134.5 23t39.5 43q0 21 -11 53.5t-39 93.5l-79 170h-656l-74 -160q-17 -38 -25.5 -69.5t-8.5 -59.5q0 -43 43 -68.5
t118 -25.5h9v-47h-475z" />
    <glyph glyph-name="AE" unicode="&#xc6;" horiz-adv-x="2286" 
d="M553 766h395v676h-24zM-53 0v47q77 15 140.5 76.5t139.5 200.5l471 852q28 50 36.5 77t8.5 52q0 66 -53.5 101.5t-154.5 35.5h-25v47h1466l166 -397h-47q-78 90 -139.5 151.5t-106.5 93.5q-45 33 -83.5 53.5t-75.5 32.5q-30 10 -78 14.5t-115 4.5h-178q-49 0 -63.5 -9
t-14.5 -44v-43v-588h139q187 0 287 72t129 227h43v-688h-43q-12 170 -114 253t-302 83h-139v-510q0 -111 20.5 -129.5t118.5 -18.5h154q200 0 335.5 89t256.5 302l47 -4l-119 -434h-1296v47q121 0 155.5 27t34.5 116v504h-436l-231 -420q-21 -36 -31 -66.5t-10 -55.5
q0 -43 30.5 -65.5t114.5 -39.5v-47h-438z" />
    <glyph glyph-name="Ccedilla" unicode="&#xc7;" horiz-adv-x="1698" 
d="M1591 -20h-30q-36 51 -63 74.5t-50 23.5t-90 -24.5t-101 -35.5q-78 -23 -158.5 -35t-162.5 -12q-186 0 -346 58.5t-279 169.5q-118 108 -176.5 246.5t-58.5 306.5q0 166 59.5 299t183.5 245q116 105 268 158t337 53q86 0 168 -11.5t161 -35.5q34 -10 101 -34.5t90 -24.5
t50 23.5t62 74.5h31v-516h-47q-113 233 -271 353t-354 120q-251 0 -384.5 -182.5t-133.5 -528.5q0 -331 141 -525.5t375 -194.5q177 0 340.5 125t296.5 362h41v-532zM645 -371l35 78q60 -34 118.5 -53t104.5 -19q64 0 93.5 22.5t29.5 70.5q0 42 -30.5 66t-84.5 24
q-13 0 -28.5 -1.5t-32.5 -4.5v188h63v-112q17 2 32 3.5t30 2.5q86 0 134 -43.5t48 -120.5q0 -82 -57.5 -129t-159.5 -47q-55 0 -124 17t-171 58z" />
    <glyph glyph-name="Egrave" unicode="&#xc8;" horiz-adv-x="1583" 
d="M76 0v47q121 0 155.5 27t34.5 116v1108q0 89 -34.5 116.5t-155.5 27.5v47h1218l164 -397h-45q-78 90 -139.5 151.5t-106.5 93.5q-45 33 -83.5 53.5t-75.5 32.5q-30 10 -78 14.5t-115 4.5h-178q-49 0 -63.5 -9t-14.5 -44v-43v-551h139q187 0 287 70.5t129 221.5h43v-684
h-43q-12 172 -114.5 255t-301.5 83h-139v-546q0 -111 20.5 -129.5t118.5 -18.5h154q200 0 335.5 89t256.5 302l45 -4l-119 -434h-1294zM924 1618h-67l-330 205q-31 20 -46.5 40.5t-15.5 41.5q0 32 20.5 52t53.5 20q20 0 40.5 -12t55.5 -48z" />
    <glyph glyph-name="Eacute" unicode="&#xc9;" horiz-adv-x="1583" 
d="M76 0v47q121 0 155.5 27t34.5 116v1108q0 89 -34.5 116.5t-155.5 27.5v47h1218l164 -397h-45q-78 90 -139.5 151.5t-106.5 93.5q-45 33 -83.5 53.5t-75.5 32.5q-30 10 -78 14.5t-115 4.5h-178q-49 0 -63.5 -9t-14.5 -44v-43v-551h139q187 0 287 70.5t129 221.5h43v-684
h-43q-12 172 -114.5 255t-301.5 83h-139v-546q0 -111 20.5 -129.5t118.5 -18.5h154q200 0 335.5 89t256.5 302l45 -4l-119 -434h-1294zM572 1618l289 299q35 36 55.5 48t40.5 12q33 0 53.5 -20t20.5 -52q0 -21 -15.5 -41.5t-46.5 -40.5l-330 -205h-67z" />
    <glyph glyph-name="Ecircumflex" unicode="&#xca;" horiz-adv-x="1583" 
d="M76 0v47q121 0 155.5 27t34.5 116v1108q0 89 -34.5 116.5t-155.5 27.5v47h1218l164 -397h-45q-78 90 -139.5 151.5t-106.5 93.5q-45 33 -83.5 53.5t-75.5 32.5q-30 10 -78 14.5t-115 4.5h-178q-49 0 -63.5 -9t-14.5 -44v-43v-551h139q187 0 287 70.5t129 221.5h43v-684
h-43q-12 172 -114.5 255t-301.5 83h-139v-546q0 -111 20.5 -129.5t118.5 -18.5h154q200 0 335.5 89t256.5 302l45 -4l-119 -434h-1294zM457 1618l232 349h118l232 -349h-58l-233 211l-233 -211h-58z" />
    <glyph glyph-name="Edieresis" unicode="&#xcb;" horiz-adv-x="1583" 
d="M76 0v47q121 0 155.5 27t34.5 116v1108q0 89 -34.5 116.5t-155.5 27.5v47h1218l164 -397h-45q-78 90 -139.5 151.5t-106.5 93.5q-45 33 -83.5 53.5t-75.5 32.5q-30 10 -78 14.5t-115 4.5h-178q-49 0 -63.5 -9t-14.5 -44v-43v-551h139q187 0 287 70.5t129 221.5h43v-684
h-43q-12 172 -114.5 255t-301.5 83h-139v-546q0 -111 20.5 -129.5t118.5 -18.5h154q200 0 335.5 89t256.5 302l45 -4l-119 -434h-1294zM840 1774q0 40 29.5 69t68.5 29q41 0 71 -29t30 -69q0 -42 -29 -71t-72 -29q-41 0 -69.5 28.5t-28.5 71.5zM459 1774q0 40 29.5 69
t69.5 29t70 -29t30 -69q0 -42 -29 -71t-71 -29t-70.5 28.5t-28.5 71.5z" />
    <glyph glyph-name="Igrave" unicode="&#xcc;" horiz-adv-x="901" 
d="M807 1489v-47h-23q-116 0 -151 -27.5t-35 -116.5v-1108q0 -88 35 -115.5t151 -27.5h23v-47h-713v47h23q117 0 151.5 27.5t34.5 115.5v1108q0 90 -34 117t-154 27v47h692zM627 1618h-67l-330 205q-31 20 -46.5 40.5t-15.5 41.5q0 32 20.5 52t53.5 20q20 0 40.5 -12
t55.5 -48z" />
    <glyph glyph-name="Iacute" unicode="&#xcd;" horiz-adv-x="901" 
d="M807 1489v-47h-23q-116 0 -151 -27.5t-35 -116.5v-1108q0 -88 35 -115.5t151 -27.5h23v-47h-713v47h23q117 0 151.5 27.5t34.5 115.5v1108q0 90 -34 117t-154 27v47h692zM275 1618l289 299q35 36 55.5 48t40.5 12q33 0 53.5 -20t20.5 -52q0 -21 -15.5 -41.5t-46.5 -40.5
l-330 -205h-67z" />
    <glyph glyph-name="Icircumflex" unicode="&#xce;" horiz-adv-x="901" 
d="M807 1489v-47h-23q-116 0 -151 -27.5t-35 -116.5v-1108q0 -88 35 -115.5t151 -27.5h23v-47h-713v47h23q117 0 151.5 27.5t34.5 115.5v1108q0 90 -34 117t-154 27v47h692zM160 1618l232 349h118l232 -349h-58l-233 211l-233 -211h-58z" />
    <glyph glyph-name="Idieresis" unicode="&#xcf;" horiz-adv-x="901" 
d="M807 1489v-47h-23q-116 0 -151 -27.5t-35 -116.5v-1108q0 -88 35 -115.5t151 -27.5h23v-47h-713v47h23q117 0 151.5 27.5t34.5 115.5v1108q0 90 -34 117t-154 27v47h692zM543 1774q0 40 29.5 69t68.5 29q41 0 71 -29t30 -69q0 -42 -29 -71t-72 -29q-41 0 -69.5 28.5
t-28.5 71.5zM162 1774q0 40 29.5 69t69.5 29t70 -29t30 -69q0 -42 -29 -71t-71 -29t-70.5 28.5t-28.5 71.5z" />
    <glyph glyph-name="Eth" unicode="&#xd0;" horiz-adv-x="1810" 
d="M567 1331v-504h412v-79h-412v-459q0 -147 41.5 -192.5t163.5 -45.5h86q236 0 383.5 184t147.5 484q0 348 -161.5 535.5t-461.5 187.5h-117q-45 0 -63.5 -24t-18.5 -87zM86 0v47q120 0 154 27t34 116v558h-264v79h264v471q0 90 -34 117t-154 27v47h670q241 0 387.5 -37
t265.5 -121q152 -107 229.5 -255t77.5 -333q0 -168 -65.5 -313.5t-190.5 -253.5q-105 -92 -231.5 -134t-302.5 -42h-840z" />
    <glyph glyph-name="Ntilde" unicode="&#xd1;" horiz-adv-x="1886" 
d="M332 1343v-1001q0 -162 49 -226.5t170 -68.5v-47h-498v47q113 16 158 80.5t45 214.5v940q0 105 -32.5 131.5t-147.5 26.5h-23v49h565l947 -1063v721q0 162 -49.5 226t-169.5 69v47h497v-47q-113 -16 -158 -80.5t-45 -214.5v-1176h-86zM1231 1915q-20 -103 -68.5 -153.5
t-126.5 -50.5q-15 0 -32.5 2t-41.5 8l-109 29q-12 3 -24 4.5t-24 1.5q-39 0 -60.5 -20t-36.5 -71h-51q19 106 68 158.5t129 52.5q17 0 32.5 -2t30.5 -6l110 -28q24 -6 36.5 -8.5t19.5 -2.5q38 0 59.5 20t34.5 66h54z" />
    <glyph glyph-name="Ograve" unicode="&#xd2;" horiz-adv-x="1698" 
d="M848 25q224 0 335 178t111 536t-111.5 537.5t-334.5 179.5t-334 -179t-111 -538q0 -358 111 -536t334 -178zM848 -29q-167 0 -310.5 61.5t-254.5 180.5q-101 109 -154 243.5t-53 282.5q0 149 53.5 284t155.5 245q107 117 251.5 178t311.5 61t312.5 -61.5t252.5 -177.5
q102 -110 155.5 -245t53.5 -284q0 -148 -53 -282.5t-154 -243.5q-110 -118 -255 -180t-312 -62zM1026 1618h-67l-330 205q-31 20 -46.5 40.5t-15.5 41.5q0 32 20.5 52t53.5 20q20 0 40.5 -12t55.5 -48z" />
    <glyph glyph-name="Oacute" unicode="&#xd3;" horiz-adv-x="1698" 
d="M848 25q224 0 335 178t111 536t-111.5 537.5t-334.5 179.5t-334 -179t-111 -538q0 -358 111 -536t334 -178zM848 -29q-167 0 -310.5 61.5t-254.5 180.5q-101 109 -154 243.5t-53 282.5q0 149 53.5 284t155.5 245q107 117 251.5 178t311.5 61t312.5 -61.5t252.5 -177.5
q102 -110 155.5 -245t53.5 -284q0 -148 -53 -282.5t-154 -243.5q-110 -118 -255 -180t-312 -62zM674 1618l289 299q35 36 55.5 48t40.5 12q33 0 53.5 -20t20.5 -52q0 -21 -15.5 -41.5t-46.5 -40.5l-330 -205h-67z" />
    <glyph glyph-name="Ocircumflex" unicode="&#xd4;" horiz-adv-x="1698" 
d="M848 25q224 0 335 178t111 536t-111.5 537.5t-334.5 179.5t-334 -179t-111 -538q0 -358 111 -536t334 -178zM848 -29q-167 0 -310.5 61.5t-254.5 180.5q-101 109 -154 243.5t-53 282.5q0 149 53.5 284t155.5 245q107 117 251.5 178t311.5 61t312.5 -61.5t252.5 -177.5
q102 -110 155.5 -245t53.5 -284q0 -148 -53 -282.5t-154 -243.5q-110 -118 -255 -180t-312 -62zM559 1618l232 349h118l232 -349h-58l-233 211l-233 -211h-58z" />
    <glyph glyph-name="Otilde" unicode="&#xd5;" horiz-adv-x="1698" 
d="M848 25q224 0 335 178t111 536t-111.5 537.5t-334.5 179.5t-334 -179t-111 -538q0 -358 111 -536t334 -178zM848 -29q-167 0 -310.5 61.5t-254.5 180.5q-101 109 -154 243.5t-53 282.5q0 149 53.5 284t155.5 245q107 117 251.5 178t311.5 61t312.5 -61.5t252.5 -177.5
q102 -110 155.5 -245t53.5 -284q0 -148 -53 -282.5t-154 -243.5q-110 -118 -255 -180t-312 -62zM1137 1915q-20 -103 -68.5 -153.5t-126.5 -50.5q-15 0 -32.5 2t-41.5 8l-109 29q-12 3 -24 4.5t-24 1.5q-39 0 -60.5 -20t-36.5 -71h-51q19 106 68 158.5t129 52.5
q17 0 32.5 -2t30.5 -6l110 -28q24 -6 36.5 -8.5t19.5 -2.5q38 0 59.5 20t34.5 66h54z" />
    <glyph glyph-name="Odieresis" unicode="&#xd6;" horiz-adv-x="1698" 
d="M848 25q224 0 335 178t111 536t-111.5 537.5t-334.5 179.5t-334 -179t-111 -538q0 -358 111 -536t334 -178zM848 -29q-167 0 -310.5 61.5t-254.5 180.5q-101 109 -154 243.5t-53 282.5q0 149 53.5 284t155.5 245q107 117 251.5 178t311.5 61t312.5 -61.5t252.5 -177.5
q102 -110 155.5 -245t53.5 -284q0 -148 -53 -282.5t-154 -243.5q-110 -118 -255 -180t-312 -62zM942 1774q0 40 29.5 69t68.5 29q41 0 71 -29t30 -69q0 -42 -29 -71t-72 -29q-41 0 -69.5 28.5t-28.5 71.5zM561 1774q0 40 29.5 69t69.5 29t70 -29t30 -69q0 -42 -29 -71
t-71 -29t-70.5 28.5t-28.5 71.5z" />
    <glyph glyph-name="multiply" unicode="&#xd7;" horiz-adv-x="1706" 
d="M862 729l461 459l117 -117l-459 -461l459 -458l-117 -119l-461 461l-459 -461l-116 119l458 458l-458 461l116 117z" />
    <glyph glyph-name="Oslash" unicode="&#xd8;" horiz-adv-x="1698" 
d="M522 190q54 -85 132.5 -125t193.5 -40q223 0 334.5 178.5t111.5 535.5q0 141 -17 253.5t-52 203.5zM1176 1290q-64 85 -144 125.5t-184 40.5q-223 0 -334 -179t-111 -538q0 -143 17 -252.5t53 -199.5zM446 82l-141 -203h-117l177 256q-145 119 -217 269.5t-72 334.5
q0 148 53.5 284.5t153.5 244.5q108 115 254 177t311 62q107 0 206.5 -26t196.5 -80l101 139h116l-139 -192q144 -118 218.5 -273t74.5 -336q0 -148 -53.5 -283t-155.5 -245q-108 -117 -257 -178.5t-327 -61.5q-110 0 -204.5 27.5t-178.5 83.5z" />
    <glyph glyph-name="Ugrave" unicode="&#xd9;" horiz-adv-x="1907" 
d="M256 1298q0 89 -35 116.5t-155 27.5v47h692v-47h-23q-115 0 -149.5 -27t-34.5 -117v-700q0 -283 116 -415t365 -132q115 0 214.5 26.5t166.5 74.5q95 66 132.5 152.5t37.5 268.5v574q0 163 -48.5 227t-168.5 68v47h496v-47q-113 -16 -158 -80.5t-45 -214.5v-576
q0 -318 -168.5 -459t-548.5 -141q-192 0 -326.5 44t-222.5 135q-74 78 -105.5 179t-31.5 298v671zM1216 1618h-67l-330 205q-31 20 -46.5 40.5t-15.5 41.5q0 32 20.5 52t53.5 20q20 0 40.5 -12t55.5 -48z" />
    <glyph glyph-name="Uacute" unicode="&#xda;" horiz-adv-x="1907" 
d="M256 1298q0 89 -35 116.5t-155 27.5v47h692v-47h-23q-115 0 -149.5 -27t-34.5 -117v-700q0 -283 116 -415t365 -132q115 0 214.5 26.5t166.5 74.5q95 66 132.5 152.5t37.5 268.5v574q0 163 -48.5 227t-168.5 68v47h496v-47q-113 -16 -158 -80.5t-45 -214.5v-576
q0 -318 -168.5 -459t-548.5 -141q-192 0 -326.5 44t-222.5 135q-74 78 -105.5 179t-31.5 298v671zM864 1618l289 299q35 36 55.5 48t40.5 12q33 0 53.5 -20t20.5 -52q0 -21 -15.5 -41.5t-46.5 -40.5l-330 -205h-67z" />
    <glyph glyph-name="Ucircumflex" unicode="&#xdb;" horiz-adv-x="1907" 
d="M256 1298q0 89 -35 116.5t-155 27.5v47h692v-47h-23q-115 0 -149.5 -27t-34.5 -117v-700q0 -283 116 -415t365 -132q115 0 214.5 26.5t166.5 74.5q95 66 132.5 152.5t37.5 268.5v574q0 163 -48.5 227t-168.5 68v47h496v-47q-113 -16 -158 -80.5t-45 -214.5v-576
q0 -318 -168.5 -459t-548.5 -141q-192 0 -326.5 44t-222.5 135q-74 78 -105.5 179t-31.5 298v671zM749 1618l232 349h118l232 -349h-58l-233 211l-233 -211h-58z" />
    <glyph glyph-name="Udieresis" unicode="&#xdc;" horiz-adv-x="1907" 
d="M256 1298q0 89 -35 116.5t-155 27.5v47h692v-47h-23q-115 0 -149.5 -27t-34.5 -117v-700q0 -283 116 -415t365 -132q115 0 214.5 26.5t166.5 74.5q95 66 132.5 152.5t37.5 268.5v574q0 163 -48.5 227t-168.5 68v47h496v-47q-113 -16 -158 -80.5t-45 -214.5v-576
q0 -318 -168.5 -459t-548.5 -141q-192 0 -326.5 44t-222.5 135q-74 78 -105.5 179t-31.5 298v671zM1132 1774q0 40 29.5 69t68.5 29q41 0 71 -29t30 -69q0 -42 -29 -71t-72 -29q-41 0 -69.5 28.5t-28.5 71.5zM751 1774q0 40 29.5 69t69.5 29t70 -29t30 -69q0 -42 -29 -71
t-71 -29t-70.5 28.5t-28.5 71.5z" />
    <glyph glyph-name="Yacute" unicode="&#xdd;" horiz-adv-x="1810" 
d="M1061 190q0 -88 34.5 -115.5t151.5 -27.5h23v-47h-713v47h23q116 0 151 27.5t35 115.5v498l-465 649q-45 64 -88 85.5t-117 21.5q-7 0 -22.5 -1t-24.5 -1v47h774v-47q-84 0 -127 -15t-43 -45q0 -19 10.5 -40.5t45.5 -67.5l329 -451l342 441q29 37 42.5 62.5t13.5 43.5
q0 29 -38 47.5t-110 24.5v47h479v-47q-174 -12 -327 -211l-6 -8l-373 -484v-549zM729 1618l289 299q35 36 55.5 48t40.5 12q33 0 53.5 -20t20.5 -52q0 -21 -15.5 -41.5t-46.5 -40.5l-330 -205h-67z" />
    <glyph glyph-name="Thorn" unicode="&#xde;" horiz-adv-x="1479" 
d="M559 190q0 -88 34 -115.5t150 -27.5h25v-47h-711v47h23q117 0 151.5 27.5t34.5 115.5v1108q0 89 -35 116.5t-155 27.5v47h674v-47q-121 0 -156 -27.5t-35 -116.5v-147h207q304 0 474.5 -109.5t170.5 -304.5q0 -96 -47 -170.5t-137 -120.5q-66 -34 -163.5 -48.5
t-283.5 -14.5h-221v-193zM559 952v-512h152q199 0 302 86t103 252q0 154 -103 239t-290 85q-108 0 -136 -26.5t-28 -123.5z" />
    <glyph glyph-name="germandbls" unicode="&#xdf;" horiz-adv-x="1176" 
d="M403 0h-348v47h13q70 0 93 20t23 97v846q0 257 98.5 377t309.5 120q190 0 301 -96t111 -260q0 -116 -65.5 -199.5t-188.5 -126.5v-24q163 -32 253.5 -146.5t90.5 -287.5q0 -182 -96 -291t-257 -109q-119 0 -189.5 54.5t-70.5 144.5q0 52 29 84.5t74 32.5q43 0 65.5 -27
t22.5 -80q0 -12 -1 -36.5t-1 -37.5q0 -36 13.5 -52.5t43.5 -16.5q55 0 81 74.5t26 236.5q0 276 -50 358t-186 82h-20v43q99 0 134.5 47.5t35.5 206.5q0 226 -37.5 300.5t-132.5 74.5q-92 0 -133.5 -78.5t-41.5 -253.5v-1124z" />
    <glyph glyph-name="agrave" unicode="&#xe0;" horiz-adv-x="1110" 
d="M711 528q-179 -48 -270 -120.5t-91 -165.5q0 -68 45.5 -112t114.5 -44q42 0 91.5 22t109.5 68v352zM1087 152l35 -23q-39 -87 -91 -123.5t-138 -36.5q-83 0 -128 36t-55 109q-91 -77 -170 -111t-167 -34q-112 0 -177 53t-65 144q0 123 138 221t442 188v109q0 84 -48 131
t-133 47q-101 0 -152.5 -45t-51.5 -133q0 -6 1 -18.5t1 -18.5q0 -63 -29 -97t-84 -34q-48 0 -80.5 29.5t-32.5 75.5q0 54 32.5 104t92.5 88q89 55 205 86t234 31q87 0 146 -25t93 -76q19 -28 27 -70.5t8 -152.5v-426q0 -62 11 -80t40 -18q18 0 38.5 14t57.5 56zM745 1040
h-67l-330 205q-31 20 -46.5 40.5t-15.5 41.5q0 32 20.5 52t53.5 20q20 0 40.5 -12t55.5 -48z" />
    <glyph glyph-name="aacute" unicode="&#xe1;" horiz-adv-x="1110" 
d="M711 528q-179 -48 -270 -120.5t-91 -165.5q0 -68 45.5 -112t114.5 -44q42 0 91.5 22t109.5 68v352zM1087 152l35 -23q-39 -87 -91 -123.5t-138 -36.5q-83 0 -128 36t-55 109q-91 -77 -170 -111t-167 -34q-112 0 -177 53t-65 144q0 123 138 221t442 188v109q0 84 -48 131
t-133 47q-101 0 -152.5 -45t-51.5 -133q0 -6 1 -18.5t1 -18.5q0 -63 -29 -97t-84 -34q-48 0 -80.5 29.5t-32.5 75.5q0 54 32.5 104t92.5 88q89 55 205 86t234 31q87 0 146 -25t93 -76q19 -28 27 -70.5t8 -152.5v-426q0 -62 11 -80t40 -18q18 0 38.5 14t57.5 56zM393 1040
l289 299q35 36 55.5 48t40.5 12q33 0 53.5 -20t20.5 -52q0 -21 -15.5 -41.5t-46.5 -40.5l-330 -205h-67z" />
    <glyph glyph-name="acircumflex" unicode="&#xe2;" horiz-adv-x="1110" 
d="M711 528q-179 -48 -270 -120.5t-91 -165.5q0 -68 45.5 -112t114.5 -44q42 0 91.5 22t109.5 68v352zM1087 152l35 -23q-39 -87 -91 -123.5t-138 -36.5q-83 0 -128 36t-55 109q-91 -77 -170 -111t-167 -34q-112 0 -177 53t-65 144q0 123 138 221t442 188v109q0 84 -48 131
t-133 47q-101 0 -152.5 -45t-51.5 -133q0 -6 1 -18.5t1 -18.5q0 -63 -29 -97t-84 -34q-48 0 -80.5 29.5t-32.5 75.5q0 54 32.5 104t92.5 88q89 55 205 86t234 31q87 0 146 -25t93 -76q19 -28 27 -70.5t8 -152.5v-426q0 -62 11 -80t40 -18q18 0 38.5 14t57.5 56zM278 1040
l232 349h118l232 -349h-58l-233 211l-233 -211h-58z" />
    <glyph glyph-name="atilde" unicode="&#xe3;" horiz-adv-x="1110" 
d="M711 528q-179 -48 -270 -120.5t-91 -165.5q0 -68 45.5 -112t114.5 -44q42 0 91.5 22t109.5 68v352zM1087 152l35 -23q-39 -87 -91 -123.5t-138 -36.5q-83 0 -128 36t-55 109q-91 -77 -170 -111t-167 -34q-112 0 -177 53t-65 144q0 123 138 221t442 188v109q0 84 -48 131
t-133 47q-101 0 -152.5 -45t-51.5 -133q0 -6 1 -18.5t1 -18.5q0 -63 -29 -97t-84 -34q-48 0 -80.5 29.5t-32.5 75.5q0 54 32.5 104t92.5 88q89 55 205 86t234 31q87 0 146 -25t93 -76q19 -28 27 -70.5t8 -152.5v-426q0 -62 11 -80t40 -18q18 0 38.5 14t57.5 56zM856 1337
q-20 -103 -68.5 -153.5t-126.5 -50.5q-15 0 -32.5 2t-41.5 8l-109 29q-12 3 -24 4.5t-24 1.5q-39 0 -60.5 -20t-36.5 -71h-51q19 106 68 158.5t129 52.5q17 0 32.5 -2t30.5 -6l110 -28q24 -6 36.5 -8.5t19.5 -2.5q38 0 59.5 20t34.5 66h54z" />
    <glyph glyph-name="adieresis" unicode="&#xe4;" horiz-adv-x="1110" 
d="M711 528q-179 -48 -270 -120.5t-91 -165.5q0 -68 45.5 -112t114.5 -44q42 0 91.5 22t109.5 68v352zM1087 152l35 -23q-39 -87 -91 -123.5t-138 -36.5q-83 0 -128 36t-55 109q-91 -77 -170 -111t-167 -34q-112 0 -177 53t-65 144q0 123 138 221t442 188v109q0 84 -48 131
t-133 47q-101 0 -152.5 -45t-51.5 -133q0 -6 1 -18.5t1 -18.5q0 -63 -29 -97t-84 -34q-48 0 -80.5 29.5t-32.5 75.5q0 54 32.5 104t92.5 88q89 55 205 86t234 31q87 0 146 -25t93 -76q19 -28 27 -70.5t8 -152.5v-426q0 -62 11 -80t40 -18q18 0 38.5 14t57.5 56zM661 1196
q0 40 29.5 69t68.5 29q41 0 71 -29t30 -69q0 -42 -29 -71t-72 -29q-41 0 -69.5 28.5t-28.5 71.5zM280 1196q0 40 29.5 69t69.5 29t70 -29t30 -69q0 -42 -29 -71t-71 -29t-70.5 28.5t-28.5 71.5z" />
    <glyph glyph-name="aring" unicode="&#xe5;" horiz-adv-x="1110" 
d="M412 1237q0 -63 43 -106.5t106 -43.5q64 0 109 44t45 106q0 61 -46 105t-108 44t-105.5 -43.5t-43.5 -105.5zM319 1237q0 101 70 170.5t172 69.5t171 -69.5t69 -170.5q0 -102 -69.5 -172t-170.5 -70t-171.5 70.5t-70.5 171.5zM711 528q-179 -48 -270 -120.5t-91 -165.5
q0 -68 45.5 -112t114.5 -44q42 0 91.5 22t109.5 68v352zM1087 152l35 -23q-39 -87 -91 -123.5t-138 -36.5q-83 0 -128 36t-55 109q-91 -77 -170 -111t-167 -34q-112 0 -177 53t-65 144q0 123 138 221t442 188v109q0 84 -48 131t-133 47q-101 0 -152.5 -45t-51.5 -133
q0 -6 1 -18.5t1 -18.5q0 -63 -29 -97t-84 -34q-48 0 -80.5 29.5t-32.5 75.5q0 54 32.5 104t92.5 88q89 55 205 86t234 31q87 0 146 -25t93 -76q19 -28 27 -70.5t8 -152.5v-426q0 -62 11 -80t40 -18q18 0 38.5 14t57.5 56z" />
    <glyph glyph-name="ae" unicode="&#xe6;" horiz-adv-x="1669" 
d="M778 160q-112 -99 -209.5 -145t-195.5 -46q-111 0 -176.5 53.5t-65.5 143.5q0 123 138 221t442 188v109q0 84 -48 131t-133 47q-101 0 -152.5 -45t-51.5 -133q0 -6 1 -18.5t1 -18.5q0 -63 -29 -97t-84 -34q-48 0 -80.5 29.5t-32.5 75.5q0 72 53 131.5t158 105.5
q78 34 169 53t177 19t144 -26t98 -83q64 55 134.5 82t150.5 27q174 0 288 -102t134 -275h-664q0 -6 -1 -18.5t-1 -18.5q0 -160 89 -257t233 -97q96 0 172.5 40.5t148.5 129.5l31 -23q-81 -176 -192.5 -258t-270.5 -82q-113 0 -201.5 45t-173.5 146zM948 612h309
q60 0 84.5 11t24.5 36q0 95 -54 157.5t-136 62.5q-103 0 -161.5 -69t-66.5 -198zM711 528q-179 -48 -270 -120.5t-91 -165.5q0 -68 45.5 -112t114.5 -44q42 0 91.5 22t109.5 68v352z" />
    <glyph glyph-name="ccedilla" unicode="&#xe7;" horiz-adv-x="1014" 
d="M883 375h53q-18 -188 -133.5 -296t-298.5 -108q-201 0 -322 120.5t-121 322.5q0 225 135.5 370.5t346.5 145.5q153 0 267 -77.5t114 -174.5q0 -54 -36.5 -90.5t-88.5 -36.5q-38 0 -69 24.5t-56 73.5q-11 22 -29 64q-70 157 -145 157q-92 0 -143.5 -80t-51.5 -225
q0 -202 84.5 -320t226.5 -118q111 0 179.5 64t87.5 184zM246 -371l35 78q60 -34 118.5 -53t104.5 -19q64 0 93.5 22.5t29.5 70.5q0 42 -30.5 66t-84.5 24q-13 0 -28.5 -1.5t-32.5 -4.5v188h63v-112q17 2 32 3.5t30 2.5q86 0 134 -43.5t48 -120.5q0 -82 -57.5 -129
t-159.5 -47q-55 0 -124 17t-171 58z" />
    <glyph glyph-name="egrave" unicode="&#xe8;" 
d="M305 612h307q60 0 84.5 11t24.5 36q0 95 -54 157.5t-137 62.5q-102 0 -159.5 -68.5t-65.5 -198.5zM940 332l31 -23q-81 -175 -192 -256.5t-269 -81.5q-196 0 -322.5 129t-126.5 326q0 212 136.5 358t334.5 146q181 0 296 -100.5t135 -276.5h-664q0 -6 -1 -18.5t-1 -18.5
q0 -159 89.5 -256.5t234.5 -97.5q95 0 171 40t148 130zM715 1040h-67l-330 205q-31 20 -46.5 40.5t-15.5 41.5q0 32 20.5 52t53.5 20q20 0 40.5 -12t55.5 -48z" />
    <glyph glyph-name="eacute" unicode="&#xe9;" 
d="M305 612h307q60 0 84.5 11t24.5 36q0 95 -54 157.5t-137 62.5q-102 0 -159.5 -68.5t-65.5 -198.5zM940 332l31 -23q-81 -175 -192 -256.5t-269 -81.5q-196 0 -322.5 129t-126.5 326q0 212 136.5 358t334.5 146q181 0 296 -100.5t135 -276.5h-664q0 -6 -1 -18.5t-1 -18.5
q0 -159 89.5 -256.5t234.5 -97.5q95 0 171 40t148 130zM363 1040l289 299q35 36 55.5 48t40.5 12q33 0 53.5 -20t20.5 -52q0 -21 -15.5 -41.5t-46.5 -40.5l-330 -205h-67z" />
    <glyph glyph-name="ecircumflex" unicode="&#xea;" 
d="M305 612h307q60 0 84.5 11t24.5 36q0 95 -54 157.5t-137 62.5q-102 0 -159.5 -68.5t-65.5 -198.5zM940 332l31 -23q-81 -175 -192 -256.5t-269 -81.5q-196 0 -322.5 129t-126.5 326q0 212 136.5 358t334.5 146q181 0 296 -100.5t135 -276.5h-664q0 -6 -1 -18.5t-1 -18.5
q0 -159 89.5 -256.5t234.5 -97.5q95 0 171 40t148 130zM248 1040l232 349h118l232 -349h-58l-233 211l-233 -211h-58z" />
    <glyph glyph-name="edieresis" unicode="&#xeb;" 
d="M305 612h307q60 0 84.5 11t24.5 36q0 95 -54 157.5t-137 62.5q-102 0 -159.5 -68.5t-65.5 -198.5zM940 332l31 -23q-81 -175 -192 -256.5t-269 -81.5q-196 0 -322.5 129t-126.5 326q0 212 136.5 358t334.5 146q181 0 296 -100.5t135 -276.5h-664q0 -6 -1 -18.5t-1 -18.5
q0 -159 89.5 -256.5t234.5 -97.5q95 0 171 40t148 130zM631 1196q0 40 29.5 69t68.5 29q41 0 71 -29t30 -69q0 -42 -29 -71t-72 -29q-41 0 -69.5 28.5t-28.5 71.5zM250 1196q0 40 29.5 69t69.5 29t70 -29t30 -69q0 -42 -29 -71t-71 -29t-70.5 28.5t-28.5 71.5z" />
    <glyph glyph-name="igrave" unicode="&#xec;" horiz-adv-x="569" 
d="M403 164q0 -77 23.5 -97t93.5 -20h12v-47h-477v47h13q70 0 93 20t23 97v450q0 91 -25 119.5t-104 38.5v45q82 15 168 42.5t180 70.5v-766zM461 1040h-67l-330 205q-31 20 -46.5 40.5t-15.5 41.5q0 32 20.5 52t53.5 20q20 0 40.5 -12t55.5 -48z" />
    <glyph glyph-name="iacute" unicode="&#xed;" horiz-adv-x="569" 
d="M403 164q0 -77 23.5 -97t93.5 -20h12v-47h-477v47h13q70 0 93 20t23 97v450q0 91 -25 119.5t-104 38.5v45q82 15 168 42.5t180 70.5v-766zM109 1040l289 299q35 36 55.5 48t40.5 12q33 0 53.5 -20t20.5 -52q0 -21 -15.5 -41.5t-46.5 -40.5l-330 -205h-67z" />
    <glyph glyph-name="icircumflex" unicode="&#xee;" horiz-adv-x="569" 
d="M403 164q0 -77 23.5 -97t93.5 -20h12v-47h-477v47h13q70 0 93 20t23 97v450q0 91 -25 119.5t-104 38.5v45q82 15 168 42.5t180 70.5v-766zM-6 1040l232 349h118l232 -349h-58l-233 211l-233 -211h-58z" />
    <glyph glyph-name="idieresis" unicode="&#xef;" horiz-adv-x="569" 
d="M403 164q0 -77 23.5 -97t93.5 -20h12v-47h-477v47h13q70 0 93 20t23 97v450q0 91 -25 119.5t-104 38.5v45q82 15 168 42.5t180 70.5v-766zM377 1196q0 40 29.5 69t68.5 29q41 0 71 -29t30 -69q0 -42 -29 -71t-72 -29q-41 0 -69.5 28.5t-28.5 71.5zM-4 1196q0 40 29.5 69
t69.5 29t70 -29t30 -69q0 -42 -29 -71t-71 -29t-70.5 28.5t-28.5 71.5z" />
    <glyph glyph-name="eth" unicode="&#xf0;" horiz-adv-x="1128" 
d="M588 1274q238 -201 358.5 -402.5t120.5 -398.5q0 -224 -139 -363t-365 -139q-218 0 -360 136t-142 344q0 204 141.5 341.5t354.5 137.5q47 0 89 -11t79 -32q-47 101 -103 184.5t-122 149.5l-295 -185l-35 54l286 179q-11 22 -50.5 62t-118.5 109l-43 37l28 32l52 -30
q21 -13 78 -56t137 -108l303 190l32 -53zM811 451q0 214 -62.5 323t-185.5 109t-184.5 -108.5t-61.5 -323.5q0 -216 61.5 -324.5t184.5 -108.5t185.5 109t62.5 324z" />
    <glyph glyph-name="ntilde" unicode="&#xf1;" horiz-adv-x="1241" 
d="M403 164q0 -77 23.5 -97t93.5 -20h12v-47h-477v47h13q70 0 93 21.5t23 95.5v450q0 91 -25 119.5t-104 38.5v45q82 15 168 42.5t180 70.5v-160q101 83 188.5 121.5t176.5 38.5q151 0 229 -87t78 -255v-424q0 -77 23 -97t94 -20h12v-47h-485v47h12q71 0 94 20t23 97v452
q0 98 -53 152.5t-146 54.5q-67 0 -129.5 -36t-116.5 -107v-516zM908 1337q-20 -103 -68.5 -153.5t-126.5 -50.5q-15 0 -32.5 2t-41.5 8l-109 29q-12 3 -24 4.5t-24 1.5q-39 0 -60.5 -20t-36.5 -71h-51q19 106 68 158.5t129 52.5q17 0 32.5 -2t30.5 -6l110 -28
q24 -6 36.5 -8.5t19.5 -2.5q38 0 59.5 20t34.5 66h54z" />
    <glyph glyph-name="ograve" unicode="&#xf2;" horiz-adv-x="1128" 
d="M563 883q-123 0 -184.5 -108.5t-61.5 -323.5q0 -216 61.5 -324.5t184.5 -108.5t185.5 109t62.5 324q0 214 -62.5 323t-185.5 109zM563 -29q-100 0 -182.5 28.5t-151.5 86.5q-80 68 -124 163t-44 202q0 207 142 343t360 136q219 0 361.5 -136.5t142.5 -342.5
q0 -207 -142.5 -343.5t-361.5 -136.5zM741 1040h-67l-330 205q-31 20 -46.5 40.5t-15.5 41.5q0 32 20.5 52t53.5 20q20 0 40.5 -12t55.5 -48z" />
    <glyph glyph-name="oacute" unicode="&#xf3;" horiz-adv-x="1128" 
d="M563 883q-123 0 -184.5 -108.5t-61.5 -323.5q0 -216 61.5 -324.5t184.5 -108.5t185.5 109t62.5 324q0 214 -62.5 323t-185.5 109zM563 -29q-100 0 -182.5 28.5t-151.5 86.5q-80 68 -124 163t-44 202q0 207 142 343t360 136q219 0 361.5 -136.5t142.5 -342.5
q0 -207 -142.5 -343.5t-361.5 -136.5zM389 1040l289 299q35 36 55.5 48t40.5 12q33 0 53.5 -20t20.5 -52q0 -21 -15.5 -41.5t-46.5 -40.5l-330 -205h-67z" />
    <glyph glyph-name="ocircumflex" unicode="&#xf4;" horiz-adv-x="1128" 
d="M563 883q-123 0 -184.5 -108.5t-61.5 -323.5q0 -216 61.5 -324.5t184.5 -108.5t185.5 109t62.5 324q0 214 -62.5 323t-185.5 109zM563 -29q-100 0 -182.5 28.5t-151.5 86.5q-80 68 -124 163t-44 202q0 207 142 343t360 136q219 0 361.5 -136.5t142.5 -342.5
q0 -207 -142.5 -343.5t-361.5 -136.5zM274 1040l232 349h118l232 -349h-58l-233 211l-233 -211h-58z" />
    <glyph glyph-name="otilde" unicode="&#xf5;" horiz-adv-x="1128" 
d="M563 883q-123 0 -184.5 -108.5t-61.5 -323.5q0 -216 61.5 -324.5t184.5 -108.5t185.5 109t62.5 324q0 214 -62.5 323t-185.5 109zM563 -29q-100 0 -182.5 28.5t-151.5 86.5q-80 68 -124 163t-44 202q0 207 142 343t360 136q219 0 361.5 -136.5t142.5 -342.5
q0 -207 -142.5 -343.5t-361.5 -136.5zM852 1337q-20 -103 -68.5 -153.5t-126.5 -50.5q-15 0 -32.5 2t-41.5 8l-109 29q-12 3 -24 4.5t-24 1.5q-39 0 -60.5 -20t-36.5 -71h-51q19 106 68 158.5t129 52.5q17 0 32.5 -2t30.5 -6l110 -28q24 -6 36.5 -8.5t19.5 -2.5
q38 0 59.5 20t34.5 66h54z" />
    <glyph glyph-name="odieresis" unicode="&#xf6;" horiz-adv-x="1128" 
d="M563 883q-123 0 -184.5 -108.5t-61.5 -323.5q0 -216 61.5 -324.5t184.5 -108.5t185.5 109t62.5 324q0 214 -62.5 323t-185.5 109zM563 -29q-100 0 -182.5 28.5t-151.5 86.5q-80 68 -124 163t-44 202q0 207 142 343t360 136q219 0 361.5 -136.5t142.5 -342.5
q0 -207 -142.5 -343.5t-361.5 -136.5zM657 1196q0 40 29.5 69t68.5 29q41 0 71 -29t30 -69q0 -42 -29 -71t-72 -29q-41 0 -69.5 28.5t-28.5 71.5zM276 1196q0 40 29.5 69t69.5 29t70 -29t30 -69q0 -42 -29 -71t-71 -29t-70.5 28.5t-28.5 71.5z" />
    <glyph glyph-name="divide" unicode="&#xf7;" horiz-adv-x="1706" 
d="M854 367q57 0 97 -40.5t40 -97.5q0 -56 -39.5 -95.5t-97.5 -39.5t-97.5 39t-39.5 96t40.5 97.5t96.5 40.5zM1452 694v-166h-1198v166h1198zM854 1128q57 0 97 -41t40 -98q0 -56 -39.5 -95.5t-97.5 -39.5t-97.5 39t-39.5 96t40.5 98t96.5 41z" />
    <glyph glyph-name="oslash" unicode="&#xf8;" horiz-adv-x="1128" 
d="M854 850q104 -70 158.5 -172.5t54.5 -226.5q0 -208 -142 -344t-362 -136q-61 0 -118 11.5t-113 33.5l-135 -215h-95l160 256q-101 78 -151 176t-50 218q0 107 44.5 203t125.5 163q66 57 149 85t183 28q54 0 109.5 -11t111.5 -32l121 194h94zM774 721l-385 -612
q41 -47 84 -69t90 -22q123 0 185.5 109t62.5 324q0 82 -9 148.5t-28 121.5zM348 195l381 606q-36 41 -77.5 61.5t-88.5 20.5q-123 0 -184.5 -108.5t-61.5 -323.5q0 -80 7.5 -142.5t23.5 -113.5z" />
    <glyph glyph-name="ugrave" unicode="&#xf9;" horiz-adv-x="1241" 
d="M840 737q0 77 -23 97t-94 20h-12v55h346v-622q0 -90 25.5 -120t103.5 -40v-43q-80 -15 -166 -42.5t-180 -70.5v156q-100 -80 -188.5 -118t-178.5 -38q-151 0 -229 87t-78 255v424q0 77 -23 97t-94 20h-12v55h356v-626q0 -97 52.5 -151t146.5 -54q69 0 132 36t116 105v518
zM792 1040h-67l-330 205q-31 20 -46.5 40.5t-15.5 41.5q0 32 20.5 52t53.5 20q20 0 40.5 -12t55.5 -48z" />
    <glyph glyph-name="uacute" unicode="&#xfa;" horiz-adv-x="1241" 
d="M840 737q0 77 -23 97t-94 20h-12v55h346v-622q0 -90 25.5 -120t103.5 -40v-43q-80 -15 -166 -42.5t-180 -70.5v156q-100 -80 -188.5 -118t-178.5 -38q-151 0 -229 87t-78 255v424q0 77 -23 97t-94 20h-12v55h356v-626q0 -97 52.5 -151t146.5 -54q69 0 132 36t116 105v518
zM440 1040l289 299q35 36 55.5 48t40.5 12q33 0 53.5 -20t20.5 -52q0 -21 -15.5 -41.5t-46.5 -40.5l-330 -205h-67z" />
    <glyph glyph-name="ucircumflex" unicode="&#xfb;" horiz-adv-x="1241" 
d="M840 737q0 77 -23 97t-94 20h-12v55h346v-622q0 -90 25.5 -120t103.5 -40v-43q-80 -15 -166 -42.5t-180 -70.5v156q-100 -80 -188.5 -118t-178.5 -38q-151 0 -229 87t-78 255v424q0 77 -23 97t-94 20h-12v55h356v-626q0 -97 52.5 -151t146.5 -54q69 0 132 36t116 105v518
zM325 1040l232 349h118l232 -349h-58l-233 211l-233 -211h-58z" />
    <glyph glyph-name="udieresis" unicode="&#xfc;" horiz-adv-x="1241" 
d="M840 737q0 77 -23 97t-94 20h-12v55h346v-622q0 -90 25.5 -120t103.5 -40v-43q-80 -15 -166 -42.5t-180 -70.5v156q-100 -80 -188.5 -118t-178.5 -38q-151 0 -229 87t-78 255v424q0 77 -23 97t-94 20h-12v55h356v-626q0 -97 52.5 -151t146.5 -54q69 0 132 36t116 105v518
zM708 1196q0 40 29.5 69t68.5 29q41 0 71 -29t30 -69q0 -42 -29 -71t-72 -29q-41 0 -69.5 28.5t-28.5 71.5zM327 1196q0 40 29.5 69t69.5 29t70 -29t30 -69q0 -42 -29 -71t-71 -29t-70.5 28.5t-28.5 71.5z" />
    <glyph glyph-name="yacute" unicode="&#xfd;" horiz-adv-x="1118" 
d="M559 -150l-1 -1q-114 -263 -222 -263q-55 0 -89 34t-34 89q0 42 28.5 72.5t67.5 30.5q26 0 66 -17.5t53 -17.5q19 0 33.5 14.5t34.5 56.5l51 109l-346 735q-5 10 -13 28q-60 131 -165 142v47h516v-47q-87 -6 -108 -17t-21 -38q0 -21 7 -46.5t21 -55.5l226 -478l213 484
q12 29 17 45t5 28q0 31 -20 46t-97 32v47h314v-47q-53 -11 -92.5 -52t-75.5 -124zM383 1040l289 299q35 36 55.5 48t40.5 12q33 0 53.5 -20t20.5 -52q0 -21 -15.5 -41.5t-46.5 -40.5l-330 -205h-67z" />
    <glyph glyph-name="thorn" unicode="&#xfe;" horiz-adv-x="1147" 
d="M403 815q65 58 134 86.5t147 28.5q176 0 286.5 -132t110.5 -345q0 -207 -125.5 -346.5t-312.5 -139.5q-66 0 -126 18.5t-114 55.5v-266q0 -77 23.5 -97t93.5 -20h12v-47h-477v47h13q70 0 93 20t23 97v1417q0 91 -25 120.5t-104 39.5v43q82 14 168 42t180 70v-692z
M403 721v-549q37 -76 92.5 -116t125.5 -40q101 0 161 94.5t60 256.5q0 182 -84 300.5t-205 118.5q-40 0 -76.5 -15.5t-73.5 -49.5z" />
    <glyph glyph-name="ydieresis" unicode="&#xff;" horiz-adv-x="1118" 
d="M559 -150l-1 -1q-114 -263 -222 -263q-55 0 -89 34t-34 89q0 42 28.5 72.5t67.5 30.5q26 0 66 -17.5t53 -17.5q19 0 33.5 14.5t34.5 56.5l51 109l-346 735q-5 10 -13 28q-60 131 -165 142v47h516v-47q-87 -6 -108 -17t-21 -38q0 -21 7 -46.5t21 -55.5l226 -478l213 484
q12 29 17 45t5 28q0 31 -20 46t-97 32v47h314v-47q-53 -11 -92.5 -52t-75.5 -124zM651 1196q0 40 29.5 69t68.5 29q41 0 71 -29t30 -69q0 -42 -29 -71t-72 -29q-41 0 -69.5 28.5t-28.5 71.5zM270 1196q0 40 29.5 69t69.5 29t70 -29t30 -69q0 -42 -29 -71t-71 -29t-70.5 28.5
t-28.5 71.5z" />
    <glyph glyph-name="Cacute" unicode="&#x106;" horiz-adv-x="1698" 
d="M1591 -20h-30q-36 51 -63 74.5t-50 23.5t-90 -24.5t-101 -35.5q-78 -23 -158.5 -35t-162.5 -12q-186 0 -346 58.5t-279 169.5q-118 108 -176.5 246.5t-58.5 306.5q0 166 59.5 299t183.5 245q116 105 268 158t337 53q86 0 168 -11.5t161 -35.5q34 -10 101 -34.5t90 -24.5
t50 23.5t62 74.5h31v-516h-47q-113 233 -271 353t-354 120q-251 0 -384.5 -182.5t-133.5 -528.5q0 -331 141 -525.5t375 -194.5q177 0 340.5 125t296.5 362h41v-532zM742 1618l289 299q35 36 55.5 48t40.5 12q33 0 53.5 -20t20.5 -52q0 -21 -15.5 -41.5t-46.5 -40.5
l-330 -205h-67z" />
    <glyph glyph-name="cacute" unicode="&#x107;" horiz-adv-x="1014" 
d="M883 375h53q-18 -188 -133.5 -296t-298.5 -108q-201 0 -322 120.5t-121 322.5q0 225 135.5 370.5t346.5 145.5q153 0 267 -77.5t114 -174.5q0 -54 -36.5 -90.5t-88.5 -36.5q-38 0 -69 24.5t-56 73.5q-11 22 -29 64q-70 157 -145 157q-92 0 -143.5 -80t-51.5 -225
q0 -202 84.5 -320t226.5 -118q111 0 179.5 64t87.5 184zM338 1040l289 299q35 36 55.5 48t40.5 12q33 0 53.5 -20t20.5 -52q0 -21 -15.5 -41.5t-46.5 -40.5l-330 -205h-67z" />
    <glyph glyph-name="Ccaron" unicode="&#x10c;" horiz-adv-x="1698" 
d="M1591 -20h-30q-36 51 -63 74.5t-50 23.5t-90 -24.5t-101 -35.5q-78 -23 -158.5 -35t-162.5 -12q-186 0 -346 58.5t-279 169.5q-118 108 -176.5 246.5t-58.5 306.5q0 166 59.5 299t183.5 245q116 105 268 158t337 53q86 0 168 -11.5t161 -35.5q34 -10 101 -34.5t90 -24.5
t50 23.5t62 74.5h31v-516h-47q-113 233 -271 353t-354 120q-251 0 -384.5 -182.5t-133.5 -528.5q0 -331 141 -525.5t375 -194.5q177 0 340.5 125t296.5 362h41v-532zM627 1967h58l233 -211l233 211h58l-232 -349h-118z" />
    <glyph glyph-name="ccaron" unicode="&#x10d;" horiz-adv-x="1014" 
d="M883 375h53q-18 -188 -133.5 -296t-298.5 -108q-201 0 -322 120.5t-121 322.5q0 225 135.5 370.5t346.5 145.5q153 0 267 -77.5t114 -174.5q0 -54 -36.5 -90.5t-88.5 -36.5q-38 0 -69 24.5t-56 73.5q-11 22 -29 64q-70 157 -145 157q-92 0 -143.5 -80t-51.5 -225
q0 -202 84.5 -320t226.5 -118q111 0 179.5 64t87.5 184zM223 1389h58l233 -211l233 211h58l-232 -349h-118z" />
    <glyph glyph-name="dcroat" unicode="&#x111;" horiz-adv-x="1128" 
d="M739 729q-36 76 -91.5 116t-125.5 40q-102 0 -161.5 -94t-59.5 -256q0 -197 79.5 -315t207.5 -118q40 0 77.5 16.5t73.5 49.5v561zM739 1233q0 91 -23.5 118.5t-103.5 39.5v45q104 18 187.5 35.5t158.5 35.5v-311h160v-72h-160v-901q0 -91 24 -118.5t103 -38.5v-46
q-141 -20 -212.5 -30t-133.5 -19v115q-67 -60 -134.5 -87.5t-145.5 -27.5q-176 0 -287 132.5t-111 345.5q0 205 125.5 345t313.5 140q66 0 124.5 -18t114.5 -56v264h-297v72h297v37z" />
    <glyph glyph-name="Gbreve" unicode="&#x11e;" horiz-adv-x="1698" 
d="M1663 678v-49q-65 0 -87 -23t-22 -135v-313q0 -14 -62 -50.5t-146 -66.5q-98 -35 -202 -52.5t-212 -17.5q-146 0 -270.5 32.5t-229.5 96.5q-172 106 -264 271.5t-92 367.5q0 175 56.5 309t178.5 248q113 105 261 158t327 53q84 0 164 -11.5t156 -35.5q34 -11 98.5 -35
t85.5 -24q24 0 48.5 22t59.5 76h31v-516h-47q-110 233 -262.5 353t-341.5 120q-245 0 -373.5 -182t-128.5 -529q0 -344 141.5 -536.5t393.5 -192.5q98 0 176.5 35.5t124.5 100.5q23 33 34 93.5t11 164.5v77q0 88 -33.5 115t-149.5 27h-24v49h600zM557 1928h51
q17 -74 75 -108t167 -34t166 33.5t74 108.5h51q-20 -133 -94 -202t-197 -69q-122 0 -197 69t-96 202z" />
    <glyph glyph-name="gbreve" unicode="&#x11f;" horiz-adv-x="1014" 
d="M500 883q-71 0 -108.5 -63t-37.5 -181q0 -136 36 -202t110 -66q71 0 107 63.5t36 192.5q0 127 -36 191.5t-107 64.5zM322 -45q-64 -39 -94.5 -77.5t-30.5 -80.5q0 -70 77.5 -114.5t202.5 -44.5q140 0 217.5 43t77.5 120q0 85 -90 119.5t-330 34.5h-30zM330 332v20
q-103 44 -153 109t-50 155q0 139 100.5 226.5t259.5 87.5q25 0 54 -3t63 -9q29 124 87 190t138 66q53 0 83 -26t30 -71q0 -39 -26.5 -65.5t-65.5 -26.5q-23 0 -61.5 7t-53.5 7q-35 0 -52.5 -20t-25.5 -70q109 -40 166.5 -110.5t57.5 -165.5q0 -115 -68.5 -189t-214.5 -116
q-21 -7 -96 -17.5t-127 -23.5q-50 -12 -75.5 -30t-25.5 -42q0 -57 174 -65q98 -4 160 -11q190 -19 277.5 -80t87.5 -174q0 -134 -136 -215.5t-362 -81.5q-203 0 -318.5 54t-115.5 147q0 47 41 87.5t125 76.5v16q-80 18 -123 55.5t-43 88.5q0 62 66 113t223 106zM215 1350h51
q17 -74 75 -108t167 -34t166 33.5t74 108.5h51q-20 -133 -94 -202t-197 -69q-122 0 -197 69t-96 202z" />
    <glyph glyph-name="Idotaccent" unicode="&#x130;" horiz-adv-x="901" 
d="M807 1489v-47h-23q-116 0 -151 -27.5t-35 -116.5v-1108q0 -88 35 -115.5t151 -27.5h23v-47h-713v47h23q117 0 151.5 27.5t34.5 115.5v1108q0 90 -34 117t-154 27v47h692zM351 1774q0 41 29.5 70.5t70.5 29.5t70.5 -29.5t29.5 -70.5q0 -42 -29.5 -72t-70.5 -30t-70.5 30
t-29.5 72z" />
    <glyph glyph-name="dotlessi" unicode="&#x131;" horiz-adv-x="569" 
d="M403 164q0 -77 23.5 -97t93.5 -20h12v-47h-477v47h13q70 0 93 20t23 97v450q0 91 -25 119.5t-104 38.5v45q82 15 168 42.5t180 70.5v-766z" />
    <glyph glyph-name="Lslash" unicode="&#x141;" horiz-adv-x="1565" 
d="M883 47q200 0 335.5 89t256.5 302l45 -4l-119 -434h-1315v47q120 0 154 27t34 116v467l-264 -180v94l264 181v546q0 90 -34 117t-154 27v47h672v-47q-120 0 -154.5 -27t-34.5 -117v-405l453 303v-94l-453 -303v-617q0 -99 20.5 -117t117.5 -18h176z" />
    <glyph glyph-name="lslash" unicode="&#x142;" horiz-adv-x="588" 
d="M195 655l-185 -127v84l185 127v453q0 90 -25.5 120t-103.5 40v43q80 14 166 42t180 70v-643l166 109v-84l-166 -109v-616q0 -77 23 -97t93 -20h13v-47h-475v47h12q71 0 94 21.5t23 95.5v491z" />
    <glyph glyph-name="OE" unicode="&#x152;" horiz-adv-x="2419" 
d="M1108 369v747q0 178 -66 257t-215 79q-217 0 -320.5 -173.5t-103.5 -539.5q0 -362 103.5 -534t320.5 -172q149 0 215 79t66 257zM1384 0q-120 0 -300.5 -14.5t-239.5 -14.5q-141 0 -262.5 42t-219.5 124q-137 118 -209.5 273t-72.5 333q0 176 72 329t210 271
q96 82 217.5 123t268.5 41q29 0 193.5 -9t299.5 -9h785l166 -397h-47q-79 90 -140.5 151.5t-105.5 93.5q-46 33 -84 53.5t-75 32.5q-31 10 -79 14.5t-114 4.5h-177q-48 0 -62.5 -9t-14.5 -44v-43v-551h137q187 0 287 70.5t129 221.5h43v-684h-43q-13 172 -115 255t-301 83
h-137v-559q0 -99 20 -117t117 -18h153q201 0 336.5 89t255.5 302l47 -4l-118 -434h-820z" />
    <glyph glyph-name="oe" unicode="&#x153;" horiz-adv-x="1782" 
d="M932 115q-69 -70 -163 -107t-206 -37q-219 0 -360.5 136t-141.5 344q0 207 142 343t360 136q124 0 215 -38.5t168 -123.5q68 80 155.5 121t190.5 41q179 0 293.5 -101t134.5 -276h-663q0 -6 -1 -18.5t-1 -18.5q0 -159 89.5 -256.5t233.5 -97.5q97 0 173.5 40.5
t148.5 129.5l29 -23q-79 -175 -189.5 -256.5t-267.5 -81.5q-108 0 -191.5 35t-148.5 109zM1063 612h309q60 0 84.5 11t24.5 36q0 95 -55.5 157.5t-137.5 62.5q-102 0 -159.5 -68.5t-65.5 -198.5zM563 883q-123 0 -184.5 -108.5t-61.5 -323.5q0 -216 61.5 -324.5
t184.5 -108.5t185.5 109t62.5 324q0 214 -62.5 323t-185.5 109z" />
    <glyph glyph-name="Scedilla" unicode="&#x15e;" horiz-adv-x="1356" 
d="M145 508h41q98 -255 219.5 -368t296.5 -113q138 0 220 71t82 191q0 109 -82.5 183.5t-319.5 162.5q-254 94 -356.5 199.5t-102.5 265.5q0 187 124.5 297t336.5 110q157 0 319 -56q39 -13 48 -13q20 0 49.5 16t69.5 49h36v-502h-41q-79 223 -203 338t-284 115
q-108 0 -179 -59.5t-71 -149.5q0 -93 69.5 -156.5t289.5 -146.5q158 -59 230.5 -94t115.5 -70q95 -77 139.5 -163.5t44.5 -196.5q0 -209 -150.5 -328t-416.5 -119q-152 0 -317 58q-42 14 -52 14q-21 0 -50 -16t-69 -50h-37v531zM416 -371l35 78q60 -34 118.5 -53t104.5 -19
q64 0 93.5 22.5t29.5 70.5q0 42 -30.5 66t-84.5 24q-13 0 -28.5 -1.5t-32.5 -4.5v188h63v-112q17 2 32 3.5t30 2.5q86 0 134 -43.5t48 -120.5q0 -82 -57.5 -129t-159.5 -47q-55 0 -124 17t-171 58z" />
    <glyph glyph-name="scedilla" unicode="&#x15f;" horiz-adv-x="901" 
d="M129 41l-20 321l43 3q52 -172 132 -257t189 -85q69 0 108.5 35.5t39.5 97.5q0 101 -192 196l-21 10q-202 103 -253 162.5t-51 143.5q0 113 95 187.5t243 74.5q94 0 171 -15.5t143 -48.5l20 -272l-39 -6q-55 147 -130.5 221t-170.5 74q-61 0 -101 -35.5t-40 -87.5
q0 -87 232 -190q41 -17 63 -27q126 -57 179.5 -122.5t53.5 -158.5q0 -133 -100.5 -213t-269.5 -80q-74 0 -154 18t-170 54zM189 -371l35 78q60 -34 118.5 -53t104.5 -19q64 0 93.5 22.5t29.5 70.5q0 42 -30.5 66t-84.5 24q-13 0 -28.5 -1.5t-32.5 -4.5v188h63v-112
q17 2 32 3.5t30 2.5q86 0 134 -43.5t48 -120.5q0 -82 -57.5 -129t-159.5 -47q-55 0 -124 17t-171 58z" />
    <glyph glyph-name="Scaron" unicode="&#x160;" horiz-adv-x="1356" 
d="M145 508h41q98 -255 219.5 -368t296.5 -113q138 0 220 71t82 191q0 109 -82.5 183.5t-319.5 162.5q-254 94 -356.5 199.5t-102.5 265.5q0 187 124.5 297t336.5 110q157 0 319 -56q39 -13 48 -13q20 0 49.5 16t69.5 49h36v-502h-41q-79 223 -203 338t-284 115
q-108 0 -179 -59.5t-71 -149.5q0 -93 69.5 -156.5t289.5 -146.5q158 -59 230.5 -94t115.5 -70q95 -77 139.5 -163.5t44.5 -196.5q0 -209 -150.5 -328t-416.5 -119q-152 0 -317 58q-42 14 -52 14q-21 0 -50 -16t-69 -50h-37v531zM387 1967h58l233 -211l233 211h58l-232 -349
h-118z" />
    <glyph glyph-name="scaron" unicode="&#x161;" horiz-adv-x="901" 
d="M129 41l-20 321l43 3q52 -172 132 -257t189 -85q69 0 108.5 35.5t39.5 97.5q0 101 -192 196l-21 10q-202 103 -253 162.5t-51 143.5q0 113 95 187.5t243 74.5q94 0 171 -15.5t143 -48.5l20 -272l-39 -6q-55 147 -130.5 221t-170.5 74q-61 0 -101 -35.5t-40 -87.5
q0 -87 232 -190q41 -17 63 -27q126 -57 179.5 -122.5t53.5 -158.5q0 -133 -100.5 -213t-269.5 -80q-74 0 -154 18t-170 54zM160 1389h58l233 -211l233 211h58l-232 -349h-118z" />
    <glyph glyph-name="Ydieresis" unicode="&#x178;" horiz-adv-x="1810" 
d="M1061 190q0 -88 34.5 -115.5t151.5 -27.5h23v-47h-713v47h23q116 0 151 27.5t35 115.5v498l-465 649q-45 64 -88 85.5t-117 21.5q-7 0 -22.5 -1t-24.5 -1v47h774v-47q-84 0 -127 -15t-43 -45q0 -19 10.5 -40.5t45.5 -67.5l329 -451l342 441q29 37 42.5 62.5t13.5 43.5
q0 29 -38 47.5t-110 24.5v47h479v-47q-174 -12 -327 -211l-6 -8l-373 -484v-549zM997 1774q0 40 29.5 69t68.5 29q41 0 71 -29t30 -69q0 -42 -29 -71t-72 -29q-41 0 -69.5 28.5t-28.5 71.5zM616 1774q0 40 29.5 69t69.5 29t70 -29t30 -69q0 -42 -29 -71t-71 -29t-70.5 28.5
t-28.5 71.5z" />
    <glyph glyph-name="Zcaron" unicode="&#x17d;" horiz-adv-x="1479" 
d="M84 0v57l954 1385h-346q-147 0 -271.5 -75.5t-303.5 -283.5l-33 11l127 395h1184v-33l-973 -1407h299q246 0 403 96.5t275 319.5l43 -10l-133 -455h-1225zM448 1967h58l233 -211l233 211h58l-232 -349h-118z" />
    <glyph glyph-name="zcaron" unicode="&#x17e;" horiz-adv-x="1104" 
d="M1026 909l-692 -852h270q120 0 216.5 74.5t207.5 257.5l31 -8l-90 -381h-912v57l650 797h-211q-106 0 -202.5 -61t-215.5 -205l-31 8l103 313h876zM262 1389h58l233 -211l233 211h58l-232 -349h-118z" />
    <glyph glyph-name="florin" unicode="&#x192;" horiz-adv-x="1110" 
d="M420 825h-203v84h209q33 294 142 446t286 152q109 0 174.5 -51.5t65.5 -136.5q0 -55 -33 -89t-86 -34q-47 0 -83.5 23.5t-51.5 64.5q-9 23 -18 72q-13 75 -48 76q-45 0 -63.5 -83t-22.5 -440h223v-84h-223v-41q0 -630 -108.5 -901.5t-354.5 -271.5q-106 0 -171.5 50
t-65.5 130q0 58 34.5 94.5t90.5 36.5q42 0 75.5 -20.5t49.5 -55.5q11 -25 22 -75q17 -76 53 -76q97 0 105 894q1 153 2 236z" />
    <glyph glyph-name="circumflex" unicode="&#x2c6;" 
d="M221 1040l232 349h118l232 -349h-58l-233 211l-233 -211h-58z" />
    <glyph glyph-name="caron" unicode="&#x2c7;" 
d="M221 1389h58l233 -211l233 211h58l-232 -349h-118z" />
    <glyph glyph-name="breve" unicode="&#x2d8;" 
d="M219 1350h51q17 -74 75 -108t167 -34t166 33.5t74 108.5h51q-20 -133 -94 -202t-197 -69q-122 0 -197 69t-96 202z" />
    <glyph glyph-name="dotaccent" unicode="&#x2d9;" 
d="M412 1196q0 41 29.5 70.5t70.5 29.5t70.5 -29.5t29.5 -70.5q0 -42 -29.5 -72t-70.5 -30t-70.5 30t-29.5 72z" />
    <glyph glyph-name="ring" unicode="&#x2da;" 
d="M362 1262q0 -63 43.5 -106.5t106.5 -43.5t106.5 43.5t43.5 106.5q0 61 -44.5 106t-105.5 45q-62 0 -106 -44.5t-44 -106.5zM272 1262q0 101 69.5 171t170.5 70t171.5 -70t70.5 -171t-70 -170.5t-172 -69.5q-101 0 -170.5 69t-69.5 171z" />
    <glyph glyph-name="ogonek" unicode="&#x2db;" 
d="M649 31q-91 -72 -136.5 -138t-45.5 -129q0 -54 27.5 -86t72.5 -32q40 0 69.5 18t49.5 55l31 -18q-36 -72 -91.5 -111t-121.5 -39q-70 0 -114 40.5t-44 103.5q0 88 62 170.5t190 165.5h51z" />
    <glyph glyph-name="tilde" unicode="&#x2dc;" 
d="M799 1337q-20 -103 -68.5 -153.5t-126.5 -50.5q-15 0 -32.5 2t-41.5 8l-109 29q-12 3 -24 4.5t-24 1.5q-39 0 -60.5 -20t-36.5 -71h-51q19 106 68 158.5t129 52.5q17 0 32.5 -2t30.5 -6l110 -28q24 -6 36.5 -8.5t19.5 -2.5q38 0 59.5 20t34.5 66h54z" />
    <glyph glyph-name="hungarumlaut" unicode="&#x2dd;" 
d="M594 1040l143 279q24 44 45.5 63t46.5 19q28 0 48 -20t20 -48q0 -15 -10.5 -34.5t-30.5 -41.5l-203 -217h-59zM319 1040l144 279q24 44 45.5 63t46.5 19q28 0 48 -20t20 -48q0 -15 -10.5 -34.5t-30.5 -41.5l-205 -217h-58z" />
    <glyph glyph-name="Omega" unicode="&#x3a9;" horiz-adv-x="1569" 
d="M1122 221h301l54 168h67l-117 -389h-516q111 218 167.5 434.5t56.5 423.5q0 278 -87.5 417.5t-261.5 139.5t-262 -139t-88 -416q0 -205 57 -421.5t169 -438.5h-519l-116 389h67l53 -168h302v23q-158 127 -240 283.5t-82 330.5q0 277 188 458t471 181q284 0 471 -180.5
t187 -458.5q0 -176 -82 -332t-240 -282v-23z" />
    <glyph glyph-name="pi" unicode="&#x3c0;" horiz-adv-x="1427" 
d="M1352 653h-342q-12 -73 -17.5 -147t-5.5 -152v-147q0 -129 -33 -189.5t-102 -60.5q-49 0 -74.5 30t-25.5 87q0 64 74.5 253.5t107.5 325.5h-381q-12 -68 -18.5 -141t-6.5 -152q0 -4 1 -21q1 -67 1 -130q0 -129 -33.5 -190.5t-103.5 -61.5q-48 0 -73 29t-25 86
q0 65 75 254.5t107 326.5h-139q-5 0 -15.5 -1t-15.5 -1q-106 0 -153 -36.5t-68 -135.5h-59q41 227 128.5 316.5t266.5 89.5h981z" />
    <glyph glyph-name="endash" unicode="&#x2013;" 
d="M0 375v151h1024v-151h-1024z" />
    <glyph glyph-name="emdash" unicode="&#x2014;" horiz-adv-x="2048" 
d="M0 526h2048v-151h-2048v151z" />
    <glyph glyph-name="quoteleft" unicode="&#x2018;" horiz-adv-x="555" 
d="M389 1507l33 -43q-75 -55 -113.5 -104t-38.5 -90q0 -33 62 -73q19 -13 28 -19q37 -25 56.5 -61t19.5 -81q0 -60 -39 -98.5t-100 -38.5q-77 0 -121.5 54t-44.5 149q0 117 68.5 225.5t189.5 179.5z" />
    <glyph glyph-name="quoteright" unicode="&#x2019;" horiz-adv-x="555" 
d="M178 899l-33 43q77 57 115.5 105.5t38.5 89.5q0 32 -61 71q-20 13 -31 21q-37 24 -56.5 60.5t-19.5 80.5q0 60 39 98.5t100 38.5q77 0 121.5 -54t44.5 -148q0 -118 -68.5 -226t-189.5 -180z" />
    <glyph glyph-name="quotesinglbase" unicode="&#x201a;" horiz-adv-x="555" 
d="M178 -334l-33 45q77 57 115.5 106t38.5 89q0 31 -58 68q-23 14 -34 22q-37 24 -56.5 61t-19.5 82q0 60 39 98.5t100 38.5q77 0 121.5 -54.5t44.5 -149.5q0 -118 -68.5 -226t-189.5 -180z" />
    <glyph glyph-name="quotedblleft" unicode="&#x201c;" horiz-adv-x="1034" 
d="M387 1507l33 -45q-76 -56 -115 -105t-39 -89q0 -32 58 -68q22 -14 34 -22q37 -25 56.5 -62t19.5 -82q0 -60 -40 -98.5t-101 -38.5q-77 0 -121.5 54t-44.5 149q0 117 69.5 226.5t190.5 180.5zM864 1507l33 -45q-76 -56 -115 -105t-39 -89q0 -32 58 -68q23 -14 35 -22
q36 -25 55.5 -62t19.5 -82q0 -60 -39 -98.5t-100 -38.5q-77 0 -121.5 54t-44.5 149q0 118 69 227t189 180z" />
    <glyph glyph-name="quotedblright" unicode="&#x201d;" horiz-adv-x="1034" 
d="M647 899l-33 43q75 56 113.5 105t38.5 90q0 33 -62 73q-18 12 -28 19q-37 24 -56.5 60.5t-19.5 80.5q0 60 39 98.5t100 38.5q77 0 121.5 -54t44.5 -148q0 -118 -68.5 -226t-189.5 -180zM168 899l-33 43q76 57 115 105.5t39 89.5q0 33 -62 73q-18 12 -29 19
q-37 25 -57 61.5t-20 79.5q0 60 40 98.5t101 38.5q77 0 121.5 -54t44.5 -148q0 -117 -69.5 -225.5t-190.5 -180.5z" />
    <glyph glyph-name="quotedblbase" unicode="&#x201e;" horiz-adv-x="1034" 
d="M647 -334l-33 45q75 56 113.5 105t38.5 90q0 32 -59 69q-20 13 -31 21q-37 24 -56.5 61t-19.5 82q0 60 39 98.5t100 38.5q77 0 121.5 -54.5t44.5 -149.5q0 -118 -68.5 -226t-189.5 -180zM168 -334l-33 45q76 57 115 106t39 89q0 32 -59 69q-20 13 -31 21q-38 25 -58 62
t-20 81q0 60 40 98.5t101 38.5q77 0 121.5 -54.5t44.5 -149.5q0 -117 -69.5 -225.5t-190.5 -180.5z" />
    <glyph glyph-name="dagger" unicode="&#x2020;" 
d="M487 -229q0 236 -23.5 450t-72.5 414q49 75 73.5 167t24.5 201q-73 -3 -165.5 -44t-126.5 -41q-50 0 -78.5 27t-28.5 75q0 46 30 75t79 29q32 0 126 -40t164 -40v29q0 101 -43 208.5t-43 121.5q0 47 30.5 75.5t80.5 28.5q48 0 77.5 -28.5t29.5 -75.5q0 -14 -43 -121.5
t-43 -208.5v-29q70 0 164 40t126 40q49 0 79 -29t30 -75q0 -48 -28.5 -75t-78.5 -27q-34 0 -126.5 41t-165.5 44q0 -109 24.5 -201t73.5 -167q-47 -171 -70.5 -386t-23.5 -478h-52z" />
    <glyph glyph-name="daggerdbl" unicode="&#x2021;" 
d="M391 633q46 74 70 157.5t24 165.5q0 2 -1 15.5t-1 23.5h-12q-56 0 -145 -38.5t-129 -38.5q-50 0 -78.5 27t-28.5 75q0 47 31 75.5t82 28.5q26 0 117.5 -36.5t164.5 -38.5v20q0 112 -41 220t-41 114q0 48 30 76t81 28q48 0 77.5 -28.5t29.5 -75.5q0 -9 -41 -113t-41 -207
q0 -4 1 -16t1 -18q70 3 161 39t119 36q51 0 82 -28.5t31 -75.5q0 -48 -28.5 -75t-78.5 -27q-33 0 -126.5 38t-163.5 41q3 -116 26.5 -206t69.5 -158q-46 -71 -70 -154.5t-24 -167.5q0 -1 1 -14.5t1 -24.5h12q56 0 145 39t129 39q50 0 78.5 -27t28.5 -75q0 -47 -31 -76
t-82 -29q-26 0 -117.5 37t-164.5 39v-20q0 -112 41 -220t41 -114q0 -48 -30 -76.5t-81 -28.5q-48 0 -77.5 29t-29.5 76q0 9 41 113t41 206q0 5 -1 17t-1 18q-70 -3 -161 -39.5t-119 -36.5q-51 0 -82 29t-31 76q0 48 28.5 75t78.5 27q33 0 126 -39t164 -43q-3 116 -27 207
t-69 158z" />
    <glyph glyph-name="bullet" unicode="&#x2022;" horiz-adv-x="1208" 
d="M307 762q0 123 87 209t210 86q122 0 208.5 -86.5t86.5 -208.5t-87.5 -209.5t-209.5 -87.5q-123 0 -209 87t-86 210z" />
    <glyph glyph-name="ellipsis" unicode="&#x2026;" horiz-adv-x="2048" 
d="M188 123q0 64 43.5 107.5t107.5 43.5t108 -43.5t44 -107.5q0 -63 -44.5 -107.5t-107.5 -44.5q-64 0 -107.5 43.5t-43.5 108.5zM870 123q0 64 43.5 107.5t107.5 43.5t108 -43.5t44 -107.5q0 -63 -44.5 -107.5t-107.5 -44.5q-64 0 -107.5 43.5t-43.5 108.5zM1555 123
q0 64 43.5 107.5t107.5 43.5t108 -43.5t44 -107.5q0 -63 -44.5 -107.5t-107.5 -44.5q-64 0 -107.5 43.5t-43.5 108.5z" />
    <glyph glyph-name="perthousand" unicode="&#x2030;" horiz-adv-x="2617" 
d="M657 1395q-51 -14 -96 -50.5t-84 -97.5q-67 -103 -107 -204.5t-40 -157.5q0 -68 33 -104t96 -36q74 0 148 61t128 167q30 57 45 115t15 120q0 20 -1.5 40t-5.5 40q-38 22 -71 48.5t-60 58.5zM1759 256q0 77 32 161t91 158q79 101 169.5 156t176.5 55q123 0 191.5 -70.5
t68.5 -197.5q0 -103 -41.5 -204.5t-117.5 -184.5q-65 -70 -139 -104.5t-156 -34.5q-119 0 -197 76t-78 190zM2302 705q-48 0 -95.5 -33.5t-88.5 -96.5q-73 -110 -114.5 -212t-41.5 -164q0 -68 33 -104t96 -36q62 0 122.5 42t115.5 122q48 72 74 150.5t26 154.5
q0 82 -34.5 129.5t-92.5 47.5zM1485 705q-48 0 -95.5 -33.5t-89.5 -96.5q-72 -110 -113.5 -212t-41.5 -164q0 -68 33 -104t96 -36q62 0 122.5 42t114.5 122q49 72 75 150.5t26 154.5q0 82 -34.5 129.5t-92.5 47.5zM942 256q0 77 32 161t91 158q78 101 169 156t177 55
q122 0 191 -70.5t69 -197.5q0 -103 -41.5 -204.5t-118.5 -184.5q-65 -70 -138.5 -104.5t-155.5 -34.5q-120 0 -197.5 76t-77.5 190zM1288 1507h105l-858 -1554h-115l760 1380q-54 -33 -107.5 -49t-114.5 -16q-20 0 -46.5 2.5t-63.5 6.5q3 -21 4.5 -42t1.5 -41
q0 -80 -25 -156t-75 -151q-68 -101 -157.5 -154t-193.5 -53q-119 0 -196.5 75t-77.5 189q0 77 32 160t91 160q76 100 167.5 155.5t178.5 55.5q77 0 134.5 -31t98.5 -94q41 -12 71.5 -17.5t55.5 -5.5q88 0 171.5 45.5t158.5 134.5z" />
    <glyph glyph-name="guilsinglleft" unicode="&#x2039;" horiz-adv-x="682" 
d="M147 451q93 76 182.5 154t174.5 157h22v-29q-56 -86 -184 -276l-4 -6l4 -7q128 -190 184 -276v-29h-22q-85 79 -174.5 157t-182.5 155z" />
    <glyph glyph-name="guilsinglright" unicode="&#x203a;" horiz-adv-x="682" 
d="M537 451q-93 -77 -182.5 -155t-174.5 -157h-24v29q56 86 184 276l4 7l-4 6q-128 190 -184 276v29h24q85 -79 174.5 -157t182.5 -154z" />
    <glyph glyph-name="franc" unicode="&#x20a3;" horiz-adv-x="2419" 
d="M57 0v47h23q117 0 151.5 27.5t34.5 115.5v1108q0 89 -34.5 116.5t-155.5 27.5v47h1247l164 -397h-47q-82 94 -141.5 154t-102.5 91q-45 33 -83.5 53.5t-75.5 32.5q-31 10 -78.5 14.5t-114.5 4.5h-207q-49 0 -63.5 -9t-14.5 -44v-43v-551h158q187 0 287 70.5t129 221.5h43
v-684h-43q-13 172 -115 255t-301 83h-158v-551q0 -88 35 -115.5t151 -27.5h23v-47h-711zM1921 672q87 135 167.5 196.5t168.5 61.5q73 0 117.5 -39t44.5 -103q0 -54 -33.5 -89t-85.5 -35q-42 0 -113.5 34.5t-101.5 34.5q-46 0 -88.5 -48.5t-75.5 -137.5v-383q0 -78 24 -97.5
t105 -19.5h37v-47h-514v47h13q70 0 93 20t23 97v450q0 91 -25 119.5t-104 38.5v45q82 15 168 42.5t180 70.5v-258z" />
    <glyph glyph-name="trademark" unicode="&#x2122;" horiz-adv-x="1683" 
d="M969 1448l135 -381l137 381h189v-27l-28 -2q-19 -3 -29.5 -16.5t-10.5 -36.5v-375q0 -23 10.5 -36.5t30.5 -16.5l27 -4v-29h-246v29l30 4q20 2 29.5 15.5t9.5 37.5v375l-163 -463h-27l-170 469v-381q0 -24 10 -38t29 -15l35 -4v-29h-197v29l33 4q20 2 30.5 15t10.5 36
v373q0 23 -11 37t-30 16l-33 2v31h199zM692 1448l10 -188h-30q-8 80 -40 116.5t-93 36.5h-11v-422q0 -23 10.5 -37t28.5 -16l31 -4v-29h-260v29l32 4q19 2 28.5 15.5t9.5 37.5v422h-15q-59 0 -91 -37.5t-40 -115.5h-29l11 188h448z" />
    <glyph glyph-name="partialdiff" unicode="&#x2202;" horiz-adv-x="1075" 
d="M758 639q17 103 26 186.5t9 147.5q0 120 -29 174.5t-92 54.5q-62 0 -147 -58.5t-122 -58.5t-64.5 26t-27.5 60q0 66 79 115t200 49q176 0 287.5 -159t111.5 -422q0 -338 -150 -558.5t-376 -220.5q-161 0 -266 112t-105 286q0 193 113 322.5t278 129.5q101 0 167.5 -45
t107.5 -141zM705 504q0 116 -41 178.5t-117 62.5q-105 0 -174.5 -131.5t-69.5 -337.5q0 -116 40.5 -177.5t117.5 -61.5q105 0 174.5 132.5t69.5 334.5z" />
    <glyph glyph-name="Delta" unicode="&#x2206;" horiz-adv-x="1350" 
d="M958 250l-380 899l-385 -899h765zM705 1497l641 -1497h-1340l651 1497h48z" />
    <glyph glyph-name="product" unicode="&#x220f;" horiz-adv-x="1673" 
d="M51 1473h1569v-78h-190v-1710h190v-78h-643v78h184v1710h-653v-1710h186v-78h-643v78h189v1710h-189v78z" />
    <glyph glyph-name="summation" unicode="&#x2211;" horiz-adv-x="1499" 
d="M18 1473h1199l120 -394h-82l-81 238q-15 43 -50.5 60.5t-130.5 17.5h-628l745 -809v-41l-784 -709h893q47 0 64.5 13.5t29.5 50.5l69 229h84l-159 -522h-1289v55l875 787l-875 964v60z" />
    <glyph glyph-name="minus" unicode="&#x2212;" horiz-adv-x="1706" 
d="M1452 696v-170h-1198v170h1198z" />
    <glyph glyph-name="fraction" unicode="&#x2215;" horiz-adv-x="342" 
d="M567 1507h115l-907 -1554h-117z" />
    <glyph glyph-name="periodcentered" unicode="&#x2219;" horiz-adv-x="555" 
d="M125 739q0 65 43.5 108.5t107.5 43.5t108 -44t44 -108q0 -63 -44.5 -107t-107.5 -44q-64 0 -107.5 43.5t-43.5 107.5z" />
    <glyph glyph-name="radical" unicode="&#x221a;" horiz-adv-x="1323" 
d="M1325 1675v-110h-108l-594 -1606h-82l-316 872l-131 -49l-28 95l305 108l247 -688l510 1378h197z" />
    <glyph glyph-name="infinity" unicode="&#x221e;" horiz-adv-x="1706" 
d="M928 559q45 -81 109.5 -122.5t146.5 -41.5q97 0 159 61.5t62 157.5q0 95 -57 158.5t-142 63.5q-78 0 -142 -63.5t-136 -213.5zM780 662q-46 81 -111 123t-145 42q-98 0 -159.5 -62t-61.5 -159q0 -94 56.5 -156.5t140.5 -62.5q80 0 144.5 62.5t135.5 212.5zM844 750
q71 139 149.5 200.5t184.5 61.5q127 0 222 -116t95 -284q0 -178 -84.5 -288.5t-220.5 -110.5q-92 0 -166.5 57.5t-161.5 200.5q-71 -135 -148.5 -197.5t-172.5 -62.5q-137 0 -232.5 114.5t-95.5 284.5q0 179 85 289.5t220 110.5q93 0 168.5 -60t157.5 -200z" />
    <glyph glyph-name="integral" unicode="&#x222b;" horiz-adv-x="1120" 
d="M324 -258q106 0 122 692q2 81 3 123q13 538 113 766.5t312 228.5q87 0 143 -45.5t56 -111.5q0 -61 -34 -95t-95 -34q-45 0 -74.5 22.5t-40.5 65.5q-4 17 -6 45q-3 40 -26 41q-101 0 -119 -615q-5 -161 -8 -249q-10 -280 -30.5 -427t-59.5 -245q-55 -136 -139.5 -205.5
t-194.5 -69.5q-87 0 -142 44t-55 112q0 63 35.5 97t99.5 34q39 0 66 -18t41 -54q6 -16 9 -59t24 -43z" />
    <glyph glyph-name="approxequal" unicode="&#x2248;" horiz-adv-x="1706" 
d="M1530 406q-107 -73 -200 -106.5t-189 -33.5q-89 0 -279.5 66.5t-298.5 66.5q-84 0 -173.5 -36t-211.5 -121v184q112 75 206.5 110t180.5 35q118 0 309 -67.5t277 -67.5q83 0 172 36.5t207 119.5v-186zM1530 795q-109 -75 -201.5 -108.5t-187.5 -33.5q-88 0 -278.5 67.5
t-299.5 67.5q-82 0 -170 -35t-215 -122v184q109 73 205 109.5t182 36.5q120 0 310 -68t268 -68q92 0 181 35t206 119v-184z" />
    <glyph glyph-name="notequal" unicode="&#x2260;" horiz-adv-x="1706" 
d="M1327 1112l-170 -215h295v-162h-403l-197 -250h600v-161h-707l-249 -314l-123 99l170 215h-289v161h393l199 250h-592v162h700l250 315z" />
    <glyph glyph-name="lessequal" unicode="&#x2264;" horiz-adv-x="1706" 
d="M1446 178v-166h-1186v166h1186zM1446 1047l-889 -287l889 -287v-176l-1186 389v145l1186 392v-176z" />
    <glyph glyph-name="greaterequal" unicode="&#x2265;" horiz-adv-x="1706" 
d="M1448 178v-166h-1188v166h1188zM1446 831v-145l-1186 -389v176l891 287l-891 287v176z" />
    <glyph glyph-name="lozenge" unicode="&#x25ca;" horiz-adv-x="1012" 
d="M506 1409l-385 -817l385 -825l385 825zM506 1653l500 -1061l-500 -1069l-500 1069z" />
    <glyph glyph-name="apple" unicode="&#xf000;" horiz-adv-x="1618" 
d="M836 1216q-1 6 -1.5 14t-0.5 23q0 124 95 229.5t236 131.5q1 -10 1.5 -23t0.5 -39q0 -131 -103.5 -234.5t-203.5 -103.5h-8q-3 0 -7.5 1t-8.5 1zM1505 403q-114 -247 -205 -342.5t-204 -95.5q-50 0 -131.5 33t-122.5 33q-45 0 -131 -33t-127 -33q-64 0 -128.5 44
t-129.5 132q-102 140 -157.5 295.5t-55.5 300.5q0 219 125 356.5t323 137.5q68 0 155 -34t124 -34q34 0 121.5 35t152.5 35q110 0 198 -40t161 -124q-102 -65 -151.5 -145.5t-49.5 -182.5q0 -113 60 -200t173 -138z" />
    <glyph glyph-name="fi" unicode="&#xf001;" horiz-adv-x="1147" 
d="M731 909q43 0 106 5.5t144 15.5v-766q0 -77 23 -97t94 -20h12v-47h-475v47h12q71 0 94 20t23 97v545q0 78 -24 97t-105 19h-223v-661q0 -76 24.5 -96.5t104.5 -20.5h32v-47h-540v47q8 0 22.5 -1t20.5 -1q72 0 95.5 22.5t23.5 96.5v661h-162v84h162v33q0 256 127 410.5
t335 154.5q121 0 195 -44.5t74 -114.5q0 -43 -31 -72t-76 -29q-34 0 -65 15.5t-54 44.5q-12 16 -32 50q-46 81 -103 81q-78 0 -115.5 -81t-37.5 -251v-197h319z" />
    <glyph glyph-name="fl" unicode="&#xf002;" horiz-adv-x="1147" 
d="M764 1262q-45 16 -86 79v0q-4 7 -11 19q-44 78 -102 78q-78 0 -115.5 -81t-37.5 -251v-197h352v353zM195 825h-162v84h162v29q0 259 127.5 414t339.5 155q60 0 106 -11t82 -34l131 45v-1343q0 -77 23 -97t94 -20h12v-47h-475v47h12q71 0 94 21.5t23 95.5v661h-352v-661
q0 -77 24.5 -97t102.5 -20h14v-47h-520v47q8 0 22.5 -1t20.5 -1q72 0 95.5 22.5t23.5 96.5v661z" />
    </font>
</defs>
</svg>
