<?xml version="1.0" standalone="no"?>
<!DOCTYPE svg PUBLIC "-//W3C//DTD SVG 1.1//EN" "http://www.w3.org/Graphics/SVG/1.1/DTD/svg11.dtd" >
<svg xmlns="http://www.w3.org/2000/svg" xmlns:xlink="http://www.w3.org/1999/xlink" version="1.1">
<metadata>
Created by FontForge 20150318 at Tue Jul  7 08:30:01 2015
 By uniteet7
Copyright (c) 2003 CAI978. All rights reserved.http://www.CAI978.com
</metadata>
<defs>
<font id="042CAI978" horiz-adv-x="1024" >
  <font-face 
    font-family="042CAI978"
    font-weight="400"
    font-stretch="normal"
    units-per-em="2048"
    panose-1="2 11 5 4 3 5 3 2 2 4"
    ascent="1556"
    descent="-492"
    x-height="1053"
    cap-height="1421"
    bbox="-342 -483 2310 1974"
    underline-thickness="98"
    underline-position="-133"
    unicode-range="U+0020-F002"
  />
<missing-glyph horiz-adv-x="1229" 
d="M102 -362v1806h1024v-1806h-1024zM217 -248h795v1577h-795v-1577z" />
    <glyph glyph-name=".notdef" horiz-adv-x="1229" 
d="M102 -362v1806h1024v-1806h-1024zM217 -248h795v1577h-795v-1577z" />
    <glyph glyph-name=".null" horiz-adv-x="0" 
 />
    <glyph glyph-name="nonmarkingreturn" horiz-adv-x="612" 
 />
    <glyph glyph-name="space" unicode=" " horiz-adv-x="612" 
 />
    <glyph glyph-name="exclam" unicode="!" horiz-adv-x="653" 
d="M291 356l-86 1065h241l-84 -1065h-71zM219 0v209h213v-209h-213z" />
    <glyph glyph-name="quotedbl" unicode="&#x22;" horiz-adv-x="590" 
d="M496 1434v-553h-119v553h119zM211 1434v-553h-117v553h117z" />
    <glyph glyph-name="numbersign" unicode="#" horiz-adv-x="1575" 
d="M973 862h-264l-95 -272h263zM922 1456l-166 -471h260l168 471h143l-164 -471h307l-43 -123h-311l-94 -272h330l-43 -123h-332l-166 -469h-145l168 469h-265l-168 -469h-143l166 469h-320l43 123h320l96 272h-342l43 123h344l168 471h146z" />
    <glyph glyph-name="dollar" unicode="$" horiz-adv-x="1223" 
d="M684 175q130 1 203.5 61.5t73.5 166.5q0 98 -68 156.5t-209 81.5v-466zM586 831v432q-116 -4 -183 -61t-67 -151q0 -88 62.5 -143t187.5 -77zM586 -176l-1 211q-174 9 -293 95.5t-171 244.5l143 51q39 -122 120 -185.5t201 -66.5l1 494q-202 39 -305 130t-103 230
q0 150 111 251t297 116v172h98v-172q161 -13 266 -84t148 -197l-135 -39q-43 94 -111 140.5t-168 49.5v-454q218 -41 326 -138.5t108 -252.5q0 -166 -118 -271.5t-316 -114.5v-210h-98z" />
    <glyph glyph-name="percent" unicode="%" horiz-adv-x="1579" 
d="M1399 346q0 124 -53.5 197t-143.5 73q-89 0 -142.5 -73t-53.5 -197q0 -123 54 -196.5t142 -73.5q89 0 143 73.5t54 196.5zM1202 719q148 0 239 -102.5t91 -270.5t-91 -270.5t-239 -102.5t-239 102.5t-91 270.5t91 270.5t239 102.5zM571 1081q0 125 -53 198t-143 73
q-89 0 -143 -73.5t-54 -197.5q0 -122 54 -196t143 -74t142.5 73.5t53.5 196.5zM375 1454q148 0 239 -102t91 -271q0 -168 -91 -270t-239 -102t-239 102t-91 270q0 169 91 271t239 102zM276 -29l898 1479h126l-897 -1479h-127z" />
    <glyph glyph-name="ampersand" unicode="&#x26;" horiz-adv-x="1290" 
d="M569 889q112 40 172 106t60 148q0 76 -53.5 129t-131.5 53q-72 0 -118.5 -47.5t-46.5 -122.5q0 -48 28.5 -113t89.5 -153zM893 104q-77 -63 -175.5 -97t-205.5 -34q-201 0 -329 120t-128 306q0 154 95 264.5t278 170.5q-65 104 -95 180.5t-30 140.5q0 130 86.5 212.5
t224.5 82.5q146 0 239 -85t93 -216q0 -119 -78.5 -212t-234.5 -159l289 -463q78 95 130 209.5t74 243.5l146 -35q-30 -141 -96 -274t-168 -256q26 -39 69.5 -58.5t102.5 -19.5q21 0 48 4t60 12v-147q-35 -10 -67.5 -15.5t-63.5 -5.5q-73 0 -137.5 32t-126.5 99zM815 209
l-326 518q-129 -47 -197.5 -131.5t-68.5 -196.5q0 -124 89 -206t225 -82q75 0 144 24.5t134 73.5z" />
    <glyph glyph-name="quotesingle" unicode="'" horiz-adv-x="305" 
d="M211 1434v-553h-117v553h117z" />
    <glyph glyph-name="parenleft" unicode="(" horiz-adv-x="668" 
d="M506 -266q-164 201 -244 413t-80 445q0 235 80 446.5t244 411.5h106q-146 -203 -215 -411.5t-69 -446.5q0 -235 69 -444t215 -414h-106z" />
    <glyph glyph-name="parenright" unicode=")" horiz-adv-x="668" 
d="M55 -266q147 205 216 413t69 445t-69.5 446t-215.5 412h107q163 -200 243 -412.5t80 -445.5q0 -236 -79 -447t-242 -411h-109z" />
    <glyph glyph-name="asterisk" unicode="*" 
d="M512 950l-172 -305l-129 96l235 256l-337 72l47 150l315 -144l-29 346h140l-29 -346l315 144l47 -150l-337 -72l235 -256l-129 -96z" />
    <glyph glyph-name="plus" unicode="+" horiz-adv-x="1706" 
d="M913 1221v-551h539v-117h-539v-553h-118v553h-541v117h541v551h118z" />
    <glyph glyph-name="comma" unicode="," horiz-adv-x="612" 
d="M195 -20v247h231v-221l-156 -309h-94l127 283h-108z" />
    <glyph glyph-name="hyphen" unicode="-" horiz-adv-x="711" 
d="M119 469v139h473v-139h-473z" />
    <glyph glyph-name="period" unicode="." horiz-adv-x="612" 
d="M190 0v246h230v-246h-230z" />
    <glyph glyph-name="slash" unicode="/" horiz-adv-x="569" 
d="M-109 -190l605 1640h122l-606 -1640h-121z" />
    <glyph glyph-name="zero" unicode="0" horiz-adv-x="1223" 
d="M610 111q164 0 260.5 161.5t96.5 440.5t-96 439.5t-261 160.5q-164 0 -259 -160t-95 -440t95.5 -441t258.5 -161zM610 -27q-240 0 -387 202.5t-147 537.5t147 536t387 201q241 0 389 -201.5t148 -535.5q0 -335 -148 -537.5t-389 -202.5z" />
    <glyph glyph-name="one" unicode="1" horiz-adv-x="1223" 
d="M170 0v141h426v1096q-90 -99 -187 -175.5t-200 -129.5v172q144 76 252.5 163t179.5 183h127v-1309h391v-141h-989z" />
    <glyph glyph-name="two" unicode="2" horiz-adv-x="1223" 
d="M94 0v152q483 349 652 532.5t169 333.5q0 128 -89 209.5t-230 81.5q-137 0 -228.5 -88t-109.5 -238l-162 51q45 198 178 307t330 109q213 0 348 -124t135 -318q0 -171 -167 -361.5t-596 -494.5h778v-152h-1008z" />
    <glyph glyph-name="three" unicode="3" horiz-adv-x="1223" 
d="M39 330l166 49q45 -130 142 -196t243 -66q156 0 255 77.5t99 196.5q0 121 -99.5 200t-254.5 79h-195v143h176q148 0 237 70t89 184q0 108 -82 178t-211 70q-132 0 -220 -58t-120 -165l-158 45q58 155 186 235t320 80q205 0 334 -106t129 -271q0 -121 -73.5 -207
t-202.5 -118q151 -32 237 -128t86 -233q0 -188 -145.5 -303t-386.5 -115q-210 0 -353.5 93.5t-197.5 265.5z" />
    <glyph glyph-name="four" unicode="4" horiz-adv-x="1223" 
d="M786 479v836l-532 -836h532zM786 0v342h-704v109l647 999h209v-971h229v-137h-229v-342h-152z" />
    <glyph glyph-name="five" unicode="5" horiz-adv-x="1223" 
d="M90 299l154 53q46 -117 134 -177t212 -60q162 0 267.5 99.5t105.5 252.5q0 149 -100.5 248.5t-250.5 99.5q-101 0 -183 -50t-130 -142l-135 24l41 774h848l-17 -151h-706l-25 -473q60 77 146.5 116t195.5 39q215 0 352.5 -135t137.5 -346q0 -98 -32 -182t-95 -152
q-76 -80 -180 -123t-224 -43q-184 0 -317.5 85t-198.5 243z" />
    <glyph glyph-name="six" unicode="6" horiz-adv-x="1223" 
d="M264 655q59 129 170 204t244 75q211 0 346 -131t135 -336q0 -83 -30 -165t-87 -152q-69 -85 -171.5 -132t-219.5 -47q-262 0 -409.5 182.5t-147.5 510.5q0 359 156 572.5t416 213.5q183 0 302 -78.5t173 -234.5l-166 -43q-35 106 -109.5 160.5t-185.5 54.5
q-201 0 -308.5 -162.5t-107.5 -466.5v-25zM637 115q151 0 246.5 98t95.5 254q0 135 -91.5 227t-223.5 92q-152 0 -257.5 -97t-105.5 -234q0 -147 95.5 -243.5t240.5 -96.5z" />
    <glyph glyph-name="seven" unicode="7" horiz-adv-x="1223" 
d="M420 0q9 379 137 697t373 573h-760l14 151h914v-108q-249 -285 -370.5 -601t-121.5 -675v-37h-186z" />
    <glyph glyph-name="eight" unicode="8" horiz-adv-x="1223" 
d="M403 741q-133 51 -201.5 137t-68.5 201q0 166 134 268.5t356 102.5q219 0 352 -99.5t133 -260.5q0 -117 -73 -201t-214 -129q173 -65 258.5 -162.5t85.5 -228.5q0 -175 -153 -286.5t-400 -111.5q-252 0 -402.5 108t-150.5 286q0 130 88.5 226.5t255.5 149.5zM614 827
q169 46 246.5 110.5t77.5 160.5q0 97 -88.5 160t-228.5 63q-139 0 -228.5 -63.5t-89.5 -159.5q0 -92 79.5 -160.5t231.5 -110.5zM592 668q-180 -44 -269.5 -119.5t-89.5 -183.5q0 -117 104 -188t277 -71q165 0 268 71t103 179q0 100 -98 177.5t-295 134.5z" />
    <glyph glyph-name="nine" unicode="9" horiz-adv-x="1223" 
d="M973 766q-61 -133 -172.5 -206t-253.5 -73q-201 0 -335 133.5t-134 333.5q0 84 30 167t87 151q69 84 172.5 131t220.5 47q262 0 409.5 -182.5t147.5 -509.5q0 -360 -156.5 -573.5t-417.5 -213.5q-171 0 -287 72.5t-173 214.5l143 51q54 -98 129.5 -147t173.5 -49
q202 0 309 161.5t107 466.5v25zM592 1307q-143 0 -237.5 -100t-94.5 -253q0 -137 91.5 -228t230.5 -91q146 0 251 99.5t105 234.5q0 149 -96.5 243.5t-249.5 94.5z" />
    <glyph glyph-name="colon" unicode=":" horiz-adv-x="612" 
d="M190 807v246h230v-246h-230zM190 0v246h230v-246h-230z" />
    <glyph glyph-name="semicolon" unicode=";" horiz-adv-x="612" 
d="M190 -20v247h230v-221l-156 -309h-94l129 283h-109zM190 807v246h230v-246h-230z" />
    <glyph glyph-name="less" unicode="&#x3c;" horiz-adv-x="1706" 
d="M1442 1018l-1000 -408l1000 -405v-129l-1178 483v103l1178 483v-127z" />
    <glyph glyph-name="equal" unicode="=" horiz-adv-x="1706" 
d="M1452 477v-117h-1198v117h1198zM1452 860v-117h-1198v117h1198z" />
    <glyph glyph-name="greater" unicode="&#x3e;" horiz-adv-x="1706" 
d="M1442 662v-103l-1178 -483v129l1000 405l-1000 408v127z" />
    <glyph glyph-name="question" unicode="?" horiz-adv-x="1143" 
d="M401 0v209h213v-209h-213zM426 354v148q0 73 26 127.5t80 95.5q27 20 92.5 61t100.5 66q47 33 75.5 88t28.5 111q0 118 -76.5 188t-205.5 70q-133 0 -218.5 -83t-99.5 -225l-159 31q33 200 164 310t333 110q84 0 161 -24.5t130 -67.5q81 -67 121.5 -145.5t40.5 -167.5
q0 -56 -17 -107t-53 -104q-48 -71 -258 -194l-26 -15q-46 -27 -68.5 -62t-22.5 -80v-131h-149z" />
    <glyph glyph-name="at" unicode="@" horiz-adv-x="2048" 
d="M1292 844l58 121h110l-141 -568q-6 -24 -9 -44t-3 -36q0 -44 27.5 -67t82.5 -23q45 0 100 24t103 64q89 76 139.5 196.5t50.5 254.5q0 266 -195.5 428t-518.5 162q-168 0 -312.5 -52t-259.5 -153q-140 -122 -211 -282.5t-71 -354.5q0 -173 60.5 -304t186.5 -230
q101 -81 240 -124.5t295 -43.5q172 0 334.5 48.5t296.5 139.5l45 -66q-147 -109 -313 -165t-347 -56q-191 0 -348 46.5t-276 138.5q-153 117 -228 272t-75 352q0 163 50.5 309t149.5 269q146 176 349.5 267t453.5 91q165 0 311 -43.5t248 -124.5q129 -99 195.5 -230
t66.5 -282q0 -169 -62.5 -308.5t-182.5 -236.5q-69 -55 -148.5 -83.5t-163.5 -28.5q-99 0 -148.5 39t-49.5 116q0 3 1 11t1 12q-51 -87 -127 -132.5t-170 -45.5q-153 0 -233.5 85t-80.5 247q0 230 137 389t332 159q91 0 153.5 -39.5t96.5 -117.5zM1202 473l60 242
q-17 90 -72 140t-135 50q-146 0 -244 -131.5t-98 -327.5q0 -110 51 -169.5t145 -59.5q102 0 183.5 70.5t109.5 185.5z" />
    <glyph glyph-name="A" unicode="A" horiz-adv-x="1143" 
d="M-2 0l471 1421h203l465 -1421h-172l-138 424h-536l-131 -424h-162zM336 561h446l-225 699z" />
    <glyph glyph-name="B" unicode="B" horiz-adv-x="1266" 
d="M162 0v1421h538q209 0 324 -95t115 -267q0 -109 -67.5 -190t-184.5 -113q143 -38 220 -132.5t77 -232.5q0 -192 -130.5 -291.5t-381.5 -99.5h-510zM332 147h336q162 0 246.5 65t84.5 189q0 137 -91 206t-269 69h-307v-529zM332 811h313q153 0 231 61.5t78 182.5
q0 108 -75 166.5t-213 58.5h-334v-469z" />
    <glyph glyph-name="C" unicode="C" horiz-adv-x="1231" 
d="M1012 961q-34 166 -125 255t-228 89q-182 0 -288.5 -159t-106.5 -433q0 -276 106 -434t289 -158q137 0 228 88.5t133 261.5l158 -35q-51 -227 -183.5 -345t-335.5 -118q-270 0 -426.5 198t-156.5 542q0 179 48.5 321.5t145.5 247.5q76 82 176 125t213 43
q203 0 333.5 -115.5t181.5 -341.5z" />
    <glyph glyph-name="D" unicode="D" horiz-adv-x="1346" 
d="M162 0v1421h459q119 0 212.5 -26.5t163.5 -79.5q135 -102 205 -256.5t70 -347.5q0 -324 -183.5 -517.5t-492.5 -193.5h-434zM332 147h270q229 0 354 147t125 417q0 271 -126 418t-359 147h-264v-1129z" />
    <glyph glyph-name="E" unicode="E" horiz-adv-x="1110" 
d="M162 0v1421h901v-141h-731v-461h575v-137h-575v-535h749v-147h-919z" />
    <glyph glyph-name="F" unicode="F" horiz-adv-x="1028" 
d="M162 0v1421h901v-141h-731v-461h575v-137h-575v-682h-170z" />
    <glyph glyph-name="G" unicode="G" horiz-adv-x="1313" 
d="M1096 -14l-49 170q-59 -88 -159 -135.5t-229 -47.5q-271 0 -427 198t-156 544q0 178 49 320.5t145 246.5q75 81 176 124.5t213 43.5q200 0 336.5 -105.5t196.5 -306.5l-166 -41q-48 151 -141.5 229.5t-225.5 78.5q-181 0 -288 -158.5t-107 -431.5q0 -283 108 -438.5
t302 -155.5q162 0 261 96t99 254v94h-366v148h538v-727h-110z" />
    <glyph glyph-name="H" unicode="H" horiz-adv-x="1337" 
d="M162 0v1421h170v-596h674v596h170v-1421h-170v678h-674v-678h-170z" />
    <glyph glyph-name="I" unicode="I" horiz-adv-x="508" 
d="M166 0v1421h176v-1421h-176z" />
    <glyph glyph-name="J" unicode="J" horiz-adv-x="799" 
d="M461 467v954h176v-944q0 -256 -105 -381t-321 -125q-49 0 -101 7.5t-110 21.5v156q62 -15 110.5 -22t88.5 -7q137 0 199.5 81t62.5 259z" />
    <glyph glyph-name="K" unicode="K" horiz-adv-x="1208" 
d="M162 0v1421h170v-813l639 813h184l-377 -475l496 -946h-178l-430 825l-334 -417v-408h-170z" />
    <glyph glyph-name="L" unicode="L" horiz-adv-x="952" 
d="M162 0v1421h174v-1265h649v-156h-823z" />
    <glyph glyph-name="M" unicode="M" horiz-adv-x="1683" 
d="M160 0v1421h250l434 -1192l430 1192h248v-1421h-166v1264l-467 -1264h-121l-461 1272v-1272h-147z" />
    <glyph glyph-name="N" unicode="N" horiz-adv-x="1366" 
d="M162 0v1421h229l670 -1171v1171h143v-1421h-174l-727 1266v-1266h-141z" />
    <glyph glyph-name="O" unicode="O" horiz-adv-x="1319" 
d="M659 121q183 0 288.5 158t105.5 434q0 275 -106 433.5t-288 158.5q-183 0 -289 -158.5t-106 -433.5q0 -276 106 -434t289 -158zM659 -27q-262 0 -422.5 202.5t-160.5 537.5q0 334 160.5 535.5t422.5 201.5q263 0 423.5 -201.5t160.5 -535.5q0 -335 -160.5 -537.5
t-423.5 -202.5z" />
    <glyph glyph-name="P" unicode="P" horiz-adv-x="1159" 
d="M332 723h280q160 0 241 71.5t81 211.5q0 123 -83 196.5t-226 73.5h-293v-553zM162 0v1421h477q235 0 360 -112.5t125 -323.5q0 -185 -134 -297.5t-359 -112.5h-299v-575h-170z" />
    <glyph glyph-name="Q" unicode="Q" horiz-adv-x="1319" 
d="M657 -25q-269 7 -425 204.5t-156 533.5q0 334 160.5 535.5t422.5 201.5q263 0 423.5 -202t160.5 -535q0 -285 -117 -474.5t-329 -248.5v-6q0 -94 48 -139.5t148 -45.5q35 0 77.5 5.5t88.5 15.5v-150q-47 -12 -91 -18t-83 -6q-157 0 -239 82.5t-89 246.5zM1053 713
q0 276 -105.5 434t-288.5 158q-182 0 -288.5 -159t-106.5 -433q0 -276 106 -434t289 -158t288.5 158t105.5 434z" />
    <glyph glyph-name="R" unicode="R" horiz-adv-x="1241" 
d="M162 0v1421h491q255 0 384.5 -101.5t129.5 -299.5q0 -130 -66.5 -221t-197.5 -142l287 -657h-174l-273 625h-411v-625h-170zM647 1276h-315v-510h301q176 0 262 63t86 193q0 123 -86 188.5t-248 65.5z" />
    <glyph glyph-name="S" unicode="S" horiz-adv-x="1237" 
d="M51 389l170 33q43 -145 148 -223t258 -78q145 0 240.5 70.5t95.5 175.5t-67 164t-291 118q-19 5 -54 13q-228 56 -328 147q-49 45 -75.5 106t-26.5 129q0 179 132.5 293.5t342.5 114.5q197 0 330 -91.5t190 -266.5l-166 -39q-37 121 -128 185.5t-226 64.5
q-133 0 -214 -65.5t-81 -170.5q0 -48 21 -88t59 -66q72 -47 242 -91q43 -11 65 -17q259 -74 358 -168.5t99 -253.5q0 -184 -141.5 -298t-372.5 -114q-222 0 -371 107t-209 309z" />
    <glyph glyph-name="T" unicode="T" horiz-adv-x="934" 
d="M555 1274v-1274h-176v1274h-399v147h974v-147h-399z" />
    <glyph glyph-name="U" unicode="U" horiz-adv-x="1286" 
d="M162 1421h174v-903q0 -206 76 -301.5t239 -95.5q171 0 249.5 94.5t78.5 302.5v903h145v-903q0 -278 -119.5 -412.5t-367.5 -134.5q-244 0 -359.5 133t-115.5 414v903z" />
    <glyph glyph-name="V" unicode="V" horiz-adv-x="1143" 
d="M487 0l-485 1421h174l406 -1208l401 1208h156l-480 -1421h-172z" />
    <glyph glyph-name="W" unicode="W" horiz-adv-x="1669" 
d="M348 0l-350 1421h168l297 -1218l317 1218h142l315 -1208l293 1208h147l-356 -1421h-182l-295 1128l-301 -1128h-195z" />
    <glyph glyph-name="X" unicode="X" horiz-adv-x="1028" 
d="M-29 0l461 745l-403 676h184l313 -528l320 528h164l-406 -661l455 -760h-185l-364 610l-371 -610h-168z" />
    <glyph glyph-name="Y" unicode="Y" horiz-adv-x="1042" 
d="M440 0v600l-481 821h186l392 -684l389 684h168l-484 -827v-594h-170z" />
    <glyph glyph-name="Z" unicode="Z" horiz-adv-x="1053" 
d="M31 0v147l784 1137h-747v137h950v-121l-799 -1153h819v-147h-1007z" />
    <glyph glyph-name="bracketleft" unicode="[" horiz-adv-x="668" 
d="M201 -266v1687h370v-114h-223v-1459h223v-114h-370z" />
    <glyph glyph-name="backslash" unicode="\" horiz-adv-x="569" 
d="M678 -190h-121l-606 1640h123z" />
    <glyph glyph-name="bracketright" unicode="]" horiz-adv-x="668" 
d="M98 -266v114h221v1459h-221v114h369v-1687h-369z" />
    <glyph glyph-name="asciicircum" unicode="^" horiz-adv-x="2048" 
d="M1104 1458l520 -557h-158l-442 438l-442 -438h-160l520 557h162z" />
    <glyph glyph-name="underscore" unicode="_" 
d="M1024 -365v-118h-1024v118h1024z" />
    <glyph glyph-name="glyph67" unicode="`" 
d="M543 1192l-281 348h178l209 -348h-106z" />
    <glyph glyph-name="a" unicode="a" horiz-adv-x="1071" 
d="M817 0q-12 44 -18 94t-6 105q-55 -107 -149.5 -165.5t-213.5 -58.5q-159 0 -259.5 90t-100.5 230q0 179 159.5 269.5t472.5 90.5q37 0 56 -0.5t34 -1.5l1 66q0 119 -65 177t-198 58q-121 0 -190 -44.5t-90 -137.5l-150 23q33 142 148 214t309 72q203 0 296 -99.5
t93 -315.5v-451q0 -70 7 -121t22 -94h-158zM793 532q-23 3 -48.5 4t-74.5 1q-211 0 -319.5 -61t-108.5 -179q0 -88 59 -139.5t160 -51.5q138 0 235 108.5t97 262.5v55z" />
    <glyph glyph-name="b" unicode="b" horiz-adv-x="1081" 
d="M295 442q0 -149 73.5 -238t194.5 -89q131 0 206 110.5t75 304.5q0 192 -73.5 302t-201.5 110q-115 0 -194.5 -93t-79.5 -233v-174zM141 -10v1431h154v-555q54 106 134 160.5t181 54.5q177 0 290.5 -152t113.5 -394q0 -248 -115.5 -401.5t-296.5 -153.5q-97 0 -177 49.5
t-142 148.5l-64 -188h-78z" />
    <glyph glyph-name="c" unicode="c" horiz-adv-x="981" 
d="M770 684q-15 121 -82.5 193.5t-163.5 72.5q-128 0 -207 -115.5t-79 -308.5q0 -192 77 -306t205 -114q97 0 164.5 68t91.5 191l142 -27q-31 -175 -136.5 -271t-267.5 -96q-202 0 -324 151.5t-122 403.5q0 251 129.5 403t341.5 152q153 0 253 -99t126 -275z" />
    <glyph glyph-name="d" unicode="d" horiz-adv-x="1085" 
d="M942 1421v-1421h-141v209q-53 -114 -136.5 -174t-189.5 -60q-177 0 -291 152t-114 393q0 248 116.5 402.5t298.5 154.5q96 0 174 -48t132 -140v532h151zM791 614q0 151 -75 239.5t-202 88.5q-125 0 -198.5 -111.5t-73.5 -304.5q0 -192 73.5 -301.5t200.5 -109.5
q118 0 196.5 94.5t78.5 243.5v161z" />
    <glyph glyph-name="e" unicode="e" horiz-adv-x="1071" 
d="M989 283q-55 -152 -170.5 -232t-279.5 -80q-215 0 -343 151t-128 404q0 249 130 402t341 153q214 0 339.5 -146.5t125.5 -397.5v-23h-766v-6q0 -189 83.5 -296.5t229.5 -107.5q98 0 173.5 53.5t115.5 151.5zM240 629h594q-7 151 -82.5 236t-204.5 85t-208 -82.5
t-99 -238.5z" />
    <glyph glyph-name="f" unicode="f" horiz-adv-x="573" 
d="M193 0v938h-187v115h187v8q0 193 77 287t236 94q42 0 80.5 -3.5t74.5 -10.5v-132q-37 7 -70 11t-56 4q-97 0 -143 -53.5t-46 -165.5q0 -7 1 -20t1 -19h252v-115h-252v-938h-155z" />
    <glyph glyph-name="g" unicode="g" horiz-adv-x="1004" 
d="M309 47q-58 -27 -84 -61.5t-26 -83.5q0 -89 88.5 -132.5t267.5 -43.5q168 0 255 42t87 123q0 67 -55 99t-183 39zM522 954q-105 0 -170 -65.5t-65 -171.5q0 -107 64.5 -171.5t170.5 -64.5q107 0 171.5 64.5t64.5 171.5q0 106 -65 171.5t-171 65.5zM268 444
q-69 48 -105 115t-36 150q0 156 111 261t278 105q62 0 118 -14t109 -43q14 90 70.5 136t153.5 46q17 0 58 -3q5 -1 7 -1v-117h-53q-69 0 -108.5 -30.5t-49.5 -91.5q48 -59 71 -119.5t23 -124.5q0 -157 -109.5 -252.5t-291.5 -95.5q-43 0 -81.5 6.5t-74.5 19.5
q-53 -15 -80.5 -40.5t-27.5 -59.5q0 -51 35 -79.5t101 -31.5l320 -16q171 -9 260 -75t89 -185q0 -142 -136 -219.5t-387 -77.5q-235 0 -362 71.5t-127 202.5q0 77 45.5 133t128.5 80q-58 29 -85.5 70t-27.5 98q0 63 40.5 108t123.5 74z" />
    <glyph glyph-name="h" unicode="h" horiz-adv-x="1100" 
d="M141 0v1421h154v-555q57 108 139 161.5t191 53.5q168 0 255 -105.5t87 -309.5v-666h-152v680q0 129 -56.5 199.5t-160.5 70.5q-130 0 -216.5 -104.5t-86.5 -263.5v-582h-154z" />
    <glyph glyph-name="i" unicode="i" horiz-adv-x="451" 
d="M147 0v1053h156v-1053h-156zM147 1266v155h156v-155h-156z" />
    <glyph glyph-name="j" unicode="j" horiz-adv-x="451" 
d="M147 1266v155h156v-155h-156zM147 29v1024h156v-1016q0 -240 -67.5 -335t-229.5 -95q-35 0 -71 4t-76 12v123q32 -5 61 -7.5t55 -2.5q99 0 135.5 54.5t36.5 238.5z" />
    <glyph glyph-name="k" unicode="k" horiz-adv-x="967" 
d="M141 0v1421h154v-903l475 535h170l-324 -344l375 -709h-166l-313 598l-217 -231v-367h-154z" />
    <glyph glyph-name="l" unicode="l" horiz-adv-x="451" 
d="M147 0v1421h156v-1421h-156z" />
    <glyph glyph-name="m" unicode="m" horiz-adv-x="1688" 
d="M905 848q66 115 147.5 171t182.5 56q156 0 238.5 -105t82.5 -304v-666h-151v680q0 126 -52 195t-145 69q-118 0 -200 -103.5t-82 -258.5v-582h-152v680q0 125 -52 194.5t-144 69.5q-119 0 -201 -103.5t-82 -258.5v-582h-154v1053h144v-195q61 109 140 163t177 54
q114 0 193.5 -59.5t109.5 -167.5z" />
    <glyph glyph-name="n" unicode="n" horiz-adv-x="1100" 
d="M141 0v1053h144v-195q64 114 147.5 168.5t192.5 54.5q168 0 255 -105.5t87 -309.5v-666h-152v680q0 129 -56.5 199.5t-160.5 70.5q-130 0 -216.5 -104.5t-86.5 -263.5v-582h-154z" />
    <glyph glyph-name="o" unicode="o" horiz-adv-x="1081" 
d="M539 102q138 0 220.5 115t82.5 309q0 197 -82 310.5t-221 113.5q-141 0 -221 -113t-80 -311q0 -196 81 -310t220 -114zM539 -29q-212 0 -341.5 152.5t-129.5 402.5q0 252 129.5 403.5t341.5 151.5q214 0 344.5 -152t130.5 -403q0 -250 -131 -402.5t-344 -152.5z" />
    <glyph glyph-name="p" unicode="p" horiz-adv-x="1085" 
d="M141 -365v1418h144v-205q53 114 135.5 173.5t187.5 59.5q179 0 292.5 -151.5t113.5 -394.5q0 -248 -116.5 -401.5t-299.5 -153.5q-93 0 -171.5 48.5t-131.5 139.5v-533h-154zM295 442q0 -149 73.5 -238t194.5 -89q131 0 206 110.5t75 304.5q0 192 -73.5 302t-201.5 110
q-115 0 -194.5 -92.5t-79.5 -231.5v-176z" />
    <glyph glyph-name="q" unicode="q" horiz-adv-x="1081" 
d="M942 1067v-1432h-151v555q-54 -105 -133 -159t-181 -54q-179 0 -293 150.5t-114 392.5q0 249 116 403t299 154q96 0 174.5 -49.5t143.5 -148.5l63 188h76zM791 623q0 145 -76 232t-201 87t-198.5 -111.5t-73.5 -304.5q0 -192 73.5 -301.5t200.5 -109.5q120 0 197.5 95
t77.5 247v166z" />
    <glyph glyph-name="r" unicode="r" horiz-adv-x="631" 
d="M141 0v1053h150v-236q48 135 123.5 200.5t183.5 65.5q17 0 51 -3q4 -1 6 -1v-157h-26q-152 0 -241 -106t-89 -288v-528h-158z" />
    <glyph glyph-name="s" unicode="s" horiz-adv-x="930" 
d="M43 274l141 29q32 -96 110.5 -149.5t188.5 -53.5q107 0 172.5 49.5t65.5 129.5q0 116 -249 175q-35 8 -54 13q-191 46 -263.5 112.5t-72.5 186.5q0 138 105 226.5t272 88.5q146 0 244 -68.5t137 -197.5l-146 -31q-24 82 -85.5 124t-155.5 42q-99 0 -156 -44.5t-57 -121.5
q0 -110 230 -162q59 -14 91 -22q173 -43 248.5 -114t75.5 -187q0 -144 -112 -236t-290 -92q-172 0 -287.5 79.5t-152.5 223.5z" />
    <glyph glyph-name="t" unicode="t" horiz-adv-x="631" 
d="M188 391v547h-184v115h184v250l158 16v-266h250v-115h-250v-551q0 -176 38 -228.5t140 -52.5q33 0 59 3.5t50 9.5v-131q-34 -8 -67 -12.5t-64 -4.5q-96 0 -161.5 30.5t-109.5 94.5q-23 34 -33 89t-10 206z" />
    <glyph glyph-name="u" unicode="u" horiz-adv-x="1100" 
d="M958 1053v-1053h-143v195q-64 -114 -147.5 -169t-192.5 -55q-168 0 -255 106t-87 310v666h152v-680q0 -130 56 -200.5t161 -70.5q130 0 217.5 104.5t87.5 264.5v582h151z" />
    <glyph glyph-name="v" unicode="v" horiz-adv-x="858" 
d="M344 0l-356 1053h155l299 -899l299 899h144l-369 -1053h-172z" />
    <glyph glyph-name="w" unicode="w" horiz-adv-x="1341" 
d="M319 0l-309 1053h156l233 -848l219 848h121l234 -848l246 848h139l-320 -1053h-137l-227 834l-213 -834h-142z" />
    <glyph glyph-name="x" unicode="x" horiz-adv-x="819" 
d="M-20 0l352 557l-307 496h174l219 -357l229 357h150l-303 -478l356 -575h-174l-270 438l-277 -438h-149z" />
    <glyph glyph-name="y" unicode="y" horiz-adv-x="862" 
d="M4 -376v136q42 -8 70.5 -12t50.5 -4q94 0 148.5 58.5t95.5 205.5l-375 1045h158l294 -846l299 846h138l-412 -1139q-62 -172 -139 -238.5t-209 -66.5q-32 0 -61 3.5t-58 11.5z" />
    <glyph glyph-name="z" unicode="z" horiz-adv-x="782" 
d="M18 0v133l547 787h-514v133h721v-86l-575 -834h589v-133h-768z" />
    <glyph glyph-name="braceleft" unicode="{" 
d="M858 1350q-8 0 -23 1t-22 1q-121 0 -164 -47t-43 -197v-242q0 -166 -43.5 -235.5t-154.5 -100.5q111 -30 154.5 -99.5t43.5 -235.5v-242q0 -149 43.5 -195.5t169.5 -46.5h39v-125h-35q-99 0 -159.5 12t-102.5 40q-55 36 -77.5 100t-22.5 213v244q0 152 -55 213t-189 61
q-7 0 -22 -1t-23 -1v127q8 0 23 -1t22 -1q134 0 189 61.5t55 214.5v244q0 153 22.5 215.5t77.5 97.5q42 28 102 40t160 12h35v-127z" />
    <glyph glyph-name="bar" unicode="|" 
d="M575 1565v-2048h-126v2048h126z" />
    <glyph glyph-name="braceright" unicode="}" 
d="M563 1112v-244q0 -152 55.5 -214t190.5 -62q7 0 22 1t23 1v-127q-8 0 -23 1t-22 1q-135 0 -190.5 -62t-55.5 -214v-242q0 -153 -22 -216.5t-76 -99.5q-39 -26 -97.5 -37.5t-160.5 -11.5h-41v125q8 0 23 -1t22 -1q120 0 163.5 47.5t43.5 198.5v240q0 166 43.5 235.5
t154.5 99.5q-111 31 -154.5 100.5t-43.5 235.5v242q0 149 -44 196.5t-169 47.5h-39v125h35q100 0 161 -12.5t103 -39.5q54 -35 76 -98t22 -215z" />
    <glyph glyph-name="asciitilde" unicode="~" horiz-adv-x="1706" 
d="M1530 627q-101 -72 -197.5 -108t-189.5 -36q-43 0 -90.5 9t-100.5 26q-30 10 -87 31q-202 72 -302 72q-83 0 -173.5 -37.5t-211.5 -122.5v133q105 73 202 109t185 36q56 0 116.5 -12.5t174.5 -52.5q14 -5 44 -16q158 -58 245 -58q84 0 174.5 37t210.5 121v-131z" />
    <glyph glyph-name="euro" horiz-adv-x="1223" 
d="M1171 436q-50 -230 -173.5 -346.5t-315.5 -116.5q-220 0 -363 149.5t-178 416.5h-141l23 96h110q0 4 -1 14q-3 47 -3 64q0 14 1.5 36t4.5 53l-135 1l23 96h122q36 256 177 403.5t348 147.5q179 0 303 -103.5t182 -302.5l-154 -34q-45 143 -131 221t-200 78
q-135 0 -225 -106.5t-121 -303.5h585l-32 -96h-563q-4 -28 -5.5 -49.5t-1.5 -40.5q0 -12 1.5 -32t5.5 -46h507l-30 -96h-467q30 -205 124.5 -313.5t243.5 -108.5q122 0 203.5 87.5t126.5 266.5z" />
    <glyph glyph-name="euro" unicode="&#x20ac;" horiz-adv-x="1223" 
d="M1171 436q-50 -230 -173.5 -346.5t-315.5 -116.5q-220 0 -363 149.5t-178 416.5h-141l23 96h110q0 4 -1 14q-3 47 -3 64q0 14 1.5 36t4.5 53l-135 1l23 96h122q36 256 177 403.5t348 147.5q179 0 303 -103.5t182 -302.5l-154 -34q-45 143 -131 221t-200 78
q-135 0 -225 -106.5t-121 -303.5h585l-32 -96h-563q-4 -28 -5.5 -49.5t-1.5 -40.5q0 -12 1.5 -32t5.5 -46h507l-30 -96h-467q30 -205 124.5 -313.5t243.5 -108.5q122 0 203.5 87.5t126.5 266.5z" />
    <glyph glyph-name="nonbreakingspace" unicode="&#xa0;" horiz-adv-x="1223" 
 />
    <glyph glyph-name="exclamdown" unicode="&#xa1;" horiz-adv-x="653" 
d="M362 1065l87 -1065h-242l84 1065h71zM434 1421v-207h-213v207h213z" />
    <glyph glyph-name="cent" unicode="&#xa2;" horiz-adv-x="1223" 
d="M897 854q-12 103 -79.5 171.5t-153.5 68.5q-124 0 -200.5 -104.5t-76.5 -276.5q0 -170 75.5 -272.5t196.5 -102.5q89 0 155.5 62.5t88.5 168.5l135 -22q-27 -145 -113.5 -228t-226.5 -100v-301h-100v301q-174 31 -274.5 163t-100.5 331t99 329t276 162v273h100v-269
q143 -12 230 -97.5t110 -236.5z" />
    <glyph glyph-name="sterling" unicode="&#xa3;" horiz-adv-x="1223" 
d="M113 0v151q150 10 230.5 100.5t80.5 250.5q0 26 -3.5 63.5t-14.5 118.5h-228v123h211q-8 56 -12 101t-4 81q0 212 106.5 336.5t286.5 124.5q102 0 188 -46t150 -134l-123 -88q-49 69 -101.5 101t-117.5 32q-105 0 -160 -69t-55 -199q0 -39 4.5 -99t14.5 -141h296v-123
h-286q3 -37 4.5 -70.5t1.5 -62.5q0 -155 -52 -251.5t-168 -162.5h410q148 0 226 38t126 128l111 -67q-56 -127 -158.5 -181.5t-292.5 -54.5h-671z" />
    <glyph glyph-name="currency" unicode="&#xa4;" horiz-adv-x="1223" 
d="M1171 436q-50 -230 -173.5 -346.5t-315.5 -116.5q-220 0 -363 149.5t-178 416.5h-141l23 96h110q0 4 -1 14q-3 47 -3 64q0 14 1.5 36t4.5 53l-135 1l23 96h122q36 256 177 403.5t348 147.5q179 0 303 -103.5t182 -302.5l-154 -34q-45 143 -131 221t-200 78
q-135 0 -225 -106.5t-121 -303.5h585l-32 -96h-563q-4 -28 -5.5 -49.5t-1.5 -40.5q0 -12 1.5 -32t5.5 -46h507l-30 -96h-467q30 -205 124.5 -313.5t243.5 -108.5q122 0 203.5 87.5t126.5 266.5z" />
    <glyph glyph-name="yen" unicode="&#xa5;" horiz-adv-x="1223" 
d="M530 0v600h-454v96h395l-96 168h-299v97h243l-270 460h176l393 -684l388 684h168l-271 -460h242v-97h-297l-100 -168h397v-96h-455v-600h-160z" />
    <glyph glyph-name="brokenbar" unicode="&#xa6;" 
d="M575 408v-758h-126v758h126zM575 1432v-758h-126v758h126z" />
    <glyph glyph-name="section" unicode="&#xa7;" 
d="M190 -57l125 77q39 -62 87.5 -95.5t101.5 -33.5q57 0 92 34.5t35 90.5q0 36 -24.5 85t-63.5 92l-316 331q-48 50 -74 106.5t-26 110.5q0 97 62.5 162.5t162.5 73.5q-57 65 -82.5 121t-25.5 114q0 103 72 170.5t182 67.5q98 0 170 -38t131 -122l-111 -78q-46 57 -90.5 86
t-85.5 29q-58 0 -90.5 -30t-32.5 -83q0 -28 14.5 -54.5t67.5 -82.5l252 -262q97 -101 134.5 -172t37.5 -145q0 -98 -59.5 -158t-163.5 -68q57 -64 84.5 -125t27.5 -124q0 -120 -79 -195.5t-205 -75.5q-95 0 -173.5 48.5t-136.5 142.5zM281 764q0 -36 25 -79.5t91 -119.5
q81 -93 137.5 -134.5t102.5 -41.5q42 0 70 28.5t28 71.5q0 42 -27.5 91t-80.5 104l-19 20q-154 166 -221 166q-46 0 -76 -30t-30 -76z" />
    <glyph glyph-name="dieresis" unicode="&#xa8;" 
d="M592 1255v189h160v-189h-160zM272 1255v189h160v-189h-160z" />
    <glyph glyph-name="copyright" unicode="&#xa9;" horiz-adv-x="1706" 
d="M1065 911q-15 77 -70.5 120.5t-138.5 43.5q-117 0 -182.5 -92.5t-65.5 -259.5q0 -160 66.5 -252t181.5 -92q87 0 145.5 48.5t73.5 133.5h129q-11 -127 -109 -207t-245 -80q-176 0 -280.5 121t-104.5 326q0 208 107.5 332.5t287.5 124.5q137 0 230 -74.5t104 -192.5h-129z
M1501 725q0 130 -49 249t-139 210q-92 92 -210 140t-251 48q-132 0 -247.5 -47.5t-205.5 -138.5q-93 -95 -142.5 -214t-49.5 -247q0 -127 49 -244t141 -211q93 -92 209.5 -141t245.5 -49t248.5 50t214.5 142q91 90 138.5 205.5t47.5 247.5zM852 1460q151 0 285 -55t239 -160
q102 -102 156.5 -236t54.5 -284q0 -151 -54 -283t-157 -233q-109 -106 -244.5 -162.5t-279.5 -56.5q-146 0 -278 55.5t-238 161.5q-106 105 -161.5 238.5t-55.5 279.5q0 145 56.5 279.5t162.5 242.5q102 104 234 158.5t280 54.5z" />
    <glyph glyph-name="ordfeminine" unicode="&#xaa;" horiz-adv-x="803" 
d="M612 687q-9 30 -13.5 64.5t-4.5 73.5q-40 -74 -111 -114.5t-159 -40.5q-120 0 -195.5 62.5t-75.5 160.5q0 125 119.5 188.5t353.5 63.5q28 0 42 -0.5t26 -1.5v47q0 84 -48 124t-149 40q-91 0 -142.5 -31.5t-66.5 -95.5l-112 16q25 99 111 150t231 51q152 0 222.5 -69.5
t70.5 -221.5v-315q0 -51 4.5 -87t15.5 -65zM594 1058q-17 2 -35.5 2.5t-56.5 0.5q-158 0 -239 -42t-81 -124q0 -62 44 -98.5t120 -36.5q103 0 175.5 76t72.5 184v38z" />
    <glyph glyph-name="guillemotleft" unicode="&#xab;" horiz-adv-x="778" 
d="M578 524l124 -327h-104l-186 327l186 330h104zM246 524l125 -327h-105l-186 327l186 330h105z" />
    <glyph glyph-name="logicalnot" unicode="&#xac;" horiz-adv-x="1706" 
d="M1452 858v-502h-115v385h-1083v117h1198z" />
    <glyph glyph-name="sfthyphen" unicode="&#xad;" horiz-adv-x="711" 
d="M119 469v139h473v-139h-473z" />
    <glyph glyph-name="registered" unicode="&#xae;" horiz-adv-x="1706" 
d="M846 1065h-144v-291h148q123 0 175 33t52 108q0 79 -54.5 114.5t-176.5 35.5zM872 1157q178 0 264.5 -57t86.5 -174q0 -89 -53 -148.5t-144 -75.5l188 -385h-157l-176 365h-179v-365h-141v840h311zM1501 721q0 133 -48 251.5t-138 209.5q-94 93 -211.5 141.5t-251.5 48.5
q-132 0 -247 -47t-204 -137q-94 -95 -144 -214t-50 -249q0 -127 49 -244t141 -211q91 -92 208 -141t245 -49q131 0 249.5 48.5t213.5 141.5q91 90 139.5 206t48.5 245zM852 1460q150 0 284 -55.5t240 -161.5q102 -102 156.5 -235.5t54.5 -282.5q0 -151 -54.5 -283
t-158.5 -233q-109 -106 -243.5 -162.5t-278.5 -56.5q-145 0 -278.5 56t-239.5 163q-105 104 -160 237t-55 279q0 147 57 282t164 242q101 103 232 157t280 54z" />
    <glyph glyph-name="macron" unicode="&#xaf;" 
d="M254 1286v127h516v-127h-516z" />
    <glyph glyph-name="degree" unicode="&#xb0;" horiz-adv-x="674" 
d="M539 1171q0 84 -58.5 142.5t-142.5 58.5t-143.5 -58.5t-59.5 -142.5t59.5 -143t143.5 -59t142.5 59t58.5 143zM338 1454q117 0 200 -83t83 -200q0 -116 -83.5 -199t-201.5 -83t-199.5 82t-81.5 200q0 119 82.5 201t200.5 82z" />
    <glyph glyph-name="plusminus" unicode="&#xb1;" horiz-adv-x="1706" 
d="M1452 158v-117h-1198v117h1198zM913 1180v-344h539v-117h-539v-344h-118v344h-541v117h541v344h118z" />
    <glyph glyph-name="twosuperior" unicode="&#xb2;" horiz-adv-x="807" 
d="M61 569v90q320 210 431.5 320.5t111.5 200.5q0 76 -59 125t-152 49q-91 0 -151 -52.5t-72 -142.5l-107 31q30 119 118 184.5t218 65.5q140 0 229 -75t89 -191q0 -103 -110 -217t-394 -298h514v-90h-666z" />
    <glyph glyph-name="threesuperior" unicode="&#xb3;" horiz-adv-x="807" 
d="M27 768l108 29q30 -78 94 -118t160 -40q102 0 168 47t66 119t-66 119t-168 47h-129v86h117q97 0 156 42t59 111q0 65 -54 106.5t-139 41.5q-87 0 -145 -34.5t-80 -98.5l-104 26q38 94 122 141.5t211 47.5q136 0 222 -63.5t86 -162.5q0 -72 -49 -124t-136 -70
q101 -20 158 -77.5t57 -139.5q0 -112 -96.5 -181t-255.5 -69q-139 0 -233 56t-129 159z" />
    <glyph glyph-name="grave" unicode="&#xb4;" 
d="M375 1192l209 348h178l-281 -348h-106z" />
    <glyph glyph-name="mu" unicode="&#xb5;" horiz-adv-x="1128" 
d="M362 1069l-126 -595q-8 -33 -11.5 -67t-3.5 -71q0 -109 57 -168t160 -59q125 0 208 101t128 308l121 551h156l-162 -754q-12 -52 -17.5 -84t-5.5 -51q0 -32 18.5 -48.5t53.5 -16.5q9 0 17.5 0.5t17.5 1.5l-27 -125q-21 -5 -44 -7.5t-48 -2.5q-70 0 -104.5 35t-40.5 112
q-41 -70 -117 -108.5t-172 -38.5q-87 0 -152.5 34t-109.5 103l-113 -545h-156l316 1495h157z" />
    <glyph glyph-name="paragraph" unicode="&#xb6;" 
d="M948 1401h-125v-1401h-94v1401h-182v-1401h-96v782q-173 8 -274 102.5t-101 245.5q0 157 107.5 253t285.5 96h479v-78z" />
    <glyph glyph-name="glyph195" unicode="&#xb7;" horiz-adv-x="612" 
d="M180 711q0 51 37.5 89t87.5 38q51 0 88 -38t37 -89t-36.5 -87t-88.5 -36q-51 0 -88 36t-37 87z" />
    <glyph glyph-name="cedilla" unicode="&#xb8;" 
d="M299 -422v86q84 -18 144.5 -26.5t101.5 -8.5q60 0 90.5 20.5t30.5 61.5q0 52 -32.5 75.5t-105.5 23.5q-21 0 -32 -0.5t-21 -1.5v192h74v-106h22q112 0 169 -45t57 -132q0 -89 -63.5 -135.5t-186.5 -46.5q-42 0 -102.5 10.5t-145.5 32.5z" />
    <glyph glyph-name="onesuperior" unicode="&#xb9;" horiz-adv-x="807" 
d="M111 569v84h282v658q-62 -61 -125.5 -106t-130.5 -77v103q94 45 166 98t119 111h84v-787h258v-84h-653z" />
    <glyph glyph-name="ordmasculine" unicode="&#xba;" horiz-adv-x="811" 
d="M403 758q104 0 166 80t62 217q0 138 -61 217.5t-167 79.5q-104 0 -164.5 -79.5t-60.5 -217.5t60.5 -217.5t164.5 -79.5zM403 666q-158 0 -255 106.5t-97 282.5t97 282.5t255 106.5q161 0 259 -106.5t98 -282.5t-98 -282.5t-259 -106.5z" />
    <glyph glyph-name="guillemotright" unicode="&#xbb;" horiz-adv-x="778" 
d="M530 524l-122 330h104l186 -330l-186 -327h-104zM199 524l-123 330h102l189 -330l-189 -327h-102z" />
    <glyph glyph-name="onequarter" unicode="&#xbc;" horiz-adv-x="1882" 
d="M1608 268v469l-336 -469h336zM1608 0v193h-445v59l408 559h133v-543h143v-75h-143v-193h-96zM428 -29l897 1479h127l-897 -1479h-127zM109 627v80h268v612q-57 -56 -118.5 -98.5t-125.5 -71.5v96q89 42 157 90.5t113 102.5h80v-731h248v-80h-622z" />
    <glyph glyph-name="onehalf" unicode="&#xbd;" horiz-adv-x="1882" 
d="M1171 0v84q308 198 413.5 300t105.5 185q0 72 -57 118t-146 46q-86 0 -143.5 -49t-69.5 -133l-100 29q27 110 110.5 170.5t208.5 60.5q134 0 219.5 -69t85.5 -177q0 -95 -105.5 -202.5t-375.5 -278.5h489v-84h-635zM428 -29l897 1479h127l-897 -1479h-127zM109 627v80
h268v612q-57 -56 -118.5 -98.5t-125.5 -71.5v96q89 42 157 90.5t113 102.5h80v-731h248v-80h-622z" />
    <glyph glyph-name="threequarters" unicode="&#xbe;" horiz-adv-x="1882" 
d="M1608 268v469l-336 -469h336zM1608 0v193h-445v59l408 559h133v-543h143v-75h-143v-193h-96zM428 -29l897 1479h127l-897 -1479h-127zM25 811l104 29q28 -73 89.5 -110.5t152.5 -37.5q99 0 161 43.5t62 110.5q0 68 -62.5 111.5t-160.5 43.5h-121v80h110q93 0 149 39.5
t56 104.5q0 60 -51.5 99.5t-132.5 39.5q-83 0 -138.5 -32.5t-76.5 -94.5l-98 27q35 86 116 131t201 45q129 0 211 -59.5t82 -151.5q0 -67 -46 -115.5t-128 -66.5q96 -19 149.5 -72.5t53.5 -130.5q0 -105 -92 -169.5t-244 -64.5q-131 0 -221.5 52.5t-124.5 148.5z" />
    <glyph glyph-name="questiondown" unicode="&#xbf;" horiz-adv-x="1143" 
d="M705 1069v-147q0 -74 -26.5 -129.5t-80.5 -96.5q-46 -35 -129 -85t-102 -74q-35 -45 -50.5 -85.5t-15.5 -86.5q0 -111 77.5 -180.5t203.5 -69.5q132 0 218 82t101 225l162 -31q-34 -199 -165.5 -309.5t-334.5 -110.5q-85 0 -162.5 25t-128.5 67q-81 68 -121 145.5
t-40 166.5q0 56 17 108t52 105q50 73 270 198l15 9q45 26 67.5 62t22.5 81v131h150zM729 1423v-209h-213v209h213z" />
    <glyph glyph-name="Agrave" unicode="&#xc0;" horiz-adv-x="1143" 
d="M-2 0l471 1421h203l465 -1421h-172l-138 424h-536l-131 -424h-162zM336 561h446l-225 699zM602 1563l-281 348h178l209 -348h-106z" />
    <glyph glyph-name="Aacute" unicode="&#xc1;" horiz-adv-x="1143" 
d="M-2 0l471 1421h203l465 -1421h-172l-138 424h-536l-131 -424h-162zM336 561h446l-225 699zM434 1563l209 348h178l-281 -348h-106z" />
    <glyph glyph-name="Acircumflex" unicode="&#xc2;" horiz-adv-x="1143" 
d="M-2 0l471 1421h203l465 -1421h-172l-138 424h-536l-131 -424h-162zM336 561h446l-225 699zM284 1563l197 348h178l197 -348h-107l-178 244l-180 -244h-107z" />
    <glyph glyph-name="Atilde" unicode="&#xc3;" horiz-adv-x="1143" 
d="M-2 0l471 1421h203l465 -1421h-172l-138 424h-536l-131 -424h-162zM336 561h446l-225 699zM862 1831q-24 -93 -75.5 -142.5t-123.5 -49.5q-20 0 -35.5 2.5t-29.5 7.5l-80 27q-12 4 -25.5 6t-27.5 2q-35 0 -58.5 -15.5t-38.5 -48.5h-88q21 91 71.5 139t125.5 48
q19 0 34 -2t27 -7l78 -26q26 -8 38 -10t23 -2q36 0 60 18t37 53h88z" />
    <glyph glyph-name="Adieresis" unicode="&#xc4;" horiz-adv-x="1143" 
d="M-2 0l471 1421h203l465 -1421h-172l-138 424h-536l-131 -424h-162zM336 561h446l-225 699zM651 1626v189h160v-189h-160zM331 1626v189h160v-189h-160z" />
    <glyph glyph-name="Aring" unicode="&#xc5;" horiz-adv-x="1143" 
d="M336 561h446l-225 699zM-2 0l471 1421h203l465 -1421h-172l-138 424h-536l-131 -424h-162zM428 1731q0 -59 40.5 -99.5t98.5 -40.5q60 0 101 40.5t41 99.5q0 58 -41.5 99.5t-100.5 41.5q-58 0 -98.5 -41.5t-40.5 -99.5zM326 1731q0 101 70 172t171 71q102 0 173 -70
t71 -171q0 -103 -70.5 -173.5t-173.5 -70.5q-101 0 -171 70t-70 172z" />
    <glyph glyph-name="AE" unicode="&#xc6;" horiz-adv-x="1763" 
d="M819 569v723l-416 -723h416zM1733 147v-147h-914v432h-500l-260 -432h-165l849 1421h971v-141h-729v-465h578v-141h-578v-527h748z" />
    <glyph glyph-name="Ccedilla" unicode="&#xc7;" horiz-adv-x="1231" 
d="M1012 961q-34 166 -125 255t-228 89q-182 0 -288.5 -159t-106.5 -433q0 -276 106 -434t289 -158q137 0 228 88.5t133 261.5l158 -35q-51 -227 -183.5 -345t-335.5 -118q-270 0 -426.5 198t-156.5 542q0 179 48.5 321.5t145.5 247.5q76 82 176 125t213 43
q203 0 333.5 -115.5t181.5 -341.5zM424 -422v86q84 -18 144.5 -26.5t101.5 -8.5q60 0 90.5 20.5t30.5 61.5q0 52 -32.5 75.5t-105.5 23.5q-21 0 -32 -0.5t-21 -1.5v192h74v-106h22q112 0 169 -45t57 -132q0 -89 -63.5 -135.5t-186.5 -46.5q-42 0 -102.5 10.5t-145.5 32.5z
" />
    <glyph glyph-name="Egrave" unicode="&#xc8;" horiz-adv-x="1110" 
d="M162 0v1421h901v-141h-731v-461h575v-137h-575v-535h749v-147h-919zM654 1563l-281 348h178l209 -348h-106z" />
    <glyph glyph-name="Eacute" unicode="&#xc9;" horiz-adv-x="1110" 
d="M162 0v1421h901v-141h-731v-461h575v-137h-575v-535h749v-147h-919zM486 1563l209 348h178l-281 -348h-106z" />
    <glyph glyph-name="Ecircumflex" unicode="&#xca;" horiz-adv-x="1110" 
d="M162 0v1421h901v-141h-731v-461h575v-137h-575v-535h749v-147h-919zM336 1563l197 348h178l197 -348h-107l-178 244l-180 -244h-107z" />
    <glyph glyph-name="Edieresis" unicode="&#xcb;" horiz-adv-x="1110" 
d="M162 0v1421h901v-141h-731v-461h575v-137h-575v-535h749v-147h-919zM703 1626v189h160v-189h-160zM383 1626v189h160v-189h-160z" />
    <glyph glyph-name="Igrave" unicode="&#xcc;" horiz-adv-x="508" 
d="M166 0v1421h176v-1421h-176zM285 1563l-281 348h178l209 -348h-106z" />
    <glyph glyph-name="Iacute" unicode="&#xcd;" horiz-adv-x="508" 
d="M166 0v1421h176v-1421h-176zM117 1563l209 348h178l-281 -348h-106z" />
    <glyph glyph-name="Icircumflex" unicode="&#xce;" horiz-adv-x="508" 
d="M166 0v1421h176v-1421h-176zM-33 1563l197 348h178l197 -348h-107l-178 244l-180 -244h-107z" />
    <glyph glyph-name="Idieresis" unicode="&#xcf;" horiz-adv-x="508" 
d="M166 0v1421h176v-1421h-176zM334 1626v189h160v-189h-160zM14 1626v189h160v-189h-160z" />
    <glyph glyph-name="Eth" unicode="&#xd0;" horiz-adv-x="1366" 
d="M180 0v694h-162v115h162v612h459q119 0 214 -26.5t165 -79.5q134 -102 204 -256.5t70 -347.5q0 -324 -184.5 -517.5t-493.5 -193.5h-434zM350 147h271q229 0 355 147t126 417t-127 417.5t-361 147.5h-264v-467h357v-115h-357v-547z" />
    <glyph glyph-name="Ntilde" unicode="&#xd1;" horiz-adv-x="1366" 
d="M162 0v1421h229l670 -1171v1171h143v-1421h-174l-727 1266v-1266h-141zM985 1831q-24 -93 -75.5 -142.5t-123.5 -49.5q-20 0 -35.5 2.5t-29.5 7.5l-80 27q-12 4 -25.5 6t-27.5 2q-35 0 -58.5 -15.5t-38.5 -48.5h-88q21 91 71.5 139t125.5 48q19 0 34 -2t27 -7l78 -26
q26 -8 38 -10t23 -2q36 0 60 18t37 53h88z" />
    <glyph glyph-name="Ograve" unicode="&#xd2;" horiz-adv-x="1319" 
d="M659 121q183 0 288.5 158t105.5 434q0 275 -106 433.5t-288 158.5q-183 0 -289 -158.5t-106 -433.5q0 -276 106 -434t289 -158zM659 -27q-262 0 -422.5 202.5t-160.5 537.5q0 334 160.5 535.5t422.5 201.5q263 0 423.5 -201.5t160.5 -535.5q0 -335 -160.5 -537.5
t-423.5 -202.5zM690 1563l-281 348h178l209 -348h-106z" />
    <glyph glyph-name="Oacute" unicode="&#xd3;" horiz-adv-x="1319" 
d="M659 121q183 0 288.5 158t105.5 434q0 275 -106 433.5t-288 158.5q-183 0 -289 -158.5t-106 -433.5q0 -276 106 -434t289 -158zM659 -27q-262 0 -422.5 202.5t-160.5 537.5q0 334 160.5 535.5t422.5 201.5q263 0 423.5 -201.5t160.5 -535.5q0 -335 -160.5 -537.5
t-423.5 -202.5zM522 1563l209 348h178l-281 -348h-106z" />
    <glyph glyph-name="Ocircumflex" unicode="&#xd4;" horiz-adv-x="1319" 
d="M659 121q183 0 288.5 158t105.5 434q0 275 -106 433.5t-288 158.5q-183 0 -289 -158.5t-106 -433.5q0 -276 106 -434t289 -158zM659 -27q-262 0 -422.5 202.5t-160.5 537.5q0 334 160.5 535.5t422.5 201.5q263 0 423.5 -201.5t160.5 -535.5q0 -335 -160.5 -537.5
t-423.5 -202.5zM372 1563l197 348h178l197 -348h-107l-178 244l-180 -244h-107z" />
    <glyph glyph-name="Otilde" unicode="&#xd5;" horiz-adv-x="1319" 
d="M659 121q183 0 288.5 158t105.5 434q0 275 -106 433.5t-288 158.5q-183 0 -289 -158.5t-106 -433.5q0 -276 106 -434t289 -158zM659 -27q-262 0 -422.5 202.5t-160.5 537.5q0 334 160.5 535.5t422.5 201.5q263 0 423.5 -201.5t160.5 -535.5q0 -335 -160.5 -537.5
t-423.5 -202.5zM950 1831q-24 -93 -75.5 -142.5t-123.5 -49.5q-20 0 -35.5 2.5t-29.5 7.5l-80 27q-12 4 -25.5 6t-27.5 2q-35 0 -58.5 -15.5t-38.5 -48.5h-88q21 91 71.5 139t125.5 48q19 0 34 -2t27 -7l78 -26q26 -8 38 -10t23 -2q36 0 60 18t37 53h88z" />
    <glyph glyph-name="Odieresis" unicode="&#xd6;" horiz-adv-x="1319" 
d="M659 121q183 0 288.5 158t105.5 434q0 275 -106 433.5t-288 158.5q-183 0 -289 -158.5t-106 -433.5q0 -276 106 -434t289 -158zM659 -27q-262 0 -422.5 202.5t-160.5 537.5q0 334 160.5 535.5t422.5 201.5q263 0 423.5 -201.5t160.5 -535.5q0 -335 -160.5 -537.5
t-423.5 -202.5zM739 1626v189h160v-189h-160zM419 1626v189h160v-189h-160z" />
    <glyph glyph-name="multiply" unicode="&#xd7;" horiz-adv-x="1706" 
d="M858 692l475 477l82 -82l-475 -477l475 -475l-82 -82l-475 475l-477 -475l-80 82l475 475l-475 477l80 82z" />
    <glyph glyph-name="Oslash" unicode="&#xd8;" horiz-adv-x="1319" 
d="M397 244q48 -60 115.5 -91.5t146.5 -31.5q183 0 288.5 158t105.5 434q0 119 -19.5 215.5t-58.5 169.5zM49 -100l184 276q-78 103 -117.5 238t-39.5 299q0 334 160.5 535.5t422.5 201.5q101 0 189 -31.5t164 -95.5l135 201h119l-185 -273q82 -111 122 -244.5t40 -293.5
q0 -335 -160.5 -537.5t-423.5 -202.5q-106 0 -198.5 34t-159.5 97l-137 -204h-115zM340 328l578 858q-58 60 -121.5 89.5t-137.5 29.5q-183 0 -289 -158.5t-106 -433.5q0 -116 19 -211t57 -174z" />
    <glyph glyph-name="Ugrave" unicode="&#xd9;" horiz-adv-x="1286" 
d="M162 1421h174v-903q0 -206 76 -301.5t239 -95.5q171 0 249.5 94.5t78.5 302.5v903h145v-903q0 -278 -119.5 -412.5t-367.5 -134.5q-244 0 -359.5 133t-115.5 414v903zM686 1563l-281 348h178l209 -348h-106z" />
    <glyph glyph-name="Uacute" unicode="&#xda;" horiz-adv-x="1286" 
d="M162 1421h174v-903q0 -206 76 -301.5t239 -95.5q171 0 249.5 94.5t78.5 302.5v903h145v-903q0 -278 -119.5 -412.5t-367.5 -134.5q-244 0 -359.5 133t-115.5 414v903zM518 1563l209 348h178l-281 -348h-106z" />
    <glyph glyph-name="Ucircumflex" unicode="&#xdb;" horiz-adv-x="1286" 
d="M162 1421h174v-903q0 -206 76 -301.5t239 -95.5q171 0 249.5 94.5t78.5 302.5v903h145v-903q0 -278 -119.5 -412.5t-367.5 -134.5q-244 0 -359.5 133t-115.5 414v903zM368 1563l197 348h178l197 -348h-107l-178 244l-180 -244h-107z" />
    <glyph glyph-name="Udieresis" unicode="&#xdc;" horiz-adv-x="1286" 
d="M162 1421h174v-903q0 -206 76 -301.5t239 -95.5q171 0 249.5 94.5t78.5 302.5v903h145v-903q0 -278 -119.5 -412.5t-367.5 -134.5q-244 0 -359.5 133t-115.5 414v903zM735 1626v189h160v-189h-160zM415 1626v189h160v-189h-160z" />
    <glyph glyph-name="Yacute" unicode="&#xdd;" horiz-adv-x="1042" 
d="M440 0v600l-481 821h186l392 -684l389 684h168l-484 -827v-594h-170zM385 1563l209 348h178l-281 -348h-106z" />
    <glyph glyph-name="Thorn" unicode="&#xde;" horiz-adv-x="1159" 
d="M332 459h280q160 0 241 71t81 211q0 124 -83 197.5t-226 73.5h-293v-553zM332 0h-170v1421h170v-262h307q235 0 360 -112.5t125 -323.5q0 -185 -134 -298.5t-359 -113.5h-299v-311z" />
    <glyph glyph-name="germandbls" unicode="&#xdf;" horiz-adv-x="1186" 
d="M193 -72v881h-111v135h110q5 237 125.5 369.5t331.5 132.5q159 0 262 -84.5t103 -212.5q0 -107 -69.5 -172t-214.5 -94q-39 -8 -96 -12q-70 -6 -71 -29q0 -24 152 -79q45 -16 71 -26q187 -69 275 -164t88 -227q0 -161 -128.5 -269t-324.5 -108q-57 0 -107.5 7t-94.5 22
l36 117q48 -12 89 -17.5t73 -5.5q129 0 209 70t80 182q0 82 -58 137t-261 135l-1 1q-243 94 -243 204q0 36 13.5 66.5t41.5 58.5q188 14 280.5 65.5t92.5 141.5q0 73 -59.5 120.5t-153.5 47.5q-147 0 -217 -98t-70 -305v-990h-153z" />
    <glyph glyph-name="agrave" unicode="&#xe0;" horiz-adv-x="1071" 
d="M817 0q-12 44 -18 94t-6 105q-55 -107 -149.5 -165.5t-213.5 -58.5q-159 0 -259.5 90t-100.5 230q0 179 159.5 269.5t472.5 90.5q37 0 56 -0.5t34 -1.5l1 66q0 119 -65 177t-198 58q-121 0 -190 -44.5t-90 -137.5l-150 23q33 142 148 214t309 72q203 0 296 -99.5
t93 -315.5v-451q0 -70 7 -121t22 -94h-158zM793 532q-23 3 -48.5 4t-74.5 1q-211 0 -319.5 -61t-108.5 -179q0 -88 59 -139.5t160 -51.5q138 0 235 108.5t97 262.5v55zM568 1192l-281 348h178l209 -348h-106z" />
    <glyph glyph-name="aacute" unicode="&#xe1;" horiz-adv-x="1071" 
d="M817 0q-12 44 -18 94t-6 105q-55 -107 -149.5 -165.5t-213.5 -58.5q-159 0 -259.5 90t-100.5 230q0 179 159.5 269.5t472.5 90.5q37 0 56 -0.5t34 -1.5l1 66q0 119 -65 177t-198 58q-121 0 -190 -44.5t-90 -137.5l-150 23q33 142 148 214t309 72q203 0 296 -99.5
t93 -315.5v-451q0 -70 7 -121t22 -94h-158zM793 532q-23 3 -48.5 4t-74.5 1q-211 0 -319.5 -61t-108.5 -179q0 -88 59 -139.5t160 -51.5q138 0 235 108.5t97 262.5v55zM400 1192l209 348h178l-281 -348h-106z" />
    <glyph glyph-name="acircumflex" unicode="&#xe2;" horiz-adv-x="1071" 
d="M817 0q-12 44 -18 94t-6 105q-55 -107 -149.5 -165.5t-213.5 -58.5q-159 0 -259.5 90t-100.5 230q0 179 159.5 269.5t472.5 90.5q37 0 56 -0.5t34 -1.5l1 66q0 119 -65 177t-198 58q-121 0 -190 -44.5t-90 -137.5l-150 23q33 142 148 214t309 72q203 0 296 -99.5
t93 -315.5v-451q0 -70 7 -121t22 -94h-158zM793 532q-23 3 -48.5 4t-74.5 1q-211 0 -319.5 -61t-108.5 -179q0 -88 59 -139.5t160 -51.5q138 0 235 108.5t97 262.5v55zM250 1192l197 348h178l197 -348h-107l-178 244l-180 -244h-107z" />
    <glyph glyph-name="atilde" unicode="&#xe3;" horiz-adv-x="1071" 
d="M817 0q-12 44 -18 94t-6 105q-55 -107 -149.5 -165.5t-213.5 -58.5q-159 0 -259.5 90t-100.5 230q0 179 159.5 269.5t472.5 90.5q37 0 56 -0.5t34 -1.5l1 66q0 119 -65 177t-198 58q-121 0 -190 -44.5t-90 -137.5l-150 23q33 142 148 214t309 72q203 0 296 -99.5
t93 -315.5v-451q0 -70 7 -121t22 -94h-158zM793 532q-23 3 -48.5 4t-74.5 1q-211 0 -319.5 -61t-108.5 -179q0 -88 59 -139.5t160 -51.5q138 0 235 108.5t97 262.5v55zM828 1460q-24 -93 -75.5 -142.5t-123.5 -49.5q-20 0 -35.5 2.5t-29.5 7.5l-80 27q-12 4 -25.5 6t-27.5 2
q-35 0 -58.5 -15.5t-38.5 -48.5h-88q21 91 71.5 139t125.5 48q19 0 34 -2t27 -7l78 -26q26 -8 38 -10t23 -2q36 0 60 18t37 53h88z" />
    <glyph glyph-name="adieresis" unicode="&#xe4;" horiz-adv-x="1071" 
d="M817 0q-12 44 -18 94t-6 105q-55 -107 -149.5 -165.5t-213.5 -58.5q-159 0 -259.5 90t-100.5 230q0 179 159.5 269.5t472.5 90.5q37 0 56 -0.5t34 -1.5l1 66q0 119 -65 177t-198 58q-121 0 -190 -44.5t-90 -137.5l-150 23q33 142 148 214t309 72q203 0 296 -99.5
t93 -315.5v-451q0 -70 7 -121t22 -94h-158zM793 532q-23 3 -48.5 4t-74.5 1q-211 0 -319.5 -61t-108.5 -179q0 -88 59 -139.5t160 -51.5q138 0 235 108.5t97 262.5v55zM617 1255v189h160v-189h-160zM297 1255v189h160v-189h-160z" />
    <glyph glyph-name="aring" unicode="&#xe5;" horiz-adv-x="1071" 
d="M395 1395q0 -61 41 -102.5t101 -41.5q59 0 101 42t42 102t-42 101.5t-101 41.5q-60 0 -101 -41.5t-41 -101.5zM289 1395q0 104 71.5 175.5t176.5 71.5q104 0 175.5 -71.5t71.5 -175.5q0 -105 -71.5 -176.5t-175.5 -71.5q-105 0 -176.5 71.5t-71.5 176.5zM817 0
q-12 44 -18 94t-6 105q-55 -107 -149.5 -165.5t-213.5 -58.5q-159 0 -259.5 90t-100.5 230q0 179 159.5 269.5t472.5 90.5q37 0 56 -0.5t34 -1.5l1 66q0 119 -65 177t-198 58q-121 0 -190 -44.5t-90 -137.5l-150 23q33 142 148 214t309 72q203 0 296 -99.5t93 -315.5v-451
q0 -70 7 -121t22 -94h-158zM793 532q-23 3 -48.5 4t-74.5 1q-211 0 -319.5 -61t-108.5 -179q0 -88 59 -139.5t160 -51.5q138 0 235 108.5t97 262.5v55z" />
    <glyph glyph-name="ae" unicode="&#xe6;" horiz-adv-x="1765" 
d="M942 629h588q-8 159 -83.5 242t-211.5 83q-119 0 -197.5 -87t-95.5 -238zM793 532q-23 3 -48.5 4t-74.5 1q-211 0 -319.5 -61t-108.5 -179q0 -88 59 -139.5t160 -51.5q138 0 235 108t97 263v55zM827 246q-73 -139 -170.5 -206t-226.5 -67q-159 0 -259.5 90t-100.5 230
q0 173 150 269.5t421 96.5q21 0 72.5 -2.5t79.5 -3.5v66q0 119 -65 177t-198 58q-121 0 -190 -44.5t-90 -137.5l-150 23q33 142 148 214t309 72q117 0 203.5 -39.5t136.5 -115.5q68 78 151.5 116.5t186.5 38.5q215 0 340 -146t125 -398v-23h-760v-14q0 -188 80.5 -292
t224.5 -104q102 0 176.5 53t114.5 152l147 -26q-54 -150 -167 -230t-269 -80q-150 0 -257 69.5t-163 203.5z" />
    <glyph glyph-name="ccedilla" unicode="&#xe7;" horiz-adv-x="981" 
d="M770 684q-15 121 -82.5 193.5t-163.5 72.5q-128 0 -207 -115.5t-79 -308.5q0 -192 77 -306t205 -114q97 0 164.5 68t91.5 191l142 -27q-31 -175 -136.5 -271t-267.5 -96q-202 0 -324 151.5t-122 403.5q0 251 129.5 403t341.5 152q153 0 253 -99t126 -275zM279 -422v86
q84 -18 144.5 -26.5t101.5 -8.5q60 0 90.5 20.5t30.5 61.5q0 52 -32.5 75.5t-105.5 23.5q-21 0 -32 -0.5t-21 -1.5v192h74v-106h22q112 0 169 -45t57 -132q0 -89 -63.5 -135.5t-186.5 -46.5q-42 0 -102.5 10.5t-145.5 32.5z" />
    <glyph glyph-name="egrave" unicode="&#xe8;" horiz-adv-x="1071" 
d="M989 283q-55 -152 -170.5 -232t-279.5 -80q-215 0 -343 151t-128 404q0 249 130 402t341 153q214 0 339.5 -146.5t125.5 -397.5v-23h-766v-6q0 -189 83.5 -296.5t229.5 -107.5q98 0 173.5 53.5t115.5 151.5zM240 629h594q-7 151 -82.5 236t-204.5 85t-208 -82.5
t-99 -238.5zM584 1192l-281 348h178l209 -348h-106z" />
    <glyph glyph-name="eacute" unicode="&#xe9;" horiz-adv-x="1071" 
d="M989 283q-55 -152 -170.5 -232t-279.5 -80q-215 0 -343 151t-128 404q0 249 130 402t341 153q214 0 339.5 -146.5t125.5 -397.5v-23h-766v-6q0 -189 83.5 -296.5t229.5 -107.5q98 0 173.5 53.5t115.5 151.5zM240 629h594q-7 151 -82.5 236t-204.5 85t-208 -82.5
t-99 -238.5zM416 1192l209 348h178l-281 -348h-106z" />
    <glyph glyph-name="ecircumflex" unicode="&#xea;" horiz-adv-x="1071" 
d="M989 283q-55 -152 -170.5 -232t-279.5 -80q-215 0 -343 151t-128 404q0 249 130 402t341 153q214 0 339.5 -146.5t125.5 -397.5v-23h-766v-6q0 -189 83.5 -296.5t229.5 -107.5q98 0 173.5 53.5t115.5 151.5zM240 629h594q-7 151 -82.5 236t-204.5 85t-208 -82.5
t-99 -238.5zM266 1192l197 348h178l197 -348h-107l-178 244l-180 -244h-107z" />
    <glyph glyph-name="edieresis" unicode="&#xeb;" horiz-adv-x="1071" 
d="M989 283q-55 -152 -170.5 -232t-279.5 -80q-215 0 -343 151t-128 404q0 249 130 402t341 153q214 0 339.5 -146.5t125.5 -397.5v-23h-766v-6q0 -189 83.5 -296.5t229.5 -107.5q98 0 173.5 53.5t115.5 151.5zM240 629h594q-7 151 -82.5 236t-204.5 85t-208 -82.5
t-99 -238.5zM633 1255v189h160v-189h-160zM313 1255v189h160v-189h-160z" />
    <glyph glyph-name="igrave" unicode="&#xec;" horiz-adv-x="451" 
d="M147 0v1053h156v-1053h-156zM256 1192l-281 348h178l209 -348h-106z" />
    <glyph glyph-name="iacute" unicode="&#xed;" horiz-adv-x="451" 
d="M147 0v1053h156v-1053h-156zM88 1192l209 348h178l-281 -348h-106z" />
    <glyph glyph-name="icircumflex" unicode="&#xee;" horiz-adv-x="451" 
d="M147 0v1053h156v-1053h-156zM-62 1192l197 348h178l197 -348h-107l-178 244l-180 -244h-107z" />
    <glyph glyph-name="idieresis" unicode="&#xef;" horiz-adv-x="451" 
d="M147 0v1053h156v-1053h-156zM305 1255v189h160v-189h-160zM-15 1255v189h160v-189h-160z" />
    <glyph glyph-name="eth" unicode="&#xf0;" horiz-adv-x="1081" 
d="M715 993q-37 61 -79 113.5t-91 99.5l-271 -149l-43 80l244 135q-21 20 -41 38.5t-39 35.5l94 106l16 -12q77 -63 109 -92l189 104l43 -80l-162 -88q165 -180 246.5 -373t81.5 -403q0 -244 -129.5 -390.5t-343.5 -146.5q-213 0 -342 147.5t-129 389.5q0 240 128.5 388
t333.5 148q50 0 95 -12.5t90 -38.5zM539 102q138 0 220.5 110t82.5 296q0 188 -82 297.5t-221 109.5q-141 0 -221 -108.5t-80 -298.5q0 -189 80.5 -297.5t220.5 -108.5z" />
    <glyph glyph-name="ntilde" unicode="&#xf1;" horiz-adv-x="1100" 
d="M141 0v1053h144v-195q64 114 147.5 168.5t192.5 54.5q168 0 255 -105.5t87 -309.5v-666h-152v680q0 129 -56.5 199.5t-160.5 70.5q-130 0 -216.5 -104.5t-86.5 -263.5v-582h-154zM852 1460q-24 -93 -75.5 -142.5t-123.5 -49.5q-20 0 -35.5 2.5t-29.5 7.5l-80 27
q-12 4 -25.5 6t-27.5 2q-35 0 -58.5 -15.5t-38.5 -48.5h-88q21 91 71.5 139t125.5 48q19 0 34 -2t27 -7l78 -26q26 -8 38 -10t23 -2q36 0 60 18t37 53h88z" />
    <glyph glyph-name="ograve" unicode="&#xf2;" horiz-adv-x="1081" 
d="M539 102q138 0 220.5 115t82.5 309q0 197 -82 310.5t-221 113.5q-141 0 -221 -113t-80 -311q0 -196 81 -310t220 -114zM539 -29q-212 0 -341.5 152.5t-129.5 402.5q0 252 129.5 403.5t341.5 151.5q214 0 344.5 -152t130.5 -403q0 -250 -131 -402.5t-344 -152.5zM572 1192
l-281 348h178l209 -348h-106z" />
    <glyph glyph-name="oacute" unicode="&#xf3;" horiz-adv-x="1081" 
d="M539 102q138 0 220.5 115t82.5 309q0 197 -82 310.5t-221 113.5q-141 0 -221 -113t-80 -311q0 -196 81 -310t220 -114zM539 -29q-212 0 -341.5 152.5t-129.5 402.5q0 252 129.5 403.5t341.5 151.5q214 0 344.5 -152t130.5 -403q0 -250 -131 -402.5t-344 -152.5zM404 1192
l209 348h178l-281 -348h-106z" />
    <glyph glyph-name="ocircumflex" unicode="&#xf4;" horiz-adv-x="1081" 
d="M539 102q138 0 220.5 115t82.5 309q0 197 -82 310.5t-221 113.5q-141 0 -221 -113t-80 -311q0 -196 81 -310t220 -114zM539 -29q-212 0 -341.5 152.5t-129.5 402.5q0 252 129.5 403.5t341.5 151.5q214 0 344.5 -152t130.5 -403q0 -250 -131 -402.5t-344 -152.5zM254 1192
l197 348h178l197 -348h-107l-178 244l-180 -244h-107z" />
    <glyph glyph-name="otilde" unicode="&#xf5;" horiz-adv-x="1081" 
d="M539 102q138 0 220.5 115t82.5 309q0 197 -82 310.5t-221 113.5q-141 0 -221 -113t-80 -311q0 -196 81 -310t220 -114zM539 -29q-212 0 -341.5 152.5t-129.5 402.5q0 252 129.5 403.5t341.5 151.5q214 0 344.5 -152t130.5 -403q0 -250 -131 -402.5t-344 -152.5zM832 1460
q-24 -93 -75.5 -142.5t-123.5 -49.5q-20 0 -35.5 2.5t-29.5 7.5l-80 27q-12 4 -25.5 6t-27.5 2q-35 0 -58.5 -15.5t-38.5 -48.5h-88q21 91 71.5 139t125.5 48q19 0 34 -2t27 -7l78 -26q26 -8 38 -10t23 -2q36 0 60 18t37 53h88z" />
    <glyph glyph-name="odieresis" unicode="&#xf6;" horiz-adv-x="1081" 
d="M539 102q138 0 220.5 115t82.5 309q0 197 -82 310.5t-221 113.5q-141 0 -221 -113t-80 -311q0 -196 81 -310t220 -114zM539 -29q-212 0 -341.5 152.5t-129.5 402.5q0 252 129.5 403.5t341.5 151.5q214 0 344.5 -152t130.5 -403q0 -250 -131 -402.5t-344 -152.5zM621 1255
v189h160v-189h-160zM301 1255v189h160v-189h-160z" />
    <glyph glyph-name="divide" unicode="&#xf7;" horiz-adv-x="1706" 
d="M854 365q47 0 81 -34t34 -81t-33.5 -81t-81.5 -34t-81.5 33.5t-33.5 81.5t34 81.5t81 33.5zM1452 670v-117h-1198v117h1198zM854 1085q48 0 81.5 -33.5t33.5 -80.5q0 -48 -33.5 -81.5t-81.5 -33.5q-49 0 -82 33.5t-33 81.5q0 47 34 80.5t81 33.5z" />
    <glyph glyph-name="oslash" unicode="&#xf8;" horiz-adv-x="1081" 
d="M315 219l390 676q-34 28 -75.5 41.5t-90.5 13.5q-141 0 -221 -113t-80 -311q0 -96 19 -172t58 -135zM375 158q36 -28 76.5 -42t87.5 -14q138 0 220.5 115t82.5 309q0 97 -19.5 172.5t-58.5 132.5zM98 -141l138 223q-84 84 -126 195.5t-42 250.5q0 249 130 401t341 152
q68 0 127 -15t108 -46l100 176h101l-131 -227q86 -84 128 -192.5t42 -250.5q0 -250 -130.5 -402.5t-344.5 -152.5q-66 0 -123.5 15.5t-110.5 46.5l-106 -174h-101z" />
    <glyph glyph-name="ugrave" unicode="&#xf9;" horiz-adv-x="1100" 
d="M958 1053v-1053h-143v195q-64 -114 -147.5 -169t-192.5 -55q-168 0 -255 106t-87 310v666h152v-680q0 -130 56 -200.5t161 -70.5q130 0 217.5 104.5t87.5 264.5v582h151zM584 1192l-281 348h178l209 -348h-106z" />
    <glyph glyph-name="uacute" unicode="&#xfa;" horiz-adv-x="1100" 
d="M958 1053v-1053h-143v195q-64 -114 -147.5 -169t-192.5 -55q-168 0 -255 106t-87 310v666h152v-680q0 -130 56 -200.5t161 -70.5q130 0 217.5 104.5t87.5 264.5v582h151zM416 1192l209 348h178l-281 -348h-106z" />
    <glyph glyph-name="ucircumflex" unicode="&#xfb;" horiz-adv-x="1100" 
d="M958 1053v-1053h-143v195q-64 -114 -147.5 -169t-192.5 -55q-168 0 -255 106t-87 310v666h152v-680q0 -130 56 -200.5t161 -70.5q130 0 217.5 104.5t87.5 264.5v582h151zM266 1192l197 348h178l197 -348h-107l-178 244l-180 -244h-107z" />
    <glyph glyph-name="udieresis" unicode="&#xfc;" horiz-adv-x="1100" 
d="M958 1053v-1053h-143v195q-64 -114 -147.5 -169t-192.5 -55q-168 0 -255 106t-87 310v666h152v-680q0 -130 56 -200.5t161 -70.5q130 0 217.5 104.5t87.5 264.5v582h151zM633 1255v189h160v-189h-160zM313 1255v189h160v-189h-160z" />
    <glyph glyph-name="yacute" unicode="&#xfd;" horiz-adv-x="862" 
d="M4 -376v136q42 -8 70.5 -12t50.5 -4q94 0 148.5 58.5t95.5 205.5l-375 1045h158l294 -846l299 846h138l-412 -1139q-62 -172 -139 -238.5t-209 -66.5q-32 0 -61 3.5t-58 11.5zM295 1192l209 348h178l-281 -348h-106z" />
    <glyph glyph-name="thorn" unicode="&#xfe;" horiz-adv-x="1085" 
d="M295 442q0 -149 73.5 -238t194.5 -89q131 0 206 110.5t75 304.5q0 192 -73.5 302t-201.5 110q-115 0 -194.5 -92.5t-79.5 -231.5v-176zM141 -365v1786h154v-551q55 104 134.5 157.5t178.5 53.5q178 0 292 -152t114 -394q0 -248 -116.5 -401.5t-299.5 -153.5
q-93 0 -171.5 48.5t-131.5 139.5v-533h-154z" />
    <glyph glyph-name="ydieresis" unicode="&#xff;" horiz-adv-x="862" 
d="M4 -376v136q42 -8 70.5 -12t50.5 -4q94 0 148.5 58.5t95.5 205.5l-375 1045h158l294 -846l299 846h138l-412 -1139q-62 -172 -139 -238.5t-209 -66.5q-32 0 -61 3.5t-58 11.5zM512 1255v189h160v-189h-160zM192 1255v189h160v-189h-160z" />
    <glyph glyph-name="Cacute" unicode="&#x106;" horiz-adv-x="1231" 
d="M1012 961q-34 166 -125 255t-228 89q-182 0 -288.5 -159t-106.5 -433q0 -276 106 -434t289 -158q137 0 228 88.5t133 261.5l158 -35q-51 -227 -183.5 -345t-335.5 -118q-270 0 -426.5 198t-156.5 542q0 179 48.5 321.5t145.5 247.5q76 82 176 125t213 43
q203 0 333.5 -115.5t181.5 -341.5zM514 1563l209 348h178l-281 -348h-106z" />
    <glyph glyph-name="cacute" unicode="&#x107;" horiz-adv-x="981" 
d="M770 684q-15 121 -82.5 193.5t-163.5 72.5q-128 0 -207 -115.5t-79 -308.5q0 -192 77 -306t205 -114q97 0 164.5 68t91.5 191l142 -27q-31 -175 -136.5 -271t-267.5 -96q-202 0 -324 151.5t-122 403.5q0 251 129.5 403t341.5 152q153 0 253 -99t126 -275zM381 1192
l209 348h178l-281 -348h-106z" />
    <glyph glyph-name="Ccaron" unicode="&#x10c;" horiz-adv-x="1231" 
d="M1012 961q-34 166 -125 255t-228 89q-182 0 -288.5 -159t-106.5 -433q0 -276 106 -434t289 -158q137 0 228 88.5t133 261.5l158 -35q-51 -227 -183.5 -345t-335.5 -118q-270 0 -426.5 198t-156.5 542q0 179 48.5 321.5t145.5 247.5q76 82 176 125t213 43
q203 0 333.5 -115.5t181.5 -341.5zM364 1911h107l180 -242l178 242h107l-197 -348h-178z" />
    <glyph glyph-name="ccaron" unicode="&#x10d;" horiz-adv-x="981" 
d="M770 684q-15 121 -82.5 193.5t-163.5 72.5q-128 0 -207 -115.5t-79 -308.5q0 -192 77 -306t205 -114q97 0 164.5 68t91.5 191l142 -27q-31 -175 -136.5 -271t-267.5 -96q-202 0 -324 151.5t-122 403.5q0 251 129.5 403t341.5 152q153 0 253 -99t126 -275zM231 1540h107
l180 -242l178 242h107l-197 -348h-178z" />
    <glyph glyph-name="dcroat" unicode="&#x111;" horiz-adv-x="1104" 
d="M942 1421v-133h143v-104h-143v-1184h-141v209q-53 -114 -136.5 -174t-189.5 -60q-176 0 -290.5 152t-114.5 393q0 248 117 402.5t298 154.5q95 0 173.5 -48.5t132.5 -139.5v295h-316v104h316v133h151zM791 614q0 151 -75.5 239.5t-201.5 88.5q-124 0 -198 -112t-74 -304
t73.5 -301.5t200.5 -109.5q117 0 196 95t79 243v161z" />
    <glyph glyph-name="Gbreve" unicode="&#x11e;" horiz-adv-x="1313" 
d="M1096 -14l-49 170q-59 -88 -159 -135.5t-229 -47.5q-271 0 -427 198t-156 544q0 178 49 320.5t145 246.5q75 81 176 124.5t213 43.5q200 0 336.5 -105.5t196.5 -306.5l-166 -41q-48 151 -141.5 229.5t-225.5 78.5q-181 0 -288 -158.5t-107 -431.5q0 -283 108 -438.5
t302 -155.5q162 0 261 96t99 254v94h-366v148h538v-727h-110zM375 1872h89q7 -76 52.5 -110.5t140.5 -34.5t140.5 34.5t52.5 110.5h89q-9 -140 -77 -205t-205 -65t-205 65t-77 205z" />
    <glyph glyph-name="gbreve" unicode="&#x11f;" horiz-adv-x="1004" 
d="M309 47q-58 -27 -84 -61.5t-26 -83.5q0 -89 88.5 -132.5t267.5 -43.5q168 0 255 42t87 123q0 67 -55 99t-183 39zM522 954q-105 0 -170 -65.5t-65 -171.5q0 -107 64.5 -171.5t170.5 -64.5q107 0 171.5 64.5t64.5 171.5q0 106 -65 171.5t-171 65.5zM268 444
q-69 48 -105 115t-36 150q0 156 111 261t278 105q62 0 118 -14t109 -43q14 90 70.5 136t153.5 46q17 0 58 -3q5 -1 7 -1v-117h-53q-69 0 -108.5 -30.5t-49.5 -91.5q48 -59 71 -119.5t23 -124.5q0 -157 -109.5 -252.5t-291.5 -95.5q-43 0 -81.5 6.5t-74.5 19.5
q-53 -15 -80.5 -40.5t-27.5 -59.5q0 -51 35 -79.5t101 -31.5l320 -16q171 -9 260 -75t89 -185q0 -142 -136 -219.5t-387 -77.5q-235 0 -362 71.5t-127 202.5q0 77 45.5 133t128.5 80q-58 29 -85.5 70t-27.5 98q0 63 40.5 108t123.5 74zM220 1501h89q7 -76 52.5 -110.5
t140.5 -34.5t140.5 34.5t52.5 110.5h89q-9 -140 -77 -205t-205 -65t-205 65t-77 205z" />
    <glyph glyph-name="Idotaccent" unicode="&#x130;" horiz-adv-x="508" 
d="M166 0v1421h176v-1421h-176zM166 1618v207h176v-207h-176z" />
    <glyph glyph-name="dotlessi" unicode="&#x131;" horiz-adv-x="451" 
d="M147 0v1053h156v-1053h-156z" />
    <glyph glyph-name="Lslash" unicode="&#x141;" horiz-adv-x="973" 
d="M180 0v614l-162 -114v137l162 113v671h176v-571l322 229v-139l-322 -229v-555h650v-156h-826z" />
    <glyph glyph-name="lslash" unicode="&#x142;" horiz-adv-x="487" 
d="M166 0v621l-148 -103v123l148 102v678h156v-592l147 103v-125l-147 -102v-705h-156z" />
    <glyph glyph-name="OE" unicode="&#x152;" horiz-adv-x="2001" 
d="M1059 395v672q-53 121 -144.5 182.5t-218.5 61.5q-207 0 -319.5 -155t-112.5 -443q0 -279 108.5 -435.5t299.5 -156.5q128 0 228.5 71.5t158.5 202.5zM1059 0v147q-76 -85 -178 -129.5t-222 -44.5q-263 0 -423 202t-160 538q0 344 162.5 541.5t445.5 197.5
q122 0 217.5 -37.5t157.5 -109.5v116h897v-141h-731v-461h575v-137h-575v-535h747v-147h-913z" />
    <glyph glyph-name="oe" unicode="&#x153;" horiz-adv-x="1835" 
d="M1004 629h593q-6 151 -82.5 236t-205.5 85t-207.5 -82.5t-97.5 -238.5zM238 526q0 -196 81 -310t220 -114q138 0 220.5 115t82.5 309q0 197 -82 310.5t-221 113.5q-141 0 -221 -113t-80 -311zM920 174q-73 -103 -166.5 -153t-214.5 -50q-212 0 -341.5 152.5t-129.5 402.5
q0 252 129.5 403.5t341.5 151.5q119 0 215 -49.5t168 -148.5q68 99 162.5 148.5t213.5 49.5q217 0 343 -146t126 -398v-23h-768v-12q0 -189 82 -294.5t228 -105.5q102 0 177 53.5t116 153.5l149 -26q-57 -154 -171.5 -233t-281.5 -79q-124 0 -218 50.5t-160 152.5z" />
    <glyph glyph-name="Scedilla" unicode="&#x15e;" horiz-adv-x="1237" 
d="M51 389l170 33q43 -145 148 -223t258 -78q145 0 240.5 70.5t95.5 175.5t-67 164t-291 118q-19 5 -54 13q-228 56 -328 147q-49 45 -75.5 106t-26.5 129q0 179 132.5 293.5t342.5 114.5q197 0 330 -91.5t190 -266.5l-166 -39q-37 121 -128 185.5t-226 64.5
q-133 0 -214 -65.5t-81 -170.5q0 -48 21 -88t59 -66q72 -47 242 -91q43 -11 65 -17q259 -74 358 -168.5t99 -253.5q0 -184 -141.5 -298t-372.5 -114q-222 0 -371 107t-209 309zM405 -422v86q84 -18 144.5 -26.5t101.5 -8.5q60 0 90.5 20.5t30.5 61.5q0 52 -32.5 75.5
t-105.5 23.5q-21 0 -32 -0.5t-21 -1.5v192h74v-106h22q112 0 169 -45t57 -132q0 -89 -63.5 -135.5t-186.5 -46.5q-42 0 -102.5 10.5t-145.5 32.5z" />
    <glyph glyph-name="scedilla" unicode="&#x15f;" horiz-adv-x="930" 
d="M43 274l141 29q32 -96 110.5 -149.5t188.5 -53.5q107 0 172.5 49.5t65.5 129.5q0 116 -249 175q-35 8 -54 13q-191 46 -263.5 112.5t-72.5 186.5q0 138 105 226.5t272 88.5q146 0 244 -68.5t137 -197.5l-146 -31q-24 82 -85.5 124t-155.5 42q-99 0 -156 -44.5t-57 -121.5
q0 -110 230 -162q59 -14 91 -22q173 -43 248.5 -114t75.5 -187q0 -144 -112 -236t-290 -92q-172 0 -287.5 79.5t-152.5 223.5zM252 -422v86q84 -18 144.5 -26.5t101.5 -8.5q60 0 90.5 20.5t30.5 61.5q0 52 -32.5 75.5t-105.5 23.5q-21 0 -32 -0.5t-21 -1.5v192h74v-106h22
q112 0 169 -45t57 -132q0 -89 -63.5 -135.5t-186.5 -46.5q-42 0 -102.5 10.5t-145.5 32.5z" />
    <glyph glyph-name="Scaron" unicode="&#x160;" horiz-adv-x="1237" 
d="M51 389l170 33q43 -145 148 -223t258 -78q145 0 240.5 70.5t95.5 175.5t-67 164t-291 118q-19 5 -54 13q-228 56 -328 147q-49 45 -75.5 106t-26.5 129q0 179 132.5 293.5t342.5 114.5q197 0 330 -91.5t190 -266.5l-166 -39q-37 121 -128 185.5t-226 64.5
q-133 0 -214 -65.5t-81 -170.5q0 -48 21 -88t59 -66q72 -47 242 -91q43 -11 65 -17q259 -74 358 -168.5t99 -253.5q0 -184 -141.5 -298t-372.5 -114q-222 0 -371 107t-209 309zM331 1911h107l180 -242l178 242h107l-197 -348h-178z" />
    <glyph glyph-name="scaron" unicode="&#x161;" horiz-adv-x="930" 
d="M43 274l141 29q32 -96 110.5 -149.5t188.5 -53.5q107 0 172.5 49.5t65.5 129.5q0 116 -249 175q-35 8 -54 13q-191 46 -263.5 112.5t-72.5 186.5q0 138 105 226.5t272 88.5q146 0 244 -68.5t137 -197.5l-146 -31q-24 82 -85.5 124t-155.5 42q-99 0 -156 -44.5t-57 -121.5
q0 -110 230 -162q59 -14 91 -22q173 -43 248.5 -114t75.5 -187q0 -144 -112 -236t-290 -92q-172 0 -287.5 79.5t-152.5 223.5zM178 1540h107l180 -242l178 242h107l-197 -348h-178z" />
    <glyph glyph-name="Ydieresis" unicode="&#x178;" horiz-adv-x="1042" 
d="M440 0v600l-481 821h186l392 -684l389 684h168l-484 -827v-594h-170zM602 1626v189h160v-189h-160zM282 1626v189h160v-189h-160z" />
    <glyph glyph-name="Zcaron" unicode="&#x17d;" horiz-adv-x="1053" 
d="M31 0v147l784 1137h-747v137h950v-121l-799 -1153h819v-147h-1007zM239 1911h107l180 -242l178 242h107l-197 -348h-178z" />
    <glyph glyph-name="zcaron" unicode="&#x17e;" horiz-adv-x="782" 
d="M18 0v133l547 787h-514v133h721v-86l-575 -834h589v-133h-768zM104 1540h107l180 -242l178 242h107l-197 -348h-178z" />
    <glyph glyph-name="florin" unicode="&#x192;" horiz-adv-x="1223" 
d="M705 948h243l-20 -123h-244l-129 -727q-35 -199 -136.5 -297t-271.5 -98q-23 0 -53 3t-78 11l21 123q26 -4 52.5 -6t53.5 -2q106 0 171 67t87 199l127 727h-186l23 123h186l18 105q37 199 138.5 297t271.5 98q24 0 53.5 -3t77.5 -11l-23 -123q-26 4 -52 6t-54 2
q-106 0 -169.5 -66t-88.5 -200z" />
    <glyph glyph-name="circumflex" unicode="&#x2c6;" 
d="M225 1192l197 348h178l197 -348h-107l-178 244l-180 -244h-107z" />
    <glyph glyph-name="caron" unicode="&#x2c7;" 
d="M225 1540h107l180 -242l178 242h107l-197 -348h-178z" />
    <glyph glyph-name="breve" unicode="&#x2d8;" 
d="M230 1501h89q7 -76 52.5 -110.5t140.5 -34.5t140.5 34.5t52.5 110.5h89q-9 -140 -77 -205t-205 -65t-205 65t-77 205z" />
    <glyph glyph-name="dotaccent" unicode="&#x2d9;" 
d="M424 1247v207h176v-207h-176z" />
    <glyph glyph-name="ring" unicode="&#x2da;" 
d="M371 1421q0 -60 40.5 -101.5t100.5 -41.5t101.5 41.5t41.5 101.5t-41.5 101t-101.5 41t-100.5 -41t-40.5 -101zM264 1421q0 105 72 176.5t176 71.5t176 -71.5t72 -176.5q0 -104 -72 -175.5t-176 -71.5t-176 71.5t-72 175.5z" />
    <glyph glyph-name="ogonek" unicode="&#x2db;" 
d="M592 0q-70 -64 -103.5 -118.5t-33.5 -104.5q0 -45 22 -63.5t74 -18.5h82v-129h-80q-113 0 -167 40t-54 124q0 67 41.5 128t144.5 142h74z" />
    <glyph glyph-name="tilde" unicode="&#x2dc;" 
d="M803 1460q-24 -93 -75.5 -142.5t-123.5 -49.5q-20 0 -35.5 2.5t-29.5 7.5l-80 27q-12 4 -25.5 6t-27.5 2q-35 0 -58.5 -15.5t-38.5 -48.5h-88q21 91 71.5 139t125.5 48q19 0 34 -2t27 -7l78 -26q26 -8 38 -10t23 -2q36 0 60 18t37 53h88z" />
    <glyph glyph-name="hungarumlaut" unicode="&#x2dd;" 
d="M580 1192l168 348h155l-239 -348h-84zM322 1192l147 348h158l-221 -348h-84z" />
    <glyph glyph-name="Omega" unicode="&#x3a9;" horiz-adv-x="1573" 
d="M1473 156v-156h-590v150q193 111 296 279t103 374q0 251 -137 405t-359 154q-221 0 -359 -155t-138 -404q0 -205 103 -373.5t298 -279.5v-150h-590v156h332q-164 133 -242.5 285t-78.5 335q0 329 188.5 533t486.5 204q299 0 487.5 -202.5t188.5 -530.5
q0 -186 -78.5 -338.5t-242.5 -285.5h332z" />
    <glyph glyph-name="pi" unicode="&#x3c0;" horiz-adv-x="1186" 
d="M1139 930h-185l-110 -516q-14 -66 -21.5 -114.5t-7.5 -74.5q0 -57 24 -81.5t81 -24.5q21 0 46 2.5t52 7.5l-29 -129l-5 -1q-64 -15 -99 -15q-110 0 -168 51.5t-58 150.5q0 48 11.5 121t44.5 230l84 393h-348l-197 -930h-158l197 930h-39q-55 0 -84.5 -31t-40.5 -100h-145
q26 153 94 211.5t223 58.5h866z" />
    <glyph glyph-name="endash" unicode="&#x2013;" 
d="M0 489v99h1024v-99h-1024z" />
    <glyph glyph-name="emdash" unicode="&#x2014;" horiz-adv-x="2048" 
d="M0 489v99h2048v-99h-2048z" />
    <glyph glyph-name="quoteleft" unicode="&#x2018;" horiz-adv-x="522" 
d="M375 1202v-217h-211v195l141 270h86l-117 -248h101z" />
    <glyph glyph-name="quoteright" unicode="&#x2019;" horiz-adv-x="522" 
d="M180 1204v217h211v-192l-141 -273h-86l117 248h-101z" />
    <glyph glyph-name="quotesinglbase" unicode="&#x201a;" horiz-adv-x="522" 
d="M164 -8v217h211v-195l-142 -270h-86l115 248h-98z" />
    <glyph glyph-name="quotedblleft" unicode="&#x201c;" horiz-adv-x="854" 
d="M707 1202v-217h-211v195l141 270h86l-115 -248h99zM375 1202v-217h-211v195l141 270h86l-117 -248h101z" />
    <glyph glyph-name="quotedblright" unicode="&#x201d;" horiz-adv-x="854" 
d="M512 1204v217h211v-192l-141 -273h-86l116 248h-100zM180 1204v217h211v-192l-141 -273h-86l117 248h-101z" />
    <glyph glyph-name="quotedblbase" unicode="&#x201e;" horiz-adv-x="854" 
d="M496 -8v217h211v-195l-142 -270h-86l117 248h-100zM164 -8v217h211v-195l-142 -270h-86l115 248h-98z" />
    <glyph glyph-name="dagger" unicode="&#x2020;" 
d="M475 -284q-3 279 -17.5 491.5t-41.5 365.5q19 88 33 177t24 182l-326 -51v176l328 -51l-55 415h182l-53 -415l328 51v-176l-330 51q10 -88 23.5 -173.5t33.5 -185.5q-23 -109 -37 -315.5t-20 -542.5z" />
    <glyph glyph-name="daggerdbl" unicode="&#x2021;" 
d="M418 580q20 91 33.5 178.5t21.5 173.5l-326 -51v176l328 -51l-55 415h184l-55 -415l328 51v-176l-330 51q8 -84 22 -170.5t35 -181.5q-12 -50 -24.5 -132.5t-28.5 -218.5l326 52v-177l-328 50l55 -416h-184l55 418l-328 -52v177l330 -52q-13 117 -27.5 202t-31.5 149z
" />
    <glyph glyph-name="bullet" unicode="&#x2022;" horiz-adv-x="1208" 
d="M307 762q0 123 87 209t210 86q122 0 208.5 -86.5t86.5 -208.5t-87.5 -209.5t-209.5 -87.5q-123 0 -209 87t-86 210z" />
    <glyph glyph-name="ellipsis" unicode="&#x2026;" horiz-adv-x="2048" 
d="M225 0v246h230v-246h-230zM907 0v246h230v-246h-230zM1591 0v246h230v-246h-230z" />
    <glyph glyph-name="perthousand" unicode="&#x2030;" horiz-adv-x="2355" 
d="M2177 346q0 124 -53.5 197t-143.5 73q-89 0 -142.5 -73t-53.5 -197q0 -123 54 -196.5t142 -73.5q89 0 143 73.5t54 196.5zM1980 719q148 0 239 -102.5t91 -270.5t-90.5 -270.5t-239.5 -102.5q-148 0 -238.5 102.5t-90.5 270.5t90.5 270.5t238.5 102.5zM1399 346
q0 124 -53.5 197t-143.5 73q-89 0 -142.5 -73t-53.5 -197q0 -123 54 -196.5t142 -73.5q89 0 143 73.5t54 196.5zM1202 719q148 0 239 -102.5t91 -270.5t-91 -270.5t-239 -102.5t-239 102.5t-91 270.5t91 270.5t239 102.5zM571 1081q0 125 -53 198t-143 73q-89 0 -143 -73.5
t-54 -197.5q0 -122 54 -196t143 -74t142.5 73.5t53.5 196.5zM375 1454q148 0 239 -102t91 -271q0 -168 -91 -270t-239 -102t-239 102t-91 270q0 169 91 271t239 102zM276 -29l898 1479h126l-897 -1479h-127z" />
    <glyph glyph-name="guilsinglleft" unicode="&#x2039;" horiz-adv-x="446" 
d="M246 524l125 -327h-105l-186 327l186 330h105z" />
    <glyph glyph-name="guilsinglright" unicode="&#x203a;" horiz-adv-x="446" 
d="M203 524l-123 330h102l189 -330l-189 -327h-102z" />
    <glyph glyph-name="franc" unicode="&#x20a3;" horiz-adv-x="1659" 
d="M162 0v1421h901v-141h-731v-461h575v-137h-575v-682h-170zM1169 0v1053h150v-236q48 135 123.5 200.5t183.5 65.5q17 0 51 -3q4 -1 6 -1v-157h-26q-152 0 -241 -106t-89 -288v-528h-158z" />
    <glyph glyph-name="trademark" unicode="&#x2122;" horiz-adv-x="1706" 
d="M948 1456l160 -405l149 405h132v-534h-82v458l-172 -458h-54l-180 458v-458h-82v534h129zM694 1456v-67h-172v-467h-94v467h-174v67h440z" />
    <glyph glyph-name="partialdiff" unicode="&#x2202;" horiz-adv-x="1044" 
d="M754 604q13 81 19.5 161.5t6.5 158.5q0 140 -39.5 216.5t-111.5 76.5q-53 0 -117 -63.5t-109 -63.5q-29 0 -51 21.5t-22 51.5q0 59 68 105.5t163 46.5q171 0 273 -152.5t102 -412.5q0 -335 -139 -555t-344 -220q-147 0 -241.5 106.5t-94.5 272.5q0 189 108.5 316
t266.5 127q99 0 162.5 -47t99.5 -146zM709 483q0 117 -45 180.5t-127 63.5q-113 0 -184.5 -127.5t-71.5 -333.5q0 -117 44 -178t128 -61q111 0 183.5 128t72.5 328z" />
    <glyph glyph-name="Delta" unicode="&#x2206;" horiz-adv-x="1356" 
d="M1122 158l-444 1138l-445 -1138h889zM780 1473l586 -1473h-1374l586 1473h202z" />
    <glyph glyph-name="product" unicode="&#x220f;" horiz-adv-x="1528" 
d="M160 1473h1208v-1866h-201v1693h-809v-1693h-198v1866z" />
    <glyph glyph-name="summation" unicode="&#x2211;" horiz-adv-x="1346" 
d="M51 1473h1239v-166h-989l690 -744l-719 -792h1035v-164h-1289v139l738 813l-705 758v156z" />
    <glyph glyph-name="minus" unicode="&#x2212;" horiz-adv-x="1706" 
d="M1452 670v-119h-1198v119h1198z" />
    <glyph glyph-name="fraction" unicode="&#x2215;" horiz-adv-x="342" 
d="M-342 -29l897 1479h127l-897 -1479h-127z" />
    <glyph glyph-name="periodcentered" unicode="&#x2219;" horiz-adv-x="612" 
d="M180 711q0 51 37.5 89t87.5 38q51 0 88 -38t37 -89t-36.5 -87t-88.5 -36q-51 0 -88 36t-37 87z" />
    <glyph glyph-name="radical" unicode="&#x221a;" horiz-adv-x="1288" 
d="M1288 1647v-82h-119l-594 -1606h-53l-323 893l-119 -43l-23 68l262 92l265 -729l522 1407h182z" />
    <glyph glyph-name="infinity" unicode="&#x221e;" horiz-adv-x="1706" 
d="M905 559q51 -95 119 -141.5t156 -46.5q102 0 168.5 71t66.5 181q0 108 -61 179.5t-152 71.5q-85 0 -153.5 -72.5t-143.5 -242.5zM803 666q-51 95 -119 142.5t-154 47.5q-105 0 -171 -71t-66 -183q0 -108 61 -179t152 -71q85 0 152 69t145 245zM840 727q67 138 146 204
t175 66q134 0 226 -108.5t92 -272.5q0 -171 -82 -277t-213 -106q-96 0 -169 60t-149 201q-71 -138 -148 -201.5t-173 -63.5q-134 0 -226 109t-92 272q0 172 82.5 277.5t214.5 105.5q97 0 172 -63t144 -203z" />
    <glyph glyph-name="integral" unicode="&#x222b;" horiz-adv-x="1020" 
d="M301 -268q103 0 116 664q3 141 5 216q12 503 102 719.5t281 216.5q76 0 122 -39t46 -104q0 -48 -31 -77.5t-82 -29.5q-53 0 -85 35t-32 92q0 8 -6 15.5t-14 7.5q-105 0 -119 -634q-3 -157 -6 -245q-10 -308 -31.5 -461t-62.5 -247q-49 -114 -123 -173t-168 -59
q-73 0 -119.5 38t-46.5 97q0 53 31.5 84t83.5 31q47 0 79.5 -29t32.5 -67q0 -24 7.5 -37.5t19.5 -13.5z" />
    <glyph glyph-name="approxequal" unicode="&#x2248;" horiz-adv-x="1706" 
d="M1530 453q-107 -75 -202 -110.5t-187 -35.5q-98 0 -288 69.5t-290 69.5q-82 0 -169.5 -35.5t-215.5 -123.5v131q106 73 202 109t185 36q111 0 301.5 -68.5t276.5 -68.5q85 0 173.5 35.5t213.5 122.5v-131zM1530 803q-104 -73 -200 -108.5t-187 -35.5q-100 0 -290 69
t-290 69q-83 0 -171.5 -36t-213.5 -122v131q106 73 202 109t185 36q111 0 300.5 -68.5t277.5 -68.5q87 0 175 35t212 121v-131z" />
    <glyph glyph-name="notequal" unicode="&#x2260;" horiz-adv-x="1706" 
d="M1298 1110l-196 -250h350v-115h-424l-211 -270h635v-115h-709l-251 -319l-89 70l197 249h-346v115h420l211 270h-631v115h704l252 320z" />
    <glyph glyph-name="lessequal" unicode="&#x2264;" horiz-adv-x="1706" 
d="M1444 150v-117h-1182v117h1182zM1444 1067l-977 -324l977 -323v-125l-1182 399v101l1182 397v-125z" />
    <glyph glyph-name="greaterequal" unicode="&#x2265;" horiz-adv-x="1706" 
d="M1444 150v-117h-1182v117h1182zM1444 795v-101l-1182 -399v125l979 323l-979 324v125z" />
    <glyph glyph-name="lozenge" unicode="&#x25ca;" horiz-adv-x="1012" 
d="M506 1409l-385 -817l385 -825l385 825zM506 1653l500 -1061l-500 -1069l-500 1069z" />
    <glyph glyph-name="apple" unicode="&#xf000;" horiz-adv-x="1618" 
d="M836 1216q-1 6 -1.5 14t-0.5 23q0 124 95 229.5t236 131.5q1 -10 1.5 -23t0.5 -39q0 -131 -103.5 -234.5t-203.5 -103.5h-8q-3 0 -7.5 1t-8.5 1zM1505 403q-114 -247 -205 -342.5t-204 -95.5q-50 0 -131.5 33t-122.5 33q-45 0 -131 -33t-127 -33q-64 0 -128.5 44
t-129.5 132q-102 140 -157.5 295.5t-55.5 300.5q0 219 125 356.5t323 137.5q68 0 155 -34t124 -34q34 0 121.5 35t152.5 35q110 0 198 -40t161 -124q-102 -65 -151.5 -145.5t-49.5 -182.5q0 -113 60 -200t173 -138z" />
    <glyph glyph-name="fi" unicode="&#xf001;" horiz-adv-x="999" 
d="M700 1266v155h152v-155h-152zM700 0v1053h152v-1053h-152zM193 0v938h-187v115h187v8q0 192 77.5 286.5t237.5 94.5q33 0 52 -1t36 -3v-129q-10 1 -21 1.5t-32 0.5q-105 0 -152 -52.5t-47 -168.5v-37h252v-115h-252v-938h-151z" />
    <glyph glyph-name="fl" unicode="&#xf002;" horiz-adv-x="999" 
d="M700 0v1421h152v-1421h-152zM193 0v938h-187v115h187v8q0 192 77.5 286.5t237.5 94.5q33 0 52 -1t36 -3v-129q-10 1 -21 1.5t-32 0.5q-105 0 -152 -52.5t-47 -168.5v-37h252v-115h-252v-938h-151z" />
    </font>
</defs>
</svg>
